<?xml version="1.0" encoding="utf-8" standalone="no"?>
<!DOCTYPE svg PUBLIC "-//W3C//DTD SVG 1.1//EN"
  "http://www.w3.org/Graphics/SVG/1.1/DTD/svg11.dtd">
<!-- Created with matplotlib (http://matplotlib.org/) -->
<svg height="345.6pt" version="1.1" viewBox="0 0 460.8 345.6" width="460.8pt" xmlns="http://www.w3.org/2000/svg" xmlns:xlink="http://www.w3.org/1999/xlink">
 <defs>
  <style type="text/css">
*{stroke-linecap:butt;stroke-linejoin:round;}
  </style>
 </defs>
 <g id="figure_1">
  <g id="patch_1">
   <path d="M 0 345.6 
L 460.8 345.6 
L 460.8 0 
L 0 0 
z
" style="fill:#ffffff;"/>
  </g>
  <g id="axes_1">
   <g id="patch_2">
    <path d="M 57.6 307.584 
L 414.72 307.584 
L 414.72 41.472 
L 57.6 41.472 
z
" style="fill:#ffffff;"/>
   </g>
   <g id="matplotlib.axis_1">
    <g id="xtick_1">
     <g id="line2d_1">
      <defs>
       <path d="M 0 0 
L 0 3.5 
" id="mbf20385072" style="stroke:#000000;stroke-width:0.8;"/>
      </defs>
      <g>
       <use style="stroke:#000000;stroke-width:0.8;" x="73.832727" xlink:href="#mbf20385072" y="307.584"/>
      </g>
     </g>
     <g id="text_1">
      <!-- 0 -->
      <defs>
       <path d="M 31.78125 66.40625 
Q 24.171875 66.40625 20.328125 58.90625 
Q 16.5 51.421875 16.5 36.375 
Q 16.5 21.390625 20.328125 13.890625 
Q 24.171875 6.390625 31.78125 6.390625 
Q 39.453125 6.390625 43.28125 13.890625 
Q 47.125 21.390625 47.125 36.375 
Q 47.125 51.421875 43.28125 58.90625 
Q 39.453125 66.40625 31.78125 66.40625 
z
M 31.78125 74.21875 
Q 44.046875 74.21875 50.515625 64.515625 
Q 56.984375 54.828125 56.984375 36.375 
Q 56.984375 17.96875 50.515625 8.265625 
Q 44.046875 -1.421875 31.78125 -1.421875 
Q 19.53125 -1.421875 13.0625 8.265625 
Q 6.59375 17.96875 6.59375 36.375 
Q 6.59375 54.828125 13.0625 64.515625 
Q 19.53125 74.21875 31.78125 74.21875 
z
" id="DejaVuSans-30"/>
      </defs>
      <g transform="translate(70.651477 322.182437)scale(0.1 -0.1)">
       <use xlink:href="#DejaVuSans-30"/>
      </g>
     </g>
    </g>
    <g id="xtick_2">
     <g id="line2d_2">
      <g>
       <use style="stroke:#000000;stroke-width:0.8;" x="114.414545" xlink:href="#mbf20385072" y="307.584"/>
      </g>
     </g>
     <g id="text_2">
      <!-- 50 -->
      <defs>
       <path d="M 10.796875 72.90625 
L 49.515625 72.90625 
L 49.515625 64.59375 
L 19.828125 64.59375 
L 19.828125 46.734375 
Q 21.96875 47.46875 24.109375 47.828125 
Q 26.265625 48.1875 28.421875 48.1875 
Q 40.625 48.1875 47.75 41.5 
Q 54.890625 34.8125 54.890625 23.390625 
Q 54.890625 11.625 47.5625 5.09375 
Q 40.234375 -1.421875 26.90625 -1.421875 
Q 22.3125 -1.421875 17.546875 -0.640625 
Q 12.796875 0.140625 7.71875 1.703125 
L 7.71875 11.625 
Q 12.109375 9.234375 16.796875 8.0625 
Q 21.484375 6.890625 26.703125 6.890625 
Q 35.15625 6.890625 40.078125 11.328125 
Q 45.015625 15.765625 45.015625 23.390625 
Q 45.015625 31 40.078125 35.4375 
Q 35.15625 39.890625 26.703125 39.890625 
Q 22.75 39.890625 18.8125 39.015625 
Q 14.890625 38.140625 10.796875 36.28125 
z
" id="DejaVuSans-35"/>
      </defs>
      <g transform="translate(108.052045 322.182437)scale(0.1 -0.1)">
       <use xlink:href="#DejaVuSans-35"/>
       <use x="63.623047" xlink:href="#DejaVuSans-30"/>
      </g>
     </g>
    </g>
    <g id="xtick_3">
     <g id="line2d_3">
      <g>
       <use style="stroke:#000000;stroke-width:0.8;" x="154.996364" xlink:href="#mbf20385072" y="307.584"/>
      </g>
     </g>
     <g id="text_3">
      <!-- 100 -->
      <defs>
       <path d="M 12.40625 8.296875 
L 28.515625 8.296875 
L 28.515625 63.921875 
L 10.984375 60.40625 
L 10.984375 69.390625 
L 28.421875 72.90625 
L 38.28125 72.90625 
L 38.28125 8.296875 
L 54.390625 8.296875 
L 54.390625 0 
L 12.40625 0 
z
" id="DejaVuSans-31"/>
      </defs>
      <g transform="translate(145.452614 322.182437)scale(0.1 -0.1)">
       <use xlink:href="#DejaVuSans-31"/>
       <use x="63.623047" xlink:href="#DejaVuSans-30"/>
       <use x="127.246094" xlink:href="#DejaVuSans-30"/>
      </g>
     </g>
    </g>
    <g id="xtick_4">
     <g id="line2d_4">
      <g>
       <use style="stroke:#000000;stroke-width:0.8;" x="195.578182" xlink:href="#mbf20385072" y="307.584"/>
      </g>
     </g>
     <g id="text_4">
      <!-- 150 -->
      <g transform="translate(186.034432 322.182437)scale(0.1 -0.1)">
       <use xlink:href="#DejaVuSans-31"/>
       <use x="63.623047" xlink:href="#DejaVuSans-35"/>
       <use x="127.246094" xlink:href="#DejaVuSans-30"/>
      </g>
     </g>
    </g>
    <g id="xtick_5">
     <g id="line2d_5">
      <g>
       <use style="stroke:#000000;stroke-width:0.8;" x="236.16" xlink:href="#mbf20385072" y="307.584"/>
      </g>
     </g>
     <g id="text_5">
      <!-- 200 -->
      <defs>
       <path d="M 19.1875 8.296875 
L 53.609375 8.296875 
L 53.609375 0 
L 7.328125 0 
L 7.328125 8.296875 
Q 12.9375 14.109375 22.625 23.890625 
Q 32.328125 33.6875 34.8125 36.53125 
Q 39.546875 41.84375 41.421875 45.53125 
Q 43.3125 49.21875 43.3125 52.78125 
Q 43.3125 58.59375 39.234375 62.25 
Q 35.15625 65.921875 28.609375 65.921875 
Q 23.96875 65.921875 18.8125 64.3125 
Q 13.671875 62.703125 7.8125 59.421875 
L 7.8125 69.390625 
Q 13.765625 71.78125 18.9375 73 
Q 24.125 74.21875 28.421875 74.21875 
Q 39.75 74.21875 46.484375 68.546875 
Q 53.21875 62.890625 53.21875 53.421875 
Q 53.21875 48.921875 51.53125 44.890625 
Q 49.859375 40.875 45.40625 35.40625 
Q 44.1875 33.984375 37.640625 27.21875 
Q 31.109375 20.453125 19.1875 8.296875 
z
" id="DejaVuSans-32"/>
      </defs>
      <g transform="translate(226.61625 322.182437)scale(0.1 -0.1)">
       <use xlink:href="#DejaVuSans-32"/>
       <use x="63.623047" xlink:href="#DejaVuSans-30"/>
       <use x="127.246094" xlink:href="#DejaVuSans-30"/>
      </g>
     </g>
    </g>
    <g id="xtick_6">
     <g id="line2d_6">
      <g>
       <use style="stroke:#000000;stroke-width:0.8;" x="276.741818" xlink:href="#mbf20385072" y="307.584"/>
      </g>
     </g>
     <g id="text_6">
      <!-- 250 -->
      <g transform="translate(267.198068 322.182437)scale(0.1 -0.1)">
       <use xlink:href="#DejaVuSans-32"/>
       <use x="63.623047" xlink:href="#DejaVuSans-35"/>
       <use x="127.246094" xlink:href="#DejaVuSans-30"/>
      </g>
     </g>
    </g>
    <g id="xtick_7">
     <g id="line2d_7">
      <g>
       <use style="stroke:#000000;stroke-width:0.8;" x="317.323636" xlink:href="#mbf20385072" y="307.584"/>
      </g>
     </g>
     <g id="text_7">
      <!-- 300 -->
      <defs>
       <path d="M 40.578125 39.3125 
Q 47.65625 37.796875 51.625 33 
Q 55.609375 28.21875 55.609375 21.1875 
Q 55.609375 10.40625 48.1875 4.484375 
Q 40.765625 -1.421875 27.09375 -1.421875 
Q 22.515625 -1.421875 17.65625 -0.515625 
Q 12.796875 0.390625 7.625 2.203125 
L 7.625 11.71875 
Q 11.71875 9.328125 16.59375 8.109375 
Q 21.484375 6.890625 26.8125 6.890625 
Q 36.078125 6.890625 40.9375 10.546875 
Q 45.796875 14.203125 45.796875 21.1875 
Q 45.796875 27.640625 41.28125 31.265625 
Q 36.765625 34.90625 28.71875 34.90625 
L 20.21875 34.90625 
L 20.21875 43.015625 
L 29.109375 43.015625 
Q 36.375 43.015625 40.234375 45.921875 
Q 44.09375 48.828125 44.09375 54.296875 
Q 44.09375 59.90625 40.109375 62.90625 
Q 36.140625 65.921875 28.71875 65.921875 
Q 24.65625 65.921875 20.015625 65.03125 
Q 15.375 64.15625 9.8125 62.3125 
L 9.8125 71.09375 
Q 15.4375 72.65625 20.34375 73.4375 
Q 25.25 74.21875 29.59375 74.21875 
Q 40.828125 74.21875 47.359375 69.109375 
Q 53.90625 64.015625 53.90625 55.328125 
Q 53.90625 49.265625 50.4375 45.09375 
Q 46.96875 40.921875 40.578125 39.3125 
z
" id="DejaVuSans-33"/>
      </defs>
      <g transform="translate(307.779886 322.182437)scale(0.1 -0.1)">
       <use xlink:href="#DejaVuSans-33"/>
       <use x="63.623047" xlink:href="#DejaVuSans-30"/>
       <use x="127.246094" xlink:href="#DejaVuSans-30"/>
      </g>
     </g>
    </g>
    <g id="xtick_8">
     <g id="line2d_8">
      <g>
       <use style="stroke:#000000;stroke-width:0.8;" x="357.905455" xlink:href="#mbf20385072" y="307.584"/>
      </g>
     </g>
     <g id="text_8">
      <!-- 350 -->
      <g transform="translate(348.361705 322.182437)scale(0.1 -0.1)">
       <use xlink:href="#DejaVuSans-33"/>
       <use x="63.623047" xlink:href="#DejaVuSans-35"/>
       <use x="127.246094" xlink:href="#DejaVuSans-30"/>
      </g>
     </g>
    </g>
    <g id="xtick_9">
     <g id="line2d_9">
      <g>
       <use style="stroke:#000000;stroke-width:0.8;" x="398.487273" xlink:href="#mbf20385072" y="307.584"/>
      </g>
     </g>
     <g id="text_9">
      <!-- 400 -->
      <defs>
       <path d="M 37.796875 64.3125 
L 12.890625 25.390625 
L 37.796875 25.390625 
z
M 35.203125 72.90625 
L 47.609375 72.90625 
L 47.609375 25.390625 
L 58.015625 25.390625 
L 58.015625 17.1875 
L 47.609375 17.1875 
L 47.609375 0 
L 37.796875 0 
L 37.796875 17.1875 
L 4.890625 17.1875 
L 4.890625 26.703125 
z
" id="DejaVuSans-34"/>
      </defs>
      <g transform="translate(388.943523 322.182437)scale(0.1 -0.1)">
       <use xlink:href="#DejaVuSans-34"/>
       <use x="63.623047" xlink:href="#DejaVuSans-30"/>
       <use x="127.246094" xlink:href="#DejaVuSans-30"/>
      </g>
     </g>
    </g>
    <g id="text_10">
     <!-- Number of Steps Taken -->
     <defs>
      <path d="M 9.8125 72.90625 
L 23.09375 72.90625 
L 55.421875 11.921875 
L 55.421875 72.90625 
L 64.984375 72.90625 
L 64.984375 0 
L 51.703125 0 
L 19.390625 60.984375 
L 19.390625 0 
L 9.8125 0 
z
" id="DejaVuSans-4e"/>
      <path d="M 8.5 21.578125 
L 8.5 54.6875 
L 17.484375 54.6875 
L 17.484375 21.921875 
Q 17.484375 14.15625 20.5 10.265625 
Q 23.53125 6.390625 29.59375 6.390625 
Q 36.859375 6.390625 41.078125 11.03125 
Q 45.3125 15.671875 45.3125 23.6875 
L 45.3125 54.6875 
L 54.296875 54.6875 
L 54.296875 0 
L 45.3125 0 
L 45.3125 8.40625 
Q 42.046875 3.421875 37.71875 1 
Q 33.40625 -1.421875 27.6875 -1.421875 
Q 18.265625 -1.421875 13.375 4.4375 
Q 8.5 10.296875 8.5 21.578125 
z
M 31.109375 56 
z
" id="DejaVuSans-75"/>
      <path d="M 52 44.1875 
Q 55.375 50.25 60.0625 53.125 
Q 64.75 56 71.09375 56 
Q 79.640625 56 84.28125 50.015625 
Q 88.921875 44.046875 88.921875 33.015625 
L 88.921875 0 
L 79.890625 0 
L 79.890625 32.71875 
Q 79.890625 40.578125 77.09375 44.375 
Q 74.3125 48.1875 68.609375 48.1875 
Q 61.625 48.1875 57.5625 43.546875 
Q 53.515625 38.921875 53.515625 30.90625 
L 53.515625 0 
L 44.484375 0 
L 44.484375 32.71875 
Q 44.484375 40.625 41.703125 44.40625 
Q 38.921875 48.1875 33.109375 48.1875 
Q 26.21875 48.1875 22.15625 43.53125 
Q 18.109375 38.875 18.109375 30.90625 
L 18.109375 0 
L 9.078125 0 
L 9.078125 54.6875 
L 18.109375 54.6875 
L 18.109375 46.1875 
Q 21.1875 51.21875 25.484375 53.609375 
Q 29.78125 56 35.6875 56 
Q 41.65625 56 45.828125 52.96875 
Q 50 49.953125 52 44.1875 
z
" id="DejaVuSans-6d"/>
      <path d="M 48.6875 27.296875 
Q 48.6875 37.203125 44.609375 42.84375 
Q 40.53125 48.484375 33.40625 48.484375 
Q 26.265625 48.484375 22.1875 42.84375 
Q 18.109375 37.203125 18.109375 27.296875 
Q 18.109375 17.390625 22.1875 11.75 
Q 26.265625 6.109375 33.40625 6.109375 
Q 40.53125 6.109375 44.609375 11.75 
Q 48.6875 17.390625 48.6875 27.296875 
z
M 18.109375 46.390625 
Q 20.953125 51.265625 25.265625 53.625 
Q 29.59375 56 35.59375 56 
Q 45.5625 56 51.78125 48.09375 
Q 58.015625 40.1875 58.015625 27.296875 
Q 58.015625 14.40625 51.78125 6.484375 
Q 45.5625 -1.421875 35.59375 -1.421875 
Q 29.59375 -1.421875 25.265625 0.953125 
Q 20.953125 3.328125 18.109375 8.203125 
L 18.109375 0 
L 9.078125 0 
L 9.078125 75.984375 
L 18.109375 75.984375 
z
" id="DejaVuSans-62"/>
      <path d="M 56.203125 29.59375 
L 56.203125 25.203125 
L 14.890625 25.203125 
Q 15.484375 15.921875 20.484375 11.0625 
Q 25.484375 6.203125 34.421875 6.203125 
Q 39.59375 6.203125 44.453125 7.46875 
Q 49.3125 8.734375 54.109375 11.28125 
L 54.109375 2.78125 
Q 49.265625 0.734375 44.1875 -0.34375 
Q 39.109375 -1.421875 33.890625 -1.421875 
Q 20.796875 -1.421875 13.15625 6.1875 
Q 5.515625 13.8125 5.515625 26.8125 
Q 5.515625 40.234375 12.765625 48.109375 
Q 20.015625 56 32.328125 56 
Q 43.359375 56 49.78125 48.890625 
Q 56.203125 41.796875 56.203125 29.59375 
z
M 47.21875 32.234375 
Q 47.125 39.59375 43.09375 43.984375 
Q 39.0625 48.390625 32.421875 48.390625 
Q 24.90625 48.390625 20.390625 44.140625 
Q 15.875 39.890625 15.1875 32.171875 
z
" id="DejaVuSans-65"/>
      <path d="M 41.109375 46.296875 
Q 39.59375 47.171875 37.8125 47.578125 
Q 36.03125 48 33.890625 48 
Q 26.265625 48 22.1875 43.046875 
Q 18.109375 38.09375 18.109375 28.8125 
L 18.109375 0 
L 9.078125 0 
L 9.078125 54.6875 
L 18.109375 54.6875 
L 18.109375 46.1875 
Q 20.953125 51.171875 25.484375 53.578125 
Q 30.03125 56 36.53125 56 
Q 37.453125 56 38.578125 55.875 
Q 39.703125 55.765625 41.0625 55.515625 
z
" id="DejaVuSans-72"/>
      <path id="DejaVuSans-20"/>
      <path d="M 30.609375 48.390625 
Q 23.390625 48.390625 19.1875 42.75 
Q 14.984375 37.109375 14.984375 27.296875 
Q 14.984375 17.484375 19.15625 11.84375 
Q 23.34375 6.203125 30.609375 6.203125 
Q 37.796875 6.203125 41.984375 11.859375 
Q 46.1875 17.53125 46.1875 27.296875 
Q 46.1875 37.015625 41.984375 42.703125 
Q 37.796875 48.390625 30.609375 48.390625 
z
M 30.609375 56 
Q 42.328125 56 49.015625 48.375 
Q 55.71875 40.765625 55.71875 27.296875 
Q 55.71875 13.875 49.015625 6.21875 
Q 42.328125 -1.421875 30.609375 -1.421875 
Q 18.84375 -1.421875 12.171875 6.21875 
Q 5.515625 13.875 5.515625 27.296875 
Q 5.515625 40.765625 12.171875 48.375 
Q 18.84375 56 30.609375 56 
z
" id="DejaVuSans-6f"/>
      <path d="M 37.109375 75.984375 
L 37.109375 68.5 
L 28.515625 68.5 
Q 23.6875 68.5 21.796875 66.546875 
Q 19.921875 64.59375 19.921875 59.515625 
L 19.921875 54.6875 
L 34.71875 54.6875 
L 34.71875 47.703125 
L 19.921875 47.703125 
L 19.921875 0 
L 10.890625 0 
L 10.890625 47.703125 
L 2.296875 47.703125 
L 2.296875 54.6875 
L 10.890625 54.6875 
L 10.890625 58.5 
Q 10.890625 67.625 15.140625 71.796875 
Q 19.390625 75.984375 28.609375 75.984375 
z
" id="DejaVuSans-66"/>
      <path d="M 53.515625 70.515625 
L 53.515625 60.890625 
Q 47.90625 63.578125 42.921875 64.890625 
Q 37.9375 66.21875 33.296875 66.21875 
Q 25.25 66.21875 20.875 63.09375 
Q 16.5 59.96875 16.5 54.203125 
Q 16.5 49.359375 19.40625 46.890625 
Q 22.3125 44.4375 30.421875 42.921875 
L 36.375 41.703125 
Q 47.40625 39.59375 52.65625 34.296875 
Q 57.90625 29 57.90625 20.125 
Q 57.90625 9.515625 50.796875 4.046875 
Q 43.703125 -1.421875 29.984375 -1.421875 
Q 24.8125 -1.421875 18.96875 -0.25 
Q 13.140625 0.921875 6.890625 3.21875 
L 6.890625 13.375 
Q 12.890625 10.015625 18.65625 8.296875 
Q 24.421875 6.59375 29.984375 6.59375 
Q 38.421875 6.59375 43.015625 9.90625 
Q 47.609375 13.234375 47.609375 19.390625 
Q 47.609375 24.75 44.3125 27.78125 
Q 41.015625 30.8125 33.5 32.328125 
L 27.484375 33.5 
Q 16.453125 35.6875 11.515625 40.375 
Q 6.59375 45.0625 6.59375 53.421875 
Q 6.59375 63.09375 13.40625 68.65625 
Q 20.21875 74.21875 32.171875 74.21875 
Q 37.3125 74.21875 42.625 73.28125 
Q 47.953125 72.359375 53.515625 70.515625 
z
" id="DejaVuSans-53"/>
      <path d="M 18.3125 70.21875 
L 18.3125 54.6875 
L 36.8125 54.6875 
L 36.8125 47.703125 
L 18.3125 47.703125 
L 18.3125 18.015625 
Q 18.3125 11.328125 20.140625 9.421875 
Q 21.96875 7.515625 27.59375 7.515625 
L 36.8125 7.515625 
L 36.8125 0 
L 27.59375 0 
Q 17.1875 0 13.234375 3.875 
Q 9.28125 7.765625 9.28125 18.015625 
L 9.28125 47.703125 
L 2.6875 47.703125 
L 2.6875 54.6875 
L 9.28125 54.6875 
L 9.28125 70.21875 
z
" id="DejaVuSans-74"/>
      <path d="M 18.109375 8.203125 
L 18.109375 -20.796875 
L 9.078125 -20.796875 
L 9.078125 54.6875 
L 18.109375 54.6875 
L 18.109375 46.390625 
Q 20.953125 51.265625 25.265625 53.625 
Q 29.59375 56 35.59375 56 
Q 45.5625 56 51.78125 48.09375 
Q 58.015625 40.1875 58.015625 27.296875 
Q 58.015625 14.40625 51.78125 6.484375 
Q 45.5625 -1.421875 35.59375 -1.421875 
Q 29.59375 -1.421875 25.265625 0.953125 
Q 20.953125 3.328125 18.109375 8.203125 
z
M 48.6875 27.296875 
Q 48.6875 37.203125 44.609375 42.84375 
Q 40.53125 48.484375 33.40625 48.484375 
Q 26.265625 48.484375 22.1875 42.84375 
Q 18.109375 37.203125 18.109375 27.296875 
Q 18.109375 17.390625 22.1875 11.75 
Q 26.265625 6.109375 33.40625 6.109375 
Q 40.53125 6.109375 44.609375 11.75 
Q 48.6875 17.390625 48.6875 27.296875 
z
" id="DejaVuSans-70"/>
      <path d="M 44.28125 53.078125 
L 44.28125 44.578125 
Q 40.484375 46.53125 36.375 47.5 
Q 32.28125 48.484375 27.875 48.484375 
Q 21.1875 48.484375 17.84375 46.4375 
Q 14.5 44.390625 14.5 40.28125 
Q 14.5 37.15625 16.890625 35.375 
Q 19.28125 33.59375 26.515625 31.984375 
L 29.59375 31.296875 
Q 39.15625 29.25 43.1875 25.515625 
Q 47.21875 21.78125 47.21875 15.09375 
Q 47.21875 7.46875 41.1875 3.015625 
Q 35.15625 -1.421875 24.609375 -1.421875 
Q 20.21875 -1.421875 15.453125 -0.5625 
Q 10.6875 0.296875 5.421875 2 
L 5.421875 11.28125 
Q 10.40625 8.6875 15.234375 7.390625 
Q 20.0625 6.109375 24.8125 6.109375 
Q 31.15625 6.109375 34.5625 8.28125 
Q 37.984375 10.453125 37.984375 14.40625 
Q 37.984375 18.0625 35.515625 20.015625 
Q 33.0625 21.96875 24.703125 23.78125 
L 21.578125 24.515625 
Q 13.234375 26.265625 9.515625 29.90625 
Q 5.8125 33.546875 5.8125 39.890625 
Q 5.8125 47.609375 11.28125 51.796875 
Q 16.75 56 26.8125 56 
Q 31.78125 56 36.171875 55.265625 
Q 40.578125 54.546875 44.28125 53.078125 
z
" id="DejaVuSans-73"/>
      <path d="M -0.296875 72.90625 
L 61.375 72.90625 
L 61.375 64.59375 
L 35.5 64.59375 
L 35.5 0 
L 25.59375 0 
L 25.59375 64.59375 
L -0.296875 64.59375 
z
" id="DejaVuSans-54"/>
      <path d="M 34.28125 27.484375 
Q 23.390625 27.484375 19.1875 25 
Q 14.984375 22.515625 14.984375 16.5 
Q 14.984375 11.71875 18.140625 8.90625 
Q 21.296875 6.109375 26.703125 6.109375 
Q 34.1875 6.109375 38.703125 11.40625 
Q 43.21875 16.703125 43.21875 25.484375 
L 43.21875 27.484375 
z
M 52.203125 31.203125 
L 52.203125 0 
L 43.21875 0 
L 43.21875 8.296875 
Q 40.140625 3.328125 35.546875 0.953125 
Q 30.953125 -1.421875 24.3125 -1.421875 
Q 15.921875 -1.421875 10.953125 3.296875 
Q 6 8.015625 6 15.921875 
Q 6 25.140625 12.171875 29.828125 
Q 18.359375 34.515625 30.609375 34.515625 
L 43.21875 34.515625 
L 43.21875 35.40625 
Q 43.21875 41.609375 39.140625 45 
Q 35.0625 48.390625 27.6875 48.390625 
Q 23 48.390625 18.546875 47.265625 
Q 14.109375 46.140625 10.015625 43.890625 
L 10.015625 52.203125 
Q 14.9375 54.109375 19.578125 55.046875 
Q 24.21875 56 28.609375 56 
Q 40.484375 56 46.34375 49.84375 
Q 52.203125 43.703125 52.203125 31.203125 
z
" id="DejaVuSans-61"/>
      <path d="M 9.078125 75.984375 
L 18.109375 75.984375 
L 18.109375 31.109375 
L 44.921875 54.6875 
L 56.390625 54.6875 
L 27.390625 29.109375 
L 57.625 0 
L 45.90625 0 
L 18.109375 26.703125 
L 18.109375 0 
L 9.078125 0 
z
" id="DejaVuSans-6b"/>
      <path d="M 54.890625 33.015625 
L 54.890625 0 
L 45.90625 0 
L 45.90625 32.71875 
Q 45.90625 40.484375 42.875 44.328125 
Q 39.84375 48.1875 33.796875 48.1875 
Q 26.515625 48.1875 22.3125 43.546875 
Q 18.109375 38.921875 18.109375 30.90625 
L 18.109375 0 
L 9.078125 0 
L 9.078125 54.6875 
L 18.109375 54.6875 
L 18.109375 46.1875 
Q 21.34375 51.125 25.703125 53.5625 
Q 30.078125 56 35.796875 56 
Q 45.21875 56 50.046875 50.171875 
Q 54.890625 44.34375 54.890625 33.015625 
z
" id="DejaVuSans-6e"/>
     </defs>
     <g transform="translate(177.25375 335.860562)scale(0.1 -0.1)">
      <use xlink:href="#DejaVuSans-4e"/>
      <use x="74.804688" xlink:href="#DejaVuSans-75"/>
      <use x="138.183594" xlink:href="#DejaVuSans-6d"/>
      <use x="235.595703" xlink:href="#DejaVuSans-62"/>
      <use x="299.072266" xlink:href="#DejaVuSans-65"/>
      <use x="360.595703" xlink:href="#DejaVuSans-72"/>
      <use x="401.708984" xlink:href="#DejaVuSans-20"/>
      <use x="433.496094" xlink:href="#DejaVuSans-6f"/>
      <use x="494.677734" xlink:href="#DejaVuSans-66"/>
      <use x="529.882812" xlink:href="#DejaVuSans-20"/>
      <use x="561.669922" xlink:href="#DejaVuSans-53"/>
      <use x="625.146484" xlink:href="#DejaVuSans-74"/>
      <use x="664.355469" xlink:href="#DejaVuSans-65"/>
      <use x="725.878906" xlink:href="#DejaVuSans-70"/>
      <use x="789.355469" xlink:href="#DejaVuSans-73"/>
      <use x="841.455078" xlink:href="#DejaVuSans-20"/>
      <use x="873.242188" xlink:href="#DejaVuSans-54"/>
      <use x="934.076172" xlink:href="#DejaVuSans-61"/>
      <use x="995.355469" xlink:href="#DejaVuSans-6b"/>
      <use x="1053.21875" xlink:href="#DejaVuSans-65"/>
      <use x="1114.742188" xlink:href="#DejaVuSans-6e"/>
     </g>
    </g>
   </g>
   <g id="matplotlib.axis_2">
    <g id="ytick_1">
     <g id="line2d_10">
      <defs>
       <path d="M 0 0 
L -3.5 0 
" id="m2c6a9aec86" style="stroke:#000000;stroke-width:0.8;"/>
      </defs>
      <g>
       <use style="stroke:#000000;stroke-width:0.8;" x="57.6" xlink:href="#m2c6a9aec86" y="295.488"/>
      </g>
     </g>
     <g id="text_11">
      <!-- 0 -->
      <g transform="translate(44.2375 299.287219)scale(0.1 -0.1)">
       <use xlink:href="#DejaVuSans-30"/>
      </g>
     </g>
    </g>
    <g id="ytick_2">
     <g id="line2d_11">
      <g>
       <use style="stroke:#000000;stroke-width:0.8;" x="57.6" xlink:href="#m2c6a9aec86" y="261.939732"/>
      </g>
     </g>
     <g id="text_12">
      <!-- 1 -->
      <g transform="translate(44.2375 265.738951)scale(0.1 -0.1)">
       <use xlink:href="#DejaVuSans-31"/>
      </g>
     </g>
    </g>
    <g id="ytick_3">
     <g id="line2d_12">
      <g>
       <use style="stroke:#000000;stroke-width:0.8;" x="57.6" xlink:href="#m2c6a9aec86" y="228.391464"/>
      </g>
     </g>
     <g id="text_13">
      <!-- 2 -->
      <g transform="translate(44.2375 232.190683)scale(0.1 -0.1)">
       <use xlink:href="#DejaVuSans-32"/>
      </g>
     </g>
    </g>
    <g id="ytick_4">
     <g id="line2d_13">
      <g>
       <use style="stroke:#000000;stroke-width:0.8;" x="57.6" xlink:href="#m2c6a9aec86" y="194.843196"/>
      </g>
     </g>
     <g id="text_14">
      <!-- 3 -->
      <g transform="translate(44.2375 198.642415)scale(0.1 -0.1)">
       <use xlink:href="#DejaVuSans-33"/>
      </g>
     </g>
    </g>
    <g id="ytick_5">
     <g id="line2d_14">
      <g>
       <use style="stroke:#000000;stroke-width:0.8;" x="57.6" xlink:href="#m2c6a9aec86" y="161.294929"/>
      </g>
     </g>
     <g id="text_15">
      <!-- 4 -->
      <g transform="translate(44.2375 165.094147)scale(0.1 -0.1)">
       <use xlink:href="#DejaVuSans-34"/>
      </g>
     </g>
    </g>
    <g id="ytick_6">
     <g id="line2d_15">
      <g>
       <use style="stroke:#000000;stroke-width:0.8;" x="57.6" xlink:href="#m2c6a9aec86" y="127.746661"/>
      </g>
     </g>
     <g id="text_16">
      <!-- 5 -->
      <g transform="translate(44.2375 131.545879)scale(0.1 -0.1)">
       <use xlink:href="#DejaVuSans-35"/>
      </g>
     </g>
    </g>
    <g id="ytick_7">
     <g id="line2d_16">
      <g>
       <use style="stroke:#000000;stroke-width:0.8;" x="57.6" xlink:href="#m2c6a9aec86" y="94.198393"/>
      </g>
     </g>
     <g id="text_17">
      <!-- 6 -->
      <defs>
       <path d="M 33.015625 40.375 
Q 26.375 40.375 22.484375 35.828125 
Q 18.609375 31.296875 18.609375 23.390625 
Q 18.609375 15.53125 22.484375 10.953125 
Q 26.375 6.390625 33.015625 6.390625 
Q 39.65625 6.390625 43.53125 10.953125 
Q 47.40625 15.53125 47.40625 23.390625 
Q 47.40625 31.296875 43.53125 35.828125 
Q 39.65625 40.375 33.015625 40.375 
z
M 52.59375 71.296875 
L 52.59375 62.3125 
Q 48.875 64.0625 45.09375 64.984375 
Q 41.3125 65.921875 37.59375 65.921875 
Q 27.828125 65.921875 22.671875 59.328125 
Q 17.53125 52.734375 16.796875 39.40625 
Q 19.671875 43.65625 24.015625 45.921875 
Q 28.375 48.1875 33.59375 48.1875 
Q 44.578125 48.1875 50.953125 41.515625 
Q 57.328125 34.859375 57.328125 23.390625 
Q 57.328125 12.15625 50.6875 5.359375 
Q 44.046875 -1.421875 33.015625 -1.421875 
Q 20.359375 -1.421875 13.671875 8.265625 
Q 6.984375 17.96875 6.984375 36.375 
Q 6.984375 53.65625 15.1875 63.9375 
Q 23.390625 74.21875 37.203125 74.21875 
Q 40.921875 74.21875 44.703125 73.484375 
Q 48.484375 72.75 52.59375 71.296875 
z
" id="DejaVuSans-36"/>
      </defs>
      <g transform="translate(44.2375 97.997612)scale(0.1 -0.1)">
       <use xlink:href="#DejaVuSans-36"/>
      </g>
     </g>
    </g>
    <g id="ytick_8">
     <g id="line2d_17">
      <g>
       <use style="stroke:#000000;stroke-width:0.8;" x="57.6" xlink:href="#m2c6a9aec86" y="60.650125"/>
      </g>
     </g>
     <g id="text_18">
      <!-- 7 -->
      <defs>
       <path d="M 8.203125 72.90625 
L 55.078125 72.90625 
L 55.078125 68.703125 
L 28.609375 0 
L 18.3125 0 
L 43.21875 64.59375 
L 8.203125 64.59375 
z
" id="DejaVuSans-37"/>
      </defs>
      <g transform="translate(44.2375 64.449344)scale(0.1 -0.1)">
       <use xlink:href="#DejaVuSans-37"/>
      </g>
     </g>
    </g>
    <g id="text_19">
     <!-- Distance from Starting Origin -->
     <defs>
      <path d="M 19.671875 64.796875 
L 19.671875 8.109375 
L 31.59375 8.109375 
Q 46.6875 8.109375 53.6875 14.9375 
Q 60.6875 21.78125 60.6875 36.53125 
Q 60.6875 51.171875 53.6875 57.984375 
Q 46.6875 64.796875 31.59375 64.796875 
z
M 9.8125 72.90625 
L 30.078125 72.90625 
Q 51.265625 72.90625 61.171875 64.09375 
Q 71.09375 55.28125 71.09375 36.53125 
Q 71.09375 17.671875 61.125 8.828125 
Q 51.171875 0 30.078125 0 
L 9.8125 0 
z
" id="DejaVuSans-44"/>
      <path d="M 9.421875 54.6875 
L 18.40625 54.6875 
L 18.40625 0 
L 9.421875 0 
z
M 9.421875 75.984375 
L 18.40625 75.984375 
L 18.40625 64.59375 
L 9.421875 64.59375 
z
" id="DejaVuSans-69"/>
      <path d="M 48.78125 52.59375 
L 48.78125 44.1875 
Q 44.96875 46.296875 41.140625 47.34375 
Q 37.3125 48.390625 33.40625 48.390625 
Q 24.65625 48.390625 19.8125 42.84375 
Q 14.984375 37.3125 14.984375 27.296875 
Q 14.984375 17.28125 19.8125 11.734375 
Q 24.65625 6.203125 33.40625 6.203125 
Q 37.3125 6.203125 41.140625 7.25 
Q 44.96875 8.296875 48.78125 10.40625 
L 48.78125 2.09375 
Q 45.015625 0.34375 40.984375 -0.53125 
Q 36.96875 -1.421875 32.421875 -1.421875 
Q 20.0625 -1.421875 12.78125 6.34375 
Q 5.515625 14.109375 5.515625 27.296875 
Q 5.515625 40.671875 12.859375 48.328125 
Q 20.21875 56 33.015625 56 
Q 37.15625 56 41.109375 55.140625 
Q 45.0625 54.296875 48.78125 52.59375 
z
" id="DejaVuSans-63"/>
      <path d="M 45.40625 27.984375 
Q 45.40625 37.75 41.375 43.109375 
Q 37.359375 48.484375 30.078125 48.484375 
Q 22.859375 48.484375 18.828125 43.109375 
Q 14.796875 37.75 14.796875 27.984375 
Q 14.796875 18.265625 18.828125 12.890625 
Q 22.859375 7.515625 30.078125 7.515625 
Q 37.359375 7.515625 41.375 12.890625 
Q 45.40625 18.265625 45.40625 27.984375 
z
M 54.390625 6.78125 
Q 54.390625 -7.171875 48.1875 -13.984375 
Q 42 -20.796875 29.203125 -20.796875 
Q 24.46875 -20.796875 20.265625 -20.09375 
Q 16.0625 -19.390625 12.109375 -17.921875 
L 12.109375 -9.1875 
Q 16.0625 -11.328125 19.921875 -12.34375 
Q 23.78125 -13.375 27.78125 -13.375 
Q 36.625 -13.375 41.015625 -8.765625 
Q 45.40625 -4.15625 45.40625 5.171875 
L 45.40625 9.625 
Q 42.625 4.78125 38.28125 2.390625 
Q 33.9375 0 27.875 0 
Q 17.828125 0 11.671875 7.65625 
Q 5.515625 15.328125 5.515625 27.984375 
Q 5.515625 40.671875 11.671875 48.328125 
Q 17.828125 56 27.875 56 
Q 33.9375 56 38.28125 53.609375 
Q 42.625 51.21875 45.40625 46.390625 
L 45.40625 54.6875 
L 54.390625 54.6875 
z
" id="DejaVuSans-67"/>
      <path d="M 39.40625 66.21875 
Q 28.65625 66.21875 22.328125 58.203125 
Q 16.015625 50.203125 16.015625 36.375 
Q 16.015625 22.609375 22.328125 14.59375 
Q 28.65625 6.59375 39.40625 6.59375 
Q 50.140625 6.59375 56.421875 14.59375 
Q 62.703125 22.609375 62.703125 36.375 
Q 62.703125 50.203125 56.421875 58.203125 
Q 50.140625 66.21875 39.40625 66.21875 
z
M 39.40625 74.21875 
Q 54.734375 74.21875 63.90625 63.9375 
Q 73.09375 53.65625 73.09375 36.375 
Q 73.09375 19.140625 63.90625 8.859375 
Q 54.734375 -1.421875 39.40625 -1.421875 
Q 24.03125 -1.421875 14.8125 8.828125 
Q 5.609375 19.09375 5.609375 36.375 
Q 5.609375 53.65625 14.8125 63.9375 
Q 24.03125 74.21875 39.40625 74.21875 
z
" id="DejaVuSans-4f"/>
     </defs>
     <g transform="translate(38.157812 247.960031)rotate(-90)scale(0.1 -0.1)">
      <use xlink:href="#DejaVuSans-44"/>
      <use x="77.001953" xlink:href="#DejaVuSans-69"/>
      <use x="104.785156" xlink:href="#DejaVuSans-73"/>
      <use x="156.884766" xlink:href="#DejaVuSans-74"/>
      <use x="196.09375" xlink:href="#DejaVuSans-61"/>
      <use x="257.373047" xlink:href="#DejaVuSans-6e"/>
      <use x="320.751953" xlink:href="#DejaVuSans-63"/>
      <use x="375.732422" xlink:href="#DejaVuSans-65"/>
      <use x="437.255859" xlink:href="#DejaVuSans-20"/>
      <use x="469.042969" xlink:href="#DejaVuSans-66"/>
      <use x="504.248047" xlink:href="#DejaVuSans-72"/>
      <use x="545.330078" xlink:href="#DejaVuSans-6f"/>
      <use x="606.511719" xlink:href="#DejaVuSans-6d"/>
      <use x="703.923828" xlink:href="#DejaVuSans-20"/>
      <use x="735.710938" xlink:href="#DejaVuSans-53"/>
      <use x="799.1875" xlink:href="#DejaVuSans-74"/>
      <use x="838.396484" xlink:href="#DejaVuSans-61"/>
      <use x="899.675781" xlink:href="#DejaVuSans-72"/>
      <use x="940.789062" xlink:href="#DejaVuSans-74"/>
      <use x="979.998047" xlink:href="#DejaVuSans-69"/>
      <use x="1007.78125" xlink:href="#DejaVuSans-6e"/>
      <use x="1071.160156" xlink:href="#DejaVuSans-67"/>
      <use x="1134.636719" xlink:href="#DejaVuSans-20"/>
      <use x="1166.423828" xlink:href="#DejaVuSans-4f"/>
      <use x="1245.134766" xlink:href="#DejaVuSans-72"/>
      <use x="1286.248047" xlink:href="#DejaVuSans-69"/>
      <use x="1314.03125" xlink:href="#DejaVuSans-67"/>
      <use x="1377.507812" xlink:href="#DejaVuSans-69"/>
      <use x="1405.291016" xlink:href="#DejaVuSans-6e"/>
     </g>
    </g>
   </g>
   <g id="line2d_18">
    <path clip-path="url(#p9f55975b81)" d="M 73.832727 295.488 
L 74.644364 261.939732 
L 75.456 248.043585 
L 76.267636 261.939732 
L 77.079273 295.488 
L 77.890909 261.939732 
L 78.702545 248.043585 
L 79.514182 261.939732 
L 80.325818 295.488 
L 81.137455 261.939732 
L 81.949091 248.043585 
L 82.760727 220.471793 
L 83.572364 228.391464 
L 84.384 261.939732 
L 85.195636 248.043585 
L 86.007273 261.939732 
L 86.818909 295.488 
L 87.630545 261.939732 
L 88.442182 248.043585 
L 89.253818 220.471793 
L 90.065455 200.599169 
L 90.877091 174.528 
L 91.688727 189.399062 
L 92.500364 220.471793 
L 93.312 200.599169 
L 94.123636 220.471793 
L 94.935273 189.399062 
L 95.746909 174.528 
L 96.558545 200.599169 
L 97.370182 220.471793 
L 98.181818 248.043585 
L 98.993455 220.471793 
L 99.805091 200.599169 
L 100.616727 220.471793 
L 101.428364 189.399062 
L 102.24 194.843196 
L 103.051636 161.294929 
L 103.863273 157.164948 
L 104.674909 189.399062 
L 105.486545 194.843196 
L 106.298182 228.391464 
L 107.109818 220.471793 
L 107.921455 189.399062 
L 108.733091 194.843196 
L 109.544727 228.391464 
L 110.356364 220.471793 
L 111.168 189.399062 
L 111.979636 194.843196 
L 112.791273 228.391464 
L 113.602909 220.471793 
L 114.414545 248.043585 
L 115.226182 261.939732 
L 116.037818 295.488 
L 116.849455 261.939732 
L 117.661091 248.043585 
L 118.472727 220.471793 
L 119.284364 228.391464 
L 120.096 261.939732 
L 120.907636 248.043585 
L 121.719273 261.939732 
L 122.530909 295.488 
L 123.342545 261.939732 
L 124.154182 248.043585 
L 124.965818 220.471793 
L 125.777455 200.599169 
L 126.589091 174.528 
L 127.400727 189.399062 
L 128.212364 220.471793 
L 129.024 200.599169 
L 129.835636 220.471793 
L 130.647273 189.399062 
L 131.458909 174.528 
L 132.270545 200.599169 
L 133.082182 220.471793 
L 133.893818 248.043585 
L 134.705455 220.471793 
L 135.517091 200.599169 
L 136.328727 220.471793 
L 137.140364 189.399062 
L 137.952 194.843196 
L 138.763636 161.294929 
L 139.575273 157.164948 
L 140.386909 189.399062 
L 141.198545 194.843196 
L 142.010182 228.391464 
L 142.821818 220.471793 
L 143.633455 189.399062 
L 144.445091 194.843196 
L 145.256727 228.391464 
L 146.068364 220.471793 
L 146.88 189.399062 
L 147.691636 194.843196 
L 148.503273 228.391464 
L 149.314909 220.471793 
L 150.126545 248.043585 
L 150.938182 261.939732 
L 151.749818 295.488 
L 152.561455 261.939732 
L 153.373091 248.043585 
L 154.184727 261.939732 
L 154.996364 228.391464 
L 155.808 220.471793 
L 156.619636 189.399062 
L 157.431273 174.528 
L 158.242909 145.455585 
L 159.054545 157.164948 
L 159.866182 189.399062 
L 160.677818 174.528 
L 161.489455 200.599169 
L 162.301091 174.528 
L 163.112727 153.154754 
L 163.924364 174.528 
L 164.736 200.599169 
L 165.547636 220.471793 
L 166.359273 189.399062 
L 167.170909 174.528 
L 167.982545 200.599169 
L 168.794182 174.528 
L 169.605818 189.399062 
L 170.417455 157.164948 
L 171.229091 145.455585 
L 172.040727 174.528 
L 172.852364 189.399062 
L 173.664 220.471793 
L 174.475636 228.391464 
L 175.287273 261.939732 
L 176.098909 248.043585 
L 176.910545 220.471793 
L 177.722182 228.391464 
L 178.533818 194.843196 
L 179.345455 189.399062 
L 180.157091 220.471793 
L 180.968727 228.391464 
L 181.780364 261.939732 
L 182.592 248.043585 
L 183.403636 220.471793 
L 184.215273 228.391464 
L 185.026909 261.939732 
L 185.838545 248.043585 
L 186.650182 261.939732 
L 187.461818 295.488 
L 188.273455 261.939732 
L 189.085091 248.043585 
L 189.896727 261.939732 
L 190.708364 228.391464 
L 191.52 220.471793 
L 192.331636 189.399062 
L 193.143273 174.528 
L 193.954909 145.455585 
L 194.766545 157.164948 
L 195.578182 189.399062 
L 196.389818 174.528 
L 197.201455 200.599169 
L 198.013091 174.528 
L 198.824727 153.154754 
L 199.636364 174.528 
L 200.448 200.599169 
L 201.259636 220.471793 
L 202.071273 189.399062 
L 202.882909 174.528 
L 203.694545 200.599169 
L 204.506182 174.528 
L 205.317818 189.399062 
L 206.129455 157.164948 
L 206.941091 145.455585 
L 207.752727 174.528 
L 208.564364 189.399062 
L 209.376 220.471793 
L 210.187636 228.391464 
L 210.999273 261.939732 
L 211.810909 248.043585 
L 212.622545 220.471793 
L 213.434182 228.391464 
L 214.245818 194.843196 
L 215.057455 189.399062 
L 215.869091 220.471793 
L 216.680727 228.391464 
L 217.492364 261.939732 
L 218.304 248.043585 
L 219.115636 220.471793 
L 219.927273 228.391464 
L 220.738909 261.939732 
L 221.550545 248.043585 
L 222.362182 261.939732 
L 223.173818 295.488 
L 223.985455 261.939732 
L 224.797091 248.043585 
L 225.608727 220.471793 
L 226.420364 228.391464 
L 227.232 261.939732 
L 228.043636 248.043585 
L 228.855273 261.939732 
L 229.666909 228.391464 
L 230.478545 220.471793 
L 231.290182 248.043585 
L 232.101818 220.471793 
L 232.913455 200.599169 
L 233.725091 174.528 
L 234.536727 153.154754 
L 235.348364 127.746661 
L 236.16 145.455585 
L 236.971636 174.528 
L 237.783273 153.154754 
L 238.594909 174.528 
L 239.406545 200.599169 
L 240.218182 174.528 
L 241.029818 153.154754 
L 242.653091 105.710338 
L 243.464727 80.674273 
L 244.276364 99.869664 
L 245.088 127.746661 
L 245.899636 105.710338 
L 246.711273 127.746661 
L 247.522909 99.869664 
L 248.334545 80.674273 
L 250.769455 153.154754 
L 252.392727 105.710338 
L 253.204364 127.746661 
L 254.016 99.869664 
L 254.827636 114.825049 
L 255.639273 83.310124 
L 256.450909 70.439378 
L 257.262545 99.869664 
L 258.074182 114.825049 
L 258.885818 145.455585 
L 259.697455 157.164948 
L 260.509091 189.399062 
L 261.320727 194.843196 
L 262.132364 161.294929 
L 262.944 157.164948 
L 263.755636 189.399062 
L 264.567273 174.528 
L 265.378909 145.455585 
L 266.190545 127.746661 
L 267.002182 99.869664 
L 267.813818 114.825049 
L 268.625455 145.455585 
L 269.437091 127.746661 
L 270.248727 153.154754 
L 271.060364 174.528 
L 271.872 145.455585 
L 272.683636 127.746661 
L 273.495273 99.869664 
L 274.306909 80.674273 
L 275.118545 53.568 
L 275.930182 70.439378 
L 276.741818 99.869664 
L 277.553455 80.674273 
L 278.365091 105.710338 
L 279.988364 58.265923 
L 282.423273 127.746661 
L 283.234909 99.869664 
L 284.046545 80.674273 
L 284.858182 105.710338 
L 285.669818 80.674273 
L 286.481455 99.869664 
L 287.293091 70.439378 
L 288.104727 53.568 
L 288.916364 80.674273 
L 289.728 99.869664 
L 290.539636 127.746661 
L 291.351273 145.455585 
L 292.162909 174.528 
L 292.974545 153.154754 
L 293.786182 174.528 
L 294.597818 200.599169 
L 295.409455 220.471793 
L 296.221091 248.043585 
L 297.032727 261.939732 
L 297.844364 295.488 
L 298.656 261.939732 
L 299.467636 248.043585 
L 300.279273 220.471793 
L 301.090909 228.391464 
L 301.902545 261.939732 
L 302.714182 248.043585 
L 303.525818 261.939732 
L 304.337455 228.391464 
L 305.149091 220.471793 
L 305.960727 248.043585 
L 306.772364 220.471793 
L 307.584 200.599169 
L 308.395636 174.528 
L 309.207273 153.154754 
L 310.018909 127.746661 
L 310.830545 145.455585 
L 311.642182 174.528 
L 312.453818 153.154754 
L 313.265455 174.528 
L 314.077091 200.599169 
L 314.888727 174.528 
L 315.700364 153.154754 
L 317.323636 105.710338 
L 318.135273 80.674273 
L 318.946909 99.869664 
L 319.758545 127.746661 
L 320.570182 105.710338 
L 321.381818 127.746661 
L 322.193455 99.869664 
L 323.005091 80.674273 
L 325.44 153.154754 
L 327.063273 105.710338 
L 327.874909 127.746661 
L 328.686545 99.869664 
L 329.498182 114.825049 
L 330.309818 83.310124 
L 331.121455 70.439378 
L 331.933091 99.869664 
L 332.744727 114.825049 
L 333.556364 145.455585 
L 334.368 157.164948 
L 335.179636 189.399062 
L 335.991273 194.843196 
L 336.802909 161.294929 
L 337.614545 157.164948 
L 338.426182 189.399062 
L 339.237818 174.528 
L 340.049455 145.455585 
L 340.861091 127.746661 
L 341.672727 99.869664 
L 342.484364 114.825049 
L 343.296 145.455585 
L 344.107636 127.746661 
L 344.919273 153.154754 
L 345.730909 174.528 
L 346.542545 145.455585 
L 347.354182 127.746661 
L 348.165818 99.869664 
L 348.977455 80.674273 
L 349.789091 53.568 
L 350.600727 70.439378 
L 351.412364 99.869664 
L 352.224 80.674273 
L 353.035636 105.710338 
L 354.658909 58.265923 
L 357.093818 127.746661 
L 357.905455 99.869664 
L 358.717091 80.674273 
L 359.528727 105.710338 
L 360.340364 80.674273 
L 361.152 99.869664 
L 361.963636 70.439378 
L 362.775273 53.568 
L 363.586909 80.674273 
L 364.398545 99.869664 
L 365.210182 127.746661 
L 366.021818 145.455585 
L 366.833455 174.528 
L 367.645091 153.154754 
L 368.456727 174.528 
L 369.268364 200.599169 
L 370.08 220.471793 
L 370.891636 248.043585 
L 371.703273 261.939732 
L 372.514909 295.488 
L 373.326545 261.939732 
L 374.138182 248.043585 
L 374.949818 261.939732 
L 375.761455 228.391464 
L 376.573091 220.471793 
L 377.384727 248.043585 
L 378.196364 261.939732 
L 379.008 295.488 
L 379.819636 261.939732 
L 380.631273 248.043585 
L 381.442909 261.939732 
L 382.254545 228.391464 
L 383.066182 220.471793 
L 383.877818 248.043585 
L 384.689455 261.939732 
L 385.501091 295.488 
L 386.312727 261.939732 
L 387.124364 248.043585 
L 387.936 220.471793 
L 388.747636 228.391464 
L 389.559273 261.939732 
L 390.370909 248.043585 
L 391.182545 261.939732 
L 391.994182 295.488 
L 392.805818 261.939732 
L 393.617455 248.043585 
L 394.429091 220.471793 
L 395.240727 200.599169 
L 396.052364 174.528 
L 396.864 189.399062 
L 397.675636 157.164948 
L 398.487273 161.294929 
L 398.487273 161.294929 
" style="fill:none;stroke:#1f77b4;stroke-linecap:square;stroke-width:1.5;"/>
    <defs>
     <path d="M 0 1.5 
C 0.397805 1.5 0.77937 1.341951 1.06066 1.06066 
C 1.341951 0.77937 1.5 0.397805 1.5 0 
C 1.5 -0.397805 1.341951 -0.77937 1.06066 -1.06066 
C 0.77937 -1.341951 0.397805 -1.5 0 -1.5 
C -0.397805 -1.5 -0.77937 -1.341951 -1.06066 -1.06066 
C -1.341951 -0.77937 -1.5 -0.397805 -1.5 0 
C -1.5 0.397805 -1.341951 0.77937 -1.06066 1.06066 
C -0.77937 1.341951 -0.397805 1.5 0 1.5 
z
" id="m7e67c1f8b4" style="stroke:#1f77b4;"/>
    </defs>
    <g clip-path="url(#p9f55975b81)">
     <use style="fill:#1f77b4;stroke:#1f77b4;" x="73.832727" xlink:href="#m7e67c1f8b4" y="295.488"/>
     <use style="fill:#1f77b4;stroke:#1f77b4;" x="74.644364" xlink:href="#m7e67c1f8b4" y="261.939732"/>
     <use style="fill:#1f77b4;stroke:#1f77b4;" x="75.456" xlink:href="#m7e67c1f8b4" y="248.043585"/>
     <use style="fill:#1f77b4;stroke:#1f77b4;" x="76.267636" xlink:href="#m7e67c1f8b4" y="261.939732"/>
     <use style="fill:#1f77b4;stroke:#1f77b4;" x="77.079273" xlink:href="#m7e67c1f8b4" y="295.488"/>
     <use style="fill:#1f77b4;stroke:#1f77b4;" x="77.890909" xlink:href="#m7e67c1f8b4" y="261.939732"/>
     <use style="fill:#1f77b4;stroke:#1f77b4;" x="78.702545" xlink:href="#m7e67c1f8b4" y="248.043585"/>
     <use style="fill:#1f77b4;stroke:#1f77b4;" x="79.514182" xlink:href="#m7e67c1f8b4" y="261.939732"/>
     <use style="fill:#1f77b4;stroke:#1f77b4;" x="80.325818" xlink:href="#m7e67c1f8b4" y="295.488"/>
     <use style="fill:#1f77b4;stroke:#1f77b4;" x="81.137455" xlink:href="#m7e67c1f8b4" y="261.939732"/>
     <use style="fill:#1f77b4;stroke:#1f77b4;" x="81.949091" xlink:href="#m7e67c1f8b4" y="248.043585"/>
     <use style="fill:#1f77b4;stroke:#1f77b4;" x="82.760727" xlink:href="#m7e67c1f8b4" y="220.471793"/>
     <use style="fill:#1f77b4;stroke:#1f77b4;" x="83.572364" xlink:href="#m7e67c1f8b4" y="228.391464"/>
     <use style="fill:#1f77b4;stroke:#1f77b4;" x="84.384" xlink:href="#m7e67c1f8b4" y="261.939732"/>
     <use style="fill:#1f77b4;stroke:#1f77b4;" x="85.195636" xlink:href="#m7e67c1f8b4" y="248.043585"/>
     <use style="fill:#1f77b4;stroke:#1f77b4;" x="86.007273" xlink:href="#m7e67c1f8b4" y="261.939732"/>
     <use style="fill:#1f77b4;stroke:#1f77b4;" x="86.818909" xlink:href="#m7e67c1f8b4" y="295.488"/>
     <use style="fill:#1f77b4;stroke:#1f77b4;" x="87.630545" xlink:href="#m7e67c1f8b4" y="261.939732"/>
     <use style="fill:#1f77b4;stroke:#1f77b4;" x="88.442182" xlink:href="#m7e67c1f8b4" y="248.043585"/>
     <use style="fill:#1f77b4;stroke:#1f77b4;" x="89.253818" xlink:href="#m7e67c1f8b4" y="220.471793"/>
     <use style="fill:#1f77b4;stroke:#1f77b4;" x="90.065455" xlink:href="#m7e67c1f8b4" y="200.599169"/>
     <use style="fill:#1f77b4;stroke:#1f77b4;" x="90.877091" xlink:href="#m7e67c1f8b4" y="174.528"/>
     <use style="fill:#1f77b4;stroke:#1f77b4;" x="91.688727" xlink:href="#m7e67c1f8b4" y="189.399062"/>
     <use style="fill:#1f77b4;stroke:#1f77b4;" x="92.500364" xlink:href="#m7e67c1f8b4" y="220.471793"/>
     <use style="fill:#1f77b4;stroke:#1f77b4;" x="93.312" xlink:href="#m7e67c1f8b4" y="200.599169"/>
     <use style="fill:#1f77b4;stroke:#1f77b4;" x="94.123636" xlink:href="#m7e67c1f8b4" y="220.471793"/>
     <use style="fill:#1f77b4;stroke:#1f77b4;" x="94.935273" xlink:href="#m7e67c1f8b4" y="189.399062"/>
     <use style="fill:#1f77b4;stroke:#1f77b4;" x="95.746909" xlink:href="#m7e67c1f8b4" y="174.528"/>
     <use style="fill:#1f77b4;stroke:#1f77b4;" x="96.558545" xlink:href="#m7e67c1f8b4" y="200.599169"/>
     <use style="fill:#1f77b4;stroke:#1f77b4;" x="97.370182" xlink:href="#m7e67c1f8b4" y="220.471793"/>
     <use style="fill:#1f77b4;stroke:#1f77b4;" x="98.181818" xlink:href="#m7e67c1f8b4" y="248.043585"/>
     <use style="fill:#1f77b4;stroke:#1f77b4;" x="98.993455" xlink:href="#m7e67c1f8b4" y="220.471793"/>
     <use style="fill:#1f77b4;stroke:#1f77b4;" x="99.805091" xlink:href="#m7e67c1f8b4" y="200.599169"/>
     <use style="fill:#1f77b4;stroke:#1f77b4;" x="100.616727" xlink:href="#m7e67c1f8b4" y="220.471793"/>
     <use style="fill:#1f77b4;stroke:#1f77b4;" x="101.428364" xlink:href="#m7e67c1f8b4" y="189.399062"/>
     <use style="fill:#1f77b4;stroke:#1f77b4;" x="102.24" xlink:href="#m7e67c1f8b4" y="194.843196"/>
     <use style="fill:#1f77b4;stroke:#1f77b4;" x="103.051636" xlink:href="#m7e67c1f8b4" y="161.294929"/>
     <use style="fill:#1f77b4;stroke:#1f77b4;" x="103.863273" xlink:href="#m7e67c1f8b4" y="157.164948"/>
     <use style="fill:#1f77b4;stroke:#1f77b4;" x="104.674909" xlink:href="#m7e67c1f8b4" y="189.399062"/>
     <use style="fill:#1f77b4;stroke:#1f77b4;" x="105.486545" xlink:href="#m7e67c1f8b4" y="194.843196"/>
     <use style="fill:#1f77b4;stroke:#1f77b4;" x="106.298182" xlink:href="#m7e67c1f8b4" y="228.391464"/>
     <use style="fill:#1f77b4;stroke:#1f77b4;" x="107.109818" xlink:href="#m7e67c1f8b4" y="220.471793"/>
     <use style="fill:#1f77b4;stroke:#1f77b4;" x="107.921455" xlink:href="#m7e67c1f8b4" y="189.399062"/>
     <use style="fill:#1f77b4;stroke:#1f77b4;" x="108.733091" xlink:href="#m7e67c1f8b4" y="194.843196"/>
     <use style="fill:#1f77b4;stroke:#1f77b4;" x="109.544727" xlink:href="#m7e67c1f8b4" y="228.391464"/>
     <use style="fill:#1f77b4;stroke:#1f77b4;" x="110.356364" xlink:href="#m7e67c1f8b4" y="220.471793"/>
     <use style="fill:#1f77b4;stroke:#1f77b4;" x="111.168" xlink:href="#m7e67c1f8b4" y="189.399062"/>
     <use style="fill:#1f77b4;stroke:#1f77b4;" x="111.979636" xlink:href="#m7e67c1f8b4" y="194.843196"/>
     <use style="fill:#1f77b4;stroke:#1f77b4;" x="112.791273" xlink:href="#m7e67c1f8b4" y="228.391464"/>
     <use style="fill:#1f77b4;stroke:#1f77b4;" x="113.602909" xlink:href="#m7e67c1f8b4" y="220.471793"/>
     <use style="fill:#1f77b4;stroke:#1f77b4;" x="114.414545" xlink:href="#m7e67c1f8b4" y="248.043585"/>
     <use style="fill:#1f77b4;stroke:#1f77b4;" x="115.226182" xlink:href="#m7e67c1f8b4" y="261.939732"/>
     <use style="fill:#1f77b4;stroke:#1f77b4;" x="116.037818" xlink:href="#m7e67c1f8b4" y="295.488"/>
     <use style="fill:#1f77b4;stroke:#1f77b4;" x="116.849455" xlink:href="#m7e67c1f8b4" y="261.939732"/>
     <use style="fill:#1f77b4;stroke:#1f77b4;" x="117.661091" xlink:href="#m7e67c1f8b4" y="248.043585"/>
     <use style="fill:#1f77b4;stroke:#1f77b4;" x="118.472727" xlink:href="#m7e67c1f8b4" y="220.471793"/>
     <use style="fill:#1f77b4;stroke:#1f77b4;" x="119.284364" xlink:href="#m7e67c1f8b4" y="228.391464"/>
     <use style="fill:#1f77b4;stroke:#1f77b4;" x="120.096" xlink:href="#m7e67c1f8b4" y="261.939732"/>
     <use style="fill:#1f77b4;stroke:#1f77b4;" x="120.907636" xlink:href="#m7e67c1f8b4" y="248.043585"/>
     <use style="fill:#1f77b4;stroke:#1f77b4;" x="121.719273" xlink:href="#m7e67c1f8b4" y="261.939732"/>
     <use style="fill:#1f77b4;stroke:#1f77b4;" x="122.530909" xlink:href="#m7e67c1f8b4" y="295.488"/>
     <use style="fill:#1f77b4;stroke:#1f77b4;" x="123.342545" xlink:href="#m7e67c1f8b4" y="261.939732"/>
     <use style="fill:#1f77b4;stroke:#1f77b4;" x="124.154182" xlink:href="#m7e67c1f8b4" y="248.043585"/>
     <use style="fill:#1f77b4;stroke:#1f77b4;" x="124.965818" xlink:href="#m7e67c1f8b4" y="220.471793"/>
     <use style="fill:#1f77b4;stroke:#1f77b4;" x="125.777455" xlink:href="#m7e67c1f8b4" y="200.599169"/>
     <use style="fill:#1f77b4;stroke:#1f77b4;" x="126.589091" xlink:href="#m7e67c1f8b4" y="174.528"/>
     <use style="fill:#1f77b4;stroke:#1f77b4;" x="127.400727" xlink:href="#m7e67c1f8b4" y="189.399062"/>
     <use style="fill:#1f77b4;stroke:#1f77b4;" x="128.212364" xlink:href="#m7e67c1f8b4" y="220.471793"/>
     <use style="fill:#1f77b4;stroke:#1f77b4;" x="129.024" xlink:href="#m7e67c1f8b4" y="200.599169"/>
     <use style="fill:#1f77b4;stroke:#1f77b4;" x="129.835636" xlink:href="#m7e67c1f8b4" y="220.471793"/>
     <use style="fill:#1f77b4;stroke:#1f77b4;" x="130.647273" xlink:href="#m7e67c1f8b4" y="189.399062"/>
     <use style="fill:#1f77b4;stroke:#1f77b4;" x="131.458909" xlink:href="#m7e67c1f8b4" y="174.528"/>
     <use style="fill:#1f77b4;stroke:#1f77b4;" x="132.270545" xlink:href="#m7e67c1f8b4" y="200.599169"/>
     <use style="fill:#1f77b4;stroke:#1f77b4;" x="133.082182" xlink:href="#m7e67c1f8b4" y="220.471793"/>
     <use style="fill:#1f77b4;stroke:#1f77b4;" x="133.893818" xlink:href="#m7e67c1f8b4" y="248.043585"/>
     <use style="fill:#1f77b4;stroke:#1f77b4;" x="134.705455" xlink:href="#m7e67c1f8b4" y="220.471793"/>
     <use style="fill:#1f77b4;stroke:#1f77b4;" x="135.517091" xlink:href="#m7e67c1f8b4" y="200.599169"/>
     <use style="fill:#1f77b4;stroke:#1f77b4;" x="136.328727" xlink:href="#m7e67c1f8b4" y="220.471793"/>
     <use style="fill:#1f77b4;stroke:#1f77b4;" x="137.140364" xlink:href="#m7e67c1f8b4" y="189.399062"/>
     <use style="fill:#1f77b4;stroke:#1f77b4;" x="137.952" xlink:href="#m7e67c1f8b4" y="194.843196"/>
     <use style="fill:#1f77b4;stroke:#1f77b4;" x="138.763636" xlink:href="#m7e67c1f8b4" y="161.294929"/>
     <use style="fill:#1f77b4;stroke:#1f77b4;" x="139.575273" xlink:href="#m7e67c1f8b4" y="157.164948"/>
     <use style="fill:#1f77b4;stroke:#1f77b4;" x="140.386909" xlink:href="#m7e67c1f8b4" y="189.399062"/>
     <use style="fill:#1f77b4;stroke:#1f77b4;" x="141.198545" xlink:href="#m7e67c1f8b4" y="194.843196"/>
     <use style="fill:#1f77b4;stroke:#1f77b4;" x="142.010182" xlink:href="#m7e67c1f8b4" y="228.391464"/>
     <use style="fill:#1f77b4;stroke:#1f77b4;" x="142.821818" xlink:href="#m7e67c1f8b4" y="220.471793"/>
     <use style="fill:#1f77b4;stroke:#1f77b4;" x="143.633455" xlink:href="#m7e67c1f8b4" y="189.399062"/>
     <use style="fill:#1f77b4;stroke:#1f77b4;" x="144.445091" xlink:href="#m7e67c1f8b4" y="194.843196"/>
     <use style="fill:#1f77b4;stroke:#1f77b4;" x="145.256727" xlink:href="#m7e67c1f8b4" y="228.391464"/>
     <use style="fill:#1f77b4;stroke:#1f77b4;" x="146.068364" xlink:href="#m7e67c1f8b4" y="220.471793"/>
     <use style="fill:#1f77b4;stroke:#1f77b4;" x="146.88" xlink:href="#m7e67c1f8b4" y="189.399062"/>
     <use style="fill:#1f77b4;stroke:#1f77b4;" x="147.691636" xlink:href="#m7e67c1f8b4" y="194.843196"/>
     <use style="fill:#1f77b4;stroke:#1f77b4;" x="148.503273" xlink:href="#m7e67c1f8b4" y="228.391464"/>
     <use style="fill:#1f77b4;stroke:#1f77b4;" x="149.314909" xlink:href="#m7e67c1f8b4" y="220.471793"/>
     <use style="fill:#1f77b4;stroke:#1f77b4;" x="150.126545" xlink:href="#m7e67c1f8b4" y="248.043585"/>
     <use style="fill:#1f77b4;stroke:#1f77b4;" x="150.938182" xlink:href="#m7e67c1f8b4" y="261.939732"/>
     <use style="fill:#1f77b4;stroke:#1f77b4;" x="151.749818" xlink:href="#m7e67c1f8b4" y="295.488"/>
     <use style="fill:#1f77b4;stroke:#1f77b4;" x="152.561455" xlink:href="#m7e67c1f8b4" y="261.939732"/>
     <use style="fill:#1f77b4;stroke:#1f77b4;" x="153.373091" xlink:href="#m7e67c1f8b4" y="248.043585"/>
     <use style="fill:#1f77b4;stroke:#1f77b4;" x="154.184727" xlink:href="#m7e67c1f8b4" y="261.939732"/>
     <use style="fill:#1f77b4;stroke:#1f77b4;" x="154.996364" xlink:href="#m7e67c1f8b4" y="228.391464"/>
     <use style="fill:#1f77b4;stroke:#1f77b4;" x="155.808" xlink:href="#m7e67c1f8b4" y="220.471793"/>
     <use style="fill:#1f77b4;stroke:#1f77b4;" x="156.619636" xlink:href="#m7e67c1f8b4" y="189.399062"/>
     <use style="fill:#1f77b4;stroke:#1f77b4;" x="157.431273" xlink:href="#m7e67c1f8b4" y="174.528"/>
     <use style="fill:#1f77b4;stroke:#1f77b4;" x="158.242909" xlink:href="#m7e67c1f8b4" y="145.455585"/>
     <use style="fill:#1f77b4;stroke:#1f77b4;" x="159.054545" xlink:href="#m7e67c1f8b4" y="157.164948"/>
     <use style="fill:#1f77b4;stroke:#1f77b4;" x="159.866182" xlink:href="#m7e67c1f8b4" y="189.399062"/>
     <use style="fill:#1f77b4;stroke:#1f77b4;" x="160.677818" xlink:href="#m7e67c1f8b4" y="174.528"/>
     <use style="fill:#1f77b4;stroke:#1f77b4;" x="161.489455" xlink:href="#m7e67c1f8b4" y="200.599169"/>
     <use style="fill:#1f77b4;stroke:#1f77b4;" x="162.301091" xlink:href="#m7e67c1f8b4" y="174.528"/>
     <use style="fill:#1f77b4;stroke:#1f77b4;" x="163.112727" xlink:href="#m7e67c1f8b4" y="153.154754"/>
     <use style="fill:#1f77b4;stroke:#1f77b4;" x="163.924364" xlink:href="#m7e67c1f8b4" y="174.528"/>
     <use style="fill:#1f77b4;stroke:#1f77b4;" x="164.736" xlink:href="#m7e67c1f8b4" y="200.599169"/>
     <use style="fill:#1f77b4;stroke:#1f77b4;" x="165.547636" xlink:href="#m7e67c1f8b4" y="220.471793"/>
     <use style="fill:#1f77b4;stroke:#1f77b4;" x="166.359273" xlink:href="#m7e67c1f8b4" y="189.399062"/>
     <use style="fill:#1f77b4;stroke:#1f77b4;" x="167.170909" xlink:href="#m7e67c1f8b4" y="174.528"/>
     <use style="fill:#1f77b4;stroke:#1f77b4;" x="167.982545" xlink:href="#m7e67c1f8b4" y="200.599169"/>
     <use style="fill:#1f77b4;stroke:#1f77b4;" x="168.794182" xlink:href="#m7e67c1f8b4" y="174.528"/>
     <use style="fill:#1f77b4;stroke:#1f77b4;" x="169.605818" xlink:href="#m7e67c1f8b4" y="189.399062"/>
     <use style="fill:#1f77b4;stroke:#1f77b4;" x="170.417455" xlink:href="#m7e67c1f8b4" y="157.164948"/>
     <use style="fill:#1f77b4;stroke:#1f77b4;" x="171.229091" xlink:href="#m7e67c1f8b4" y="145.455585"/>
     <use style="fill:#1f77b4;stroke:#1f77b4;" x="172.040727" xlink:href="#m7e67c1f8b4" y="174.528"/>
     <use style="fill:#1f77b4;stroke:#1f77b4;" x="172.852364" xlink:href="#m7e67c1f8b4" y="189.399062"/>
     <use style="fill:#1f77b4;stroke:#1f77b4;" x="173.664" xlink:href="#m7e67c1f8b4" y="220.471793"/>
     <use style="fill:#1f77b4;stroke:#1f77b4;" x="174.475636" xlink:href="#m7e67c1f8b4" y="228.391464"/>
     <use style="fill:#1f77b4;stroke:#1f77b4;" x="175.287273" xlink:href="#m7e67c1f8b4" y="261.939732"/>
     <use style="fill:#1f77b4;stroke:#1f77b4;" x="176.098909" xlink:href="#m7e67c1f8b4" y="248.043585"/>
     <use style="fill:#1f77b4;stroke:#1f77b4;" x="176.910545" xlink:href="#m7e67c1f8b4" y="220.471793"/>
     <use style="fill:#1f77b4;stroke:#1f77b4;" x="177.722182" xlink:href="#m7e67c1f8b4" y="228.391464"/>
     <use style="fill:#1f77b4;stroke:#1f77b4;" x="178.533818" xlink:href="#m7e67c1f8b4" y="194.843196"/>
     <use style="fill:#1f77b4;stroke:#1f77b4;" x="179.345455" xlink:href="#m7e67c1f8b4" y="189.399062"/>
     <use style="fill:#1f77b4;stroke:#1f77b4;" x="180.157091" xlink:href="#m7e67c1f8b4" y="220.471793"/>
     <use style="fill:#1f77b4;stroke:#1f77b4;" x="180.968727" xlink:href="#m7e67c1f8b4" y="228.391464"/>
     <use style="fill:#1f77b4;stroke:#1f77b4;" x="181.780364" xlink:href="#m7e67c1f8b4" y="261.939732"/>
     <use style="fill:#1f77b4;stroke:#1f77b4;" x="182.592" xlink:href="#m7e67c1f8b4" y="248.043585"/>
     <use style="fill:#1f77b4;stroke:#1f77b4;" x="183.403636" xlink:href="#m7e67c1f8b4" y="220.471793"/>
     <use style="fill:#1f77b4;stroke:#1f77b4;" x="184.215273" xlink:href="#m7e67c1f8b4" y="228.391464"/>
     <use style="fill:#1f77b4;stroke:#1f77b4;" x="185.026909" xlink:href="#m7e67c1f8b4" y="261.939732"/>
     <use style="fill:#1f77b4;stroke:#1f77b4;" x="185.838545" xlink:href="#m7e67c1f8b4" y="248.043585"/>
     <use style="fill:#1f77b4;stroke:#1f77b4;" x="186.650182" xlink:href="#m7e67c1f8b4" y="261.939732"/>
     <use style="fill:#1f77b4;stroke:#1f77b4;" x="187.461818" xlink:href="#m7e67c1f8b4" y="295.488"/>
     <use style="fill:#1f77b4;stroke:#1f77b4;" x="188.273455" xlink:href="#m7e67c1f8b4" y="261.939732"/>
     <use style="fill:#1f77b4;stroke:#1f77b4;" x="189.085091" xlink:href="#m7e67c1f8b4" y="248.043585"/>
     <use style="fill:#1f77b4;stroke:#1f77b4;" x="189.896727" xlink:href="#m7e67c1f8b4" y="261.939732"/>
     <use style="fill:#1f77b4;stroke:#1f77b4;" x="190.708364" xlink:href="#m7e67c1f8b4" y="228.391464"/>
     <use style="fill:#1f77b4;stroke:#1f77b4;" x="191.52" xlink:href="#m7e67c1f8b4" y="220.471793"/>
     <use style="fill:#1f77b4;stroke:#1f77b4;" x="192.331636" xlink:href="#m7e67c1f8b4" y="189.399062"/>
     <use style="fill:#1f77b4;stroke:#1f77b4;" x="193.143273" xlink:href="#m7e67c1f8b4" y="174.528"/>
     <use style="fill:#1f77b4;stroke:#1f77b4;" x="193.954909" xlink:href="#m7e67c1f8b4" y="145.455585"/>
     <use style="fill:#1f77b4;stroke:#1f77b4;" x="194.766545" xlink:href="#m7e67c1f8b4" y="157.164948"/>
     <use style="fill:#1f77b4;stroke:#1f77b4;" x="195.578182" xlink:href="#m7e67c1f8b4" y="189.399062"/>
     <use style="fill:#1f77b4;stroke:#1f77b4;" x="196.389818" xlink:href="#m7e67c1f8b4" y="174.528"/>
     <use style="fill:#1f77b4;stroke:#1f77b4;" x="197.201455" xlink:href="#m7e67c1f8b4" y="200.599169"/>
     <use style="fill:#1f77b4;stroke:#1f77b4;" x="198.013091" xlink:href="#m7e67c1f8b4" y="174.528"/>
     <use style="fill:#1f77b4;stroke:#1f77b4;" x="198.824727" xlink:href="#m7e67c1f8b4" y="153.154754"/>
     <use style="fill:#1f77b4;stroke:#1f77b4;" x="199.636364" xlink:href="#m7e67c1f8b4" y="174.528"/>
     <use style="fill:#1f77b4;stroke:#1f77b4;" x="200.448" xlink:href="#m7e67c1f8b4" y="200.599169"/>
     <use style="fill:#1f77b4;stroke:#1f77b4;" x="201.259636" xlink:href="#m7e67c1f8b4" y="220.471793"/>
     <use style="fill:#1f77b4;stroke:#1f77b4;" x="202.071273" xlink:href="#m7e67c1f8b4" y="189.399062"/>
     <use style="fill:#1f77b4;stroke:#1f77b4;" x="202.882909" xlink:href="#m7e67c1f8b4" y="174.528"/>
     <use style="fill:#1f77b4;stroke:#1f77b4;" x="203.694545" xlink:href="#m7e67c1f8b4" y="200.599169"/>
     <use style="fill:#1f77b4;stroke:#1f77b4;" x="204.506182" xlink:href="#m7e67c1f8b4" y="174.528"/>
     <use style="fill:#1f77b4;stroke:#1f77b4;" x="205.317818" xlink:href="#m7e67c1f8b4" y="189.399062"/>
     <use style="fill:#1f77b4;stroke:#1f77b4;" x="206.129455" xlink:href="#m7e67c1f8b4" y="157.164948"/>
     <use style="fill:#1f77b4;stroke:#1f77b4;" x="206.941091" xlink:href="#m7e67c1f8b4" y="145.455585"/>
     <use style="fill:#1f77b4;stroke:#1f77b4;" x="207.752727" xlink:href="#m7e67c1f8b4" y="174.528"/>
     <use style="fill:#1f77b4;stroke:#1f77b4;" x="208.564364" xlink:href="#m7e67c1f8b4" y="189.399062"/>
     <use style="fill:#1f77b4;stroke:#1f77b4;" x="209.376" xlink:href="#m7e67c1f8b4" y="220.471793"/>
     <use style="fill:#1f77b4;stroke:#1f77b4;" x="210.187636" xlink:href="#m7e67c1f8b4" y="228.391464"/>
     <use style="fill:#1f77b4;stroke:#1f77b4;" x="210.999273" xlink:href="#m7e67c1f8b4" y="261.939732"/>
     <use style="fill:#1f77b4;stroke:#1f77b4;" x="211.810909" xlink:href="#m7e67c1f8b4" y="248.043585"/>
     <use style="fill:#1f77b4;stroke:#1f77b4;" x="212.622545" xlink:href="#m7e67c1f8b4" y="220.471793"/>
     <use style="fill:#1f77b4;stroke:#1f77b4;" x="213.434182" xlink:href="#m7e67c1f8b4" y="228.391464"/>
     <use style="fill:#1f77b4;stroke:#1f77b4;" x="214.245818" xlink:href="#m7e67c1f8b4" y="194.843196"/>
     <use style="fill:#1f77b4;stroke:#1f77b4;" x="215.057455" xlink:href="#m7e67c1f8b4" y="189.399062"/>
     <use style="fill:#1f77b4;stroke:#1f77b4;" x="215.869091" xlink:href="#m7e67c1f8b4" y="220.471793"/>
     <use style="fill:#1f77b4;stroke:#1f77b4;" x="216.680727" xlink:href="#m7e67c1f8b4" y="228.391464"/>
     <use style="fill:#1f77b4;stroke:#1f77b4;" x="217.492364" xlink:href="#m7e67c1f8b4" y="261.939732"/>
     <use style="fill:#1f77b4;stroke:#1f77b4;" x="218.304" xlink:href="#m7e67c1f8b4" y="248.043585"/>
     <use style="fill:#1f77b4;stroke:#1f77b4;" x="219.115636" xlink:href="#m7e67c1f8b4" y="220.471793"/>
     <use style="fill:#1f77b4;stroke:#1f77b4;" x="219.927273" xlink:href="#m7e67c1f8b4" y="228.391464"/>
     <use style="fill:#1f77b4;stroke:#1f77b4;" x="220.738909" xlink:href="#m7e67c1f8b4" y="261.939732"/>
     <use style="fill:#1f77b4;stroke:#1f77b4;" x="221.550545" xlink:href="#m7e67c1f8b4" y="248.043585"/>
     <use style="fill:#1f77b4;stroke:#1f77b4;" x="222.362182" xlink:href="#m7e67c1f8b4" y="261.939732"/>
     <use style="fill:#1f77b4;stroke:#1f77b4;" x="223.173818" xlink:href="#m7e67c1f8b4" y="295.488"/>
     <use style="fill:#1f77b4;stroke:#1f77b4;" x="223.985455" xlink:href="#m7e67c1f8b4" y="261.939732"/>
     <use style="fill:#1f77b4;stroke:#1f77b4;" x="224.797091" xlink:href="#m7e67c1f8b4" y="248.043585"/>
     <use style="fill:#1f77b4;stroke:#1f77b4;" x="225.608727" xlink:href="#m7e67c1f8b4" y="220.471793"/>
     <use style="fill:#1f77b4;stroke:#1f77b4;" x="226.420364" xlink:href="#m7e67c1f8b4" y="228.391464"/>
     <use style="fill:#1f77b4;stroke:#1f77b4;" x="227.232" xlink:href="#m7e67c1f8b4" y="261.939732"/>
     <use style="fill:#1f77b4;stroke:#1f77b4;" x="228.043636" xlink:href="#m7e67c1f8b4" y="248.043585"/>
     <use style="fill:#1f77b4;stroke:#1f77b4;" x="228.855273" xlink:href="#m7e67c1f8b4" y="261.939732"/>
     <use style="fill:#1f77b4;stroke:#1f77b4;" x="229.666909" xlink:href="#m7e67c1f8b4" y="228.391464"/>
     <use style="fill:#1f77b4;stroke:#1f77b4;" x="230.478545" xlink:href="#m7e67c1f8b4" y="220.471793"/>
     <use style="fill:#1f77b4;stroke:#1f77b4;" x="231.290182" xlink:href="#m7e67c1f8b4" y="248.043585"/>
     <use style="fill:#1f77b4;stroke:#1f77b4;" x="232.101818" xlink:href="#m7e67c1f8b4" y="220.471793"/>
     <use style="fill:#1f77b4;stroke:#1f77b4;" x="232.913455" xlink:href="#m7e67c1f8b4" y="200.599169"/>
     <use style="fill:#1f77b4;stroke:#1f77b4;" x="233.725091" xlink:href="#m7e67c1f8b4" y="174.528"/>
     <use style="fill:#1f77b4;stroke:#1f77b4;" x="234.536727" xlink:href="#m7e67c1f8b4" y="153.154754"/>
     <use style="fill:#1f77b4;stroke:#1f77b4;" x="235.348364" xlink:href="#m7e67c1f8b4" y="127.746661"/>
     <use style="fill:#1f77b4;stroke:#1f77b4;" x="236.16" xlink:href="#m7e67c1f8b4" y="145.455585"/>
     <use style="fill:#1f77b4;stroke:#1f77b4;" x="236.971636" xlink:href="#m7e67c1f8b4" y="174.528"/>
     <use style="fill:#1f77b4;stroke:#1f77b4;" x="237.783273" xlink:href="#m7e67c1f8b4" y="153.154754"/>
     <use style="fill:#1f77b4;stroke:#1f77b4;" x="238.594909" xlink:href="#m7e67c1f8b4" y="174.528"/>
     <use style="fill:#1f77b4;stroke:#1f77b4;" x="239.406545" xlink:href="#m7e67c1f8b4" y="200.599169"/>
     <use style="fill:#1f77b4;stroke:#1f77b4;" x="240.218182" xlink:href="#m7e67c1f8b4" y="174.528"/>
     <use style="fill:#1f77b4;stroke:#1f77b4;" x="241.029818" xlink:href="#m7e67c1f8b4" y="153.154754"/>
     <use style="fill:#1f77b4;stroke:#1f77b4;" x="241.841455" xlink:href="#m7e67c1f8b4" y="127.746661"/>
     <use style="fill:#1f77b4;stroke:#1f77b4;" x="242.653091" xlink:href="#m7e67c1f8b4" y="105.710338"/>
     <use style="fill:#1f77b4;stroke:#1f77b4;" x="243.464727" xlink:href="#m7e67c1f8b4" y="80.674273"/>
     <use style="fill:#1f77b4;stroke:#1f77b4;" x="244.276364" xlink:href="#m7e67c1f8b4" y="99.869664"/>
     <use style="fill:#1f77b4;stroke:#1f77b4;" x="245.088" xlink:href="#m7e67c1f8b4" y="127.746661"/>
     <use style="fill:#1f77b4;stroke:#1f77b4;" x="245.899636" xlink:href="#m7e67c1f8b4" y="105.710338"/>
     <use style="fill:#1f77b4;stroke:#1f77b4;" x="246.711273" xlink:href="#m7e67c1f8b4" y="127.746661"/>
     <use style="fill:#1f77b4;stroke:#1f77b4;" x="247.522909" xlink:href="#m7e67c1f8b4" y="99.869664"/>
     <use style="fill:#1f77b4;stroke:#1f77b4;" x="248.334545" xlink:href="#m7e67c1f8b4" y="80.674273"/>
     <use style="fill:#1f77b4;stroke:#1f77b4;" x="249.146182" xlink:href="#m7e67c1f8b4" y="105.710338"/>
     <use style="fill:#1f77b4;stroke:#1f77b4;" x="249.957818" xlink:href="#m7e67c1f8b4" y="127.746661"/>
     <use style="fill:#1f77b4;stroke:#1f77b4;" x="250.769455" xlink:href="#m7e67c1f8b4" y="153.154754"/>
     <use style="fill:#1f77b4;stroke:#1f77b4;" x="251.581091" xlink:href="#m7e67c1f8b4" y="127.746661"/>
     <use style="fill:#1f77b4;stroke:#1f77b4;" x="252.392727" xlink:href="#m7e67c1f8b4" y="105.710338"/>
     <use style="fill:#1f77b4;stroke:#1f77b4;" x="253.204364" xlink:href="#m7e67c1f8b4" y="127.746661"/>
     <use style="fill:#1f77b4;stroke:#1f77b4;" x="254.016" xlink:href="#m7e67c1f8b4" y="99.869664"/>
     <use style="fill:#1f77b4;stroke:#1f77b4;" x="254.827636" xlink:href="#m7e67c1f8b4" y="114.825049"/>
     <use style="fill:#1f77b4;stroke:#1f77b4;" x="255.639273" xlink:href="#m7e67c1f8b4" y="83.310124"/>
     <use style="fill:#1f77b4;stroke:#1f77b4;" x="256.450909" xlink:href="#m7e67c1f8b4" y="70.439378"/>
     <use style="fill:#1f77b4;stroke:#1f77b4;" x="257.262545" xlink:href="#m7e67c1f8b4" y="99.869664"/>
     <use style="fill:#1f77b4;stroke:#1f77b4;" x="258.074182" xlink:href="#m7e67c1f8b4" y="114.825049"/>
     <use style="fill:#1f77b4;stroke:#1f77b4;" x="258.885818" xlink:href="#m7e67c1f8b4" y="145.455585"/>
     <use style="fill:#1f77b4;stroke:#1f77b4;" x="259.697455" xlink:href="#m7e67c1f8b4" y="157.164948"/>
     <use style="fill:#1f77b4;stroke:#1f77b4;" x="260.509091" xlink:href="#m7e67c1f8b4" y="189.399062"/>
     <use style="fill:#1f77b4;stroke:#1f77b4;" x="261.320727" xlink:href="#m7e67c1f8b4" y="194.843196"/>
     <use style="fill:#1f77b4;stroke:#1f77b4;" x="262.132364" xlink:href="#m7e67c1f8b4" y="161.294929"/>
     <use style="fill:#1f77b4;stroke:#1f77b4;" x="262.944" xlink:href="#m7e67c1f8b4" y="157.164948"/>
     <use style="fill:#1f77b4;stroke:#1f77b4;" x="263.755636" xlink:href="#m7e67c1f8b4" y="189.399062"/>
     <use style="fill:#1f77b4;stroke:#1f77b4;" x="264.567273" xlink:href="#m7e67c1f8b4" y="174.528"/>
     <use style="fill:#1f77b4;stroke:#1f77b4;" x="265.378909" xlink:href="#m7e67c1f8b4" y="145.455585"/>
     <use style="fill:#1f77b4;stroke:#1f77b4;" x="266.190545" xlink:href="#m7e67c1f8b4" y="127.746661"/>
     <use style="fill:#1f77b4;stroke:#1f77b4;" x="267.002182" xlink:href="#m7e67c1f8b4" y="99.869664"/>
     <use style="fill:#1f77b4;stroke:#1f77b4;" x="267.813818" xlink:href="#m7e67c1f8b4" y="114.825049"/>
     <use style="fill:#1f77b4;stroke:#1f77b4;" x="268.625455" xlink:href="#m7e67c1f8b4" y="145.455585"/>
     <use style="fill:#1f77b4;stroke:#1f77b4;" x="269.437091" xlink:href="#m7e67c1f8b4" y="127.746661"/>
     <use style="fill:#1f77b4;stroke:#1f77b4;" x="270.248727" xlink:href="#m7e67c1f8b4" y="153.154754"/>
     <use style="fill:#1f77b4;stroke:#1f77b4;" x="271.060364" xlink:href="#m7e67c1f8b4" y="174.528"/>
     <use style="fill:#1f77b4;stroke:#1f77b4;" x="271.872" xlink:href="#m7e67c1f8b4" y="145.455585"/>
     <use style="fill:#1f77b4;stroke:#1f77b4;" x="272.683636" xlink:href="#m7e67c1f8b4" y="127.746661"/>
     <use style="fill:#1f77b4;stroke:#1f77b4;" x="273.495273" xlink:href="#m7e67c1f8b4" y="99.869664"/>
     <use style="fill:#1f77b4;stroke:#1f77b4;" x="274.306909" xlink:href="#m7e67c1f8b4" y="80.674273"/>
     <use style="fill:#1f77b4;stroke:#1f77b4;" x="275.118545" xlink:href="#m7e67c1f8b4" y="53.568"/>
     <use style="fill:#1f77b4;stroke:#1f77b4;" x="275.930182" xlink:href="#m7e67c1f8b4" y="70.439378"/>
     <use style="fill:#1f77b4;stroke:#1f77b4;" x="276.741818" xlink:href="#m7e67c1f8b4" y="99.869664"/>
     <use style="fill:#1f77b4;stroke:#1f77b4;" x="277.553455" xlink:href="#m7e67c1f8b4" y="80.674273"/>
     <use style="fill:#1f77b4;stroke:#1f77b4;" x="278.365091" xlink:href="#m7e67c1f8b4" y="105.710338"/>
     <use style="fill:#1f77b4;stroke:#1f77b4;" x="279.176727" xlink:href="#m7e67c1f8b4" y="80.674273"/>
     <use style="fill:#1f77b4;stroke:#1f77b4;" x="279.988364" xlink:href="#m7e67c1f8b4" y="58.265923"/>
     <use style="fill:#1f77b4;stroke:#1f77b4;" x="280.8" xlink:href="#m7e67c1f8b4" y="80.674273"/>
     <use style="fill:#1f77b4;stroke:#1f77b4;" x="281.611636" xlink:href="#m7e67c1f8b4" y="105.710338"/>
     <use style="fill:#1f77b4;stroke:#1f77b4;" x="282.423273" xlink:href="#m7e67c1f8b4" y="127.746661"/>
     <use style="fill:#1f77b4;stroke:#1f77b4;" x="283.234909" xlink:href="#m7e67c1f8b4" y="99.869664"/>
     <use style="fill:#1f77b4;stroke:#1f77b4;" x="284.046545" xlink:href="#m7e67c1f8b4" y="80.674273"/>
     <use style="fill:#1f77b4;stroke:#1f77b4;" x="284.858182" xlink:href="#m7e67c1f8b4" y="105.710338"/>
     <use style="fill:#1f77b4;stroke:#1f77b4;" x="285.669818" xlink:href="#m7e67c1f8b4" y="80.674273"/>
     <use style="fill:#1f77b4;stroke:#1f77b4;" x="286.481455" xlink:href="#m7e67c1f8b4" y="99.869664"/>
     <use style="fill:#1f77b4;stroke:#1f77b4;" x="287.293091" xlink:href="#m7e67c1f8b4" y="70.439378"/>
     <use style="fill:#1f77b4;stroke:#1f77b4;" x="288.104727" xlink:href="#m7e67c1f8b4" y="53.568"/>
     <use style="fill:#1f77b4;stroke:#1f77b4;" x="288.916364" xlink:href="#m7e67c1f8b4" y="80.674273"/>
     <use style="fill:#1f77b4;stroke:#1f77b4;" x="289.728" xlink:href="#m7e67c1f8b4" y="99.869664"/>
     <use style="fill:#1f77b4;stroke:#1f77b4;" x="290.539636" xlink:href="#m7e67c1f8b4" y="127.746661"/>
     <use style="fill:#1f77b4;stroke:#1f77b4;" x="291.351273" xlink:href="#m7e67c1f8b4" y="145.455585"/>
     <use style="fill:#1f77b4;stroke:#1f77b4;" x="292.162909" xlink:href="#m7e67c1f8b4" y="174.528"/>
     <use style="fill:#1f77b4;stroke:#1f77b4;" x="292.974545" xlink:href="#m7e67c1f8b4" y="153.154754"/>
     <use style="fill:#1f77b4;stroke:#1f77b4;" x="293.786182" xlink:href="#m7e67c1f8b4" y="174.528"/>
     <use style="fill:#1f77b4;stroke:#1f77b4;" x="294.597818" xlink:href="#m7e67c1f8b4" y="200.599169"/>
     <use style="fill:#1f77b4;stroke:#1f77b4;" x="295.409455" xlink:href="#m7e67c1f8b4" y="220.471793"/>
     <use style="fill:#1f77b4;stroke:#1f77b4;" x="296.221091" xlink:href="#m7e67c1f8b4" y="248.043585"/>
     <use style="fill:#1f77b4;stroke:#1f77b4;" x="297.032727" xlink:href="#m7e67c1f8b4" y="261.939732"/>
     <use style="fill:#1f77b4;stroke:#1f77b4;" x="297.844364" xlink:href="#m7e67c1f8b4" y="295.488"/>
     <use style="fill:#1f77b4;stroke:#1f77b4;" x="298.656" xlink:href="#m7e67c1f8b4" y="261.939732"/>
     <use style="fill:#1f77b4;stroke:#1f77b4;" x="299.467636" xlink:href="#m7e67c1f8b4" y="248.043585"/>
     <use style="fill:#1f77b4;stroke:#1f77b4;" x="300.279273" xlink:href="#m7e67c1f8b4" y="220.471793"/>
     <use style="fill:#1f77b4;stroke:#1f77b4;" x="301.090909" xlink:href="#m7e67c1f8b4" y="228.391464"/>
     <use style="fill:#1f77b4;stroke:#1f77b4;" x="301.902545" xlink:href="#m7e67c1f8b4" y="261.939732"/>
     <use style="fill:#1f77b4;stroke:#1f77b4;" x="302.714182" xlink:href="#m7e67c1f8b4" y="248.043585"/>
     <use style="fill:#1f77b4;stroke:#1f77b4;" x="303.525818" xlink:href="#m7e67c1f8b4" y="261.939732"/>
     <use style="fill:#1f77b4;stroke:#1f77b4;" x="304.337455" xlink:href="#m7e67c1f8b4" y="228.391464"/>
     <use style="fill:#1f77b4;stroke:#1f77b4;" x="305.149091" xlink:href="#m7e67c1f8b4" y="220.471793"/>
     <use style="fill:#1f77b4;stroke:#1f77b4;" x="305.960727" xlink:href="#m7e67c1f8b4" y="248.043585"/>
     <use style="fill:#1f77b4;stroke:#1f77b4;" x="306.772364" xlink:href="#m7e67c1f8b4" y="220.471793"/>
     <use style="fill:#1f77b4;stroke:#1f77b4;" x="307.584" xlink:href="#m7e67c1f8b4" y="200.599169"/>
     <use style="fill:#1f77b4;stroke:#1f77b4;" x="308.395636" xlink:href="#m7e67c1f8b4" y="174.528"/>
     <use style="fill:#1f77b4;stroke:#1f77b4;" x="309.207273" xlink:href="#m7e67c1f8b4" y="153.154754"/>
     <use style="fill:#1f77b4;stroke:#1f77b4;" x="310.018909" xlink:href="#m7e67c1f8b4" y="127.746661"/>
     <use style="fill:#1f77b4;stroke:#1f77b4;" x="310.830545" xlink:href="#m7e67c1f8b4" y="145.455585"/>
     <use style="fill:#1f77b4;stroke:#1f77b4;" x="311.642182" xlink:href="#m7e67c1f8b4" y="174.528"/>
     <use style="fill:#1f77b4;stroke:#1f77b4;" x="312.453818" xlink:href="#m7e67c1f8b4" y="153.154754"/>
     <use style="fill:#1f77b4;stroke:#1f77b4;" x="313.265455" xlink:href="#m7e67c1f8b4" y="174.528"/>
     <use style="fill:#1f77b4;stroke:#1f77b4;" x="314.077091" xlink:href="#m7e67c1f8b4" y="200.599169"/>
     <use style="fill:#1f77b4;stroke:#1f77b4;" x="314.888727" xlink:href="#m7e67c1f8b4" y="174.528"/>
     <use style="fill:#1f77b4;stroke:#1f77b4;" x="315.700364" xlink:href="#m7e67c1f8b4" y="153.154754"/>
     <use style="fill:#1f77b4;stroke:#1f77b4;" x="316.512" xlink:href="#m7e67c1f8b4" y="127.746661"/>
     <use style="fill:#1f77b4;stroke:#1f77b4;" x="317.323636" xlink:href="#m7e67c1f8b4" y="105.710338"/>
     <use style="fill:#1f77b4;stroke:#1f77b4;" x="318.135273" xlink:href="#m7e67c1f8b4" y="80.674273"/>
     <use style="fill:#1f77b4;stroke:#1f77b4;" x="318.946909" xlink:href="#m7e67c1f8b4" y="99.869664"/>
     <use style="fill:#1f77b4;stroke:#1f77b4;" x="319.758545" xlink:href="#m7e67c1f8b4" y="127.746661"/>
     <use style="fill:#1f77b4;stroke:#1f77b4;" x="320.570182" xlink:href="#m7e67c1f8b4" y="105.710338"/>
     <use style="fill:#1f77b4;stroke:#1f77b4;" x="321.381818" xlink:href="#m7e67c1f8b4" y="127.746661"/>
     <use style="fill:#1f77b4;stroke:#1f77b4;" x="322.193455" xlink:href="#m7e67c1f8b4" y="99.869664"/>
     <use style="fill:#1f77b4;stroke:#1f77b4;" x="323.005091" xlink:href="#m7e67c1f8b4" y="80.674273"/>
     <use style="fill:#1f77b4;stroke:#1f77b4;" x="323.816727" xlink:href="#m7e67c1f8b4" y="105.710338"/>
     <use style="fill:#1f77b4;stroke:#1f77b4;" x="324.628364" xlink:href="#m7e67c1f8b4" y="127.746661"/>
     <use style="fill:#1f77b4;stroke:#1f77b4;" x="325.44" xlink:href="#m7e67c1f8b4" y="153.154754"/>
     <use style="fill:#1f77b4;stroke:#1f77b4;" x="326.251636" xlink:href="#m7e67c1f8b4" y="127.746661"/>
     <use style="fill:#1f77b4;stroke:#1f77b4;" x="327.063273" xlink:href="#m7e67c1f8b4" y="105.710338"/>
     <use style="fill:#1f77b4;stroke:#1f77b4;" x="327.874909" xlink:href="#m7e67c1f8b4" y="127.746661"/>
     <use style="fill:#1f77b4;stroke:#1f77b4;" x="328.686545" xlink:href="#m7e67c1f8b4" y="99.869664"/>
     <use style="fill:#1f77b4;stroke:#1f77b4;" x="329.498182" xlink:href="#m7e67c1f8b4" y="114.825049"/>
     <use style="fill:#1f77b4;stroke:#1f77b4;" x="330.309818" xlink:href="#m7e67c1f8b4" y="83.310124"/>
     <use style="fill:#1f77b4;stroke:#1f77b4;" x="331.121455" xlink:href="#m7e67c1f8b4" y="70.439378"/>
     <use style="fill:#1f77b4;stroke:#1f77b4;" x="331.933091" xlink:href="#m7e67c1f8b4" y="99.869664"/>
     <use style="fill:#1f77b4;stroke:#1f77b4;" x="332.744727" xlink:href="#m7e67c1f8b4" y="114.825049"/>
     <use style="fill:#1f77b4;stroke:#1f77b4;" x="333.556364" xlink:href="#m7e67c1f8b4" y="145.455585"/>
     <use style="fill:#1f77b4;stroke:#1f77b4;" x="334.368" xlink:href="#m7e67c1f8b4" y="157.164948"/>
     <use style="fill:#1f77b4;stroke:#1f77b4;" x="335.179636" xlink:href="#m7e67c1f8b4" y="189.399062"/>
     <use style="fill:#1f77b4;stroke:#1f77b4;" x="335.991273" xlink:href="#m7e67c1f8b4" y="194.843196"/>
     <use style="fill:#1f77b4;stroke:#1f77b4;" x="336.802909" xlink:href="#m7e67c1f8b4" y="161.294929"/>
     <use style="fill:#1f77b4;stroke:#1f77b4;" x="337.614545" xlink:href="#m7e67c1f8b4" y="157.164948"/>
     <use style="fill:#1f77b4;stroke:#1f77b4;" x="338.426182" xlink:href="#m7e67c1f8b4" y="189.399062"/>
     <use style="fill:#1f77b4;stroke:#1f77b4;" x="339.237818" xlink:href="#m7e67c1f8b4" y="174.528"/>
     <use style="fill:#1f77b4;stroke:#1f77b4;" x="340.049455" xlink:href="#m7e67c1f8b4" y="145.455585"/>
     <use style="fill:#1f77b4;stroke:#1f77b4;" x="340.861091" xlink:href="#m7e67c1f8b4" y="127.746661"/>
     <use style="fill:#1f77b4;stroke:#1f77b4;" x="341.672727" xlink:href="#m7e67c1f8b4" y="99.869664"/>
     <use style="fill:#1f77b4;stroke:#1f77b4;" x="342.484364" xlink:href="#m7e67c1f8b4" y="114.825049"/>
     <use style="fill:#1f77b4;stroke:#1f77b4;" x="343.296" xlink:href="#m7e67c1f8b4" y="145.455585"/>
     <use style="fill:#1f77b4;stroke:#1f77b4;" x="344.107636" xlink:href="#m7e67c1f8b4" y="127.746661"/>
     <use style="fill:#1f77b4;stroke:#1f77b4;" x="344.919273" xlink:href="#m7e67c1f8b4" y="153.154754"/>
     <use style="fill:#1f77b4;stroke:#1f77b4;" x="345.730909" xlink:href="#m7e67c1f8b4" y="174.528"/>
     <use style="fill:#1f77b4;stroke:#1f77b4;" x="346.542545" xlink:href="#m7e67c1f8b4" y="145.455585"/>
     <use style="fill:#1f77b4;stroke:#1f77b4;" x="347.354182" xlink:href="#m7e67c1f8b4" y="127.746661"/>
     <use style="fill:#1f77b4;stroke:#1f77b4;" x="348.165818" xlink:href="#m7e67c1f8b4" y="99.869664"/>
     <use style="fill:#1f77b4;stroke:#1f77b4;" x="348.977455" xlink:href="#m7e67c1f8b4" y="80.674273"/>
     <use style="fill:#1f77b4;stroke:#1f77b4;" x="349.789091" xlink:href="#m7e67c1f8b4" y="53.568"/>
     <use style="fill:#1f77b4;stroke:#1f77b4;" x="350.600727" xlink:href="#m7e67c1f8b4" y="70.439378"/>
     <use style="fill:#1f77b4;stroke:#1f77b4;" x="351.412364" xlink:href="#m7e67c1f8b4" y="99.869664"/>
     <use style="fill:#1f77b4;stroke:#1f77b4;" x="352.224" xlink:href="#m7e67c1f8b4" y="80.674273"/>
     <use style="fill:#1f77b4;stroke:#1f77b4;" x="353.035636" xlink:href="#m7e67c1f8b4" y="105.710338"/>
     <use style="fill:#1f77b4;stroke:#1f77b4;" x="353.847273" xlink:href="#m7e67c1f8b4" y="80.674273"/>
     <use style="fill:#1f77b4;stroke:#1f77b4;" x="354.658909" xlink:href="#m7e67c1f8b4" y="58.265923"/>
     <use style="fill:#1f77b4;stroke:#1f77b4;" x="355.470545" xlink:href="#m7e67c1f8b4" y="80.674273"/>
     <use style="fill:#1f77b4;stroke:#1f77b4;" x="356.282182" xlink:href="#m7e67c1f8b4" y="105.710338"/>
     <use style="fill:#1f77b4;stroke:#1f77b4;" x="357.093818" xlink:href="#m7e67c1f8b4" y="127.746661"/>
     <use style="fill:#1f77b4;stroke:#1f77b4;" x="357.905455" xlink:href="#m7e67c1f8b4" y="99.869664"/>
     <use style="fill:#1f77b4;stroke:#1f77b4;" x="358.717091" xlink:href="#m7e67c1f8b4" y="80.674273"/>
     <use style="fill:#1f77b4;stroke:#1f77b4;" x="359.528727" xlink:href="#m7e67c1f8b4" y="105.710338"/>
     <use style="fill:#1f77b4;stroke:#1f77b4;" x="360.340364" xlink:href="#m7e67c1f8b4" y="80.674273"/>
     <use style="fill:#1f77b4;stroke:#1f77b4;" x="361.152" xlink:href="#m7e67c1f8b4" y="99.869664"/>
     <use style="fill:#1f77b4;stroke:#1f77b4;" x="361.963636" xlink:href="#m7e67c1f8b4" y="70.439378"/>
     <use style="fill:#1f77b4;stroke:#1f77b4;" x="362.775273" xlink:href="#m7e67c1f8b4" y="53.568"/>
     <use style="fill:#1f77b4;stroke:#1f77b4;" x="363.586909" xlink:href="#m7e67c1f8b4" y="80.674273"/>
     <use style="fill:#1f77b4;stroke:#1f77b4;" x="364.398545" xlink:href="#m7e67c1f8b4" y="99.869664"/>
     <use style="fill:#1f77b4;stroke:#1f77b4;" x="365.210182" xlink:href="#m7e67c1f8b4" y="127.746661"/>
     <use style="fill:#1f77b4;stroke:#1f77b4;" x="366.021818" xlink:href="#m7e67c1f8b4" y="145.455585"/>
     <use style="fill:#1f77b4;stroke:#1f77b4;" x="366.833455" xlink:href="#m7e67c1f8b4" y="174.528"/>
     <use style="fill:#1f77b4;stroke:#1f77b4;" x="367.645091" xlink:href="#m7e67c1f8b4" y="153.154754"/>
     <use style="fill:#1f77b4;stroke:#1f77b4;" x="368.456727" xlink:href="#m7e67c1f8b4" y="174.528"/>
     <use style="fill:#1f77b4;stroke:#1f77b4;" x="369.268364" xlink:href="#m7e67c1f8b4" y="200.599169"/>
     <use style="fill:#1f77b4;stroke:#1f77b4;" x="370.08" xlink:href="#m7e67c1f8b4" y="220.471793"/>
     <use style="fill:#1f77b4;stroke:#1f77b4;" x="370.891636" xlink:href="#m7e67c1f8b4" y="248.043585"/>
     <use style="fill:#1f77b4;stroke:#1f77b4;" x="371.703273" xlink:href="#m7e67c1f8b4" y="261.939732"/>
     <use style="fill:#1f77b4;stroke:#1f77b4;" x="372.514909" xlink:href="#m7e67c1f8b4" y="295.488"/>
     <use style="fill:#1f77b4;stroke:#1f77b4;" x="373.326545" xlink:href="#m7e67c1f8b4" y="261.939732"/>
     <use style="fill:#1f77b4;stroke:#1f77b4;" x="374.138182" xlink:href="#m7e67c1f8b4" y="248.043585"/>
     <use style="fill:#1f77b4;stroke:#1f77b4;" x="374.949818" xlink:href="#m7e67c1f8b4" y="261.939732"/>
     <use style="fill:#1f77b4;stroke:#1f77b4;" x="375.761455" xlink:href="#m7e67c1f8b4" y="228.391464"/>
     <use style="fill:#1f77b4;stroke:#1f77b4;" x="376.573091" xlink:href="#m7e67c1f8b4" y="220.471793"/>
     <use style="fill:#1f77b4;stroke:#1f77b4;" x="377.384727" xlink:href="#m7e67c1f8b4" y="248.043585"/>
     <use style="fill:#1f77b4;stroke:#1f77b4;" x="378.196364" xlink:href="#m7e67c1f8b4" y="261.939732"/>
     <use style="fill:#1f77b4;stroke:#1f77b4;" x="379.008" xlink:href="#m7e67c1f8b4" y="295.488"/>
     <use style="fill:#1f77b4;stroke:#1f77b4;" x="379.819636" xlink:href="#m7e67c1f8b4" y="261.939732"/>
     <use style="fill:#1f77b4;stroke:#1f77b4;" x="380.631273" xlink:href="#m7e67c1f8b4" y="248.043585"/>
     <use style="fill:#1f77b4;stroke:#1f77b4;" x="381.442909" xlink:href="#m7e67c1f8b4" y="261.939732"/>
     <use style="fill:#1f77b4;stroke:#1f77b4;" x="382.254545" xlink:href="#m7e67c1f8b4" y="228.391464"/>
     <use style="fill:#1f77b4;stroke:#1f77b4;" x="383.066182" xlink:href="#m7e67c1f8b4" y="220.471793"/>
     <use style="fill:#1f77b4;stroke:#1f77b4;" x="383.877818" xlink:href="#m7e67c1f8b4" y="248.043585"/>
     <use style="fill:#1f77b4;stroke:#1f77b4;" x="384.689455" xlink:href="#m7e67c1f8b4" y="261.939732"/>
     <use style="fill:#1f77b4;stroke:#1f77b4;" x="385.501091" xlink:href="#m7e67c1f8b4" y="295.488"/>
     <use style="fill:#1f77b4;stroke:#1f77b4;" x="386.312727" xlink:href="#m7e67c1f8b4" y="261.939732"/>
     <use style="fill:#1f77b4;stroke:#1f77b4;" x="387.124364" xlink:href="#m7e67c1f8b4" y="248.043585"/>
     <use style="fill:#1f77b4;stroke:#1f77b4;" x="387.936" xlink:href="#m7e67c1f8b4" y="220.471793"/>
     <use style="fill:#1f77b4;stroke:#1f77b4;" x="388.747636" xlink:href="#m7e67c1f8b4" y="228.391464"/>
     <use style="fill:#1f77b4;stroke:#1f77b4;" x="389.559273" xlink:href="#m7e67c1f8b4" y="261.939732"/>
     <use style="fill:#1f77b4;stroke:#1f77b4;" x="390.370909" xlink:href="#m7e67c1f8b4" y="248.043585"/>
     <use style="fill:#1f77b4;stroke:#1f77b4;" x="391.182545" xlink:href="#m7e67c1f8b4" y="261.939732"/>
     <use style="fill:#1f77b4;stroke:#1f77b4;" x="391.994182" xlink:href="#m7e67c1f8b4" y="295.488"/>
     <use style="fill:#1f77b4;stroke:#1f77b4;" x="392.805818" xlink:href="#m7e67c1f8b4" y="261.939732"/>
     <use style="fill:#1f77b4;stroke:#1f77b4;" x="393.617455" xlink:href="#m7e67c1f8b4" y="248.043585"/>
     <use style="fill:#1f77b4;stroke:#1f77b4;" x="394.429091" xlink:href="#m7e67c1f8b4" y="220.471793"/>
     <use style="fill:#1f77b4;stroke:#1f77b4;" x="395.240727" xlink:href="#m7e67c1f8b4" y="200.599169"/>
     <use style="fill:#1f77b4;stroke:#1f77b4;" x="396.052364" xlink:href="#m7e67c1f8b4" y="174.528"/>
     <use style="fill:#1f77b4;stroke:#1f77b4;" x="396.864" xlink:href="#m7e67c1f8b4" y="189.399062"/>
     <use style="fill:#1f77b4;stroke:#1f77b4;" x="397.675636" xlink:href="#m7e67c1f8b4" y="157.164948"/>
     <use style="fill:#1f77b4;stroke:#1f77b4;" x="398.487273" xlink:href="#m7e67c1f8b4" y="161.294929"/>
    </g>
   </g>
   <g id="patch_3">
    <path d="M 57.6 307.584 
L 57.6 41.472 
" style="fill:none;stroke:#000000;stroke-linecap:square;stroke-linejoin:miter;stroke-width:0.8;"/>
   </g>
   <g id="patch_4">
    <path d="M 414.72 307.584 
L 414.72 41.472 
" style="fill:none;stroke:#000000;stroke-linecap:square;stroke-linejoin:miter;stroke-width:0.8;"/>
   </g>
   <g id="patch_5">
    <path d="M 57.6 307.584 
L 414.72 307.584 
" style="fill:none;stroke:#000000;stroke-linecap:square;stroke-linejoin:miter;stroke-width:0.8;"/>
   </g>
   <g id="patch_6">
    <path d="M 57.6 41.472 
L 414.72 41.472 
" style="fill:none;stroke:#000000;stroke-linecap:square;stroke-linejoin:miter;stroke-width:0.8;"/>
   </g>
   <g id="text_20">
    <!-- Quantifying Langton's Ant Behavior Up to 400 -->
    <defs>
     <path d="M 39.40625 66.21875 
Q 28.65625 66.21875 22.328125 58.203125 
Q 16.015625 50.203125 16.015625 36.375 
Q 16.015625 22.609375 22.328125 14.59375 
Q 28.65625 6.59375 39.40625 6.59375 
Q 50.140625 6.59375 56.421875 14.59375 
Q 62.703125 22.609375 62.703125 36.375 
Q 62.703125 50.203125 56.421875 58.203125 
Q 50.140625 66.21875 39.40625 66.21875 
z
M 53.21875 1.3125 
L 66.21875 -12.890625 
L 54.296875 -12.890625 
L 43.5 -1.21875 
Q 41.890625 -1.3125 41.03125 -1.359375 
Q 40.1875 -1.421875 39.40625 -1.421875 
Q 24.03125 -1.421875 14.8125 8.859375 
Q 5.609375 19.140625 5.609375 36.375 
Q 5.609375 53.65625 14.8125 63.9375 
Q 24.03125 74.21875 39.40625 74.21875 
Q 54.734375 74.21875 63.90625 63.9375 
Q 73.09375 53.65625 73.09375 36.375 
Q 73.09375 23.6875 67.984375 14.640625 
Q 62.890625 5.609375 53.21875 1.3125 
z
" id="DejaVuSans-51"/>
     <path d="M 32.171875 -5.078125 
Q 28.375 -14.84375 24.75 -17.8125 
Q 21.140625 -20.796875 15.09375 -20.796875 
L 7.90625 -20.796875 
L 7.90625 -13.28125 
L 13.1875 -13.28125 
Q 16.890625 -13.28125 18.9375 -11.515625 
Q 21 -9.765625 23.484375 -3.21875 
L 25.09375 0.875 
L 2.984375 54.6875 
L 12.5 54.6875 
L 29.59375 11.921875 
L 46.6875 54.6875 
L 56.203125 54.6875 
z
" id="DejaVuSans-79"/>
     <path d="M 9.8125 72.90625 
L 19.671875 72.90625 
L 19.671875 8.296875 
L 55.171875 8.296875 
L 55.171875 0 
L 9.8125 0 
z
" id="DejaVuSans-4c"/>
     <path d="M 17.921875 72.90625 
L 17.921875 45.796875 
L 9.625 45.796875 
L 9.625 72.90625 
z
" id="DejaVuSans-27"/>
     <path d="M 34.1875 63.1875 
L 20.796875 26.90625 
L 47.609375 26.90625 
z
M 28.609375 72.90625 
L 39.796875 72.90625 
L 67.578125 0 
L 57.328125 0 
L 50.6875 18.703125 
L 17.828125 18.703125 
L 11.1875 0 
L 0.78125 0 
z
" id="DejaVuSans-41"/>
     <path d="M 19.671875 34.8125 
L 19.671875 8.109375 
L 35.5 8.109375 
Q 43.453125 8.109375 47.28125 11.40625 
Q 51.125 14.703125 51.125 21.484375 
Q 51.125 28.328125 47.28125 31.5625 
Q 43.453125 34.8125 35.5 34.8125 
z
M 19.671875 64.796875 
L 19.671875 42.828125 
L 34.28125 42.828125 
Q 41.5 42.828125 45.03125 45.53125 
Q 48.578125 48.25 48.578125 53.8125 
Q 48.578125 59.328125 45.03125 62.0625 
Q 41.5 64.796875 34.28125 64.796875 
z
M 9.8125 72.90625 
L 35.015625 72.90625 
Q 46.296875 72.90625 52.390625 68.21875 
Q 58.5 63.53125 58.5 54.890625 
Q 58.5 48.1875 55.375 44.234375 
Q 52.25 40.28125 46.1875 39.3125 
Q 53.46875 37.75 57.5 32.78125 
Q 61.53125 27.828125 61.53125 20.40625 
Q 61.53125 10.640625 54.890625 5.3125 
Q 48.25 0 35.984375 0 
L 9.8125 0 
z
" id="DejaVuSans-42"/>
     <path d="M 54.890625 33.015625 
L 54.890625 0 
L 45.90625 0 
L 45.90625 32.71875 
Q 45.90625 40.484375 42.875 44.328125 
Q 39.84375 48.1875 33.796875 48.1875 
Q 26.515625 48.1875 22.3125 43.546875 
Q 18.109375 38.921875 18.109375 30.90625 
L 18.109375 0 
L 9.078125 0 
L 9.078125 75.984375 
L 18.109375 75.984375 
L 18.109375 46.1875 
Q 21.34375 51.125 25.703125 53.5625 
Q 30.078125 56 35.796875 56 
Q 45.21875 56 50.046875 50.171875 
Q 54.890625 44.34375 54.890625 33.015625 
z
" id="DejaVuSans-68"/>
     <path d="M 2.984375 54.6875 
L 12.5 54.6875 
L 29.59375 8.796875 
L 46.6875 54.6875 
L 56.203125 54.6875 
L 35.6875 0 
L 23.484375 0 
z
" id="DejaVuSans-76"/>
     <path d="M 8.6875 72.90625 
L 18.609375 72.90625 
L 18.609375 28.609375 
Q 18.609375 16.890625 22.84375 11.734375 
Q 27.09375 6.59375 36.625 6.59375 
Q 46.09375 6.59375 50.34375 11.734375 
Q 54.59375 16.890625 54.59375 28.609375 
L 54.59375 72.90625 
L 64.5 72.90625 
L 64.5 27.390625 
Q 64.5 13.140625 57.4375 5.859375 
Q 50.390625 -1.421875 36.625 -1.421875 
Q 22.796875 -1.421875 15.734375 5.859375 
Q 8.6875 13.140625 8.6875 27.390625 
z
" id="DejaVuSans-55"/>
    </defs>
    <g transform="translate(97.9425 35.472)scale(0.12 -0.12)">
     <use xlink:href="#DejaVuSans-51"/>
     <use x="78.710938" xlink:href="#DejaVuSans-75"/>
     <use x="142.089844" xlink:href="#DejaVuSans-61"/>
     <use x="203.369141" xlink:href="#DejaVuSans-6e"/>
     <use x="266.748047" xlink:href="#DejaVuSans-74"/>
     <use x="305.957031" xlink:href="#DejaVuSans-69"/>
     <use x="333.740234" xlink:href="#DejaVuSans-66"/>
     <use x="368.929688" xlink:href="#DejaVuSans-79"/>
     <use x="428.109375" xlink:href="#DejaVuSans-69"/>
     <use x="455.892578" xlink:href="#DejaVuSans-6e"/>
     <use x="519.271484" xlink:href="#DejaVuSans-67"/>
     <use x="582.748047" xlink:href="#DejaVuSans-20"/>
     <use x="614.535156" xlink:href="#DejaVuSans-4c"/>
     <use x="670.248047" xlink:href="#DejaVuSans-61"/>
     <use x="731.527344" xlink:href="#DejaVuSans-6e"/>
     <use x="794.90625" xlink:href="#DejaVuSans-67"/>
     <use x="858.382812" xlink:href="#DejaVuSans-74"/>
     <use x="897.591797" xlink:href="#DejaVuSans-6f"/>
     <use x="958.773438" xlink:href="#DejaVuSans-6e"/>
     <use x="1022.152344" xlink:href="#DejaVuSans-27"/>
     <use x="1049.642578" xlink:href="#DejaVuSans-73"/>
     <use x="1101.742188" xlink:href="#DejaVuSans-20"/>
     <use x="1133.529297" xlink:href="#DejaVuSans-41"/>
     <use x="1201.9375" xlink:href="#DejaVuSans-6e"/>
     <use x="1265.316406" xlink:href="#DejaVuSans-74"/>
     <use x="1304.525391" xlink:href="#DejaVuSans-20"/>
     <use x="1336.3125" xlink:href="#DejaVuSans-42"/>
     <use x="1404.916016" xlink:href="#DejaVuSans-65"/>
     <use x="1466.439453" xlink:href="#DejaVuSans-68"/>
     <use x="1529.818359" xlink:href="#DejaVuSans-61"/>
     <use x="1591.097656" xlink:href="#DejaVuSans-76"/>
     <use x="1650.277344" xlink:href="#DejaVuSans-69"/>
     <use x="1678.060547" xlink:href="#DejaVuSans-6f"/>
     <use x="1739.242188" xlink:href="#DejaVuSans-72"/>
     <use x="1780.355469" xlink:href="#DejaVuSans-20"/>
     <use x="1812.142578" xlink:href="#DejaVuSans-55"/>
     <use x="1885.335938" xlink:href="#DejaVuSans-70"/>
     <use x="1948.8125" xlink:href="#DejaVuSans-20"/>
     <use x="1980.599609" xlink:href="#DejaVuSans-74"/>
     <use x="2019.808594" xlink:href="#DejaVuSans-6f"/>
     <use x="2080.990234" xlink:href="#DejaVuSans-20"/>
     <use x="2112.777344" xlink:href="#DejaVuSans-34"/>
     <use x="2176.400391" xlink:href="#DejaVuSans-30"/>
     <use x="2240.023438" xlink:href="#DejaVuSans-30"/>
    </g>
   </g>
  </g>
 </g>
 <defs>
  <clipPath id="p9f55975b81">
   <rect height="266.112" width="357.12" x="57.6" y="41.472"/>
  </clipPath>
 </defs>
</svg>
