<?xml version="1.0" encoding="utf-8" standalone="no"?>
<!DOCTYPE svg PUBLIC "-//W3C//DTD SVG 1.1//EN"
  "http://www.w3.org/Graphics/SVG/1.1/DTD/svg11.dtd">
<!-- Created with matplotlib (http://matplotlib.org/) -->
<svg height="345.6pt" version="1.1" viewBox="0 0 460.8 345.6" width="460.8pt" xmlns="http://www.w3.org/2000/svg" xmlns:xlink="http://www.w3.org/1999/xlink">
 <defs>
  <style type="text/css">
*{stroke-linecap:butt;stroke-linejoin:round;}
  </style>
 </defs>
 <g id="figure_1">
  <g id="patch_1">
   <path d="M 0 345.6 
L 460.8 345.6 
L 460.8 0 
L 0 0 
z
" style="fill:#ffffff;"/>
  </g>
  <g id="axes_1">
   <g id="patch_2">
    <path d="M 57.6 307.584 
L 414.72 307.584 
L 414.72 41.472 
L 57.6 41.472 
z
" style="fill:#ffffff;"/>
   </g>
   <g id="matplotlib.axis_1">
    <g id="xtick_1">
     <g id="line2d_1">
      <defs>
       <path d="M 0 0 
L 0 3.5 
" id="m2dec351d4f" style="stroke:#000000;stroke-width:0.8;"/>
      </defs>
      <g>
       <use style="stroke:#000000;stroke-width:0.8;" x="73.832727" xlink:href="#m2dec351d4f" y="307.584"/>
      </g>
     </g>
     <g id="text_1">
      <!-- 0 -->
      <defs>
       <path d="M 31.78125 66.40625 
Q 24.171875 66.40625 20.328125 58.90625 
Q 16.5 51.421875 16.5 36.375 
Q 16.5 21.390625 20.328125 13.890625 
Q 24.171875 6.390625 31.78125 6.390625 
Q 39.453125 6.390625 43.28125 13.890625 
Q 47.125 21.390625 47.125 36.375 
Q 47.125 51.421875 43.28125 58.90625 
Q 39.453125 66.40625 31.78125 66.40625 
z
M 31.78125 74.21875 
Q 44.046875 74.21875 50.515625 64.515625 
Q 56.984375 54.828125 56.984375 36.375 
Q 56.984375 17.96875 50.515625 8.265625 
Q 44.046875 -1.421875 31.78125 -1.421875 
Q 19.53125 -1.421875 13.0625 8.265625 
Q 6.59375 17.96875 6.59375 36.375 
Q 6.59375 54.828125 13.0625 64.515625 
Q 19.53125 74.21875 31.78125 74.21875 
z
" id="DejaVuSans-30"/>
      </defs>
      <g transform="translate(70.651477 322.182437)scale(0.1 -0.1)">
       <use xlink:href="#DejaVuSans-30"/>
      </g>
     </g>
    </g>
    <g id="xtick_2">
     <g id="line2d_2">
      <g>
       <use style="stroke:#000000;stroke-width:0.8;" x="138.69877" xlink:href="#m2dec351d4f" y="307.584"/>
      </g>
     </g>
     <g id="text_2">
      <!-- 200 -->
      <defs>
       <path d="M 19.1875 8.296875 
L 53.609375 8.296875 
L 53.609375 0 
L 7.328125 0 
L 7.328125 8.296875 
Q 12.9375 14.109375 22.625 23.890625 
Q 32.328125 33.6875 34.8125 36.53125 
Q 39.546875 41.84375 41.421875 45.53125 
Q 43.3125 49.21875 43.3125 52.78125 
Q 43.3125 58.59375 39.234375 62.25 
Q 35.15625 65.921875 28.609375 65.921875 
Q 23.96875 65.921875 18.8125 64.3125 
Q 13.671875 62.703125 7.8125 59.421875 
L 7.8125 69.390625 
Q 13.765625 71.78125 18.9375 73 
Q 24.125 74.21875 28.421875 74.21875 
Q 39.75 74.21875 46.484375 68.546875 
Q 53.21875 62.890625 53.21875 53.421875 
Q 53.21875 48.921875 51.53125 44.890625 
Q 49.859375 40.875 45.40625 35.40625 
Q 44.1875 33.984375 37.640625 27.21875 
Q 31.109375 20.453125 19.1875 8.296875 
z
" id="DejaVuSans-32"/>
      </defs>
      <g transform="translate(129.15502 322.182437)scale(0.1 -0.1)">
       <use xlink:href="#DejaVuSans-32"/>
       <use x="63.623047" xlink:href="#DejaVuSans-30"/>
       <use x="127.246094" xlink:href="#DejaVuSans-30"/>
      </g>
     </g>
    </g>
    <g id="xtick_3">
     <g id="line2d_3">
      <g>
       <use style="stroke:#000000;stroke-width:0.8;" x="203.564813" xlink:href="#m2dec351d4f" y="307.584"/>
      </g>
     </g>
     <g id="text_3">
      <!-- 400 -->
      <defs>
       <path d="M 37.796875 64.3125 
L 12.890625 25.390625 
L 37.796875 25.390625 
z
M 35.203125 72.90625 
L 47.609375 72.90625 
L 47.609375 25.390625 
L 58.015625 25.390625 
L 58.015625 17.1875 
L 47.609375 17.1875 
L 47.609375 0 
L 37.796875 0 
L 37.796875 17.1875 
L 4.890625 17.1875 
L 4.890625 26.703125 
z
" id="DejaVuSans-34"/>
      </defs>
      <g transform="translate(194.021063 322.182437)scale(0.1 -0.1)">
       <use xlink:href="#DejaVuSans-34"/>
       <use x="63.623047" xlink:href="#DejaVuSans-30"/>
       <use x="127.246094" xlink:href="#DejaVuSans-30"/>
      </g>
     </g>
    </g>
    <g id="xtick_4">
     <g id="line2d_4">
      <g>
       <use style="stroke:#000000;stroke-width:0.8;" x="268.430856" xlink:href="#m2dec351d4f" y="307.584"/>
      </g>
     </g>
     <g id="text_4">
      <!-- 600 -->
      <defs>
       <path d="M 33.015625 40.375 
Q 26.375 40.375 22.484375 35.828125 
Q 18.609375 31.296875 18.609375 23.390625 
Q 18.609375 15.53125 22.484375 10.953125 
Q 26.375 6.390625 33.015625 6.390625 
Q 39.65625 6.390625 43.53125 10.953125 
Q 47.40625 15.53125 47.40625 23.390625 
Q 47.40625 31.296875 43.53125 35.828125 
Q 39.65625 40.375 33.015625 40.375 
z
M 52.59375 71.296875 
L 52.59375 62.3125 
Q 48.875 64.0625 45.09375 64.984375 
Q 41.3125 65.921875 37.59375 65.921875 
Q 27.828125 65.921875 22.671875 59.328125 
Q 17.53125 52.734375 16.796875 39.40625 
Q 19.671875 43.65625 24.015625 45.921875 
Q 28.375 48.1875 33.59375 48.1875 
Q 44.578125 48.1875 50.953125 41.515625 
Q 57.328125 34.859375 57.328125 23.390625 
Q 57.328125 12.15625 50.6875 5.359375 
Q 44.046875 -1.421875 33.015625 -1.421875 
Q 20.359375 -1.421875 13.671875 8.265625 
Q 6.984375 17.96875 6.984375 36.375 
Q 6.984375 53.65625 15.1875 63.9375 
Q 23.390625 74.21875 37.203125 74.21875 
Q 40.921875 74.21875 44.703125 73.484375 
Q 48.484375 72.75 52.59375 71.296875 
z
" id="DejaVuSans-36"/>
      </defs>
      <g transform="translate(258.887106 322.182437)scale(0.1 -0.1)">
       <use xlink:href="#DejaVuSans-36"/>
       <use x="63.623047" xlink:href="#DejaVuSans-30"/>
       <use x="127.246094" xlink:href="#DejaVuSans-30"/>
      </g>
     </g>
    </g>
    <g id="xtick_5">
     <g id="line2d_5">
      <g>
       <use style="stroke:#000000;stroke-width:0.8;" x="333.296899" xlink:href="#m2dec351d4f" y="307.584"/>
      </g>
     </g>
     <g id="text_5">
      <!-- 800 -->
      <defs>
       <path d="M 31.78125 34.625 
Q 24.75 34.625 20.71875 30.859375 
Q 16.703125 27.09375 16.703125 20.515625 
Q 16.703125 13.921875 20.71875 10.15625 
Q 24.75 6.390625 31.78125 6.390625 
Q 38.8125 6.390625 42.859375 10.171875 
Q 46.921875 13.96875 46.921875 20.515625 
Q 46.921875 27.09375 42.890625 30.859375 
Q 38.875 34.625 31.78125 34.625 
z
M 21.921875 38.8125 
Q 15.578125 40.375 12.03125 44.71875 
Q 8.5 49.078125 8.5 55.328125 
Q 8.5 64.0625 14.71875 69.140625 
Q 20.953125 74.21875 31.78125 74.21875 
Q 42.671875 74.21875 48.875 69.140625 
Q 55.078125 64.0625 55.078125 55.328125 
Q 55.078125 49.078125 51.53125 44.71875 
Q 48 40.375 41.703125 38.8125 
Q 48.828125 37.15625 52.796875 32.3125 
Q 56.78125 27.484375 56.78125 20.515625 
Q 56.78125 9.90625 50.3125 4.234375 
Q 43.84375 -1.421875 31.78125 -1.421875 
Q 19.734375 -1.421875 13.25 4.234375 
Q 6.78125 9.90625 6.78125 20.515625 
Q 6.78125 27.484375 10.78125 32.3125 
Q 14.796875 37.15625 21.921875 38.8125 
z
M 18.3125 54.390625 
Q 18.3125 48.734375 21.84375 45.5625 
Q 25.390625 42.390625 31.78125 42.390625 
Q 38.140625 42.390625 41.71875 45.5625 
Q 45.3125 48.734375 45.3125 54.390625 
Q 45.3125 60.0625 41.71875 63.234375 
Q 38.140625 66.40625 31.78125 66.40625 
Q 25.390625 66.40625 21.84375 63.234375 
Q 18.3125 60.0625 18.3125 54.390625 
z
" id="DejaVuSans-38"/>
      </defs>
      <g transform="translate(323.753149 322.182437)scale(0.1 -0.1)">
       <use xlink:href="#DejaVuSans-38"/>
       <use x="63.623047" xlink:href="#DejaVuSans-30"/>
       <use x="127.246094" xlink:href="#DejaVuSans-30"/>
      </g>
     </g>
    </g>
    <g id="xtick_6">
     <g id="line2d_6">
      <g>
       <use style="stroke:#000000;stroke-width:0.8;" x="398.162943" xlink:href="#m2dec351d4f" y="307.584"/>
      </g>
     </g>
     <g id="text_6">
      <!-- 1000 -->
      <defs>
       <path d="M 12.40625 8.296875 
L 28.515625 8.296875 
L 28.515625 63.921875 
L 10.984375 60.40625 
L 10.984375 69.390625 
L 28.421875 72.90625 
L 38.28125 72.90625 
L 38.28125 8.296875 
L 54.390625 8.296875 
L 54.390625 0 
L 12.40625 0 
z
" id="DejaVuSans-31"/>
      </defs>
      <g transform="translate(385.437943 322.182437)scale(0.1 -0.1)">
       <use xlink:href="#DejaVuSans-31"/>
       <use x="63.623047" xlink:href="#DejaVuSans-30"/>
       <use x="127.246094" xlink:href="#DejaVuSans-30"/>
       <use x="190.869141" xlink:href="#DejaVuSans-30"/>
      </g>
     </g>
    </g>
    <g id="text_7">
     <!-- Number of Steps -->
     <defs>
      <path d="M 9.8125 72.90625 
L 23.09375 72.90625 
L 55.421875 11.921875 
L 55.421875 72.90625 
L 64.984375 72.90625 
L 64.984375 0 
L 51.703125 0 
L 19.390625 60.984375 
L 19.390625 0 
L 9.8125 0 
z
" id="DejaVuSans-4e"/>
      <path d="M 8.5 21.578125 
L 8.5 54.6875 
L 17.484375 54.6875 
L 17.484375 21.921875 
Q 17.484375 14.15625 20.5 10.265625 
Q 23.53125 6.390625 29.59375 6.390625 
Q 36.859375 6.390625 41.078125 11.03125 
Q 45.3125 15.671875 45.3125 23.6875 
L 45.3125 54.6875 
L 54.296875 54.6875 
L 54.296875 0 
L 45.3125 0 
L 45.3125 8.40625 
Q 42.046875 3.421875 37.71875 1 
Q 33.40625 -1.421875 27.6875 -1.421875 
Q 18.265625 -1.421875 13.375 4.4375 
Q 8.5 10.296875 8.5 21.578125 
z
M 31.109375 56 
z
" id="DejaVuSans-75"/>
      <path d="M 52 44.1875 
Q 55.375 50.25 60.0625 53.125 
Q 64.75 56 71.09375 56 
Q 79.640625 56 84.28125 50.015625 
Q 88.921875 44.046875 88.921875 33.015625 
L 88.921875 0 
L 79.890625 0 
L 79.890625 32.71875 
Q 79.890625 40.578125 77.09375 44.375 
Q 74.3125 48.1875 68.609375 48.1875 
Q 61.625 48.1875 57.5625 43.546875 
Q 53.515625 38.921875 53.515625 30.90625 
L 53.515625 0 
L 44.484375 0 
L 44.484375 32.71875 
Q 44.484375 40.625 41.703125 44.40625 
Q 38.921875 48.1875 33.109375 48.1875 
Q 26.21875 48.1875 22.15625 43.53125 
Q 18.109375 38.875 18.109375 30.90625 
L 18.109375 0 
L 9.078125 0 
L 9.078125 54.6875 
L 18.109375 54.6875 
L 18.109375 46.1875 
Q 21.1875 51.21875 25.484375 53.609375 
Q 29.78125 56 35.6875 56 
Q 41.65625 56 45.828125 52.96875 
Q 50 49.953125 52 44.1875 
z
" id="DejaVuSans-6d"/>
      <path d="M 48.6875 27.296875 
Q 48.6875 37.203125 44.609375 42.84375 
Q 40.53125 48.484375 33.40625 48.484375 
Q 26.265625 48.484375 22.1875 42.84375 
Q 18.109375 37.203125 18.109375 27.296875 
Q 18.109375 17.390625 22.1875 11.75 
Q 26.265625 6.109375 33.40625 6.109375 
Q 40.53125 6.109375 44.609375 11.75 
Q 48.6875 17.390625 48.6875 27.296875 
z
M 18.109375 46.390625 
Q 20.953125 51.265625 25.265625 53.625 
Q 29.59375 56 35.59375 56 
Q 45.5625 56 51.78125 48.09375 
Q 58.015625 40.1875 58.015625 27.296875 
Q 58.015625 14.40625 51.78125 6.484375 
Q 45.5625 -1.421875 35.59375 -1.421875 
Q 29.59375 -1.421875 25.265625 0.953125 
Q 20.953125 3.328125 18.109375 8.203125 
L 18.109375 0 
L 9.078125 0 
L 9.078125 75.984375 
L 18.109375 75.984375 
z
" id="DejaVuSans-62"/>
      <path d="M 56.203125 29.59375 
L 56.203125 25.203125 
L 14.890625 25.203125 
Q 15.484375 15.921875 20.484375 11.0625 
Q 25.484375 6.203125 34.421875 6.203125 
Q 39.59375 6.203125 44.453125 7.46875 
Q 49.3125 8.734375 54.109375 11.28125 
L 54.109375 2.78125 
Q 49.265625 0.734375 44.1875 -0.34375 
Q 39.109375 -1.421875 33.890625 -1.421875 
Q 20.796875 -1.421875 13.15625 6.1875 
Q 5.515625 13.8125 5.515625 26.8125 
Q 5.515625 40.234375 12.765625 48.109375 
Q 20.015625 56 32.328125 56 
Q 43.359375 56 49.78125 48.890625 
Q 56.203125 41.796875 56.203125 29.59375 
z
M 47.21875 32.234375 
Q 47.125 39.59375 43.09375 43.984375 
Q 39.0625 48.390625 32.421875 48.390625 
Q 24.90625 48.390625 20.390625 44.140625 
Q 15.875 39.890625 15.1875 32.171875 
z
" id="DejaVuSans-65"/>
      <path d="M 41.109375 46.296875 
Q 39.59375 47.171875 37.8125 47.578125 
Q 36.03125 48 33.890625 48 
Q 26.265625 48 22.1875 43.046875 
Q 18.109375 38.09375 18.109375 28.8125 
L 18.109375 0 
L 9.078125 0 
L 9.078125 54.6875 
L 18.109375 54.6875 
L 18.109375 46.1875 
Q 20.953125 51.171875 25.484375 53.578125 
Q 30.03125 56 36.53125 56 
Q 37.453125 56 38.578125 55.875 
Q 39.703125 55.765625 41.0625 55.515625 
z
" id="DejaVuSans-72"/>
      <path id="DejaVuSans-20"/>
      <path d="M 30.609375 48.390625 
Q 23.390625 48.390625 19.1875 42.75 
Q 14.984375 37.109375 14.984375 27.296875 
Q 14.984375 17.484375 19.15625 11.84375 
Q 23.34375 6.203125 30.609375 6.203125 
Q 37.796875 6.203125 41.984375 11.859375 
Q 46.1875 17.53125 46.1875 27.296875 
Q 46.1875 37.015625 41.984375 42.703125 
Q 37.796875 48.390625 30.609375 48.390625 
z
M 30.609375 56 
Q 42.328125 56 49.015625 48.375 
Q 55.71875 40.765625 55.71875 27.296875 
Q 55.71875 13.875 49.015625 6.21875 
Q 42.328125 -1.421875 30.609375 -1.421875 
Q 18.84375 -1.421875 12.171875 6.21875 
Q 5.515625 13.875 5.515625 27.296875 
Q 5.515625 40.765625 12.171875 48.375 
Q 18.84375 56 30.609375 56 
z
" id="DejaVuSans-6f"/>
      <path d="M 37.109375 75.984375 
L 37.109375 68.5 
L 28.515625 68.5 
Q 23.6875 68.5 21.796875 66.546875 
Q 19.921875 64.59375 19.921875 59.515625 
L 19.921875 54.6875 
L 34.71875 54.6875 
L 34.71875 47.703125 
L 19.921875 47.703125 
L 19.921875 0 
L 10.890625 0 
L 10.890625 47.703125 
L 2.296875 47.703125 
L 2.296875 54.6875 
L 10.890625 54.6875 
L 10.890625 58.5 
Q 10.890625 67.625 15.140625 71.796875 
Q 19.390625 75.984375 28.609375 75.984375 
z
" id="DejaVuSans-66"/>
      <path d="M 53.515625 70.515625 
L 53.515625 60.890625 
Q 47.90625 63.578125 42.921875 64.890625 
Q 37.9375 66.21875 33.296875 66.21875 
Q 25.25 66.21875 20.875 63.09375 
Q 16.5 59.96875 16.5 54.203125 
Q 16.5 49.359375 19.40625 46.890625 
Q 22.3125 44.4375 30.421875 42.921875 
L 36.375 41.703125 
Q 47.40625 39.59375 52.65625 34.296875 
Q 57.90625 29 57.90625 20.125 
Q 57.90625 9.515625 50.796875 4.046875 
Q 43.703125 -1.421875 29.984375 -1.421875 
Q 24.8125 -1.421875 18.96875 -0.25 
Q 13.140625 0.921875 6.890625 3.21875 
L 6.890625 13.375 
Q 12.890625 10.015625 18.65625 8.296875 
Q 24.421875 6.59375 29.984375 6.59375 
Q 38.421875 6.59375 43.015625 9.90625 
Q 47.609375 13.234375 47.609375 19.390625 
Q 47.609375 24.75 44.3125 27.78125 
Q 41.015625 30.8125 33.5 32.328125 
L 27.484375 33.5 
Q 16.453125 35.6875 11.515625 40.375 
Q 6.59375 45.0625 6.59375 53.421875 
Q 6.59375 63.09375 13.40625 68.65625 
Q 20.21875 74.21875 32.171875 74.21875 
Q 37.3125 74.21875 42.625 73.28125 
Q 47.953125 72.359375 53.515625 70.515625 
z
" id="DejaVuSans-53"/>
      <path d="M 18.3125 70.21875 
L 18.3125 54.6875 
L 36.8125 54.6875 
L 36.8125 47.703125 
L 18.3125 47.703125 
L 18.3125 18.015625 
Q 18.3125 11.328125 20.140625 9.421875 
Q 21.96875 7.515625 27.59375 7.515625 
L 36.8125 7.515625 
L 36.8125 0 
L 27.59375 0 
Q 17.1875 0 13.234375 3.875 
Q 9.28125 7.765625 9.28125 18.015625 
L 9.28125 47.703125 
L 2.6875 47.703125 
L 2.6875 54.6875 
L 9.28125 54.6875 
L 9.28125 70.21875 
z
" id="DejaVuSans-74"/>
      <path d="M 18.109375 8.203125 
L 18.109375 -20.796875 
L 9.078125 -20.796875 
L 9.078125 54.6875 
L 18.109375 54.6875 
L 18.109375 46.390625 
Q 20.953125 51.265625 25.265625 53.625 
Q 29.59375 56 35.59375 56 
Q 45.5625 56 51.78125 48.09375 
Q 58.015625 40.1875 58.015625 27.296875 
Q 58.015625 14.40625 51.78125 6.484375 
Q 45.5625 -1.421875 35.59375 -1.421875 
Q 29.59375 -1.421875 25.265625 0.953125 
Q 20.953125 3.328125 18.109375 8.203125 
z
M 48.6875 27.296875 
Q 48.6875 37.203125 44.609375 42.84375 
Q 40.53125 48.484375 33.40625 48.484375 
Q 26.265625 48.484375 22.1875 42.84375 
Q 18.109375 37.203125 18.109375 27.296875 
Q 18.109375 17.390625 22.1875 11.75 
Q 26.265625 6.109375 33.40625 6.109375 
Q 40.53125 6.109375 44.609375 11.75 
Q 48.6875 17.390625 48.6875 27.296875 
z
" id="DejaVuSans-70"/>
      <path d="M 44.28125 53.078125 
L 44.28125 44.578125 
Q 40.484375 46.53125 36.375 47.5 
Q 32.28125 48.484375 27.875 48.484375 
Q 21.1875 48.484375 17.84375 46.4375 
Q 14.5 44.390625 14.5 40.28125 
Q 14.5 37.15625 16.890625 35.375 
Q 19.28125 33.59375 26.515625 31.984375 
L 29.59375 31.296875 
Q 39.15625 29.25 43.1875 25.515625 
Q 47.21875 21.78125 47.21875 15.09375 
Q 47.21875 7.46875 41.1875 3.015625 
Q 35.15625 -1.421875 24.609375 -1.421875 
Q 20.21875 -1.421875 15.453125 -0.5625 
Q 10.6875 0.296875 5.421875 2 
L 5.421875 11.28125 
Q 10.40625 8.6875 15.234375 7.390625 
Q 20.0625 6.109375 24.8125 6.109375 
Q 31.15625 6.109375 34.5625 8.28125 
Q 37.984375 10.453125 37.984375 14.40625 
Q 37.984375 18.0625 35.515625 20.015625 
Q 33.0625 21.96875 24.703125 23.78125 
L 21.578125 24.515625 
Q 13.234375 26.265625 9.515625 29.90625 
Q 5.8125 33.546875 5.8125 39.890625 
Q 5.8125 47.609375 11.28125 51.796875 
Q 16.75 56 26.8125 56 
Q 31.78125 56 36.171875 55.265625 
Q 40.578125 54.546875 44.28125 53.078125 
z
" id="DejaVuSans-73"/>
     </defs>
     <g transform="translate(194.086562 335.860562)scale(0.1 -0.1)">
      <use xlink:href="#DejaVuSans-4e"/>
      <use x="74.804688" xlink:href="#DejaVuSans-75"/>
      <use x="138.183594" xlink:href="#DejaVuSans-6d"/>
      <use x="235.595703" xlink:href="#DejaVuSans-62"/>
      <use x="299.072266" xlink:href="#DejaVuSans-65"/>
      <use x="360.595703" xlink:href="#DejaVuSans-72"/>
      <use x="401.708984" xlink:href="#DejaVuSans-20"/>
      <use x="433.496094" xlink:href="#DejaVuSans-6f"/>
      <use x="494.677734" xlink:href="#DejaVuSans-66"/>
      <use x="529.882812" xlink:href="#DejaVuSans-20"/>
      <use x="561.669922" xlink:href="#DejaVuSans-53"/>
      <use x="625.146484" xlink:href="#DejaVuSans-74"/>
      <use x="664.355469" xlink:href="#DejaVuSans-65"/>
      <use x="725.878906" xlink:href="#DejaVuSans-70"/>
      <use x="789.355469" xlink:href="#DejaVuSans-73"/>
     </g>
    </g>
   </g>
   <g id="matplotlib.axis_2">
    <g id="ytick_1">
     <g id="line2d_7">
      <defs>
       <path d="M 0 0 
L -3.5 0 
" id="mfc121bcacd" style="stroke:#000000;stroke-width:0.8;"/>
      </defs>
      <g>
       <use style="stroke:#000000;stroke-width:0.8;" x="57.6" xlink:href="#mfc121bcacd" y="295.488"/>
      </g>
     </g>
     <g id="text_8">
      <!-- 0.0 -->
      <defs>
       <path d="M 10.6875 12.40625 
L 21 12.40625 
L 21 0 
L 10.6875 0 
z
" id="DejaVuSans-2e"/>
      </defs>
      <g transform="translate(34.696875 299.287219)scale(0.1 -0.1)">
       <use xlink:href="#DejaVuSans-30"/>
       <use x="63.623047" xlink:href="#DejaVuSans-2e"/>
       <use x="95.410156" xlink:href="#DejaVuSans-30"/>
      </g>
     </g>
    </g>
    <g id="ytick_2">
     <g id="line2d_8">
      <g>
       <use style="stroke:#000000;stroke-width:0.8;" x="57.6" xlink:href="#mfc121bcacd" y="262.973751"/>
      </g>
     </g>
     <g id="text_9">
      <!-- 2.5 -->
      <defs>
       <path d="M 10.796875 72.90625 
L 49.515625 72.90625 
L 49.515625 64.59375 
L 19.828125 64.59375 
L 19.828125 46.734375 
Q 21.96875 47.46875 24.109375 47.828125 
Q 26.265625 48.1875 28.421875 48.1875 
Q 40.625 48.1875 47.75 41.5 
Q 54.890625 34.8125 54.890625 23.390625 
Q 54.890625 11.625 47.5625 5.09375 
Q 40.234375 -1.421875 26.90625 -1.421875 
Q 22.3125 -1.421875 17.546875 -0.640625 
Q 12.796875 0.140625 7.71875 1.703125 
L 7.71875 11.625 
Q 12.109375 9.234375 16.796875 8.0625 
Q 21.484375 6.890625 26.703125 6.890625 
Q 35.15625 6.890625 40.078125 11.328125 
Q 45.015625 15.765625 45.015625 23.390625 
Q 45.015625 31 40.078125 35.4375 
Q 35.15625 39.890625 26.703125 39.890625 
Q 22.75 39.890625 18.8125 39.015625 
Q 14.890625 38.140625 10.796875 36.28125 
z
" id="DejaVuSans-35"/>
      </defs>
      <g transform="translate(34.696875 266.772969)scale(0.1 -0.1)">
       <use xlink:href="#DejaVuSans-32"/>
       <use x="63.623047" xlink:href="#DejaVuSans-2e"/>
       <use x="95.410156" xlink:href="#DejaVuSans-35"/>
      </g>
     </g>
    </g>
    <g id="ytick_3">
     <g id="line2d_9">
      <g>
       <use style="stroke:#000000;stroke-width:0.8;" x="57.6" xlink:href="#mfc121bcacd" y="230.459501"/>
      </g>
     </g>
     <g id="text_10">
      <!-- 5.0 -->
      <g transform="translate(34.696875 234.25872)scale(0.1 -0.1)">
       <use xlink:href="#DejaVuSans-35"/>
       <use x="63.623047" xlink:href="#DejaVuSans-2e"/>
       <use x="95.410156" xlink:href="#DejaVuSans-30"/>
      </g>
     </g>
    </g>
    <g id="ytick_4">
     <g id="line2d_10">
      <g>
       <use style="stroke:#000000;stroke-width:0.8;" x="57.6" xlink:href="#mfc121bcacd" y="197.945252"/>
      </g>
     </g>
     <g id="text_11">
      <!-- 7.5 -->
      <defs>
       <path d="M 8.203125 72.90625 
L 55.078125 72.90625 
L 55.078125 68.703125 
L 28.609375 0 
L 18.3125 0 
L 43.21875 64.59375 
L 8.203125 64.59375 
z
" id="DejaVuSans-37"/>
      </defs>
      <g transform="translate(34.696875 201.74447)scale(0.1 -0.1)">
       <use xlink:href="#DejaVuSans-37"/>
       <use x="63.623047" xlink:href="#DejaVuSans-2e"/>
       <use x="95.410156" xlink:href="#DejaVuSans-35"/>
      </g>
     </g>
    </g>
    <g id="ytick_5">
     <g id="line2d_11">
      <g>
       <use style="stroke:#000000;stroke-width:0.8;" x="57.6" xlink:href="#mfc121bcacd" y="165.431002"/>
      </g>
     </g>
     <g id="text_12">
      <!-- 10.0 -->
      <g transform="translate(28.334375 169.230221)scale(0.1 -0.1)">
       <use xlink:href="#DejaVuSans-31"/>
       <use x="63.623047" xlink:href="#DejaVuSans-30"/>
       <use x="127.246094" xlink:href="#DejaVuSans-2e"/>
       <use x="159.033203" xlink:href="#DejaVuSans-30"/>
      </g>
     </g>
    </g>
    <g id="ytick_6">
     <g id="line2d_12">
      <g>
       <use style="stroke:#000000;stroke-width:0.8;" x="57.6" xlink:href="#mfc121bcacd" y="132.916753"/>
      </g>
     </g>
     <g id="text_13">
      <!-- 12.5 -->
      <g transform="translate(28.334375 136.715972)scale(0.1 -0.1)">
       <use xlink:href="#DejaVuSans-31"/>
       <use x="63.623047" xlink:href="#DejaVuSans-32"/>
       <use x="127.246094" xlink:href="#DejaVuSans-2e"/>
       <use x="159.033203" xlink:href="#DejaVuSans-35"/>
      </g>
     </g>
    </g>
    <g id="ytick_7">
     <g id="line2d_13">
      <g>
       <use style="stroke:#000000;stroke-width:0.8;" x="57.6" xlink:href="#mfc121bcacd" y="100.402503"/>
      </g>
     </g>
     <g id="text_14">
      <!-- 15.0 -->
      <g transform="translate(28.334375 104.201722)scale(0.1 -0.1)">
       <use xlink:href="#DejaVuSans-31"/>
       <use x="63.623047" xlink:href="#DejaVuSans-35"/>
       <use x="127.246094" xlink:href="#DejaVuSans-2e"/>
       <use x="159.033203" xlink:href="#DejaVuSans-30"/>
      </g>
     </g>
    </g>
    <g id="ytick_8">
     <g id="line2d_14">
      <g>
       <use style="stroke:#000000;stroke-width:0.8;" x="57.6" xlink:href="#mfc121bcacd" y="67.888254"/>
      </g>
     </g>
     <g id="text_15">
      <!-- 17.5 -->
      <g transform="translate(28.334375 71.687473)scale(0.1 -0.1)">
       <use xlink:href="#DejaVuSans-31"/>
       <use x="63.623047" xlink:href="#DejaVuSans-37"/>
       <use x="127.246094" xlink:href="#DejaVuSans-2e"/>
       <use x="159.033203" xlink:href="#DejaVuSans-35"/>
      </g>
     </g>
    </g>
    <g id="text_16">
     <!-- Distance -->
     <defs>
      <path d="M 19.671875 64.796875 
L 19.671875 8.109375 
L 31.59375 8.109375 
Q 46.6875 8.109375 53.6875 14.9375 
Q 60.6875 21.78125 60.6875 36.53125 
Q 60.6875 51.171875 53.6875 57.984375 
Q 46.6875 64.796875 31.59375 64.796875 
z
M 9.8125 72.90625 
L 30.078125 72.90625 
Q 51.265625 72.90625 61.171875 64.09375 
Q 71.09375 55.28125 71.09375 36.53125 
Q 71.09375 17.671875 61.125 8.828125 
Q 51.171875 0 30.078125 0 
L 9.8125 0 
z
" id="DejaVuSans-44"/>
      <path d="M 9.421875 54.6875 
L 18.40625 54.6875 
L 18.40625 0 
L 9.421875 0 
z
M 9.421875 75.984375 
L 18.40625 75.984375 
L 18.40625 64.59375 
L 9.421875 64.59375 
z
" id="DejaVuSans-69"/>
      <path d="M 34.28125 27.484375 
Q 23.390625 27.484375 19.1875 25 
Q 14.984375 22.515625 14.984375 16.5 
Q 14.984375 11.71875 18.140625 8.90625 
Q 21.296875 6.109375 26.703125 6.109375 
Q 34.1875 6.109375 38.703125 11.40625 
Q 43.21875 16.703125 43.21875 25.484375 
L 43.21875 27.484375 
z
M 52.203125 31.203125 
L 52.203125 0 
L 43.21875 0 
L 43.21875 8.296875 
Q 40.140625 3.328125 35.546875 0.953125 
Q 30.953125 -1.421875 24.3125 -1.421875 
Q 15.921875 -1.421875 10.953125 3.296875 
Q 6 8.015625 6 15.921875 
Q 6 25.140625 12.171875 29.828125 
Q 18.359375 34.515625 30.609375 34.515625 
L 43.21875 34.515625 
L 43.21875 35.40625 
Q 43.21875 41.609375 39.140625 45 
Q 35.0625 48.390625 27.6875 48.390625 
Q 23 48.390625 18.546875 47.265625 
Q 14.109375 46.140625 10.015625 43.890625 
L 10.015625 52.203125 
Q 14.9375 54.109375 19.578125 55.046875 
Q 24.21875 56 28.609375 56 
Q 40.484375 56 46.34375 49.84375 
Q 52.203125 43.703125 52.203125 31.203125 
z
" id="DejaVuSans-61"/>
      <path d="M 54.890625 33.015625 
L 54.890625 0 
L 45.90625 0 
L 45.90625 32.71875 
Q 45.90625 40.484375 42.875 44.328125 
Q 39.84375 48.1875 33.796875 48.1875 
Q 26.515625 48.1875 22.3125 43.546875 
Q 18.109375 38.921875 18.109375 30.90625 
L 18.109375 0 
L 9.078125 0 
L 9.078125 54.6875 
L 18.109375 54.6875 
L 18.109375 46.1875 
Q 21.34375 51.125 25.703125 53.5625 
Q 30.078125 56 35.796875 56 
Q 45.21875 56 50.046875 50.171875 
Q 54.890625 44.34375 54.890625 33.015625 
z
" id="DejaVuSans-6e"/>
      <path d="M 48.78125 52.59375 
L 48.78125 44.1875 
Q 44.96875 46.296875 41.140625 47.34375 
Q 37.3125 48.390625 33.40625 48.390625 
Q 24.65625 48.390625 19.8125 42.84375 
Q 14.984375 37.3125 14.984375 27.296875 
Q 14.984375 17.28125 19.8125 11.734375 
Q 24.65625 6.203125 33.40625 6.203125 
Q 37.3125 6.203125 41.140625 7.25 
Q 44.96875 8.296875 48.78125 10.40625 
L 48.78125 2.09375 
Q 45.015625 0.34375 40.984375 -0.53125 
Q 36.96875 -1.421875 32.421875 -1.421875 
Q 20.0625 -1.421875 12.78125 6.34375 
Q 5.515625 14.109375 5.515625 27.296875 
Q 5.515625 40.671875 12.859375 48.328125 
Q 20.21875 56 33.015625 56 
Q 37.15625 56 41.109375 55.140625 
Q 45.0625 54.296875 48.78125 52.59375 
z
" id="DejaVuSans-63"/>
     </defs>
     <g transform="translate(22.254687 196.3905)rotate(-90)scale(0.1 -0.1)">
      <use xlink:href="#DejaVuSans-44"/>
      <use x="77.001953" xlink:href="#DejaVuSans-69"/>
      <use x="104.785156" xlink:href="#DejaVuSans-73"/>
      <use x="156.884766" xlink:href="#DejaVuSans-74"/>
      <use x="196.09375" xlink:href="#DejaVuSans-61"/>
      <use x="257.373047" xlink:href="#DejaVuSans-6e"/>
      <use x="320.751953" xlink:href="#DejaVuSans-63"/>
      <use x="375.732422" xlink:href="#DejaVuSans-65"/>
     </g>
    </g>
   </g>
   <g id="line2d_15">
    <path clip-path="url(#pce86b4cab5)" d="M 73.832727 295.488 
L 74.157057 282.4823 
L 74.481388 277.095163 
L 74.805718 282.4823 
L 75.130048 295.488 
L 75.454378 282.4823 
L 75.778709 277.095163 
L 76.103039 266.406371 
L 76.427369 269.4766 
L 77.076029 295.488 
L 77.72469 269.4766 
L 78.04902 266.406371 
L 78.37335 254.360366 
L 78.697681 256.470901 
L 79.346341 282.4823 
L 79.670671 277.095163 
L 80.643662 248.595283 
L 80.967992 254.360366 
L 81.616652 277.095163 
L 81.940983 282.4823 
L 82.265313 277.095163 
L 82.913973 258.702326 
L 83.238304 266.406371 
L 83.562634 277.095163 
L 83.886964 282.4823 
L 84.211294 295.488 
L 84.535624 282.4823 
L 84.859955 277.095163 
L 85.184285 266.406371 
L 85.508615 269.4766 
L 85.832945 256.470901 
L 86.157275 254.360366 
L 86.805936 277.095163 
L 88.103257 237.324742 
L 88.427587 241.864126 
L 89.076247 266.406371 
L 89.400578 269.4766 
L 89.724908 266.406371 
L 90.049238 254.360366 
L 90.373568 248.595283 
L 91.022229 266.406371 
L 91.346559 269.4766 
L 91.995219 295.488 
L 92.64388 269.4766 
L 92.96821 266.406371 
L 93.29254 258.702326 
L 93.61687 266.406371 
L 94.265531 241.864126 
L 94.589861 243.465201 
L 94.914191 230.459501 
L 95.238521 229.171683 
L 95.887182 254.360366 
L 96.211512 248.595283 
L 97.184503 221.916652 
L 98.806154 266.406371 
L 99.454814 241.864126 
L 99.779144 237.324742 
L 100.103475 225.450163 
L 100.427805 229.171683 
L 101.076465 254.360366 
L 101.400796 256.470901 
L 101.725126 254.360366 
L 102.049456 241.864126 
L 102.373786 237.324742 
L 102.698116 248.595283 
L 103.022447 254.360366 
L 103.346777 256.470901 
L 103.995437 282.4823 
L 104.319768 277.095163 
L 105.292758 248.595283 
L 105.617088 254.360366 
L 106.265749 229.171683 
L 106.590079 230.459501 
L 106.914409 217.453801 
L 107.238739 216.377417 
L 107.8874 241.864126 
L 108.21173 237.324742 
L 108.53606 230.459501 
L 109.184721 212.210889 
L 109.833381 230.459501 
L 110.157711 237.324742 
L 110.806372 258.702326 
L 112.103693 219.65239 
L 112.428023 225.450163 
L 113.076683 248.595283 
L 113.401014 254.360366 
L 113.725344 256.470901 
L 114.049674 243.465201 
L 114.374004 241.864126 
L 114.698334 254.360366 
L 115.022665 256.470901 
L 115.346995 254.360366 
L 115.995655 277.095163 
L 116.319985 282.4823 
L 116.644316 277.095163 
L 117.292976 254.360366 
L 117.617306 256.470901 
L 118.265967 230.459501 
L 118.590297 229.171683 
L 118.914627 216.377417 
L 119.238957 217.453801 
L 119.887618 243.465201 
L 120.211948 241.864126 
L 120.536278 237.324742 
L 120.860608 225.450163 
L 121.184939 219.65239 
L 121.509269 230.459501 
L 122.157929 241.864126 
L 122.80659 266.406371 
L 123.45525 248.595283 
L 124.103911 230.459501 
L 124.428241 237.324742 
L 125.076901 258.702326 
L 125.401231 266.406371 
L 125.725562 269.4766 
L 126.374222 243.465201 
L 126.698552 241.864126 
L 127.022883 229.171683 
L 127.347213 230.459501 
L 127.995873 256.470901 
L 128.320203 254.360366 
L 128.644534 248.595283 
L 128.968864 237.324742 
L 129.293194 230.459501 
L 129.941855 248.595283 
L 130.266185 254.360366 
L 130.590515 266.406371 
L 130.914845 269.4766 
L 131.239175 266.406371 
L 131.563506 277.095163 
L 131.887836 282.4823 
L 132.212166 295.488 
L 132.536496 282.4823 
L 132.860826 277.095163 
L 133.185157 266.406371 
L 133.509487 269.4766 
L 134.158147 243.465201 
L 134.482478 241.864126 
L 134.806808 237.324742 
L 135.131138 248.595283 
L 135.779798 230.459501 
L 136.104129 237.324742 
L 136.752789 213.232732 
L 137.077119 216.377417 
L 137.401449 203.523815 
L 137.72578 200.805076 
L 138.37444 225.450163 
L 139.023101 212.210889 
L 139.671761 193.910238 
L 141.293412 240.309489 
L 142.590733 201.702565 
L 142.915063 208.243114 
L 143.563724 230.459501 
L 144.212384 241.864126 
L 144.861044 216.377417 
L 145.185375 213.232732 
L 145.509705 200.805076 
L 145.834035 203.523815 
L 146.482695 229.171683 
L 146.807026 230.459501 
L 147.131356 229.171683 
L 147.455686 216.377417 
L 147.780016 213.232732 
L 148.104347 225.450163 
L 148.428677 229.171683 
L 148.753007 230.459501 
L 149.401667 256.470901 
L 149.725998 254.360366 
L 150.050328 248.595283 
L 150.698988 225.450163 
L 151.023318 229.171683 
L 151.671979 203.523815 
L 151.996309 204.448102 
L 152.320639 191.442402 
L 152.64497 190.632696 
L 153.29363 216.377417 
L 153.61796 213.232732 
L 153.94229 208.243114 
L 154.266621 196.439541 
L 154.590951 190.632696 
L 154.915281 201.702565 
L 155.563942 213.232732 
L 156.212602 237.324742 
L 156.861262 221.916652 
L 157.509923 203.523815 
L 159.131574 248.595283 
L 159.780234 225.450163 
L 160.104565 219.65239 
L 160.428895 208.243114 
L 160.753225 213.232732 
L 161.401885 237.324742 
L 161.726216 241.864126 
L 162.050546 243.465201 
L 162.699206 217.453801 
L 163.023536 216.377417 
L 163.347867 203.523815 
L 163.672197 204.448102 
L 164.320857 230.459501 
L 164.645188 229.171683 
L 164.969518 225.450163 
L 165.293848 213.232732 
L 165.618178 208.243114 
L 165.942508 219.65239 
L 166.266839 225.450163 
L 166.591169 229.171683 
L 166.915499 241.864126 
L 167.239829 243.465201 
L 167.564159 241.864126 
L 167.88849 254.360366 
L 168.21282 248.595283 
L 168.53715 240.309489 
L 169.510141 266.406371 
L 169.834471 277.095163 
L 171.456122 225.450163 
L 172.104782 212.210889 
L 172.429113 221.916652 
L 173.077773 201.702565 
L 173.402103 208.243114 
L 174.050764 184.367252 
L 174.375094 188.240252 
L 174.699424 175.581373 
L 175.023754 172.105098 
L 175.672415 196.439541 
L 176.321075 183.60874 
L 176.969736 165.431002 
L 177.618396 183.60874 
L 177.942726 190.632696 
L 178.591387 212.210889 
L 179.888708 175.581373 
L 180.537368 193.910238 
L 181.510359 219.65239 
L 182.159019 196.439541 
L 182.483349 190.632696 
L 182.80768 179.161485 
L 183.13201 184.367252 
L 183.78067 208.243114 
L 184.105 213.232732 
L 184.429331 216.377417 
L 185.077991 190.632696 
L 185.402321 188.240252 
L 185.726652 175.581373 
L 186.050982 177.71638 
L 186.699642 203.523815 
L 187.023972 204.448102 
L 187.348303 203.523815 
L 187.672633 190.632696 
L 187.996963 188.240252 
L 188.321293 200.805076 
L 188.645623 203.523815 
L 188.969954 204.448102 
L 189.294284 217.453801 
L 189.618614 216.377417 
L 189.942944 213.232732 
L 190.591605 237.324742 
L 190.915935 241.864126 
L 191.240265 243.465201 
L 191.888926 217.453801 
L 192.213256 216.377417 
L 192.861916 190.632696 
L 193.186246 188.240252 
L 193.510577 184.367252 
L 193.834907 196.439541 
L 194.483567 183.60874 
L 194.807898 193.910238 
L 195.456558 175.581373 
L 195.780888 183.60874 
L 196.429549 161.586125 
L 196.753879 167.396712 
L 197.078209 155.412327 
L 197.402539 150.079856 
L 198.0512 172.792474 
L 198.69986 157.235515 
L 199.348521 138.878636 
L 200.970172 185.130978 
L 202.267493 147.200207 
L 202.591823 154.809848 
L 203.564813 183.60874 
L 203.889144 190.632696 
L 204.537804 167.396712 
L 204.862134 161.586125 
L 205.186464 150.079856 
L 205.510795 155.412327 
L 206.159455 179.161485 
L 206.808116 188.240252 
L 207.456776 162.855366 
L 207.781106 159.704508 
L 208.105436 147.200207 
L 208.429767 150.079856 
L 209.078427 175.581373 
L 209.402757 177.71638 
L 209.727087 178.436702 
L 210.051418 165.431002 
L 210.375748 164.782335 
L 210.700078 177.71638 
L 211.024408 178.436702 
L 211.348739 177.71638 
L 211.997399 203.523815 
L 212.321729 204.448102 
L 212.646059 203.523815 
L 213.29472 177.71638 
L 213.61905 178.436702 
L 214.26771 152.425302 
L 214.592041 151.835351 
L 214.916371 138.878636 
L 215.240701 139.419603 
L 215.889362 165.431002 
L 216.213692 164.782335 
L 216.538022 162.855366 
L 216.862352 150.079856 
L 217.186682 147.200207 
L 217.511013 159.704508 
L 217.835343 162.855366 
L 218.159673 164.782335 
L 218.808333 190.632696 
L 219.132664 188.240252 
L 219.456994 184.367252 
L 219.781324 172.105098 
L 220.105654 167.396712 
L 220.429985 179.161485 
L 221.078645 188.240252 
L 221.727305 213.232732 
L 222.375966 201.702565 
L 222.700296 190.632696 
L 223.024626 183.60874 
L 223.673287 201.702565 
L 223.997617 208.243114 
L 224.646277 230.459501 
L 225.943598 193.910238 
L 226.267928 201.702565 
L 227.240919 230.459501 
L 227.565249 237.324742 
L 228.21391 213.232732 
L 228.53824 208.243114 
L 228.86257 196.439541 
L 229.1869 200.805076 
L 229.835561 225.450163 
L 230.159891 229.171683 
L 230.484221 230.459501 
L 231.132882 204.448102 
L 231.457212 203.523815 
L 231.781542 190.632696 
L 232.105872 191.442402 
L 232.754533 217.453801 
L 233.078863 216.377417 
L 233.403193 213.232732 
L 233.727523 200.805076 
L 234.051854 196.439541 
L 234.376184 208.243114 
L 234.700514 213.232732 
L 235.024844 216.377417 
L 235.349174 229.171683 
L 235.673505 230.459501 
L 235.997835 229.171683 
L 236.322165 241.864126 
L 236.646495 237.324742 
L 236.970826 230.459501 
L 237.295156 240.309489 
L 237.943816 219.65239 
L 238.268146 225.450163 
L 238.916807 200.805076 
L 239.241137 203.523815 
L 239.565467 204.448102 
L 240.214128 230.459501 
L 240.538458 229.171683 
L 240.862788 225.450163 
L 241.187118 213.232732 
L 241.835779 201.702565 
L 242.484439 179.161485 
L 242.808769 184.367252 
L 243.45743 159.704508 
L 243.78176 162.855366 
L 244.43042 137.266833 
L 244.754751 138.878636 
L 245.079081 125.914422 
L 245.403411 124.424727 
L 246.052072 150.079856 
L 246.376402 147.200207 
L 246.700732 143.260187 
L 247.025062 130.977465 
L 247.349392 126.413903 
L 247.673723 138.339532 
L 248.322383 147.200207 
L 248.971044 172.105098 
L 249.619704 161.586125 
L 249.944034 150.079856 
L 250.268364 143.816781 
L 250.592695 154.809848 
L 251.241355 167.396712 
L 251.890015 190.632696 
L 252.538676 175.581373 
L 253.187336 157.235515 
L 254.808987 203.523815 
L 256.106308 165.431002 
L 256.430638 172.792474 
L 257.403629 201.702565 
L 257.727959 208.243114 
L 258.37662 184.367252 
L 258.70095 179.161485 
L 259.02528 167.396712 
L 259.34961 172.105098 
L 259.998271 196.439541 
L 260.322601 200.805076 
L 260.646931 203.523815 
L 261.295592 177.71638 
L 261.619922 175.581373 
L 261.944252 162.855366 
L 262.268582 164.782335 
L 262.917243 190.632696 
L 263.241573 191.442402 
L 263.565903 190.632696 
L 263.890233 177.71638 
L 264.214564 175.581373 
L 264.538894 188.240252 
L 264.863224 190.632696 
L 265.187554 191.442402 
L 265.511884 204.448102 
L 265.836215 203.523815 
L 266.160545 200.805076 
L 266.484875 213.232732 
L 267.133536 201.702565 
L 267.457866 212.210889 
L 268.106526 193.910238 
L 269.079517 219.65239 
L 269.403847 230.459501 
L 270.701168 193.910238 
L 271.349828 175.581373 
L 271.674159 166.738141 
L 271.998489 175.581373 
L 272.647149 154.809848 
L 272.971479 161.586125 
L 273.62014 138.339532 
L 273.94447 143.260187 
L 274.593131 118.591358 
L 274.917461 121.970323 
L 275.241791 109.274718 
L 275.566121 106.122153 
L 276.214782 130.977465 
L 276.863442 120.998227 
L 277.187772 109.274718 
L 277.512102 103.461144 
L 277.836433 114.807044 
L 278.485093 126.413903 
L 279.133754 150.079856 
L 279.782414 136.733202 
L 280.431074 118.591358 
L 281.079735 136.733202 
L 281.404065 143.816781 
L 282.052725 165.431002 
L 283.350046 129.952467 
L 284.971697 175.581373 
L 286.269018 136.733202 
L 286.593348 143.816781 
L 287.242009 165.431002 
L 287.890669 179.161485 
L 288.53933 155.412327 
L 288.86366 150.079856 
L 289.18799 138.339532 
L 289.51232 143.260187 
L 290.160981 167.396712 
L 290.809641 175.581373 
L 291.458302 150.079856 
L 291.782632 147.200207 
L 292.106962 134.616378 
L 292.431292 137.266833 
L 293.079953 162.855366 
L 293.404283 164.782335 
L 293.728613 165.431002 
L 294.052943 152.425302 
L 294.377274 151.835351 
L 294.701604 164.782335 
L 295.025934 165.431002 
L 295.350264 164.782335 
L 295.674594 177.71638 
L 295.998925 175.581373 
L 296.323255 172.105098 
L 296.647585 184.367252 
L 297.296246 172.792474 
L 298.269236 201.702565 
L 298.593566 208.243114 
L 299.242227 184.367252 
L 299.566557 179.161485 
L 300.215218 155.412327 
L 300.863878 143.816781 
L 301.188208 154.809848 
L 301.836869 138.878636 
L 302.161199 148.345304 
L 302.809859 128.933777 
L 303.134189 136.733202 
L 303.78285 114.807044 
L 304.10718 120.998227 
L 304.755841 97.391083 
L 305.080171 102.144373 
L 305.404501 89.849831 
L 305.728831 85.37449 
L 306.377492 109.274718 
L 307.026152 96.964609 
L 307.350482 85.777392 
L 307.674812 79.030016 
L 308.323473 96.964609 
L 308.647803 103.461144 
L 309.296464 125.914422 
L 309.945124 110.642276 
L 310.593784 92.332475 
L 312.215435 138.878636 
L 313.512756 102.144373 
L 315.134407 147.200207 
L 316.431728 107.91713 
L 316.756058 114.807044 
L 317.404719 136.733202 
L 318.053379 150.079856 
L 318.70204 126.413903 
L 319.02637 120.998227 
L 319.3507 109.274718 
L 319.67503 114.339564 
L 320.323691 138.339532 
L 320.972351 147.200207 
L 321.621012 121.970323 
L 321.945342 118.591358 
L 322.269672 106.122153 
L 322.594002 109.274718 
L 323.242663 134.616378 
L 323.566993 137.266833 
L 323.891323 138.878636 
L 324.215653 125.914422 
L 324.539984 126.413903 
L 324.864314 139.419603 
L 325.188644 138.878636 
L 325.512974 137.266833 
L 325.837305 150.079856 
L 326.161635 147.200207 
L 326.485965 143.260187 
L 327.134625 167.396712 
L 327.783286 175.581373 
L 328.431946 150.079856 
L 328.756276 147.200207 
L 329.404937 121.970323 
L 330.053597 114.339564 
L 330.377928 126.413903 
L 331.026588 114.807044 
L 331.350918 125.914422 
L 331.999579 110.642276 
L 332.323909 120.514205 
L 332.972569 102.144373 
L 333.296899 110.642276 
L 333.94556 89.849831 
L 334.26989 96.964609 
L 334.918551 74.391104 
L 335.242881 80.205362 
L 335.567211 68.353218 
L 335.891541 62.83497 
L 336.540202 85.777392 
L 337.188862 71.72948 
L 337.837522 53.568 
L 338.486183 71.72948 
L 338.810513 79.030016 
L 339.459174 100.402503 
L 340.756494 65.393683 
L 342.378145 111.55963 
L 343.675466 74.008914 
L 344.324127 92.332475 
L 345.297117 118.591358 
L 346.594438 79.030016 
L 346.918769 85.777392 
L 347.567429 107.91713 
L 348.216089 120.998227 
L 348.86475 97.391083 
L 349.18908 91.916598 
L 349.51341 80.205362 
L 349.83774 85.37449 
L 350.486401 109.274718 
L 351.135061 118.591358 
L 351.783722 93.585245 
L 352.108052 89.849831 
L 352.432382 77.472744 
L 352.756712 80.992504 
L 353.405373 106.122153 
L 354.054033 111.55963 
L 354.378363 98.676049 
L 354.702694 99.969461 
L 355.027024 112.944305 
L 355.351354 111.55963 
L 355.675684 109.274718 
L 356.324345 134.616378 
L 356.648675 137.266833 
L 356.973005 138.878636 
L 357.621666 112.944305 
L 357.945996 111.55963 
L 358.594656 85.777392 
L 358.918986 83.770547 
L 359.243317 70.974812 
L 359.567647 72.86628 
L 360.216307 98.676049 
L 360.540638 99.969461 
L 360.864968 100.402503 
L 361.189298 87.396804 
L 361.513628 86.990772 
L 361.837958 99.969461 
L 362.162289 100.402503 
L 362.486619 99.969461 
L 363.135279 125.914422 
L 363.459609 126.413903 
L 363.78394 125.914422 
L 364.10827 112.944305 
L 364.4326 111.55963 
L 364.75693 124.424727 
L 365.081261 125.914422 
L 365.405591 126.413903 
L 366.054251 152.425302 
L 366.378581 151.835351 
L 366.702912 150.079856 
L 367.027242 137.266833 
L 367.351572 134.616378 
L 367.675902 147.200207 
L 368.000232 150.079856 
L 368.324563 151.835351 
L 368.973223 177.71638 
L 369.297553 175.581373 
L 369.621884 172.105098 
L 369.946214 159.704508 
L 370.270544 155.412327 
L 370.594874 167.396712 
L 371.243535 175.581373 
L 371.892195 200.805076 
L 372.540856 190.632696 
L 372.865186 179.161485 
L 373.189516 172.792474 
L 373.513846 183.60874 
L 374.162507 196.439541 
L 374.811167 219.65239 
L 375.459827 203.523815 
L 376.108488 185.130978 
L 377.730139 230.459501 
L 379.02746 190.632696 
L 379.35179 196.439541 
L 380.00045 219.65239 
L 380.324781 225.450163 
L 380.649111 229.171683 
L 381.297771 203.523815 
L 381.622102 200.805076 
L 381.946432 188.240252 
L 382.270762 190.632696 
L 382.919422 216.377417 
L 383.243753 217.453801 
L 383.568083 216.377417 
L 384.216743 190.632696 
L 384.541073 191.442402 
L 384.865404 178.436702 
L 385.189734 177.71638 
L 385.838394 203.523815 
L 386.162725 200.805076 
L 386.487055 196.439541 
L 386.811385 184.367252 
L 387.135715 179.161485 
L 387.460045 190.632696 
L 388.108706 200.805076 
L 388.433036 213.232732 
L 388.757366 216.377417 
L 389.081696 217.453801 
L 389.406027 230.459501 
L 389.730357 229.171683 
L 390.054687 225.450163 
L 390.379017 237.324742 
L 391.027678 221.916652 
L 391.352008 230.459501 
L 392.000668 208.243114 
L 392.324999 213.232732 
L 392.973659 188.240252 
L 393.297989 190.632696 
L 393.94665 164.782335 
L 394.27098 165.431002 
L 394.91964 139.419603 
L 395.243971 138.878636 
L 395.568301 137.266833 
L 396.216961 162.855366 
L 396.541291 164.782335 
L 396.865622 165.431002 
L 397.189952 152.425302 
L 397.514282 151.835351 
L 397.838612 150.079856 
L 398.487273 124.424727 
L 398.487273 124.424727 
" style="fill:none;stroke:#1f77b4;stroke-linecap:square;stroke-width:1.5;"/>
   </g>
   <g id="patch_3">
    <path d="M 57.6 307.584 
L 57.6 41.472 
" style="fill:none;stroke:#000000;stroke-linecap:square;stroke-linejoin:miter;stroke-width:0.8;"/>
   </g>
   <g id="patch_4">
    <path d="M 414.72 307.584 
L 414.72 41.472 
" style="fill:none;stroke:#000000;stroke-linecap:square;stroke-linejoin:miter;stroke-width:0.8;"/>
   </g>
   <g id="patch_5">
    <path d="M 57.6 307.584 
L 414.72 307.584 
" style="fill:none;stroke:#000000;stroke-linecap:square;stroke-linejoin:miter;stroke-width:0.8;"/>
   </g>
   <g id="patch_6">
    <path d="M 57.6 41.472 
L 414.72 41.472 
" style="fill:none;stroke:#000000;stroke-linecap:square;stroke-linejoin:miter;stroke-width:0.8;"/>
   </g>
   <g id="text_17">
    <!-- Distance to Number of Steps, Golden Ratio Pattern with 1001 Steps -->
    <defs>
     <path d="M 11.71875 12.40625 
L 22.015625 12.40625 
L 22.015625 4 
L 14.015625 -11.625 
L 7.71875 -11.625 
L 11.71875 4 
z
" id="DejaVuSans-2c"/>
     <path d="M 59.515625 10.40625 
L 59.515625 29.984375 
L 43.40625 29.984375 
L 43.40625 38.09375 
L 69.28125 38.09375 
L 69.28125 6.78125 
Q 63.578125 2.734375 56.6875 0.65625 
Q 49.8125 -1.421875 42 -1.421875 
Q 24.90625 -1.421875 15.25 8.5625 
Q 5.609375 18.5625 5.609375 36.375 
Q 5.609375 54.25 15.25 64.234375 
Q 24.90625 74.21875 42 74.21875 
Q 49.125 74.21875 55.546875 72.453125 
Q 61.96875 70.703125 67.390625 67.28125 
L 67.390625 56.78125 
Q 61.921875 61.421875 55.765625 63.765625 
Q 49.609375 66.109375 42.828125 66.109375 
Q 29.4375 66.109375 22.71875 58.640625 
Q 16.015625 51.171875 16.015625 36.375 
Q 16.015625 21.625 22.71875 14.15625 
Q 29.4375 6.6875 42.828125 6.6875 
Q 48.046875 6.6875 52.140625 7.59375 
Q 56.25 8.5 59.515625 10.40625 
z
" id="DejaVuSans-47"/>
     <path d="M 9.421875 75.984375 
L 18.40625 75.984375 
L 18.40625 0 
L 9.421875 0 
z
" id="DejaVuSans-6c"/>
     <path d="M 45.40625 46.390625 
L 45.40625 75.984375 
L 54.390625 75.984375 
L 54.390625 0 
L 45.40625 0 
L 45.40625 8.203125 
Q 42.578125 3.328125 38.25 0.953125 
Q 33.9375 -1.421875 27.875 -1.421875 
Q 17.96875 -1.421875 11.734375 6.484375 
Q 5.515625 14.40625 5.515625 27.296875 
Q 5.515625 40.1875 11.734375 48.09375 
Q 17.96875 56 27.875 56 
Q 33.9375 56 38.25 53.625 
Q 42.578125 51.265625 45.40625 46.390625 
z
M 14.796875 27.296875 
Q 14.796875 17.390625 18.875 11.75 
Q 22.953125 6.109375 30.078125 6.109375 
Q 37.203125 6.109375 41.296875 11.75 
Q 45.40625 17.390625 45.40625 27.296875 
Q 45.40625 37.203125 41.296875 42.84375 
Q 37.203125 48.484375 30.078125 48.484375 
Q 22.953125 48.484375 18.875 42.84375 
Q 14.796875 37.203125 14.796875 27.296875 
z
" id="DejaVuSans-64"/>
     <path d="M 44.390625 34.1875 
Q 47.5625 33.109375 50.5625 29.59375 
Q 53.5625 26.078125 56.59375 19.921875 
L 66.609375 0 
L 56 0 
L 46.6875 18.703125 
Q 43.0625 26.03125 39.671875 28.421875 
Q 36.28125 30.8125 30.421875 30.8125 
L 19.671875 30.8125 
L 19.671875 0 
L 9.8125 0 
L 9.8125 72.90625 
L 32.078125 72.90625 
Q 44.578125 72.90625 50.734375 67.671875 
Q 56.890625 62.453125 56.890625 51.90625 
Q 56.890625 45.015625 53.6875 40.46875 
Q 50.484375 35.9375 44.390625 34.1875 
z
M 19.671875 64.796875 
L 19.671875 38.921875 
L 32.078125 38.921875 
Q 39.203125 38.921875 42.84375 42.21875 
Q 46.484375 45.515625 46.484375 51.90625 
Q 46.484375 58.296875 42.84375 61.546875 
Q 39.203125 64.796875 32.078125 64.796875 
z
" id="DejaVuSans-52"/>
     <path d="M 19.671875 64.796875 
L 19.671875 37.40625 
L 32.078125 37.40625 
Q 38.96875 37.40625 42.71875 40.96875 
Q 46.484375 44.53125 46.484375 51.125 
Q 46.484375 57.671875 42.71875 61.234375 
Q 38.96875 64.796875 32.078125 64.796875 
z
M 9.8125 72.90625 
L 32.078125 72.90625 
Q 44.34375 72.90625 50.609375 67.359375 
Q 56.890625 61.8125 56.890625 51.125 
Q 56.890625 40.328125 50.609375 34.8125 
Q 44.34375 29.296875 32.078125 29.296875 
L 19.671875 29.296875 
L 19.671875 0 
L 9.8125 0 
z
" id="DejaVuSans-50"/>
     <path d="M 4.203125 54.6875 
L 13.1875 54.6875 
L 24.421875 12.015625 
L 35.59375 54.6875 
L 46.1875 54.6875 
L 57.421875 12.015625 
L 68.609375 54.6875 
L 77.59375 54.6875 
L 63.28125 0 
L 52.6875 0 
L 40.921875 44.828125 
L 29.109375 0 
L 18.5 0 
z
" id="DejaVuSans-77"/>
     <path d="M 54.890625 33.015625 
L 54.890625 0 
L 45.90625 0 
L 45.90625 32.71875 
Q 45.90625 40.484375 42.875 44.328125 
Q 39.84375 48.1875 33.796875 48.1875 
Q 26.515625 48.1875 22.3125 43.546875 
Q 18.109375 38.921875 18.109375 30.90625 
L 18.109375 0 
L 9.078125 0 
L 9.078125 75.984375 
L 18.109375 75.984375 
L 18.109375 46.1875 
Q 21.34375 51.125 25.703125 53.5625 
Q 30.078125 56 35.796875 56 
Q 45.21875 56 50.046875 50.171875 
Q 54.890625 44.34375 54.890625 33.015625 
z
" id="DejaVuSans-68"/>
    </defs>
    <g transform="translate(32.685 35.472)scale(0.12 -0.12)">
     <use xlink:href="#DejaVuSans-44"/>
     <use x="77.001953" xlink:href="#DejaVuSans-69"/>
     <use x="104.785156" xlink:href="#DejaVuSans-73"/>
     <use x="156.884766" xlink:href="#DejaVuSans-74"/>
     <use x="196.09375" xlink:href="#DejaVuSans-61"/>
     <use x="257.373047" xlink:href="#DejaVuSans-6e"/>
     <use x="320.751953" xlink:href="#DejaVuSans-63"/>
     <use x="375.732422" xlink:href="#DejaVuSans-65"/>
     <use x="437.255859" xlink:href="#DejaVuSans-20"/>
     <use x="469.042969" xlink:href="#DejaVuSans-74"/>
     <use x="508.251953" xlink:href="#DejaVuSans-6f"/>
     <use x="569.433594" xlink:href="#DejaVuSans-20"/>
     <use x="601.220703" xlink:href="#DejaVuSans-4e"/>
     <use x="676.025391" xlink:href="#DejaVuSans-75"/>
     <use x="739.404297" xlink:href="#DejaVuSans-6d"/>
     <use x="836.816406" xlink:href="#DejaVuSans-62"/>
     <use x="900.292969" xlink:href="#DejaVuSans-65"/>
     <use x="961.816406" xlink:href="#DejaVuSans-72"/>
     <use x="1002.929688" xlink:href="#DejaVuSans-20"/>
     <use x="1034.716797" xlink:href="#DejaVuSans-6f"/>
     <use x="1095.898438" xlink:href="#DejaVuSans-66"/>
     <use x="1131.103516" xlink:href="#DejaVuSans-20"/>
     <use x="1162.890625" xlink:href="#DejaVuSans-53"/>
     <use x="1226.367188" xlink:href="#DejaVuSans-74"/>
     <use x="1265.576172" xlink:href="#DejaVuSans-65"/>
     <use x="1327.099609" xlink:href="#DejaVuSans-70"/>
     <use x="1390.576172" xlink:href="#DejaVuSans-73"/>
     <use x="1442.675781" xlink:href="#DejaVuSans-2c"/>
     <use x="1474.462891" xlink:href="#DejaVuSans-20"/>
     <use x="1506.25" xlink:href="#DejaVuSans-47"/>
     <use x="1583.740234" xlink:href="#DejaVuSans-6f"/>
     <use x="1644.921875" xlink:href="#DejaVuSans-6c"/>
     <use x="1672.705078" xlink:href="#DejaVuSans-64"/>
     <use x="1736.181641" xlink:href="#DejaVuSans-65"/>
     <use x="1797.705078" xlink:href="#DejaVuSans-6e"/>
     <use x="1861.083984" xlink:href="#DejaVuSans-20"/>
     <use x="1892.871094" xlink:href="#DejaVuSans-52"/>
     <use x="1962.322266" xlink:href="#DejaVuSans-61"/>
     <use x="2023.601562" xlink:href="#DejaVuSans-74"/>
     <use x="2062.810547" xlink:href="#DejaVuSans-69"/>
     <use x="2090.59375" xlink:href="#DejaVuSans-6f"/>
     <use x="2151.775391" xlink:href="#DejaVuSans-20"/>
     <use x="2183.5625" xlink:href="#DejaVuSans-50"/>
     <use x="2243.802734" xlink:href="#DejaVuSans-61"/>
     <use x="2305.082031" xlink:href="#DejaVuSans-74"/>
     <use x="2344.291016" xlink:href="#DejaVuSans-74"/>
     <use x="2383.5" xlink:href="#DejaVuSans-65"/>
     <use x="2445.023438" xlink:href="#DejaVuSans-72"/>
     <use x="2486.121094" xlink:href="#DejaVuSans-6e"/>
     <use x="2549.5" xlink:href="#DejaVuSans-20"/>
     <use x="2581.287109" xlink:href="#DejaVuSans-77"/>
     <use x="2663.074219" xlink:href="#DejaVuSans-69"/>
     <use x="2690.857422" xlink:href="#DejaVuSans-74"/>
     <use x="2730.066406" xlink:href="#DejaVuSans-68"/>
     <use x="2793.445312" xlink:href="#DejaVuSans-20"/>
     <use x="2825.232422" xlink:href="#DejaVuSans-31"/>
     <use x="2888.855469" xlink:href="#DejaVuSans-30"/>
     <use x="2952.478516" xlink:href="#DejaVuSans-30"/>
     <use x="3016.101562" xlink:href="#DejaVuSans-31"/>
     <use x="3079.724609" xlink:href="#DejaVuSans-20"/>
     <use x="3111.511719" xlink:href="#DejaVuSans-53"/>
     <use x="3174.988281" xlink:href="#DejaVuSans-74"/>
     <use x="3214.197266" xlink:href="#DejaVuSans-65"/>
     <use x="3275.720703" xlink:href="#DejaVuSans-70"/>
     <use x="3339.197266" xlink:href="#DejaVuSans-73"/>
    </g>
   </g>
  </g>
 </g>
 <defs>
  <clipPath id="pce86b4cab5">
   <rect height="266.112" width="357.12" x="57.6" y="41.472"/>
  </clipPath>
 </defs>
</svg>
