<?xml version="1.0" encoding="utf-8" standalone="no"?>
<!DOCTYPE svg PUBLIC "-//W3C//DTD SVG 1.1//EN"
  "http://www.w3.org/Graphics/SVG/1.1/DTD/svg11.dtd">
<!-- Created with matplotlib (http://matplotlib.org/) -->
<svg height="345.6pt" version="1.1" viewBox="0 0 460.8 345.6" width="460.8pt" xmlns="http://www.w3.org/2000/svg" xmlns:xlink="http://www.w3.org/1999/xlink">
 <defs>
  <style type="text/css">
*{stroke-linecap:butt;stroke-linejoin:round;}
  </style>
 </defs>
 <g id="figure_1">
  <g id="patch_1">
   <path d="M 0 345.6 
L 460.8 345.6 
L 460.8 0 
L 0 0 
z
" style="fill:#ffffff;"/>
  </g>
  <g id="axes_1">
   <g id="patch_2">
    <path d="M 57.6 307.584 
L 414.72 307.584 
L 414.72 41.472 
L 57.6 41.472 
z
" style="fill:#ffffff;"/>
   </g>
   <g id="matplotlib.axis_1">
    <g id="xtick_1">
     <g id="line2d_1">
      <defs>
       <path d="M 0 0 
L 0 3.5 
" id="m63bc287fb5" style="stroke:#000000;stroke-width:0.8;"/>
      </defs>
      <g>
       <use style="stroke:#000000;stroke-width:0.8;" x="73.832727" xlink:href="#m63bc287fb5" y="307.584"/>
      </g>
     </g>
     <g id="text_1">
      <!-- 0 -->
      <defs>
       <path d="M 31.78125 66.40625 
Q 24.171875 66.40625 20.328125 58.90625 
Q 16.5 51.421875 16.5 36.375 
Q 16.5 21.390625 20.328125 13.890625 
Q 24.171875 6.390625 31.78125 6.390625 
Q 39.453125 6.390625 43.28125 13.890625 
Q 47.125 21.390625 47.125 36.375 
Q 47.125 51.421875 43.28125 58.90625 
Q 39.453125 66.40625 31.78125 66.40625 
z
M 31.78125 74.21875 
Q 44.046875 74.21875 50.515625 64.515625 
Q 56.984375 54.828125 56.984375 36.375 
Q 56.984375 17.96875 50.515625 8.265625 
Q 44.046875 -1.421875 31.78125 -1.421875 
Q 19.53125 -1.421875 13.0625 8.265625 
Q 6.59375 17.96875 6.59375 36.375 
Q 6.59375 54.828125 13.0625 64.515625 
Q 19.53125 74.21875 31.78125 74.21875 
z
" id="DejaVuSans-30"/>
      </defs>
      <g transform="translate(70.651477 322.182437)scale(0.1 -0.1)">
       <use xlink:href="#DejaVuSans-30"/>
      </g>
     </g>
    </g>
    <g id="xtick_2">
     <g id="line2d_2">
      <g>
       <use style="stroke:#000000;stroke-width:0.8;" x="138.750653" xlink:href="#m63bc287fb5" y="307.584"/>
      </g>
     </g>
     <g id="text_2">
      <!-- 1000 -->
      <defs>
       <path d="M 12.40625 8.296875 
L 28.515625 8.296875 
L 28.515625 63.921875 
L 10.984375 60.40625 
L 10.984375 69.390625 
L 28.421875 72.90625 
L 38.28125 72.90625 
L 38.28125 8.296875 
L 54.390625 8.296875 
L 54.390625 0 
L 12.40625 0 
z
" id="DejaVuSans-31"/>
      </defs>
      <g transform="translate(126.025653 322.182437)scale(0.1 -0.1)">
       <use xlink:href="#DejaVuSans-31"/>
       <use x="63.623047" xlink:href="#DejaVuSans-30"/>
       <use x="127.246094" xlink:href="#DejaVuSans-30"/>
       <use x="190.869141" xlink:href="#DejaVuSans-30"/>
      </g>
     </g>
    </g>
    <g id="xtick_3">
     <g id="line2d_3">
      <g>
       <use style="stroke:#000000;stroke-width:0.8;" x="203.668578" xlink:href="#m63bc287fb5" y="307.584"/>
      </g>
     </g>
     <g id="text_3">
      <!-- 2000 -->
      <defs>
       <path d="M 19.1875 8.296875 
L 53.609375 8.296875 
L 53.609375 0 
L 7.328125 0 
L 7.328125 8.296875 
Q 12.9375 14.109375 22.625 23.890625 
Q 32.328125 33.6875 34.8125 36.53125 
Q 39.546875 41.84375 41.421875 45.53125 
Q 43.3125 49.21875 43.3125 52.78125 
Q 43.3125 58.59375 39.234375 62.25 
Q 35.15625 65.921875 28.609375 65.921875 
Q 23.96875 65.921875 18.8125 64.3125 
Q 13.671875 62.703125 7.8125 59.421875 
L 7.8125 69.390625 
Q 13.765625 71.78125 18.9375 73 
Q 24.125 74.21875 28.421875 74.21875 
Q 39.75 74.21875 46.484375 68.546875 
Q 53.21875 62.890625 53.21875 53.421875 
Q 53.21875 48.921875 51.53125 44.890625 
Q 49.859375 40.875 45.40625 35.40625 
Q 44.1875 33.984375 37.640625 27.21875 
Q 31.109375 20.453125 19.1875 8.296875 
z
" id="DejaVuSans-32"/>
      </defs>
      <g transform="translate(190.943578 322.182437)scale(0.1 -0.1)">
       <use xlink:href="#DejaVuSans-32"/>
       <use x="63.623047" xlink:href="#DejaVuSans-30"/>
       <use x="127.246094" xlink:href="#DejaVuSans-30"/>
       <use x="190.869141" xlink:href="#DejaVuSans-30"/>
      </g>
     </g>
    </g>
    <g id="xtick_4">
     <g id="line2d_4">
      <g>
       <use style="stroke:#000000;stroke-width:0.8;" x="268.586504" xlink:href="#m63bc287fb5" y="307.584"/>
      </g>
     </g>
     <g id="text_4">
      <!-- 3000 -->
      <defs>
       <path d="M 40.578125 39.3125 
Q 47.65625 37.796875 51.625 33 
Q 55.609375 28.21875 55.609375 21.1875 
Q 55.609375 10.40625 48.1875 4.484375 
Q 40.765625 -1.421875 27.09375 -1.421875 
Q 22.515625 -1.421875 17.65625 -0.515625 
Q 12.796875 0.390625 7.625 2.203125 
L 7.625 11.71875 
Q 11.71875 9.328125 16.59375 8.109375 
Q 21.484375 6.890625 26.8125 6.890625 
Q 36.078125 6.890625 40.9375 10.546875 
Q 45.796875 14.203125 45.796875 21.1875 
Q 45.796875 27.640625 41.28125 31.265625 
Q 36.765625 34.90625 28.71875 34.90625 
L 20.21875 34.90625 
L 20.21875 43.015625 
L 29.109375 43.015625 
Q 36.375 43.015625 40.234375 45.921875 
Q 44.09375 48.828125 44.09375 54.296875 
Q 44.09375 59.90625 40.109375 62.90625 
Q 36.140625 65.921875 28.71875 65.921875 
Q 24.65625 65.921875 20.015625 65.03125 
Q 15.375 64.15625 9.8125 62.3125 
L 9.8125 71.09375 
Q 15.4375 72.65625 20.34375 73.4375 
Q 25.25 74.21875 29.59375 74.21875 
Q 40.828125 74.21875 47.359375 69.109375 
Q 53.90625 64.015625 53.90625 55.328125 
Q 53.90625 49.265625 50.4375 45.09375 
Q 46.96875 40.921875 40.578125 39.3125 
z
" id="DejaVuSans-33"/>
      </defs>
      <g transform="translate(255.861504 322.182437)scale(0.1 -0.1)">
       <use xlink:href="#DejaVuSans-33"/>
       <use x="63.623047" xlink:href="#DejaVuSans-30"/>
       <use x="127.246094" xlink:href="#DejaVuSans-30"/>
       <use x="190.869141" xlink:href="#DejaVuSans-30"/>
      </g>
     </g>
    </g>
    <g id="xtick_5">
     <g id="line2d_5">
      <g>
       <use style="stroke:#000000;stroke-width:0.8;" x="333.504429" xlink:href="#m63bc287fb5" y="307.584"/>
      </g>
     </g>
     <g id="text_5">
      <!-- 4000 -->
      <defs>
       <path d="M 37.796875 64.3125 
L 12.890625 25.390625 
L 37.796875 25.390625 
z
M 35.203125 72.90625 
L 47.609375 72.90625 
L 47.609375 25.390625 
L 58.015625 25.390625 
L 58.015625 17.1875 
L 47.609375 17.1875 
L 47.609375 0 
L 37.796875 0 
L 37.796875 17.1875 
L 4.890625 17.1875 
L 4.890625 26.703125 
z
" id="DejaVuSans-34"/>
      </defs>
      <g transform="translate(320.779429 322.182437)scale(0.1 -0.1)">
       <use xlink:href="#DejaVuSans-34"/>
       <use x="63.623047" xlink:href="#DejaVuSans-30"/>
       <use x="127.246094" xlink:href="#DejaVuSans-30"/>
       <use x="190.869141" xlink:href="#DejaVuSans-30"/>
      </g>
     </g>
    </g>
    <g id="xtick_6">
     <g id="line2d_6">
      <g>
       <use style="stroke:#000000;stroke-width:0.8;" x="398.422355" xlink:href="#m63bc287fb5" y="307.584"/>
      </g>
     </g>
     <g id="text_6">
      <!-- 5000 -->
      <defs>
       <path d="M 10.796875 72.90625 
L 49.515625 72.90625 
L 49.515625 64.59375 
L 19.828125 64.59375 
L 19.828125 46.734375 
Q 21.96875 47.46875 24.109375 47.828125 
Q 26.265625 48.1875 28.421875 48.1875 
Q 40.625 48.1875 47.75 41.5 
Q 54.890625 34.8125 54.890625 23.390625 
Q 54.890625 11.625 47.5625 5.09375 
Q 40.234375 -1.421875 26.90625 -1.421875 
Q 22.3125 -1.421875 17.546875 -0.640625 
Q 12.796875 0.140625 7.71875 1.703125 
L 7.71875 11.625 
Q 12.109375 9.234375 16.796875 8.0625 
Q 21.484375 6.890625 26.703125 6.890625 
Q 35.15625 6.890625 40.078125 11.328125 
Q 45.015625 15.765625 45.015625 23.390625 
Q 45.015625 31 40.078125 35.4375 
Q 35.15625 39.890625 26.703125 39.890625 
Q 22.75 39.890625 18.8125 39.015625 
Q 14.890625 38.140625 10.796875 36.28125 
z
" id="DejaVuSans-35"/>
      </defs>
      <g transform="translate(385.697355 322.182437)scale(0.1 -0.1)">
       <use xlink:href="#DejaVuSans-35"/>
       <use x="63.623047" xlink:href="#DejaVuSans-30"/>
       <use x="127.246094" xlink:href="#DejaVuSans-30"/>
       <use x="190.869141" xlink:href="#DejaVuSans-30"/>
      </g>
     </g>
    </g>
    <g id="text_7">
     <!-- Number of Steps -->
     <defs>
      <path d="M 9.8125 72.90625 
L 23.09375 72.90625 
L 55.421875 11.921875 
L 55.421875 72.90625 
L 64.984375 72.90625 
L 64.984375 0 
L 51.703125 0 
L 19.390625 60.984375 
L 19.390625 0 
L 9.8125 0 
z
" id="DejaVuSans-4e"/>
      <path d="M 8.5 21.578125 
L 8.5 54.6875 
L 17.484375 54.6875 
L 17.484375 21.921875 
Q 17.484375 14.15625 20.5 10.265625 
Q 23.53125 6.390625 29.59375 6.390625 
Q 36.859375 6.390625 41.078125 11.03125 
Q 45.3125 15.671875 45.3125 23.6875 
L 45.3125 54.6875 
L 54.296875 54.6875 
L 54.296875 0 
L 45.3125 0 
L 45.3125 8.40625 
Q 42.046875 3.421875 37.71875 1 
Q 33.40625 -1.421875 27.6875 -1.421875 
Q 18.265625 -1.421875 13.375 4.4375 
Q 8.5 10.296875 8.5 21.578125 
z
M 31.109375 56 
z
" id="DejaVuSans-75"/>
      <path d="M 52 44.1875 
Q 55.375 50.25 60.0625 53.125 
Q 64.75 56 71.09375 56 
Q 79.640625 56 84.28125 50.015625 
Q 88.921875 44.046875 88.921875 33.015625 
L 88.921875 0 
L 79.890625 0 
L 79.890625 32.71875 
Q 79.890625 40.578125 77.09375 44.375 
Q 74.3125 48.1875 68.609375 48.1875 
Q 61.625 48.1875 57.5625 43.546875 
Q 53.515625 38.921875 53.515625 30.90625 
L 53.515625 0 
L 44.484375 0 
L 44.484375 32.71875 
Q 44.484375 40.625 41.703125 44.40625 
Q 38.921875 48.1875 33.109375 48.1875 
Q 26.21875 48.1875 22.15625 43.53125 
Q 18.109375 38.875 18.109375 30.90625 
L 18.109375 0 
L 9.078125 0 
L 9.078125 54.6875 
L 18.109375 54.6875 
L 18.109375 46.1875 
Q 21.1875 51.21875 25.484375 53.609375 
Q 29.78125 56 35.6875 56 
Q 41.65625 56 45.828125 52.96875 
Q 50 49.953125 52 44.1875 
z
" id="DejaVuSans-6d"/>
      <path d="M 48.6875 27.296875 
Q 48.6875 37.203125 44.609375 42.84375 
Q 40.53125 48.484375 33.40625 48.484375 
Q 26.265625 48.484375 22.1875 42.84375 
Q 18.109375 37.203125 18.109375 27.296875 
Q 18.109375 17.390625 22.1875 11.75 
Q 26.265625 6.109375 33.40625 6.109375 
Q 40.53125 6.109375 44.609375 11.75 
Q 48.6875 17.390625 48.6875 27.296875 
z
M 18.109375 46.390625 
Q 20.953125 51.265625 25.265625 53.625 
Q 29.59375 56 35.59375 56 
Q 45.5625 56 51.78125 48.09375 
Q 58.015625 40.1875 58.015625 27.296875 
Q 58.015625 14.40625 51.78125 6.484375 
Q 45.5625 -1.421875 35.59375 -1.421875 
Q 29.59375 -1.421875 25.265625 0.953125 
Q 20.953125 3.328125 18.109375 8.203125 
L 18.109375 0 
L 9.078125 0 
L 9.078125 75.984375 
L 18.109375 75.984375 
z
" id="DejaVuSans-62"/>
      <path d="M 56.203125 29.59375 
L 56.203125 25.203125 
L 14.890625 25.203125 
Q 15.484375 15.921875 20.484375 11.0625 
Q 25.484375 6.203125 34.421875 6.203125 
Q 39.59375 6.203125 44.453125 7.46875 
Q 49.3125 8.734375 54.109375 11.28125 
L 54.109375 2.78125 
Q 49.265625 0.734375 44.1875 -0.34375 
Q 39.109375 -1.421875 33.890625 -1.421875 
Q 20.796875 -1.421875 13.15625 6.1875 
Q 5.515625 13.8125 5.515625 26.8125 
Q 5.515625 40.234375 12.765625 48.109375 
Q 20.015625 56 32.328125 56 
Q 43.359375 56 49.78125 48.890625 
Q 56.203125 41.796875 56.203125 29.59375 
z
M 47.21875 32.234375 
Q 47.125 39.59375 43.09375 43.984375 
Q 39.0625 48.390625 32.421875 48.390625 
Q 24.90625 48.390625 20.390625 44.140625 
Q 15.875 39.890625 15.1875 32.171875 
z
" id="DejaVuSans-65"/>
      <path d="M 41.109375 46.296875 
Q 39.59375 47.171875 37.8125 47.578125 
Q 36.03125 48 33.890625 48 
Q 26.265625 48 22.1875 43.046875 
Q 18.109375 38.09375 18.109375 28.8125 
L 18.109375 0 
L 9.078125 0 
L 9.078125 54.6875 
L 18.109375 54.6875 
L 18.109375 46.1875 
Q 20.953125 51.171875 25.484375 53.578125 
Q 30.03125 56 36.53125 56 
Q 37.453125 56 38.578125 55.875 
Q 39.703125 55.765625 41.0625 55.515625 
z
" id="DejaVuSans-72"/>
      <path id="DejaVuSans-20"/>
      <path d="M 30.609375 48.390625 
Q 23.390625 48.390625 19.1875 42.75 
Q 14.984375 37.109375 14.984375 27.296875 
Q 14.984375 17.484375 19.15625 11.84375 
Q 23.34375 6.203125 30.609375 6.203125 
Q 37.796875 6.203125 41.984375 11.859375 
Q 46.1875 17.53125 46.1875 27.296875 
Q 46.1875 37.015625 41.984375 42.703125 
Q 37.796875 48.390625 30.609375 48.390625 
z
M 30.609375 56 
Q 42.328125 56 49.015625 48.375 
Q 55.71875 40.765625 55.71875 27.296875 
Q 55.71875 13.875 49.015625 6.21875 
Q 42.328125 -1.421875 30.609375 -1.421875 
Q 18.84375 -1.421875 12.171875 6.21875 
Q 5.515625 13.875 5.515625 27.296875 
Q 5.515625 40.765625 12.171875 48.375 
Q 18.84375 56 30.609375 56 
z
" id="DejaVuSans-6f"/>
      <path d="M 37.109375 75.984375 
L 37.109375 68.5 
L 28.515625 68.5 
Q 23.6875 68.5 21.796875 66.546875 
Q 19.921875 64.59375 19.921875 59.515625 
L 19.921875 54.6875 
L 34.71875 54.6875 
L 34.71875 47.703125 
L 19.921875 47.703125 
L 19.921875 0 
L 10.890625 0 
L 10.890625 47.703125 
L 2.296875 47.703125 
L 2.296875 54.6875 
L 10.890625 54.6875 
L 10.890625 58.5 
Q 10.890625 67.625 15.140625 71.796875 
Q 19.390625 75.984375 28.609375 75.984375 
z
" id="DejaVuSans-66"/>
      <path d="M 53.515625 70.515625 
L 53.515625 60.890625 
Q 47.90625 63.578125 42.921875 64.890625 
Q 37.9375 66.21875 33.296875 66.21875 
Q 25.25 66.21875 20.875 63.09375 
Q 16.5 59.96875 16.5 54.203125 
Q 16.5 49.359375 19.40625 46.890625 
Q 22.3125 44.4375 30.421875 42.921875 
L 36.375 41.703125 
Q 47.40625 39.59375 52.65625 34.296875 
Q 57.90625 29 57.90625 20.125 
Q 57.90625 9.515625 50.796875 4.046875 
Q 43.703125 -1.421875 29.984375 -1.421875 
Q 24.8125 -1.421875 18.96875 -0.25 
Q 13.140625 0.921875 6.890625 3.21875 
L 6.890625 13.375 
Q 12.890625 10.015625 18.65625 8.296875 
Q 24.421875 6.59375 29.984375 6.59375 
Q 38.421875 6.59375 43.015625 9.90625 
Q 47.609375 13.234375 47.609375 19.390625 
Q 47.609375 24.75 44.3125 27.78125 
Q 41.015625 30.8125 33.5 32.328125 
L 27.484375 33.5 
Q 16.453125 35.6875 11.515625 40.375 
Q 6.59375 45.0625 6.59375 53.421875 
Q 6.59375 63.09375 13.40625 68.65625 
Q 20.21875 74.21875 32.171875 74.21875 
Q 37.3125 74.21875 42.625 73.28125 
Q 47.953125 72.359375 53.515625 70.515625 
z
" id="DejaVuSans-53"/>
      <path d="M 18.3125 70.21875 
L 18.3125 54.6875 
L 36.8125 54.6875 
L 36.8125 47.703125 
L 18.3125 47.703125 
L 18.3125 18.015625 
Q 18.3125 11.328125 20.140625 9.421875 
Q 21.96875 7.515625 27.59375 7.515625 
L 36.8125 7.515625 
L 36.8125 0 
L 27.59375 0 
Q 17.1875 0 13.234375 3.875 
Q 9.28125 7.765625 9.28125 18.015625 
L 9.28125 47.703125 
L 2.6875 47.703125 
L 2.6875 54.6875 
L 9.28125 54.6875 
L 9.28125 70.21875 
z
" id="DejaVuSans-74"/>
      <path d="M 18.109375 8.203125 
L 18.109375 -20.796875 
L 9.078125 -20.796875 
L 9.078125 54.6875 
L 18.109375 54.6875 
L 18.109375 46.390625 
Q 20.953125 51.265625 25.265625 53.625 
Q 29.59375 56 35.59375 56 
Q 45.5625 56 51.78125 48.09375 
Q 58.015625 40.1875 58.015625 27.296875 
Q 58.015625 14.40625 51.78125 6.484375 
Q 45.5625 -1.421875 35.59375 -1.421875 
Q 29.59375 -1.421875 25.265625 0.953125 
Q 20.953125 3.328125 18.109375 8.203125 
z
M 48.6875 27.296875 
Q 48.6875 37.203125 44.609375 42.84375 
Q 40.53125 48.484375 33.40625 48.484375 
Q 26.265625 48.484375 22.1875 42.84375 
Q 18.109375 37.203125 18.109375 27.296875 
Q 18.109375 17.390625 22.1875 11.75 
Q 26.265625 6.109375 33.40625 6.109375 
Q 40.53125 6.109375 44.609375 11.75 
Q 48.6875 17.390625 48.6875 27.296875 
z
" id="DejaVuSans-70"/>
      <path d="M 44.28125 53.078125 
L 44.28125 44.578125 
Q 40.484375 46.53125 36.375 47.5 
Q 32.28125 48.484375 27.875 48.484375 
Q 21.1875 48.484375 17.84375 46.4375 
Q 14.5 44.390625 14.5 40.28125 
Q 14.5 37.15625 16.890625 35.375 
Q 19.28125 33.59375 26.515625 31.984375 
L 29.59375 31.296875 
Q 39.15625 29.25 43.1875 25.515625 
Q 47.21875 21.78125 47.21875 15.09375 
Q 47.21875 7.46875 41.1875 3.015625 
Q 35.15625 -1.421875 24.609375 -1.421875 
Q 20.21875 -1.421875 15.453125 -0.5625 
Q 10.6875 0.296875 5.421875 2 
L 5.421875 11.28125 
Q 10.40625 8.6875 15.234375 7.390625 
Q 20.0625 6.109375 24.8125 6.109375 
Q 31.15625 6.109375 34.5625 8.28125 
Q 37.984375 10.453125 37.984375 14.40625 
Q 37.984375 18.0625 35.515625 20.015625 
Q 33.0625 21.96875 24.703125 23.78125 
L 21.578125 24.515625 
Q 13.234375 26.265625 9.515625 29.90625 
Q 5.8125 33.546875 5.8125 39.890625 
Q 5.8125 47.609375 11.28125 51.796875 
Q 16.75 56 26.8125 56 
Q 31.78125 56 36.171875 55.265625 
Q 40.578125 54.546875 44.28125 53.078125 
z
" id="DejaVuSans-73"/>
     </defs>
     <g transform="translate(194.086562 335.860562)scale(0.1 -0.1)">
      <use xlink:href="#DejaVuSans-4e"/>
      <use x="74.804688" xlink:href="#DejaVuSans-75"/>
      <use x="138.183594" xlink:href="#DejaVuSans-6d"/>
      <use x="235.595703" xlink:href="#DejaVuSans-62"/>
      <use x="299.072266" xlink:href="#DejaVuSans-65"/>
      <use x="360.595703" xlink:href="#DejaVuSans-72"/>
      <use x="401.708984" xlink:href="#DejaVuSans-20"/>
      <use x="433.496094" xlink:href="#DejaVuSans-6f"/>
      <use x="494.677734" xlink:href="#DejaVuSans-66"/>
      <use x="529.882812" xlink:href="#DejaVuSans-20"/>
      <use x="561.669922" xlink:href="#DejaVuSans-53"/>
      <use x="625.146484" xlink:href="#DejaVuSans-74"/>
      <use x="664.355469" xlink:href="#DejaVuSans-65"/>
      <use x="725.878906" xlink:href="#DejaVuSans-70"/>
      <use x="789.355469" xlink:href="#DejaVuSans-73"/>
     </g>
    </g>
   </g>
   <g id="matplotlib.axis_2">
    <g id="ytick_1">
     <g id="line2d_7">
      <defs>
       <path d="M 0 0 
L -3.5 0 
" id="m67b881b755" style="stroke:#000000;stroke-width:0.8;"/>
      </defs>
      <g>
       <use style="stroke:#000000;stroke-width:0.8;" x="57.6" xlink:href="#m67b881b755" y="292.929907"/>
      </g>
     </g>
     <g id="text_8">
      <!-- 50 -->
      <g transform="translate(37.875 296.729125)scale(0.1 -0.1)">
       <use xlink:href="#DejaVuSans-35"/>
       <use x="63.623047" xlink:href="#DejaVuSans-30"/>
      </g>
     </g>
    </g>
    <g id="ytick_2">
     <g id="line2d_8">
      <g>
       <use style="stroke:#000000;stroke-width:0.8;" x="57.6" xlink:href="#m67b881b755" y="239.893342"/>
      </g>
     </g>
     <g id="text_9">
      <!-- 60 -->
      <defs>
       <path d="M 33.015625 40.375 
Q 26.375 40.375 22.484375 35.828125 
Q 18.609375 31.296875 18.609375 23.390625 
Q 18.609375 15.53125 22.484375 10.953125 
Q 26.375 6.390625 33.015625 6.390625 
Q 39.65625 6.390625 43.53125 10.953125 
Q 47.40625 15.53125 47.40625 23.390625 
Q 47.40625 31.296875 43.53125 35.828125 
Q 39.65625 40.375 33.015625 40.375 
z
M 52.59375 71.296875 
L 52.59375 62.3125 
Q 48.875 64.0625 45.09375 64.984375 
Q 41.3125 65.921875 37.59375 65.921875 
Q 27.828125 65.921875 22.671875 59.328125 
Q 17.53125 52.734375 16.796875 39.40625 
Q 19.671875 43.65625 24.015625 45.921875 
Q 28.375 48.1875 33.59375 48.1875 
Q 44.578125 48.1875 50.953125 41.515625 
Q 57.328125 34.859375 57.328125 23.390625 
Q 57.328125 12.15625 50.6875 5.359375 
Q 44.046875 -1.421875 33.015625 -1.421875 
Q 20.359375 -1.421875 13.671875 8.265625 
Q 6.984375 17.96875 6.984375 36.375 
Q 6.984375 53.65625 15.1875 63.9375 
Q 23.390625 74.21875 37.203125 74.21875 
Q 40.921875 74.21875 44.703125 73.484375 
Q 48.484375 72.75 52.59375 71.296875 
z
" id="DejaVuSans-36"/>
      </defs>
      <g transform="translate(37.875 243.692561)scale(0.1 -0.1)">
       <use xlink:href="#DejaVuSans-36"/>
       <use x="63.623047" xlink:href="#DejaVuSans-30"/>
      </g>
     </g>
    </g>
    <g id="ytick_3">
     <g id="line2d_9">
      <g>
       <use style="stroke:#000000;stroke-width:0.8;" x="57.6" xlink:href="#m67b881b755" y="186.856778"/>
      </g>
     </g>
     <g id="text_10">
      <!-- 70 -->
      <defs>
       <path d="M 8.203125 72.90625 
L 55.078125 72.90625 
L 55.078125 68.703125 
L 28.609375 0 
L 18.3125 0 
L 43.21875 64.59375 
L 8.203125 64.59375 
z
" id="DejaVuSans-37"/>
      </defs>
      <g transform="translate(37.875 190.655997)scale(0.1 -0.1)">
       <use xlink:href="#DejaVuSans-37"/>
       <use x="63.623047" xlink:href="#DejaVuSans-30"/>
      </g>
     </g>
    </g>
    <g id="ytick_4">
     <g id="line2d_10">
      <g>
       <use style="stroke:#000000;stroke-width:0.8;" x="57.6" xlink:href="#m67b881b755" y="133.820213"/>
      </g>
     </g>
     <g id="text_11">
      <!-- 80 -->
      <defs>
       <path d="M 31.78125 34.625 
Q 24.75 34.625 20.71875 30.859375 
Q 16.703125 27.09375 16.703125 20.515625 
Q 16.703125 13.921875 20.71875 10.15625 
Q 24.75 6.390625 31.78125 6.390625 
Q 38.8125 6.390625 42.859375 10.171875 
Q 46.921875 13.96875 46.921875 20.515625 
Q 46.921875 27.09375 42.890625 30.859375 
Q 38.875 34.625 31.78125 34.625 
z
M 21.921875 38.8125 
Q 15.578125 40.375 12.03125 44.71875 
Q 8.5 49.078125 8.5 55.328125 
Q 8.5 64.0625 14.71875 69.140625 
Q 20.953125 74.21875 31.78125 74.21875 
Q 42.671875 74.21875 48.875 69.140625 
Q 55.078125 64.0625 55.078125 55.328125 
Q 55.078125 49.078125 51.53125 44.71875 
Q 48 40.375 41.703125 38.8125 
Q 48.828125 37.15625 52.796875 32.3125 
Q 56.78125 27.484375 56.78125 20.515625 
Q 56.78125 9.90625 50.3125 4.234375 
Q 43.84375 -1.421875 31.78125 -1.421875 
Q 19.734375 -1.421875 13.25 4.234375 
Q 6.78125 9.90625 6.78125 20.515625 
Q 6.78125 27.484375 10.78125 32.3125 
Q 14.796875 37.15625 21.921875 38.8125 
z
M 18.3125 54.390625 
Q 18.3125 48.734375 21.84375 45.5625 
Q 25.390625 42.390625 31.78125 42.390625 
Q 38.140625 42.390625 41.71875 45.5625 
Q 45.3125 48.734375 45.3125 54.390625 
Q 45.3125 60.0625 41.71875 63.234375 
Q 38.140625 66.40625 31.78125 66.40625 
Q 25.390625 66.40625 21.84375 63.234375 
Q 18.3125 60.0625 18.3125 54.390625 
z
" id="DejaVuSans-38"/>
      </defs>
      <g transform="translate(37.875 137.619432)scale(0.1 -0.1)">
       <use xlink:href="#DejaVuSans-38"/>
       <use x="63.623047" xlink:href="#DejaVuSans-30"/>
      </g>
     </g>
    </g>
    <g id="ytick_5">
     <g id="line2d_11">
      <g>
       <use style="stroke:#000000;stroke-width:0.8;" x="57.6" xlink:href="#m67b881b755" y="80.783649"/>
      </g>
     </g>
     <g id="text_12">
      <!-- 90 -->
      <defs>
       <path d="M 10.984375 1.515625 
L 10.984375 10.5 
Q 14.703125 8.734375 18.5 7.8125 
Q 22.3125 6.890625 25.984375 6.890625 
Q 35.75 6.890625 40.890625 13.453125 
Q 46.046875 20.015625 46.78125 33.40625 
Q 43.953125 29.203125 39.59375 26.953125 
Q 35.25 24.703125 29.984375 24.703125 
Q 19.046875 24.703125 12.671875 31.3125 
Q 6.296875 37.9375 6.296875 49.421875 
Q 6.296875 60.640625 12.9375 67.421875 
Q 19.578125 74.21875 30.609375 74.21875 
Q 43.265625 74.21875 49.921875 64.515625 
Q 56.59375 54.828125 56.59375 36.375 
Q 56.59375 19.140625 48.40625 8.859375 
Q 40.234375 -1.421875 26.421875 -1.421875 
Q 22.703125 -1.421875 18.890625 -0.6875 
Q 15.09375 0.046875 10.984375 1.515625 
z
M 30.609375 32.421875 
Q 37.25 32.421875 41.125 36.953125 
Q 45.015625 41.5 45.015625 49.421875 
Q 45.015625 57.28125 41.125 61.84375 
Q 37.25 66.40625 30.609375 66.40625 
Q 23.96875 66.40625 20.09375 61.84375 
Q 16.21875 57.28125 16.21875 49.421875 
Q 16.21875 41.5 20.09375 36.953125 
Q 23.96875 32.421875 30.609375 32.421875 
z
" id="DejaVuSans-39"/>
      </defs>
      <g transform="translate(37.875 84.582868)scale(0.1 -0.1)">
       <use xlink:href="#DejaVuSans-39"/>
       <use x="63.623047" xlink:href="#DejaVuSans-30"/>
      </g>
     </g>
    </g>
    <g id="text_13">
     <!-- Distance -->
     <defs>
      <path d="M 19.671875 64.796875 
L 19.671875 8.109375 
L 31.59375 8.109375 
Q 46.6875 8.109375 53.6875 14.9375 
Q 60.6875 21.78125 60.6875 36.53125 
Q 60.6875 51.171875 53.6875 57.984375 
Q 46.6875 64.796875 31.59375 64.796875 
z
M 9.8125 72.90625 
L 30.078125 72.90625 
Q 51.265625 72.90625 61.171875 64.09375 
Q 71.09375 55.28125 71.09375 36.53125 
Q 71.09375 17.671875 61.125 8.828125 
Q 51.171875 0 30.078125 0 
L 9.8125 0 
z
" id="DejaVuSans-44"/>
      <path d="M 9.421875 54.6875 
L 18.40625 54.6875 
L 18.40625 0 
L 9.421875 0 
z
M 9.421875 75.984375 
L 18.40625 75.984375 
L 18.40625 64.59375 
L 9.421875 64.59375 
z
" id="DejaVuSans-69"/>
      <path d="M 34.28125 27.484375 
Q 23.390625 27.484375 19.1875 25 
Q 14.984375 22.515625 14.984375 16.5 
Q 14.984375 11.71875 18.140625 8.90625 
Q 21.296875 6.109375 26.703125 6.109375 
Q 34.1875 6.109375 38.703125 11.40625 
Q 43.21875 16.703125 43.21875 25.484375 
L 43.21875 27.484375 
z
M 52.203125 31.203125 
L 52.203125 0 
L 43.21875 0 
L 43.21875 8.296875 
Q 40.140625 3.328125 35.546875 0.953125 
Q 30.953125 -1.421875 24.3125 -1.421875 
Q 15.921875 -1.421875 10.953125 3.296875 
Q 6 8.015625 6 15.921875 
Q 6 25.140625 12.171875 29.828125 
Q 18.359375 34.515625 30.609375 34.515625 
L 43.21875 34.515625 
L 43.21875 35.40625 
Q 43.21875 41.609375 39.140625 45 
Q 35.0625 48.390625 27.6875 48.390625 
Q 23 48.390625 18.546875 47.265625 
Q 14.109375 46.140625 10.015625 43.890625 
L 10.015625 52.203125 
Q 14.9375 54.109375 19.578125 55.046875 
Q 24.21875 56 28.609375 56 
Q 40.484375 56 46.34375 49.84375 
Q 52.203125 43.703125 52.203125 31.203125 
z
" id="DejaVuSans-61"/>
      <path d="M 54.890625 33.015625 
L 54.890625 0 
L 45.90625 0 
L 45.90625 32.71875 
Q 45.90625 40.484375 42.875 44.328125 
Q 39.84375 48.1875 33.796875 48.1875 
Q 26.515625 48.1875 22.3125 43.546875 
Q 18.109375 38.921875 18.109375 30.90625 
L 18.109375 0 
L 9.078125 0 
L 9.078125 54.6875 
L 18.109375 54.6875 
L 18.109375 46.1875 
Q 21.34375 51.125 25.703125 53.5625 
Q 30.078125 56 35.796875 56 
Q 45.21875 56 50.046875 50.171875 
Q 54.890625 44.34375 54.890625 33.015625 
z
" id="DejaVuSans-6e"/>
      <path d="M 48.78125 52.59375 
L 48.78125 44.1875 
Q 44.96875 46.296875 41.140625 47.34375 
Q 37.3125 48.390625 33.40625 48.390625 
Q 24.65625 48.390625 19.8125 42.84375 
Q 14.984375 37.3125 14.984375 27.296875 
Q 14.984375 17.28125 19.8125 11.734375 
Q 24.65625 6.203125 33.40625 6.203125 
Q 37.3125 6.203125 41.140625 7.25 
Q 44.96875 8.296875 48.78125 10.40625 
L 48.78125 2.09375 
Q 45.015625 0.34375 40.984375 -0.53125 
Q 36.96875 -1.421875 32.421875 -1.421875 
Q 20.0625 -1.421875 12.78125 6.34375 
Q 5.515625 14.109375 5.515625 27.296875 
Q 5.515625 40.671875 12.859375 48.328125 
Q 20.21875 56 33.015625 56 
Q 37.15625 56 41.109375 55.140625 
Q 45.0625 54.296875 48.78125 52.59375 
z
" id="DejaVuSans-63"/>
     </defs>
     <g transform="translate(31.795312 196.3905)rotate(-90)scale(0.1 -0.1)">
      <use xlink:href="#DejaVuSans-44"/>
      <use x="77.001953" xlink:href="#DejaVuSans-69"/>
      <use x="104.785156" xlink:href="#DejaVuSans-73"/>
      <use x="156.884766" xlink:href="#DejaVuSans-74"/>
      <use x="196.09375" xlink:href="#DejaVuSans-61"/>
      <use x="257.373047" xlink:href="#DejaVuSans-6e"/>
      <use x="320.751953" xlink:href="#DejaVuSans-63"/>
      <use x="375.732422" xlink:href="#DejaVuSans-65"/>
     </g>
    </g>
   </g>
   <g id="line2d_12">
    <path clip-path="url(#pfb3a138ecc)" d="M 73.832727 183.087585 
L 73.962563 175.587082 
L 74.222235 190.51156 
L 74.352071 183.012588 
L 74.611742 198.088591 
L 74.871414 183.012588 
L 75.00125 190.51156 
L 75.390757 168.014466 
L 75.650429 182.787685 
L 75.780265 175.293058 
L 75.910101 183.012588 
L 76.169773 168.014466 
L 76.299608 175.513555 
L 76.55928 160.586077 
L 76.948788 183.012588 
L 77.078624 175.293058 
L 77.208459 182.787685 
L 77.338295 175.513555 
L 77.727803 197.776206 
L 77.857639 190.282073 
L 78.11731 205.50931 
L 78.506818 182.787685 
L 78.636654 189.899911 
L 78.76649 182.413146 
L 78.896325 190.282073 
L 79.415669 160.30314 
L 79.675341 174.925845 
L 79.805176 167.438037 
L 79.935012 175.293058 
L 80.32452 153.016131 
L 80.714027 175.587082 
L 80.973699 160.30314 
L 81.103535 167.798205 
L 81.363207 153.016131 
L 81.752714 175.293058 
L 81.88255 167.438037 
L 82.012386 174.925845 
L 82.142222 167.798205 
L 82.401893 183.012588 
L 82.791401 159.455533 
L 82.921237 166.934358 
L 83.180909 152.461013 
L 83.700252 181.889419 
L 83.76517 178.428709 
L 83.959924 166.287722 
L 84.08976 173.75312 
L 84.219595 166.934358 
L 84.609103 189.899911 
L 84.99861 167.798205 
L 85.517954 196.84067 
L 85.777626 181.217124 
L 85.842543 184.553047 
L 85.907461 188.679649 
L 86.037297 181.889419 
L 86.296969 197.776206 
L 86.426805 190.282073 
L 86.686477 204.871691 
L 87.075984 182.787685 
L 87.20582 190.282073 
L 87.465492 174.925845 
L 87.725163 190.282073 
L 88.504178 145.312415 
L 88.76385 159.949751 
L 88.893686 152.461013 
L 89.023522 160.30314 
L 89.283194 145.585071 
L 89.413029 153.085574 
L 89.672701 138.017605 
L 90.062209 160.586077 
L 90.192045 153.085574 
L 90.451716 168.014466 
L 90.711388 153.085574 
L 90.97106 168.014466 
L 91.360567 145.312415 
L 91.750075 167.438037 
L 92.009746 151.353052 
L 92.139582 158.821009 
L 92.399254 144.495528 
L 92.788762 166.287722 
L 92.918597 158.046846 
L 93.048433 165.498836 
L 93.178269 158.821009 
L 93.567777 181.217124 
L 93.697612 172.948943 
L 93.827448 180.397056 
L 93.957284 173.75312 
L 94.476628 203.599892 
L 94.736299 187.843053 
L 94.801217 191.085908 
L 94.866135 195.286804 
L 94.995971 188.679649 
L 95.385479 211.787618 
L 95.774986 189.899911 
L 96.034658 205.50931 
L 96.164494 198.010469 
L 96.424165 212.763642 
L 96.813673 190.51156 
L 96.943509 198.010469 
L 97.20318 182.787685 
L 97.85236 218.513018 
L 98.112031 202.72817 
L 98.176949 205.948344 
L 98.241867 210.166996 
L 98.371703 203.599892 
L 98.631375 219.840881 
L 98.761211 212.35663 
L 99.020882 226.729681 
L 99.41039 204.871691 
L 99.540226 212.35663 
L 99.799897 196.84067 
L 100.059569 212.35663 
L 100.319241 197.776206 
L 100.578913 213.089597 
L 100.708748 205.589094 
L 100.96842 220.506771 
L 101.357928 198.088591 
L 101.487764 205.589094 
L 101.747435 190.51156 
L 102.136943 212.35663 
L 102.266779 204.871691 
L 102.656286 227.749846 
L 103.045794 205.50931 
L 103.305465 220.506771 
L 103.435301 213.008079 
L 103.694973 228.090602 
L 104.084481 205.50931 
L 104.214316 212.763642 
L 104.344152 205.270068 
L 104.473988 213.008079 
L 104.73366 198.088591 
L 105.382839 234.807122 
L 105.642511 219.840881 
L 105.902182 235.503902 
L 106.032018 228.00538 
L 106.29169 242.734644 
L 106.681198 220.506771 
L 106.811033 228.00538 
L 107.070705 212.763642 
L 107.330377 228.00538 
L 107.590049 213.089597 
L 107.84972 227.749846 
L 107.979556 220.256908 
L 108.239228 235.503902 
L 108.628735 212.763642 
L 108.758571 219.840881 
L 108.888407 212.35663 
L 109.018243 220.256908 
L 109.277915 205.50931 
L 109.667422 226.729681 
L 109.797258 219.2593 
L 110.05693 234.807122 
L 110.576273 204.314716 
L 110.835945 218.513018 
L 110.965781 211.057401 
L 111.095617 219.2593 
L 111.485124 197.386104 
L 111.874632 220.256908 
L 112.393975 189.36555 
L 112.458893 193.392341 
L 112.653647 203.599892 
L 112.783483 196.140605 
L 112.913318 204.314716 
L 113.17299 189.899911 
L 113.432662 205.270068 
L 113.49758 201.661243 
L 113.562498 197.776206 
L 113.822169 212.35663 
L 114.081841 197.776206 
L 114.601184 228.00538 
L 114.666102 224.150785 
L 114.73102 220.506771 
L 115.120528 243.091608 
L 115.510035 220.506771 
L 115.899543 242.734644 
L 116.289051 219.840881 
L 116.548722 233.418047 
L 116.678558 225.966613 
L 116.93823 241.666166 
L 117.327737 218.513018 
L 117.457573 225.036348 
L 117.587409 217.603115 
L 117.717245 225.966613 
L 118.106752 203.599892 
L 118.17167 206.908139 
L 118.236588 210.166996 
L 118.366424 202.72817 
L 118.49626 211.057401 
L 119.015603 181.217124 
L 119.080521 185.3068 
L 119.275275 195.286804 
L 119.405111 187.843053 
L 119.534947 196.140605 
L 119.924454 174.412337 
L 120.313962 197.386104 
L 120.443798 189.899911 
L 120.963141 216.530901 
L 121.092977 209.117627 
L 121.222813 217.603115 
L 121.61232 194.280351 
L 121.677238 198.518564 
L 121.871992 207.910724 
L 122.001828 200.518831 
L 122.131664 209.117627 
L 122.391336 195.286804 
L 122.456253 198.518564 
L 122.651007 211.057401 
L 122.910679 195.286804 
L 122.975597 198.518564 
L 123.040515 202.72817 
L 123.559858 172.948943 
L 123.624776 177.097518 
L 123.81953 186.856778 
L 123.949366 179.430173 
L 124.079202 187.843053 
L 124.468709 166.287722 
L 124.533627 170.365022 
L 124.858217 189.36555 
L 124.923135 185.910901 
L 125.37756 158.046846 
L 125.637232 172.000712 
L 125.767068 164.568555 
L 125.896904 172.948943 
L 126.156575 159.455533 
L 126.286411 166.934358 
L 126.546083 151.353052 
L 126.93559 174.412337 
L 127.065426 166.934358 
L 127.325098 181.217124 
L 127.58477 166.934358 
L 127.844441 182.413146 
L 127.909359 178.873478 
L 127.974277 174.925845 
L 128.493621 202.72817 
L 128.753292 186.856778 
L 128.81821 190.014518 
L 128.883128 193.122506 
L 129.012964 185.722014 
L 129.1428 194.280351 
L 129.532307 172.000712 
L 129.597225 175.182857 
L 129.662143 178.317598 
L 129.791979 170.909484 
L 129.921815 179.430173 
L 130.441158 149.696745 
L 130.506076 153.885027 
L 130.70083 163.497879 
L 130.830666 156.082976 
L 130.960502 164.568555 
L 131.350009 143.137621 
L 131.414927 147.259034 
L 131.739517 166.287722 
L 131.804435 162.89245 
L 132.129024 144.495528 
L 132.518532 167.438037 
L 132.648368 159.949751 
L 132.908039 174.412337 
L 133.557219 134.815817 
L 133.622137 138.989622 
L 133.81689 148.664956 
L 133.946726 141.243983 
L 134.076562 149.696745 
L 134.336234 136.413672 
L 134.46607 143.883919 
L 134.725741 128.22201 
L 135.115249 151.353052 
L 135.245085 143.883919 
L 135.504757 158.046846 
L 135.764428 143.883919 
L 136.0241 159.455533 
L 136.089018 155.97804 
L 136.283772 143.883919 
L 136.413607 151.353052 
L 136.673279 137.482281 
L 136.803115 144.971849 
L 137.062787 129.532656 
L 137.452294 152.461013 
L 137.58213 144.971849 
L 138.361145 184.440115 
L 138.490981 177.060607 
L 138.620817 185.722014 
L 139.010324 162.287947 
L 139.075242 166.610907 
L 139.269996 175.660624 
L 139.399832 168.303 
L 139.529668 177.060607 
L 139.594586 174.009348 
L 139.78934 163.497879 
L 139.854258 166.610907 
L 140.049011 179.430173 
L 140.308683 163.497879 
L 140.373601 166.610907 
L 140.438519 170.909484 
L 140.828026 148.664956 
L 140.892944 151.802797 
L 140.957862 154.895293 
L 141.087698 147.498728 
L 141.217534 156.082976 
L 141.736877 126.393791 
L 141.801795 130.616963 
L 141.996549 140.098459 
L 142.126385 132.694679 
L 142.256221 141.243983 
L 142.645728 119.926701 
L 142.710646 124.086942 
L 143.035236 143.137621 
L 143.100154 139.795758 
L 143.424743 121.470067 
L 143.814251 144.495528 
L 144.073923 130.320971 
L 144.203759 137.816778 
L 144.46343 122.502015 
L 144.852938 145.312415 
L 144.982774 137.816778 
L 145.242445 152.461013 
L 145.891625 113.300656 
L 145.956543 117.398345 
L 146.151296 128.22201 
L 146.410968 114.567208 
L 146.540804 122.050237 
L 146.800476 106.522655 
L 147.189983 129.532656 
L 147.319819 122.050237 
L 147.579491 136.413672 
L 147.839162 122.050237 
L 148.098834 137.482281 
L 148.163752 133.919669 
L 148.358506 123.018908 
L 148.488342 130.518276 
L 148.748013 115.328878 
L 149.137521 138.017605 
L 149.267357 130.584065 
L 149.397193 138.084568 
L 149.527028 130.518276 
L 149.7867 145.312415 
L 150.176208 122.050237 
L 150.241126 125.515089 
L 150.306044 129.532656 
L 150.695551 107.52037 
L 151.085059 130.320971 
L 151.34473 115.583059 
L 151.474566 123.083562 
L 151.734238 108.020057 
L 152.123745 130.584065 
L 152.253581 123.018908 
L 152.383417 130.518276 
L 152.513253 123.083562 
L 152.772925 138.017605 
L 153.162432 115.328878 
L 153.292268 122.825001 
L 153.55194 108.020057 
L 154.071283 137.816778 
L 154.330955 122.502015 
L 154.460791 129.99233 
L 154.590627 122.825001 
L 154.980134 145.51689 
L 155.369642 123.083562 
L 155.759149 145.312415 
L 155.888985 137.482281 
L 156.018821 144.971849 
L 156.148657 137.816778 
L 156.408329 153.016131 
L 156.668 138.084568 
L 156.797836 145.585071 
L 157.057508 130.518276 
L 157.317179 145.585071 
L 158.096195 99.599436 
L 158.355866 114.567208 
L 158.615538 100.336202 
L 158.745374 107.832609 
L 159.005046 92.537478 
L 159.394553 115.328878 
L 159.524389 107.832609 
L 159.784061 122.502015 
L 160.043732 107.832609 
L 160.303404 123.018908 
L 160.692912 100.582054 
L 161.082419 123.018908 
L 161.342091 107.52037 
L 161.471927 115.011357 
L 161.731598 100.336202 
L 162.121106 122.502015 
L 162.250942 114.567208 
L 162.380778 122.050237 
L 162.510614 115.011357 
L 162.900121 137.482281 
L 163.029957 129.532656 
L 163.159793 137.014431 
L 163.289629 129.99233 
L 163.5493 145.312415 
L 163.938808 121.470067 
L 164.068644 128.94237 
L 164.19848 122.050237 
L 164.587987 143.883919 
L 164.847659 128.22201 
L 164.912577 131.539143 
L 164.977495 135.680572 
L 165.107331 128.94237 
L 165.367002 144.495528 
L 165.626674 129.99233 
L 165.886346 144.495528 
L 166.016181 137.014431 
L 166.275853 152.461013 
L 166.665361 130.518276 
L 166.925032 145.312415 
L 167.444376 113.300656 
L 167.509294 116.633104 
L 167.574212 120.762015 
L 167.833883 106.522655 
L 168.223391 128.22201 
L 168.353227 119.926701 
L 168.483063 127.372229 
L 168.612899 120.762015 
L 169.132242 150.593075 
L 169.391914 134.815817 
L 169.456832 138.051085 
L 169.521749 142.25736 
L 169.651585 135.680572 
L 169.911257 151.353052 
L 170.170929 137.014431 
L 170.300765 144.495528 
L 170.820108 111.533519 
L 170.885026 114.725781 
L 170.949944 118.964851 
L 171.209616 105.030203 
L 171.274533 108.301374 
L 171.728959 133.820213 
L 171.988631 117.877296 
L 172.053549 120.98718 
L 172.118466 125.287569 
L 172.248302 118.964851 
L 172.507974 134.815817 
L 172.767646 120.762015 
L 173.027317 134.815817 
L 173.157153 127.372229 
L 173.676497 157.133853 
L 173.936168 141.243983 
L 174.001086 144.39353 
L 174.066004 148.664956 
L 174.19584 142.25736 
L 174.455512 158.046846 
L 174.715184 143.883919 
L 174.845019 151.353052 
L 175.234527 127.372229 
L 175.494199 141.243983 
L 175.624034 132.694679 
L 175.75387 140.098459 
L 175.818788 136.981033 
L 175.883706 133.820213 
L 176.40305 163.497879 
L 176.662721 147.498728 
L 176.727639 150.558565 
L 176.792557 154.895293 
L 176.922393 148.664956 
L 177.311901 172.000712 
L 177.701408 150.593075 
L 177.766326 154.720929 
L 177.831244 158.046846 
L 178.350587 124.054539 
L 178.415505 127.078465 
L 178.480423 131.440243 
L 178.545341 128.385623 
L 178.610259 125.287569 
L 178.999767 146.199206 
L 179.259438 130.058038 
L 179.324356 132.992325 
L 179.389274 137.415413 
L 179.454192 134.450491 
L 179.51911 131.440243 
L 179.778782 147.498728 
L 180.038453 133.820213 
L 180.298125 147.498728 
L 180.427961 140.098459 
L 180.947304 169.676465 
L 181.206976 153.57201 
L 181.271894 156.538019 
L 181.336812 160.940032 
L 181.40173 157.941394 
L 181.466648 154.895293 
L 181.856155 178.317598 
L 182.245663 157.133853 
L 182.310581 161.329747 
L 182.765006 184.440115 
L 183.024678 168.303 
L 183.089596 171.236529 
L 183.154514 175.660624 
L 183.219432 172.693421 
L 183.28435 169.676465 
L 183.544021 186.856778 
L 183.673857 179.430173 
L 183.738775 182.600369 
L 183.933529 193.122506 
L 183.998447 190.014518 
L 184.323036 172.000712 
L 184.452872 179.430173 
L 184.712544 163.497879 
L 184.972216 179.430173 
L 185.231887 165.498836 
L 185.361723 172.948943 
L 185.881067 140.098459 
L 186.140738 153.57201 
L 186.270574 144.767644 
L 186.335492 147.670025 
L 186.40041 152.114451 
L 186.465328 149.180525 
L 186.530246 146.199206 
L 186.919754 168.303 
L 187.049589 159.455533 
L 187.114507 162.32348 
L 187.179425 166.790569 
L 187.244343 163.890122 
L 187.309261 160.940032 
L 187.828604 190.358553 
L 188.088276 174.119212 
L 188.153194 176.949895 
L 188.218112 181.441089 
L 188.28303 178.576907 
L 188.347948 175.660624 
L 188.737455 199.184081 
L 189.126963 178.317598 
L 189.191881 182.600369 
L 189.516471 201.700702 
L 189.905978 180.397056 
L 189.970896 184.553047 
L 190.035814 187.843053 
L 190.295486 172.000712 
L 190.749911 194.783229 
L 190.944665 205.030988 
L 191.009583 202.135038 
L 191.204337 188.755798 
L 191.269255 191.546033 
L 191.334172 196.062904 
L 191.39909 193.238125 
L 191.464008 190.358553 
L 191.72368 207.910724 
L 191.853516 200.518831 
L 191.918434 203.560221 
L 192.113188 213.905834 
L 192.178105 210.935848 
L 192.502695 193.122506 
L 192.632531 200.518831 
L 192.892203 184.440115 
L 193.151874 200.518831 
L 193.411546 186.856778 
L 193.671218 200.518831 
L 193.801054 193.122506 
L 194.190561 216.530901 
L 194.580069 195.286804 
L 194.644987 199.458476 
L 194.709905 202.72817 
L 195.48892 150.524057 
L 195.553838 153.328719 
L 195.618756 157.83597 
L 195.683673 154.999948 
L 195.748591 152.114451 
L 196.138099 172.438067 
L 196.332853 160.621458 
L 196.397771 156.082976 
L 196.462689 158.785787 
L 196.527606 163.355341 
L 196.592524 160.621458 
L 196.657442 157.83597 
L 196.917114 174.119212 
L 197.176786 160.940032 
L 197.436457 174.119212 
L 197.566293 166.790569 
L 197.955801 188.755798 
L 198.085637 179.727412 
L 198.150555 182.450583 
L 198.215473 187.008342 
L 198.28039 184.251971 
L 198.345308 181.441089 
L 198.864652 210.652389 
L 199.059406 198.831595 
L 199.124323 194.280351 
L 199.189241 196.957479 
L 199.254159 201.542893 
L 199.319077 198.831595 
L 199.383995 196.062904 
L 199.773503 219.674613 
L 200.16301 199.184081 
L 200.227928 203.560221 
L 200.552518 222.680043 
L 200.942025 201.700702 
L 201.006943 205.948344 
L 201.461369 228.602397 
L 201.721041 213.905834 
L 201.785958 218.306008 
L 201.980712 231.345507 
L 202.110548 223.940283 
L 202.175466 227.026904 
L 202.37022 237.427854 
L 202.435138 234.415842 
L 202.759727 216.530901 
L 202.889563 225.036348 
L 203.019399 217.603115 
L 203.084317 220.798511 
L 203.149235 223.940283 
L 203.408907 207.910724 
L 203.798414 233.418047 
L 203.92825 225.966613 
L 204.187922 239.893342 
L 204.577429 218.513018 
L 204.642347 222.638117 
L 204.707265 225.966613 
L 204.966937 210.166996 
L 205.226608 223.940283 
L 205.48628 210.166996 
L 205.616116 217.603115 
L 206.005624 193.122506 
L 206.395131 212.35663 
L 206.654803 225.205294 
L 206.719721 222.470463 
L 206.914475 208.795378 
L 206.979392 211.422317 
L 207.04431 216.037167 
L 207.109228 213.37506 
L 207.174146 210.652389 
L 207.563654 234.285521 
L 207.953161 213.905834 
L 208.018079 218.306008 
L 208.472505 239.716603 
L 208.537423 237.03338 
L 208.732176 223.267565 
L 208.797094 225.839605 
L 208.862012 230.485818 
L 208.92693 227.877589 
L 208.991848 225.205294 
L 209.25152 243.270242 
L 209.316438 240.379883 
L 209.381356 235.940155 
L 209.446274 238.790325 
L 209.641027 248.859073 
L 209.705945 246.097218 
L 210.030535 228.602397 
L 210.160371 235.940155 
L 210.420043 219.674613 
L 210.679714 235.940155 
L 210.939386 222.680043 
L 211.328893 246.142298 
L 211.718401 225.036348 
L 211.783319 229.243261 
L 211.978073 241.666166 
L 212.107909 234.198669 
L 212.36758 248.313812 
L 212.757088 226.729681 
L 212.822006 230.786452 
L 212.886924 234.198669 
L 213.146595 218.513018 
L 213.665939 244.792744 
L 213.795775 252.151045 
L 213.860693 249.177586 
L 214.055446 237.427854 
L 214.315118 254.736163 
L 214.444954 247.316651 
L 214.509872 250.454937 
L 214.704626 260.918612 
L 214.769544 257.858315 
L 215.094133 239.893342 
L 215.223969 247.316651 
L 215.483641 231.345507 
L 215.743312 247.316651 
L 216.002984 233.418047 
L 216.262656 249.769984 
L 216.392492 242.289005 
L 216.652163 256.596245 
L 217.041671 234.807122 
L 217.171507 242.289005 
L 217.431178 226.729681 
L 217.820686 247.316651 
L 217.950522 239.893342 
L 218.340029 263.198907 
L 218.729537 241.666166 
L 218.794455 245.736819 
L 218.989209 257.717823 
L 219.119045 250.22645 
L 219.378716 264.728951 
L 219.768224 242.734644 
L 219.89806 250.500655 
L 220.027896 243.002329 
L 220.157731 250.22645 
L 220.417403 234.807122 
L 221.066582 269.562622 
L 221.326254 254.736163 
L 221.391172 258.984625 
L 221.585926 271.518916 
L 221.715762 264.058577 
L 221.975433 278.071633 
L 222.364941 256.596245 
L 222.429859 260.682087 
L 222.494777 264.058577 
L 222.754448 248.313812 
L 223.01412 264.058577 
L 223.273792 249.769984 
L 223.533463 265.496972 
L 223.663299 257.998872 
L 223.922971 272.699129 
L 224.312479 250.500655 
L 224.442314 258.092614 
L 224.57215 250.592111 
L 224.701986 257.998872 
L 224.961658 242.734644 
L 225.351165 265.496972 
L 225.481001 257.998872 
L 225.740673 273.09362 
L 226.260016 243.002329 
L 226.519688 257.717823 
L 226.649524 250.22645 
L 226.77936 257.998872 
L 227.039031 243.091608 
L 227.298703 257.998872 
L 227.558375 243.091608 
L 227.688211 250.592111 
L 227.947882 235.503902 
L 228.467226 264.058577 
L 228.597062 256.596245 
L 228.986569 279.683394 
L 229.376077 257.717823 
L 229.765584 280.492783 
L 230.155092 258.092614 
L 230.414764 272.699129 
L 230.544599 265.208728 
L 230.804271 280.492783 
L 231.193779 257.717823 
L 231.323615 264.728951 
L 231.45345 257.249991 
L 231.583286 265.208728 
L 231.972794 242.734644 
L 232.037712 246.277574 
L 232.10263 249.769984 
L 232.232466 242.289005 
L 232.362301 250.22645 
L 232.621973 235.503902 
L 232.881645 250.592111 
L 233.011481 243.091608 
L 233.530824 271.518916 
L 233.66066 264.058577 
L 233.920332 279.683394 
L 234.439675 249.132064 
L 234.699347 263.198907 
L 234.829183 255.757792 
L 234.959018 264.058577 
L 235.21869 249.769984 
L 235.478362 265.208728 
L 235.54328 261.62932 
L 235.738033 249.769984 
L 235.867869 257.249991 
L 236.127541 242.734644 
L 236.387213 257.249991 
L 236.646884 241.666166 
L 236.711802 245.017265 
L 236.77672 248.313812 
L 236.906556 240.867169 
L 237.036392 249.132064 
L 237.296064 234.807122 
L 238.204915 287.678252 
L 238.269833 284.113292 
L 238.464586 272.699129 
L 238.724258 288.094625 
L 238.854094 280.594122 
L 239.113766 295.488 
L 239.503273 273.09362 
L 239.633109 280.594122 
L 239.892781 265.496972 
L 240.152452 280.594122 
L 240.412124 265.496972 
L 240.801632 287.678252 
L 241.191139 264.728951 
L 241.450811 278.071633 
L 241.580647 270.636936 
L 241.840318 286.43296 
L 242.229826 263.198907 
L 242.359662 269.562622 
L 242.489498 262.151591 
L 242.619334 270.636936 
L 243.008841 248.313812 
L 243.073759 251.554046 
L 243.138677 254.736163 
L 243.268513 247.316651 
L 243.398349 255.757792 
L 243.65802 241.666166 
L 244.047528 260.918612 
L 244.177364 253.533201 
L 244.3072 262.151591 
L 244.696707 238.746284 
L 244.761625 243.046965 
L 244.956379 252.151045 
L 245.086215 244.792744 
L 245.216051 253.533201 
L 245.280969 250.454937 
L 245.605558 232.466496 
L 245.670476 236.683143 
L 245.995066 255.757792 
L 246.059984 252.472989 
L 246.514409 223.940283 
L 246.774081 237.427854 
L 246.903917 230.056818 
L 247.033753 238.746284 
L 247.293424 225.036348 
L 247.358342 228.218477 
L 247.553096 240.867169 
L 247.682932 233.418047 
L 247.942603 247.316651 
L 248.202275 233.418047 
L 248.267193 236.683143 
L 248.591783 257.249991 
L 248.721619 249.769984 
L 249.240962 275.671237 
L 249.370798 268.298112 
L 249.63047 284.370062 
L 250.019977 260.918612 
L 250.149813 266.845883 
L 250.279649 259.50227 
L 250.409485 268.298112 
L 250.474403 265.256749 
L 250.669156 254.736163 
L 250.734074 257.858315 
L 251.058664 272.502088 
L 251.1885 265.208728 
L 251.448171 281.50785 
L 251.967515 250.592111 
L 252.227187 263.389728 
L 252.357022 256.13015 
L 252.486858 265.208728 
L 252.551776 262.389292 
L 252.74653 252.151045 
L 252.811448 255.060853 
L 253.006202 268.298112 
L 253.07112 265.256749 
L 253.265873 252.151045 
L 253.330791 255.060853 
L 253.395709 259.50227 
L 253.460627 256.549603 
L 253.785217 237.427854 
L 253.850135 240.379883 
L 253.915053 243.270242 
L 254.044888 235.940155 
L 254.174724 244.792744 
L 254.239642 241.799528 
L 254.694068 215.297898 
L 254.758986 219.633059 
L 254.953739 228.602397 
L 255.083575 221.257471 
L 255.213411 230.056818 
L 255.278329 227.026904 
L 255.473083 216.530901 
L 255.538001 219.633059 
L 255.732755 232.466496 
L 255.86259 225.036348 
L 255.927508 228.218477 
L 256.381934 248.859073 
L 256.51177 241.577289 
L 256.641605 250.592111 
L 256.706523 247.724193 
L 257.031113 226.984427 
L 257.290785 239.716603 
L 257.420621 232.466496 
L 257.550456 241.577289 
L 257.615374 238.790325 
L 257.810128 228.602397 
L 257.875046 231.474655 
L 258.0698 244.792744 
L 258.134718 241.799528 
L 258.329472 228.602397 
L 258.394389 231.474655 
L 258.459307 235.940155 
L 258.524225 233.028439 
L 258.848815 213.905834 
L 258.978651 206.547909 
L 259.238323 219.674613 
L 259.368158 212.35663 
L 259.497994 221.257471 
L 259.562912 218.306008 
L 259.757666 207.910724 
L 259.822584 210.935848 
L 260.017338 223.940283 
L 260.147173 216.530901 
L 260.212091 219.633059 
L 260.536681 235.940155 
L 260.601599 233.028439 
L 260.796353 219.674613 
L 260.861271 222.470463 
L 260.926189 225.205294 
L 261.056024 217.933707 
L 261.18586 226.984427 
L 261.250778 224.150785 
L 261.575368 205.030988 
L 261.705204 197.698151 
L 261.964875 210.652389 
L 262.094711 203.361937 
L 262.224547 212.35663 
L 262.289465 209.480512 
L 262.614055 191.814707 
L 262.678973 196.179462 
L 263.003562 215.297898 
L 263.06848 212.23462 
L 263.133398 207.910724 
L 263.198316 210.935848 
L 263.652741 230.485818 
L 263.782577 223.267565 
L 263.912413 232.466496 
L 263.977331 229.756852 
L 264.301921 208.795378 
L 264.561592 221.173977 
L 264.691428 213.987564 
L 264.821264 223.267565 
L 264.886182 220.631772 
L 265.080936 210.652389 
L 265.145854 213.37506 
L 265.340608 226.984427 
L 265.405525 224.150785 
L 265.600279 210.652389 
L 265.665197 213.37506 
L 265.730115 217.933707 
L 265.795033 215.174842 
L 266.054705 200.558163 
L 266.249458 188.755798 
L 266.50913 201.542893 
L 266.638966 194.280351 
L 266.768802 203.361937 
L 266.83372 200.558163 
L 267.158309 183.012588 
L 267.223227 187.425462 
L 267.547817 206.547909 
L 267.612735 203.560221 
L 268.06716 174.119212 
L 268.326832 187.008342 
L 268.456668 179.727412 
L 268.586504 188.755798 
L 268.651422 185.910901 
L 268.846175 175.660624 
L 268.911093 178.576907 
L 269.105847 191.814707 
L 269.170765 188.793878 
L 269.235683 184.440115 
L 269.300601 187.425462 
L 269.495355 197.698151 
L 269.560273 194.783229 
L 269.755026 184.440115 
L 269.819944 187.425462 
L 270.014698 200.518831 
L 270.144534 193.122506 
L 270.209452 196.179462 
L 270.663877 217.933707 
L 270.728795 215.174842 
L 270.923549 201.542893 
L 270.988467 204.195478 
L 271.053385 206.788021 
L 271.183221 199.576139 
L 271.313057 208.795378 
L 271.377975 206.108128 
L 271.637646 191.546033 
L 271.702564 187.008342 
L 271.767482 189.708978 
L 271.8324 192.352646 
L 271.962236 185.118219 
L 272.092072 194.280351 
L 272.15699 191.546033 
L 272.416661 176.949895 
L 272.611415 165.140775 
L 272.871087 177.87348 
L 273.000923 170.619009 
L 273.130759 179.727412 
L 273.195677 176.949895 
L 273.520266 159.455533 
L 273.585184 163.890122 
L 273.909774 183.012588 
L 273.974692 180.062086 
L 274.03961 175.660624 
L 274.104527 178.576907 
L 274.558953 197.464091 
L 274.688789 190.282073 
L 274.818625 199.576139 
L 274.883543 196.957479 
L 275.208132 175.881333 
L 275.467804 188.071028 
L 275.59764 180.918711 
L 275.727476 190.282073 
L 275.792394 187.729118 
L 275.987147 177.87348 
L 276.052065 180.508778 
L 276.246819 194.280351 
L 276.311737 191.546033 
L 276.506491 177.87348 
L 276.571409 180.508778 
L 276.636327 185.118219 
L 276.701244 182.450583 
L 276.960916 167.906321 
L 277.15567 156.082976 
L 277.415342 168.663969 
L 277.545178 161.436099 
L 277.675013 170.619009 
L 277.739931 167.906321 
L 278.064521 150.524057 
L 278.129439 154.999948 
L 278.389111 169.640259 
L 278.454028 174.119212 
L 278.518946 171.236529 
L 278.973372 141.513976 
L 279.233044 154.198288 
L 279.362879 146.95106 
L 279.492715 156.082976 
L 279.557633 153.328719 
L 279.752387 144.767644 
L 279.882223 152.114451 
L 280.141895 135.880382 
L 280.531402 159.455533 
L 280.661238 153.57201 
L 280.791074 160.940032 
L 280.92091 152.114451 
L 280.985828 154.999948 
L 281.180581 165.140775 
L 281.245499 162.32348 
L 281.699925 138.821872 
L 281.764843 143.171515 
L 282.089432 162.287947 
L 282.15435 159.208654 
L 282.219268 154.895293 
L 282.284186 157.941394 
L 282.47894 168.303 
L 282.543858 165.319765 
L 282.738612 152.114451 
L 282.803529 154.999948 
L 282.998283 168.303 
L 283.063201 165.319765 
L 283.128119 160.940032 
L 283.193037 163.890122 
L 283.647463 185.118219 
L 283.71238 182.450583 
L 283.907134 168.663969 
L 283.972052 171.236529 
L 284.03697 173.75312 
L 284.166806 166.574984 
L 284.296642 175.881333 
L 284.36156 173.277722 
L 284.621231 158.785787 
L 284.686149 154.198288 
L 284.751067 156.818301 
L 284.815985 159.38498 
L 284.945821 152.18374 
L 285.075657 161.436099 
L 285.140575 158.785787 
L 285.400246 144.257572 
L 285.595 132.43028 
L 285.854672 144.971849 
L 285.984508 137.749858 
L 286.114344 146.95106 
L 286.179262 144.257572 
L 286.503851 126.915349 
L 286.568769 131.407281 
L 286.828441 146.028521 
L 286.893359 150.524057 
L 286.958277 147.670025 
L 287.282866 130.058038 
L 287.347784 134.450491 
L 287.672374 153.57201 
L 287.737292 150.558565 
L 288.191717 121.212461 
L 288.451389 135.880382 
L 288.711061 124.054539 
L 288.840897 131.440243 
L 289.100568 115.328878 
L 289.490076 138.821872 
L 289.619912 131.440243 
L 289.68483 134.450491 
L 289.879583 144.767644 
L 289.944501 141.817927 
L 290.139255 131.440243 
L 290.204173 134.450491 
L 290.398927 147.498728 
L 290.528763 140.098459 
L 290.593681 143.171515 
L 290.91827 159.455533 
L 290.983188 156.538019 
L 291.307778 137.415413 
L 291.697285 112.290006 
L 291.956957 125.157611 
L 292.086793 117.877296 
L 292.216629 126.915349 
L 292.281547 124.086942 
L 292.606136 106.522655 
L 292.671054 110.935541 
L 292.995644 130.058038 
L 293.060562 127.078465 
L 293.255315 117.877296 
L 293.385151 125.287569 
L 293.644823 109.271707 
L 294.034331 132.694679 
L 294.164166 125.287569 
L 294.229084 128.385623 
L 294.423838 138.821872 
L 294.488756 135.780465 
L 295.073017 97.640492 
L 295.332689 110.589708 
L 295.462525 103.295198 
L 295.592361 112.290006 
L 295.657279 109.428409 
L 295.852033 100.582054 
L 295.981868 107.957566 
L 296.24154 91.813035 
L 296.631048 115.328878 
L 296.760883 107.957566 
L 296.825801 110.935541 
L 297.020555 121.212461 
L 297.085473 118.292808 
L 297.280227 107.957566 
L 297.345145 110.935541 
L 297.539899 124.054539 
L 297.79957 111.533519 
L 297.929406 118.964851 
L 298.189078 103.04788 
L 298.578585 126.393791 
L 298.708421 118.964851 
L 298.773339 122.147008 
L 298.968093 132.694679 
L 299.033011 129.565473 
L 299.3576 107.957566 
L 299.422518 110.935541 
L 299.487436 115.328878 
L 299.552354 112.321554 
L 299.876944 94.474861 
L 299.941862 98.771988 
L 300.266451 117.877296 
L 300.331369 114.725781 
L 300.526123 105.030203 
L 300.655959 112.479328 
L 300.915631 96.664139 
L 301.305138 119.926701 
L 301.434974 112.479328 
L 301.694646 126.393791 
L 302.084153 101.874951 
L 302.343825 85.819219 
L 302.603497 100.582054 
L 302.863168 88.207571 
L 302.993004 95.629021 
L 303.252676 79.665298 
L 303.642184 103.04788 
L 303.772019 95.629021 
L 303.836937 98.771988 
L 304.031691 109.271707 
L 304.096609 106.1802 
L 304.291363 95.629021 
L 304.356281 98.771988 
L 304.551035 111.533519 
L 304.810706 98.374118 
L 304.940542 105.838003 
L 305.200214 90.127028 
L 305.589721 113.300656 
L 305.719557 105.838003 
L 305.979229 119.926701 
L 306.368736 95.629021 
L 306.433654 98.771988 
L 306.498572 103.04788 
L 306.88808 81.786504 
L 306.952998 85.968137 
L 307.277587 105.030203 
L 307.342505 101.720842 
L 307.537259 91.571803 
L 307.667095 99.047638 
L 307.926767 83.442885 
L 308.316274 106.522655 
L 308.44611 99.047638 
L 308.705782 113.300656 
L 309.225125 80.783649 
L 309.354961 73.35737 
L 309.614633 88.207571 
L 309.874304 75.217795 
L 310.00414 82.673133 
L 310.263812 66.901366 
L 310.65332 90.127028 
L 310.783155 82.673133 
L 311.042827 96.664139 
L 311.302499 82.673133 
L 311.367417 85.968137 
L 311.56217 98.374118 
L 311.821842 84.629561 
L 311.951678 92.114749 
L 312.21135 76.617832 
L 312.600857 99.599436 
L 312.730693 92.114749 
L 312.990365 106.522655 
L 313.379872 82.673133 
L 313.44479 85.968137 
L 313.509708 90.127028 
L 313.899216 68.507386 
L 314.288723 91.571803 
L 314.548395 77.553455 
L 314.678231 85.045601 
L 314.937903 69.657776 
L 315.32741 92.537478 
L 315.457246 85.342997 
L 315.587082 92.839662 
L 315.716918 85.045601 
L 315.976589 99.599436 
L 316.625769 60.303048 
L 316.690687 64.416662 
L 316.88544 75.217795 
L 317.145112 61.661022 
L 317.274948 69.139765 
L 317.53462 53.568 
L 317.924127 76.617832 
L 318.053963 69.139765 
L 318.313635 83.442885 
L 318.573306 69.139765 
L 318.832978 84.629561 
L 318.897896 81.107872 
L 319.09265 70.349312 
L 319.222486 77.846212 
L 319.482157 62.568405 
L 319.871665 85.342997 
L 320.001501 78.021951 
L 320.131337 85.521524 
L 320.261172 77.846212 
L 320.520844 92.537478 
L 320.910352 70.580042 
L 321.040188 78.080545 
L 321.299859 63.022721 
L 321.819203 93.081551 
L 322.078874 78.021951 
L 322.20871 85.521524 
L 322.338546 78.080545 
L 322.728054 100.520578 
L 323.117561 77.846212 
L 323.507069 100.582054 
L 323.636905 93.021067 
L 323.76674 100.520578 
L 323.896576 93.081551 
L 324.156248 108.020057 
L 324.41592 92.839662 
L 324.545756 100.336202 
L 324.805427 85.521524 
L 325.065099 100.336202 
L 325.584442 69.139765 
L 325.64936 72.574641 
L 325.714278 76.617832 
L 326.103786 54.684251 
L 326.493293 77.553455 
L 326.882801 55.355191 
L 327.272308 78.021951 
L 327.53198 63.022721 
L 327.661816 70.52235 
L 327.921488 55.579037 
L 328.310995 78.021951 
L 328.440831 70.349312 
L 328.570667 77.846212 
L 328.700503 70.52235 
L 329.09001 93.021067 
L 329.219846 85.342997 
L 329.349682 92.839662 
L 329.479518 85.521524 
L 329.73919 100.582054 
L 330.128697 77.553455 
L 330.258533 85.045601 
L 330.388369 77.846212 
L 330.777876 100.029072 
L 331.037548 84.629561 
L 331.102466 88.117789 
L 331.167384 92.114749 
L 331.29722 85.045601 
L 331.556892 100.336202 
L 331.816563 85.521524 
L 332.076235 100.336202 
L 332.206071 92.839662 
L 332.465742 108.020057 
L 332.85525 85.521524 
L 333.114922 100.582054 
L 333.634265 69.657776 
L 333.764101 77.143896 
L 334.023773 62.568405 
L 334.41328 84.629561 
L 334.543116 76.617832 
L 334.672952 84.095189 
L 334.802788 77.143896 
L 335.322131 107.083598 
L 335.581803 91.571803 
L 335.646721 94.99084 
L 335.711639 99.047638 
L 335.841475 92.114749 
L 336.101146 107.52037 
L 336.360818 92.839662 
L 336.490654 100.336202 
L 337.009997 68.507386 
L 337.074915 71.879939 
L 337.139833 75.975644 
L 337.399505 61.661022 
L 337.918848 90.90906 
L 337.983766 87.519678 
L 338.17852 75.217795 
L 338.308356 82.673133 
L 338.438192 75.975644 
L 338.697863 91.571803 
L 338.957535 77.143896 
L 339.217207 91.571803 
L 339.347043 84.095189 
L 339.73655 106.522655 
L 339.866386 98.374118 
L 339.996222 105.838003 
L 340.126058 99.047638 
L 340.385729 114.567208 
L 340.645401 100.029072 
L 340.775237 107.52037 
L 341.164745 84.095189 
L 341.424416 98.374118 
L 341.554252 90.127028 
L 341.684088 97.579409 
L 341.813924 90.90906 
L 342.073595 106.522655 
L 342.463103 81.786504 
L 342.528021 85.015872 
L 342.592939 89.226304 
L 342.722775 82.673133 
L 343.112282 104.099911 
L 343.371954 88.207571 
L 343.436872 91.360829 
L 343.50179 95.629021 
L 343.631626 89.226304 
L 343.891297 105.030203 
L 344.150969 90.90906 
L 344.410641 105.030203 
L 344.540477 97.579409 
L 344.800148 113.300656 
L 345.449328 77.846212 
L 345.968671 106.522655 
L 346.488014 73.35737 
L 346.552932 76.53021 
L 346.61785 80.783649 
L 346.877522 66.901366 
L 346.94244 70.147513 
L 347.26703 88.207571 
L 347.396865 79.665298 
L 347.526701 87.071594 
L 347.591619 83.946859 
L 347.656537 80.783649 
L 348.17588 110.464017 
L 348.435552 94.474861 
L 348.50047 97.548871 
L 348.565388 101.874951 
L 348.695224 95.629021 
L 348.954896 111.533519 
L 349.214567 97.579409 
L 349.344403 105.030203 
L 349.863747 71.04183 
L 349.928664 74.083247 
L 349.993582 78.43226 
L 350.0585 75.363443 
L 350.253254 64.844166 
L 350.318172 67.961896 
L 350.772597 93.202542 
L 351.032269 77.085416 
L 351.097187 80.047598 
L 351.162105 84.45137 
L 351.227023 81.46182 
L 351.291941 78.43226 
L 351.551613 94.474861 
L 351.811284 80.783649 
L 352.070956 94.474861 
L 352.200792 87.071594 
L 352.720135 116.664963 
L 352.979807 100.582054 
L 353.044725 103.573591 
L 353.109643 107.957566 
L 353.174561 104.937088 
L 353.239479 101.874951 
L 353.49915 117.877296 
L 353.758822 104.099911 
L 353.888658 111.533519 
L 354.278165 87.071594 
L 354.537837 100.582054 
L 354.667673 91.813035 
L 354.732591 94.747955 
L 354.797509 99.170203 
L 354.862427 96.207183 
L 354.927345 93.202542 
L 355.446688 122.695778 
L 355.70636 106.522655 
L 355.771278 109.428409 
L 355.836196 113.870158 
L 355.901114 110.935541 
L 355.966032 107.957566 
L 356.225703 124.054539 
L 356.485375 110.464017 
L 356.615211 117.877296 
L 357.134554 82.969044 
L 357.199472 85.848999 
L 357.26439 90.307381 
L 357.329308 87.400147 
L 357.394226 84.45137 
L 357.783733 104.968124 
L 358.043405 88.686699 
L 358.108323 91.481374 
L 358.173241 95.994092 
L 358.238159 93.172292 
L 358.303077 90.307381 
L 358.562749 106.522655 
L 358.82242 93.202542 
L 359.082092 106.522655 
L 359.211928 99.170203 
L 359.731271 128.549297 
L 359.990943 112.290006 
L 360.055861 115.106589 
L 360.120779 119.60585 
L 360.185697 116.760552 
L 360.250615 113.870158 
L 360.510286 130.058038 
L 360.769958 116.664963 
L 360.899794 124.054539 
L 361.289301 99.170203 
L 361.548973 112.290006 
L 361.678809 103.295198 
L 361.743727 106.055735 
L 361.808645 110.589708 
L 361.873563 107.801376 
L 361.938481 104.968124 
L 362.457824 134.218174 
L 362.652578 122.405166 
L 362.717496 117.877296 
L 362.782414 120.601253 
L 362.847332 125.157611 
L 362.91225 122.405166 
L 362.977167 119.60585 
L 363.366675 143.205411 
L 363.756183 122.695778 
L 363.821101 127.078465 
L 363.886018 130.058038 
L 364.405362 94.232245 
L 364.47028 96.938529 
L 364.535198 101.505178 
L 364.600116 98.771988 
L 364.665034 95.994092 
L 365.054541 116.028228 
L 365.249295 104.192854 
L 365.314213 99.599436 
L 365.379131 102.214172 
L 365.444049 106.834204 
L 365.508967 104.192854 
L 365.573884 101.505178 
L 365.833556 117.877296 
L 366.093228 104.968124 
L 366.3529 117.877296 
L 366.482735 110.589708 
L 367.002079 139.694906 
L 367.196833 127.862283 
L 367.261751 123.277584 
L 367.326668 125.905403 
L 367.391586 130.518276 
L 367.456504 127.862283 
L 367.521422 125.157611 
L 367.91093 148.802377 
L 368.300437 128.549297 
L 368.365355 132.992325 
L 368.819781 154.198288 
L 368.884699 151.525972 
L 369.079452 137.749858 
L 369.14437 140.334046 
L 369.209288 144.971849 
L 369.274206 142.358833 
L 369.339124 139.694906 
L 369.598796 156.082976 
L 369.858468 143.205411 
L 369.988303 150.524057 
L 370.247975 134.218174 
L 370.507647 150.524057 
L 370.767319 137.415413 
L 370.897154 144.767644 
L 371.416498 110.589708 
L 371.676169 123.277584 
L 371.806005 114.060154 
L 371.870923 116.633104 
L 371.935841 121.276848 
L 372.000759 118.676707 
L 372.065677 116.028228 
L 372.455185 137.749858 
L 372.58502 128.48382 
L 372.649938 131.01194 
L 372.714856 135.680572 
L 372.779774 133.124679 
L 372.844692 130.518276 
L 373.2342 152.18374 
L 373.364036 159.38498 
L 373.428953 156.818301 
L 373.623707 142.866573 
L 373.688625 145.346488 
L 373.753543 150.041254 
L 373.818461 147.532982 
L 373.883379 144.971849 
L 374.272887 168.663969 
L 374.662394 148.802377 
L 374.727312 153.328719 
L 374.79223 156.082976 
L 375.311573 119.157052 
L 375.376491 121.631148 
L 375.441409 126.328641 
L 375.506327 123.827783 
L 375.571245 121.276848 
L 375.830917 133.488864 
L 375.960753 140.637138 
L 376.025671 138.185033 
L 376.220424 124.054539 
L 376.285342 126.42637 
L 376.35026 131.176621 
L 376.415178 128.778546 
L 376.480096 126.328641 
L 376.739768 142.866573 
L 376.999439 130.518276 
L 377.259111 142.866573 
L 377.388947 135.680572 
L 377.778454 157.204009 
L 377.90829 164.354187 
L 377.973208 161.897289 
L 378.167962 147.772837 
L 378.23288 150.144664 
L 378.297798 154.895293 
L 378.362716 152.495686 
L 378.427634 150.041254 
L 378.817141 173.75312 
L 379.076813 159.38498 
L 379.206649 154.198288 
L 379.466321 166.574984 
L 379.725992 178.613966 
L 379.79091 176.212636 
L 379.985664 162.003794 
L 380.050582 164.31847 
L 380.1155 169.097573 
L 380.180418 166.75463 
L 380.245336 164.354187 
L 380.505007 183.087585 
L 380.569925 180.508778 
L 380.634843 175.881333 
L 380.699761 178.428709 
L 380.894515 188.071028 
L 380.959433 185.608728 
L 381.284022 168.663969 
L 381.413858 177.87348 
L 381.478776 175.182857 
L 381.543694 170.619009 
L 381.608612 173.277722 
L 381.67353 175.881333 
L 381.933202 159.38498 
L 382.452545 192.352646 
L 382.842053 172.438067 
L 382.906971 176.949895 
L 382.971889 179.727412 
L 383.23156 163.355341 
L 383.491232 175.881333 
L 383.750904 163.355341 
L 383.880739 170.619009 
L 384.400083 135.680572 
L 384.659755 147.772837 
L 384.78959 138.285522 
L 384.854508 140.60345 
L 384.919426 145.380562 
L 384.984344 143.035957 
L 385.049262 140.637138 
L 385.43877 162.003794 
L 385.568606 152.461013 
L 385.633523 154.720929 
L 385.698441 159.526098 
L 385.763359 157.239092 
L 385.828277 154.895293 
L 386.217785 176.17581 
L 386.347621 183.237625 
L 386.412539 180.956 
L 386.607292 166.574984 
L 386.67221 168.772324 
L 386.737128 173.606781 
L 386.802046 171.381971 
L 386.866964 169.097573 
L 387.256472 192.814368 
L 387.386307 185.722014 
L 387.645979 173.75312 
L 388.035487 197.464091 
L 388.295158 183.087585 
L 388.424994 177.87348 
L 388.684666 190.282073 
L 388.944338 202.332639 
L 389.009256 199.929357 
L 389.204009 188.071028 
L 389.463681 206.788021 
L 389.528599 204.195478 
L 389.593517 199.576139 
L 389.658435 202.135038 
L 389.853189 211.787618 
L 389.918107 209.319183 
L 390.242696 192.352646 
L 390.372532 199.576139 
L 390.632204 183.087585 
L 390.891875 199.576139 
L 391.151547 187.008342 
L 391.281383 194.280351 
L 391.670891 168.663969 
L 392.060398 190.282073 
L 392.449906 206.948188 
L 392.514824 204.67267 
L 392.709577 190.282073 
L 392.774495 192.468022 
L 392.839413 197.308135 
L 392.904331 195.093039 
L 392.969249 192.814368 
L 393.358757 216.530901 
L 393.488592 209.440173 
L 393.748264 197.464091 
L 394.137772 221.173977 
L 394.462361 204.195478 
L 394.527279 201.542893 
L 394.657115 208.795378 
L 394.916787 192.352646 
L 395.176459 204.63288 
L 395.565966 221.007052 
L 395.630884 218.803044 
L 395.825638 204.314716 
L 395.890556 206.427914 
L 395.955474 211.300636 
L 396.020392 209.157929 
L 396.085309 206.948188 
L 396.344981 226.051311 
L 396.409899 223.645802 
L 396.474817 218.927416 
L 396.539735 221.299225 
L 396.734489 230.657575 
L 396.799407 228.389053 
L 397.123996 211.787618 
L 397.253832 218.927416 
L 397.513504 202.332639 
L 397.773176 218.927416 
L 398.032847 206.788021 
L 398.292519 218.927416 
L 398.422355 211.787618 
L 398.487273 216.48973 
L 398.487273 216.48973 
" style="fill:none;stroke:#1f77b4;stroke-linecap:square;stroke-width:1.5;"/>
   </g>
   <g id="patch_3">
    <path d="M 57.6 307.584 
L 57.6 41.472 
" style="fill:none;stroke:#000000;stroke-linecap:square;stroke-linejoin:miter;stroke-width:0.8;"/>
   </g>
   <g id="patch_4">
    <path d="M 414.72 307.584 
L 414.72 41.472 
" style="fill:none;stroke:#000000;stroke-linecap:square;stroke-linejoin:miter;stroke-width:0.8;"/>
   </g>
   <g id="patch_5">
    <path d="M 57.6 307.584 
L 414.72 307.584 
" style="fill:none;stroke:#000000;stroke-linecap:square;stroke-linejoin:miter;stroke-width:0.8;"/>
   </g>
   <g id="patch_6">
    <path d="M 57.6 41.472 
L 414.72 41.472 
" style="fill:none;stroke:#000000;stroke-linecap:square;stroke-linejoin:miter;stroke-width:0.8;"/>
   </g>
   <g id="text_14">
    <!-- Distance to Number of Steps, Spiral Pattern with 5001 Steps -->
    <defs>
     <path d="M 11.71875 12.40625 
L 22.015625 12.40625 
L 22.015625 4 
L 14.015625 -11.625 
L 7.71875 -11.625 
L 11.71875 4 
z
" id="DejaVuSans-2c"/>
     <path d="M 9.421875 75.984375 
L 18.40625 75.984375 
L 18.40625 0 
L 9.421875 0 
z
" id="DejaVuSans-6c"/>
     <path d="M 19.671875 64.796875 
L 19.671875 37.40625 
L 32.078125 37.40625 
Q 38.96875 37.40625 42.71875 40.96875 
Q 46.484375 44.53125 46.484375 51.125 
Q 46.484375 57.671875 42.71875 61.234375 
Q 38.96875 64.796875 32.078125 64.796875 
z
M 9.8125 72.90625 
L 32.078125 72.90625 
Q 44.34375 72.90625 50.609375 67.359375 
Q 56.890625 61.8125 56.890625 51.125 
Q 56.890625 40.328125 50.609375 34.8125 
Q 44.34375 29.296875 32.078125 29.296875 
L 19.671875 29.296875 
L 19.671875 0 
L 9.8125 0 
z
" id="DejaVuSans-50"/>
     <path d="M 4.203125 54.6875 
L 13.1875 54.6875 
L 24.421875 12.015625 
L 35.59375 54.6875 
L 46.1875 54.6875 
L 57.421875 12.015625 
L 68.609375 54.6875 
L 77.59375 54.6875 
L 63.28125 0 
L 52.6875 0 
L 40.921875 44.828125 
L 29.109375 0 
L 18.5 0 
z
" id="DejaVuSans-77"/>
     <path d="M 54.890625 33.015625 
L 54.890625 0 
L 45.90625 0 
L 45.90625 32.71875 
Q 45.90625 40.484375 42.875 44.328125 
Q 39.84375 48.1875 33.796875 48.1875 
Q 26.515625 48.1875 22.3125 43.546875 
Q 18.109375 38.921875 18.109375 30.90625 
L 18.109375 0 
L 9.078125 0 
L 9.078125 75.984375 
L 18.109375 75.984375 
L 18.109375 46.1875 
Q 21.34375 51.125 25.703125 53.5625 
Q 30.078125 56 35.796875 56 
Q 45.21875 56 50.046875 50.171875 
Q 54.890625 44.34375 54.890625 33.015625 
z
" id="DejaVuSans-68"/>
    </defs>
    <g transform="translate(54.321562 35.472)scale(0.12 -0.12)">
     <use xlink:href="#DejaVuSans-44"/>
     <use x="77.001953" xlink:href="#DejaVuSans-69"/>
     <use x="104.785156" xlink:href="#DejaVuSans-73"/>
     <use x="156.884766" xlink:href="#DejaVuSans-74"/>
     <use x="196.09375" xlink:href="#DejaVuSans-61"/>
     <use x="257.373047" xlink:href="#DejaVuSans-6e"/>
     <use x="320.751953" xlink:href="#DejaVuSans-63"/>
     <use x="375.732422" xlink:href="#DejaVuSans-65"/>
     <use x="437.255859" xlink:href="#DejaVuSans-20"/>
     <use x="469.042969" xlink:href="#DejaVuSans-74"/>
     <use x="508.251953" xlink:href="#DejaVuSans-6f"/>
     <use x="569.433594" xlink:href="#DejaVuSans-20"/>
     <use x="601.220703" xlink:href="#DejaVuSans-4e"/>
     <use x="676.025391" xlink:href="#DejaVuSans-75"/>
     <use x="739.404297" xlink:href="#DejaVuSans-6d"/>
     <use x="836.816406" xlink:href="#DejaVuSans-62"/>
     <use x="900.292969" xlink:href="#DejaVuSans-65"/>
     <use x="961.816406" xlink:href="#DejaVuSans-72"/>
     <use x="1002.929688" xlink:href="#DejaVuSans-20"/>
     <use x="1034.716797" xlink:href="#DejaVuSans-6f"/>
     <use x="1095.898438" xlink:href="#DejaVuSans-66"/>
     <use x="1131.103516" xlink:href="#DejaVuSans-20"/>
     <use x="1162.890625" xlink:href="#DejaVuSans-53"/>
     <use x="1226.367188" xlink:href="#DejaVuSans-74"/>
     <use x="1265.576172" xlink:href="#DejaVuSans-65"/>
     <use x="1327.099609" xlink:href="#DejaVuSans-70"/>
     <use x="1390.576172" xlink:href="#DejaVuSans-73"/>
     <use x="1442.675781" xlink:href="#DejaVuSans-2c"/>
     <use x="1474.462891" xlink:href="#DejaVuSans-20"/>
     <use x="1506.25" xlink:href="#DejaVuSans-53"/>
     <use x="1569.726562" xlink:href="#DejaVuSans-70"/>
     <use x="1633.203125" xlink:href="#DejaVuSans-69"/>
     <use x="1660.986328" xlink:href="#DejaVuSans-72"/>
     <use x="1702.099609" xlink:href="#DejaVuSans-61"/>
     <use x="1763.378906" xlink:href="#DejaVuSans-6c"/>
     <use x="1791.162109" xlink:href="#DejaVuSans-20"/>
     <use x="1822.949219" xlink:href="#DejaVuSans-50"/>
     <use x="1883.189453" xlink:href="#DejaVuSans-61"/>
     <use x="1944.46875" xlink:href="#DejaVuSans-74"/>
     <use x="1983.677734" xlink:href="#DejaVuSans-74"/>
     <use x="2022.886719" xlink:href="#DejaVuSans-65"/>
     <use x="2084.410156" xlink:href="#DejaVuSans-72"/>
     <use x="2125.507812" xlink:href="#DejaVuSans-6e"/>
     <use x="2188.886719" xlink:href="#DejaVuSans-20"/>
     <use x="2220.673828" xlink:href="#DejaVuSans-77"/>
     <use x="2302.460938" xlink:href="#DejaVuSans-69"/>
     <use x="2330.244141" xlink:href="#DejaVuSans-74"/>
     <use x="2369.453125" xlink:href="#DejaVuSans-68"/>
     <use x="2432.832031" xlink:href="#DejaVuSans-20"/>
     <use x="2464.619141" xlink:href="#DejaVuSans-35"/>
     <use x="2528.242188" xlink:href="#DejaVuSans-30"/>
     <use x="2591.865234" xlink:href="#DejaVuSans-30"/>
     <use x="2655.488281" xlink:href="#DejaVuSans-31"/>
     <use x="2719.111328" xlink:href="#DejaVuSans-20"/>
     <use x="2750.898438" xlink:href="#DejaVuSans-53"/>
     <use x="2814.375" xlink:href="#DejaVuSans-74"/>
     <use x="2853.583984" xlink:href="#DejaVuSans-65"/>
     <use x="2915.107422" xlink:href="#DejaVuSans-70"/>
     <use x="2978.583984" xlink:href="#DejaVuSans-73"/>
    </g>
   </g>
  </g>
 </g>
 <defs>
  <clipPath id="pfb3a138ecc">
   <rect height="266.112" width="357.12" x="57.6" y="41.472"/>
  </clipPath>
 </defs>
</svg>
