<?xml version="1.0" encoding="utf-8" standalone="no"?>
<!DOCTYPE svg PUBLIC "-//W3C//DTD SVG 1.1//EN"
  "http://www.w3.org/Graphics/SVG/1.1/DTD/svg11.dtd">
<!-- Created with matplotlib (http://matplotlib.org/) -->
<svg height="345.6pt" version="1.1" viewBox="0 0 460.8 345.6" width="460.8pt" xmlns="http://www.w3.org/2000/svg" xmlns:xlink="http://www.w3.org/1999/xlink">
 <defs>
  <style type="text/css">
*{stroke-linecap:butt;stroke-linejoin:round;}
  </style>
 </defs>
 <g id="figure_1">
  <g id="patch_1">
   <path d="M 0 345.6 
L 460.8 345.6 
L 460.8 0 
L 0 0 
z
" style="fill:#ffffff;"/>
  </g>
  <g id="axes_1">
   <g id="patch_2">
    <path d="M 57.6 307.584 
L 414.72 307.584 
L 414.72 41.472 
L 57.6 41.472 
z
" style="fill:#ffffff;"/>
   </g>
   <g id="matplotlib.axis_1">
    <g id="xtick_1">
     <g id="line2d_1">
      <defs>
       <path d="M 0 0 
L 0 3.5 
" id="m02e9ecaa74" style="stroke:#000000;stroke-width:0.8;"/>
      </defs>
      <g>
       <use style="stroke:#000000;stroke-width:0.8;" x="73.832727" xlink:href="#m02e9ecaa74" y="307.584"/>
      </g>
     </g>
     <g id="text_1">
      <!-- 0 -->
      <defs>
       <path d="M 31.78125 66.40625 
Q 24.171875 66.40625 20.328125 58.90625 
Q 16.5 51.421875 16.5 36.375 
Q 16.5 21.390625 20.328125 13.890625 
Q 24.171875 6.390625 31.78125 6.390625 
Q 39.453125 6.390625 43.28125 13.890625 
Q 47.125 21.390625 47.125 36.375 
Q 47.125 51.421875 43.28125 58.90625 
Q 39.453125 66.40625 31.78125 66.40625 
z
M 31.78125 74.21875 
Q 44.046875 74.21875 50.515625 64.515625 
Q 56.984375 54.828125 56.984375 36.375 
Q 56.984375 17.96875 50.515625 8.265625 
Q 44.046875 -1.421875 31.78125 -1.421875 
Q 19.53125 -1.421875 13.0625 8.265625 
Q 6.59375 17.96875 6.59375 36.375 
Q 6.59375 54.828125 13.0625 64.515625 
Q 19.53125 74.21875 31.78125 74.21875 
z
" id="DejaVuSans-30"/>
      </defs>
      <g transform="translate(70.651477 322.182437)scale(0.1 -0.1)">
       <use xlink:href="#DejaVuSans-30"/>
      </g>
     </g>
    </g>
    <g id="xtick_2">
     <g id="line2d_2">
      <g>
       <use style="stroke:#000000;stroke-width:0.8;" x="138.750653" xlink:href="#m02e9ecaa74" y="307.584"/>
      </g>
     </g>
     <g id="text_2">
      <!-- 1000 -->
      <defs>
       <path d="M 12.40625 8.296875 
L 28.515625 8.296875 
L 28.515625 63.921875 
L 10.984375 60.40625 
L 10.984375 69.390625 
L 28.421875 72.90625 
L 38.28125 72.90625 
L 38.28125 8.296875 
L 54.390625 8.296875 
L 54.390625 0 
L 12.40625 0 
z
" id="DejaVuSans-31"/>
      </defs>
      <g transform="translate(126.025653 322.182437)scale(0.1 -0.1)">
       <use xlink:href="#DejaVuSans-31"/>
       <use x="63.623047" xlink:href="#DejaVuSans-30"/>
       <use x="127.246094" xlink:href="#DejaVuSans-30"/>
       <use x="190.869141" xlink:href="#DejaVuSans-30"/>
      </g>
     </g>
    </g>
    <g id="xtick_3">
     <g id="line2d_3">
      <g>
       <use style="stroke:#000000;stroke-width:0.8;" x="203.668578" xlink:href="#m02e9ecaa74" y="307.584"/>
      </g>
     </g>
     <g id="text_3">
      <!-- 2000 -->
      <defs>
       <path d="M 19.1875 8.296875 
L 53.609375 8.296875 
L 53.609375 0 
L 7.328125 0 
L 7.328125 8.296875 
Q 12.9375 14.109375 22.625 23.890625 
Q 32.328125 33.6875 34.8125 36.53125 
Q 39.546875 41.84375 41.421875 45.53125 
Q 43.3125 49.21875 43.3125 52.78125 
Q 43.3125 58.59375 39.234375 62.25 
Q 35.15625 65.921875 28.609375 65.921875 
Q 23.96875 65.921875 18.8125 64.3125 
Q 13.671875 62.703125 7.8125 59.421875 
L 7.8125 69.390625 
Q 13.765625 71.78125 18.9375 73 
Q 24.125 74.21875 28.421875 74.21875 
Q 39.75 74.21875 46.484375 68.546875 
Q 53.21875 62.890625 53.21875 53.421875 
Q 53.21875 48.921875 51.53125 44.890625 
Q 49.859375 40.875 45.40625 35.40625 
Q 44.1875 33.984375 37.640625 27.21875 
Q 31.109375 20.453125 19.1875 8.296875 
z
" id="DejaVuSans-32"/>
      </defs>
      <g transform="translate(190.943578 322.182437)scale(0.1 -0.1)">
       <use xlink:href="#DejaVuSans-32"/>
       <use x="63.623047" xlink:href="#DejaVuSans-30"/>
       <use x="127.246094" xlink:href="#DejaVuSans-30"/>
       <use x="190.869141" xlink:href="#DejaVuSans-30"/>
      </g>
     </g>
    </g>
    <g id="xtick_4">
     <g id="line2d_4">
      <g>
       <use style="stroke:#000000;stroke-width:0.8;" x="268.586504" xlink:href="#m02e9ecaa74" y="307.584"/>
      </g>
     </g>
     <g id="text_4">
      <!-- 3000 -->
      <defs>
       <path d="M 40.578125 39.3125 
Q 47.65625 37.796875 51.625 33 
Q 55.609375 28.21875 55.609375 21.1875 
Q 55.609375 10.40625 48.1875 4.484375 
Q 40.765625 -1.421875 27.09375 -1.421875 
Q 22.515625 -1.421875 17.65625 -0.515625 
Q 12.796875 0.390625 7.625 2.203125 
L 7.625 11.71875 
Q 11.71875 9.328125 16.59375 8.109375 
Q 21.484375 6.890625 26.8125 6.890625 
Q 36.078125 6.890625 40.9375 10.546875 
Q 45.796875 14.203125 45.796875 21.1875 
Q 45.796875 27.640625 41.28125 31.265625 
Q 36.765625 34.90625 28.71875 34.90625 
L 20.21875 34.90625 
L 20.21875 43.015625 
L 29.109375 43.015625 
Q 36.375 43.015625 40.234375 45.921875 
Q 44.09375 48.828125 44.09375 54.296875 
Q 44.09375 59.90625 40.109375 62.90625 
Q 36.140625 65.921875 28.71875 65.921875 
Q 24.65625 65.921875 20.015625 65.03125 
Q 15.375 64.15625 9.8125 62.3125 
L 9.8125 71.09375 
Q 15.4375 72.65625 20.34375 73.4375 
Q 25.25 74.21875 29.59375 74.21875 
Q 40.828125 74.21875 47.359375 69.109375 
Q 53.90625 64.015625 53.90625 55.328125 
Q 53.90625 49.265625 50.4375 45.09375 
Q 46.96875 40.921875 40.578125 39.3125 
z
" id="DejaVuSans-33"/>
      </defs>
      <g transform="translate(255.861504 322.182437)scale(0.1 -0.1)">
       <use xlink:href="#DejaVuSans-33"/>
       <use x="63.623047" xlink:href="#DejaVuSans-30"/>
       <use x="127.246094" xlink:href="#DejaVuSans-30"/>
       <use x="190.869141" xlink:href="#DejaVuSans-30"/>
      </g>
     </g>
    </g>
    <g id="xtick_5">
     <g id="line2d_5">
      <g>
       <use style="stroke:#000000;stroke-width:0.8;" x="333.504429" xlink:href="#m02e9ecaa74" y="307.584"/>
      </g>
     </g>
     <g id="text_5">
      <!-- 4000 -->
      <defs>
       <path d="M 37.796875 64.3125 
L 12.890625 25.390625 
L 37.796875 25.390625 
z
M 35.203125 72.90625 
L 47.609375 72.90625 
L 47.609375 25.390625 
L 58.015625 25.390625 
L 58.015625 17.1875 
L 47.609375 17.1875 
L 47.609375 0 
L 37.796875 0 
L 37.796875 17.1875 
L 4.890625 17.1875 
L 4.890625 26.703125 
z
" id="DejaVuSans-34"/>
      </defs>
      <g transform="translate(320.779429 322.182437)scale(0.1 -0.1)">
       <use xlink:href="#DejaVuSans-34"/>
       <use x="63.623047" xlink:href="#DejaVuSans-30"/>
       <use x="127.246094" xlink:href="#DejaVuSans-30"/>
       <use x="190.869141" xlink:href="#DejaVuSans-30"/>
      </g>
     </g>
    </g>
    <g id="xtick_6">
     <g id="line2d_6">
      <g>
       <use style="stroke:#000000;stroke-width:0.8;" x="398.422355" xlink:href="#m02e9ecaa74" y="307.584"/>
      </g>
     </g>
     <g id="text_6">
      <!-- 5000 -->
      <defs>
       <path d="M 10.796875 72.90625 
L 49.515625 72.90625 
L 49.515625 64.59375 
L 19.828125 64.59375 
L 19.828125 46.734375 
Q 21.96875 47.46875 24.109375 47.828125 
Q 26.265625 48.1875 28.421875 48.1875 
Q 40.625 48.1875 47.75 41.5 
Q 54.890625 34.8125 54.890625 23.390625 
Q 54.890625 11.625 47.5625 5.09375 
Q 40.234375 -1.421875 26.90625 -1.421875 
Q 22.3125 -1.421875 17.546875 -0.640625 
Q 12.796875 0.140625 7.71875 1.703125 
L 7.71875 11.625 
Q 12.109375 9.234375 16.796875 8.0625 
Q 21.484375 6.890625 26.703125 6.890625 
Q 35.15625 6.890625 40.078125 11.328125 
Q 45.015625 15.765625 45.015625 23.390625 
Q 45.015625 31 40.078125 35.4375 
Q 35.15625 39.890625 26.703125 39.890625 
Q 22.75 39.890625 18.8125 39.015625 
Q 14.890625 38.140625 10.796875 36.28125 
z
" id="DejaVuSans-35"/>
      </defs>
      <g transform="translate(385.697355 322.182437)scale(0.1 -0.1)">
       <use xlink:href="#DejaVuSans-35"/>
       <use x="63.623047" xlink:href="#DejaVuSans-30"/>
       <use x="127.246094" xlink:href="#DejaVuSans-30"/>
       <use x="190.869141" xlink:href="#DejaVuSans-30"/>
      </g>
     </g>
    </g>
    <g id="text_7">
     <!-- Number of Steps -->
     <defs>
      <path d="M 9.8125 72.90625 
L 23.09375 72.90625 
L 55.421875 11.921875 
L 55.421875 72.90625 
L 64.984375 72.90625 
L 64.984375 0 
L 51.703125 0 
L 19.390625 60.984375 
L 19.390625 0 
L 9.8125 0 
z
" id="DejaVuSans-4e"/>
      <path d="M 8.5 21.578125 
L 8.5 54.6875 
L 17.484375 54.6875 
L 17.484375 21.921875 
Q 17.484375 14.15625 20.5 10.265625 
Q 23.53125 6.390625 29.59375 6.390625 
Q 36.859375 6.390625 41.078125 11.03125 
Q 45.3125 15.671875 45.3125 23.6875 
L 45.3125 54.6875 
L 54.296875 54.6875 
L 54.296875 0 
L 45.3125 0 
L 45.3125 8.40625 
Q 42.046875 3.421875 37.71875 1 
Q 33.40625 -1.421875 27.6875 -1.421875 
Q 18.265625 -1.421875 13.375 4.4375 
Q 8.5 10.296875 8.5 21.578125 
z
M 31.109375 56 
z
" id="DejaVuSans-75"/>
      <path d="M 52 44.1875 
Q 55.375 50.25 60.0625 53.125 
Q 64.75 56 71.09375 56 
Q 79.640625 56 84.28125 50.015625 
Q 88.921875 44.046875 88.921875 33.015625 
L 88.921875 0 
L 79.890625 0 
L 79.890625 32.71875 
Q 79.890625 40.578125 77.09375 44.375 
Q 74.3125 48.1875 68.609375 48.1875 
Q 61.625 48.1875 57.5625 43.546875 
Q 53.515625 38.921875 53.515625 30.90625 
L 53.515625 0 
L 44.484375 0 
L 44.484375 32.71875 
Q 44.484375 40.625 41.703125 44.40625 
Q 38.921875 48.1875 33.109375 48.1875 
Q 26.21875 48.1875 22.15625 43.53125 
Q 18.109375 38.875 18.109375 30.90625 
L 18.109375 0 
L 9.078125 0 
L 9.078125 54.6875 
L 18.109375 54.6875 
L 18.109375 46.1875 
Q 21.1875 51.21875 25.484375 53.609375 
Q 29.78125 56 35.6875 56 
Q 41.65625 56 45.828125 52.96875 
Q 50 49.953125 52 44.1875 
z
" id="DejaVuSans-6d"/>
      <path d="M 48.6875 27.296875 
Q 48.6875 37.203125 44.609375 42.84375 
Q 40.53125 48.484375 33.40625 48.484375 
Q 26.265625 48.484375 22.1875 42.84375 
Q 18.109375 37.203125 18.109375 27.296875 
Q 18.109375 17.390625 22.1875 11.75 
Q 26.265625 6.109375 33.40625 6.109375 
Q 40.53125 6.109375 44.609375 11.75 
Q 48.6875 17.390625 48.6875 27.296875 
z
M 18.109375 46.390625 
Q 20.953125 51.265625 25.265625 53.625 
Q 29.59375 56 35.59375 56 
Q 45.5625 56 51.78125 48.09375 
Q 58.015625 40.1875 58.015625 27.296875 
Q 58.015625 14.40625 51.78125 6.484375 
Q 45.5625 -1.421875 35.59375 -1.421875 
Q 29.59375 -1.421875 25.265625 0.953125 
Q 20.953125 3.328125 18.109375 8.203125 
L 18.109375 0 
L 9.078125 0 
L 9.078125 75.984375 
L 18.109375 75.984375 
z
" id="DejaVuSans-62"/>
      <path d="M 56.203125 29.59375 
L 56.203125 25.203125 
L 14.890625 25.203125 
Q 15.484375 15.921875 20.484375 11.0625 
Q 25.484375 6.203125 34.421875 6.203125 
Q 39.59375 6.203125 44.453125 7.46875 
Q 49.3125 8.734375 54.109375 11.28125 
L 54.109375 2.78125 
Q 49.265625 0.734375 44.1875 -0.34375 
Q 39.109375 -1.421875 33.890625 -1.421875 
Q 20.796875 -1.421875 13.15625 6.1875 
Q 5.515625 13.8125 5.515625 26.8125 
Q 5.515625 40.234375 12.765625 48.109375 
Q 20.015625 56 32.328125 56 
Q 43.359375 56 49.78125 48.890625 
Q 56.203125 41.796875 56.203125 29.59375 
z
M 47.21875 32.234375 
Q 47.125 39.59375 43.09375 43.984375 
Q 39.0625 48.390625 32.421875 48.390625 
Q 24.90625 48.390625 20.390625 44.140625 
Q 15.875 39.890625 15.1875 32.171875 
z
" id="DejaVuSans-65"/>
      <path d="M 41.109375 46.296875 
Q 39.59375 47.171875 37.8125 47.578125 
Q 36.03125 48 33.890625 48 
Q 26.265625 48 22.1875 43.046875 
Q 18.109375 38.09375 18.109375 28.8125 
L 18.109375 0 
L 9.078125 0 
L 9.078125 54.6875 
L 18.109375 54.6875 
L 18.109375 46.1875 
Q 20.953125 51.171875 25.484375 53.578125 
Q 30.03125 56 36.53125 56 
Q 37.453125 56 38.578125 55.875 
Q 39.703125 55.765625 41.0625 55.515625 
z
" id="DejaVuSans-72"/>
      <path id="DejaVuSans-20"/>
      <path d="M 30.609375 48.390625 
Q 23.390625 48.390625 19.1875 42.75 
Q 14.984375 37.109375 14.984375 27.296875 
Q 14.984375 17.484375 19.15625 11.84375 
Q 23.34375 6.203125 30.609375 6.203125 
Q 37.796875 6.203125 41.984375 11.859375 
Q 46.1875 17.53125 46.1875 27.296875 
Q 46.1875 37.015625 41.984375 42.703125 
Q 37.796875 48.390625 30.609375 48.390625 
z
M 30.609375 56 
Q 42.328125 56 49.015625 48.375 
Q 55.71875 40.765625 55.71875 27.296875 
Q 55.71875 13.875 49.015625 6.21875 
Q 42.328125 -1.421875 30.609375 -1.421875 
Q 18.84375 -1.421875 12.171875 6.21875 
Q 5.515625 13.875 5.515625 27.296875 
Q 5.515625 40.765625 12.171875 48.375 
Q 18.84375 56 30.609375 56 
z
" id="DejaVuSans-6f"/>
      <path d="M 37.109375 75.984375 
L 37.109375 68.5 
L 28.515625 68.5 
Q 23.6875 68.5 21.796875 66.546875 
Q 19.921875 64.59375 19.921875 59.515625 
L 19.921875 54.6875 
L 34.71875 54.6875 
L 34.71875 47.703125 
L 19.921875 47.703125 
L 19.921875 0 
L 10.890625 0 
L 10.890625 47.703125 
L 2.296875 47.703125 
L 2.296875 54.6875 
L 10.890625 54.6875 
L 10.890625 58.5 
Q 10.890625 67.625 15.140625 71.796875 
Q 19.390625 75.984375 28.609375 75.984375 
z
" id="DejaVuSans-66"/>
      <path d="M 53.515625 70.515625 
L 53.515625 60.890625 
Q 47.90625 63.578125 42.921875 64.890625 
Q 37.9375 66.21875 33.296875 66.21875 
Q 25.25 66.21875 20.875 63.09375 
Q 16.5 59.96875 16.5 54.203125 
Q 16.5 49.359375 19.40625 46.890625 
Q 22.3125 44.4375 30.421875 42.921875 
L 36.375 41.703125 
Q 47.40625 39.59375 52.65625 34.296875 
Q 57.90625 29 57.90625 20.125 
Q 57.90625 9.515625 50.796875 4.046875 
Q 43.703125 -1.421875 29.984375 -1.421875 
Q 24.8125 -1.421875 18.96875 -0.25 
Q 13.140625 0.921875 6.890625 3.21875 
L 6.890625 13.375 
Q 12.890625 10.015625 18.65625 8.296875 
Q 24.421875 6.59375 29.984375 6.59375 
Q 38.421875 6.59375 43.015625 9.90625 
Q 47.609375 13.234375 47.609375 19.390625 
Q 47.609375 24.75 44.3125 27.78125 
Q 41.015625 30.8125 33.5 32.328125 
L 27.484375 33.5 
Q 16.453125 35.6875 11.515625 40.375 
Q 6.59375 45.0625 6.59375 53.421875 
Q 6.59375 63.09375 13.40625 68.65625 
Q 20.21875 74.21875 32.171875 74.21875 
Q 37.3125 74.21875 42.625 73.28125 
Q 47.953125 72.359375 53.515625 70.515625 
z
" id="DejaVuSans-53"/>
      <path d="M 18.3125 70.21875 
L 18.3125 54.6875 
L 36.8125 54.6875 
L 36.8125 47.703125 
L 18.3125 47.703125 
L 18.3125 18.015625 
Q 18.3125 11.328125 20.140625 9.421875 
Q 21.96875 7.515625 27.59375 7.515625 
L 36.8125 7.515625 
L 36.8125 0 
L 27.59375 0 
Q 17.1875 0 13.234375 3.875 
Q 9.28125 7.765625 9.28125 18.015625 
L 9.28125 47.703125 
L 2.6875 47.703125 
L 2.6875 54.6875 
L 9.28125 54.6875 
L 9.28125 70.21875 
z
" id="DejaVuSans-74"/>
      <path d="M 18.109375 8.203125 
L 18.109375 -20.796875 
L 9.078125 -20.796875 
L 9.078125 54.6875 
L 18.109375 54.6875 
L 18.109375 46.390625 
Q 20.953125 51.265625 25.265625 53.625 
Q 29.59375 56 35.59375 56 
Q 45.5625 56 51.78125 48.09375 
Q 58.015625 40.1875 58.015625 27.296875 
Q 58.015625 14.40625 51.78125 6.484375 
Q 45.5625 -1.421875 35.59375 -1.421875 
Q 29.59375 -1.421875 25.265625 0.953125 
Q 20.953125 3.328125 18.109375 8.203125 
z
M 48.6875 27.296875 
Q 48.6875 37.203125 44.609375 42.84375 
Q 40.53125 48.484375 33.40625 48.484375 
Q 26.265625 48.484375 22.1875 42.84375 
Q 18.109375 37.203125 18.109375 27.296875 
Q 18.109375 17.390625 22.1875 11.75 
Q 26.265625 6.109375 33.40625 6.109375 
Q 40.53125 6.109375 44.609375 11.75 
Q 48.6875 17.390625 48.6875 27.296875 
z
" id="DejaVuSans-70"/>
      <path d="M 44.28125 53.078125 
L 44.28125 44.578125 
Q 40.484375 46.53125 36.375 47.5 
Q 32.28125 48.484375 27.875 48.484375 
Q 21.1875 48.484375 17.84375 46.4375 
Q 14.5 44.390625 14.5 40.28125 
Q 14.5 37.15625 16.890625 35.375 
Q 19.28125 33.59375 26.515625 31.984375 
L 29.59375 31.296875 
Q 39.15625 29.25 43.1875 25.515625 
Q 47.21875 21.78125 47.21875 15.09375 
Q 47.21875 7.46875 41.1875 3.015625 
Q 35.15625 -1.421875 24.609375 -1.421875 
Q 20.21875 -1.421875 15.453125 -0.5625 
Q 10.6875 0.296875 5.421875 2 
L 5.421875 11.28125 
Q 10.40625 8.6875 15.234375 7.390625 
Q 20.0625 6.109375 24.8125 6.109375 
Q 31.15625 6.109375 34.5625 8.28125 
Q 37.984375 10.453125 37.984375 14.40625 
Q 37.984375 18.0625 35.515625 20.015625 
Q 33.0625 21.96875 24.703125 23.78125 
L 21.578125 24.515625 
Q 13.234375 26.265625 9.515625 29.90625 
Q 5.8125 33.546875 5.8125 39.890625 
Q 5.8125 47.609375 11.28125 51.796875 
Q 16.75 56 26.8125 56 
Q 31.78125 56 36.171875 55.265625 
Q 40.578125 54.546875 44.28125 53.078125 
z
" id="DejaVuSans-73"/>
     </defs>
     <g transform="translate(194.086562 335.860562)scale(0.1 -0.1)">
      <use xlink:href="#DejaVuSans-4e"/>
      <use x="74.804688" xlink:href="#DejaVuSans-75"/>
      <use x="138.183594" xlink:href="#DejaVuSans-6d"/>
      <use x="235.595703" xlink:href="#DejaVuSans-62"/>
      <use x="299.072266" xlink:href="#DejaVuSans-65"/>
      <use x="360.595703" xlink:href="#DejaVuSans-72"/>
      <use x="401.708984" xlink:href="#DejaVuSans-20"/>
      <use x="433.496094" xlink:href="#DejaVuSans-6f"/>
      <use x="494.677734" xlink:href="#DejaVuSans-66"/>
      <use x="529.882812" xlink:href="#DejaVuSans-20"/>
      <use x="561.669922" xlink:href="#DejaVuSans-53"/>
      <use x="625.146484" xlink:href="#DejaVuSans-74"/>
      <use x="664.355469" xlink:href="#DejaVuSans-65"/>
      <use x="725.878906" xlink:href="#DejaVuSans-70"/>
      <use x="789.355469" xlink:href="#DejaVuSans-73"/>
     </g>
    </g>
   </g>
   <g id="matplotlib.axis_2">
    <g id="ytick_1">
     <g id="line2d_7">
      <defs>
       <path d="M 0 0 
L -3.5 0 
" id="m99351b5aa1" style="stroke:#000000;stroke-width:0.8;"/>
      </defs>
      <g>
       <use style="stroke:#000000;stroke-width:0.8;" x="57.6" xlink:href="#m99351b5aa1" y="295.488"/>
      </g>
     </g>
     <g id="text_8">
      <!-- 0 -->
      <g transform="translate(44.2375 299.287219)scale(0.1 -0.1)">
       <use xlink:href="#DejaVuSans-30"/>
      </g>
     </g>
    </g>
    <g id="ytick_2">
     <g id="line2d_8">
      <g>
       <use style="stroke:#000000;stroke-width:0.8;" x="57.6" xlink:href="#m99351b5aa1" y="237.724037"/>
      </g>
     </g>
     <g id="text_9">
      <!-- 10 -->
      <g transform="translate(37.875 241.523256)scale(0.1 -0.1)">
       <use xlink:href="#DejaVuSans-31"/>
       <use x="63.623047" xlink:href="#DejaVuSans-30"/>
      </g>
     </g>
    </g>
    <g id="ytick_3">
     <g id="line2d_9">
      <g>
       <use style="stroke:#000000;stroke-width:0.8;" x="57.6" xlink:href="#m99351b5aa1" y="179.960074"/>
      </g>
     </g>
     <g id="text_10">
      <!-- 20 -->
      <g transform="translate(37.875 183.759293)scale(0.1 -0.1)">
       <use xlink:href="#DejaVuSans-32"/>
       <use x="63.623047" xlink:href="#DejaVuSans-30"/>
      </g>
     </g>
    </g>
    <g id="ytick_4">
     <g id="line2d_10">
      <g>
       <use style="stroke:#000000;stroke-width:0.8;" x="57.6" xlink:href="#m99351b5aa1" y="122.196112"/>
      </g>
     </g>
     <g id="text_11">
      <!-- 30 -->
      <g transform="translate(37.875 125.99533)scale(0.1 -0.1)">
       <use xlink:href="#DejaVuSans-33"/>
       <use x="63.623047" xlink:href="#DejaVuSans-30"/>
      </g>
     </g>
    </g>
    <g id="ytick_5">
     <g id="line2d_11">
      <g>
       <use style="stroke:#000000;stroke-width:0.8;" x="57.6" xlink:href="#m99351b5aa1" y="64.432149"/>
      </g>
     </g>
     <g id="text_12">
      <!-- 40 -->
      <g transform="translate(37.875 68.231368)scale(0.1 -0.1)">
       <use xlink:href="#DejaVuSans-34"/>
       <use x="63.623047" xlink:href="#DejaVuSans-30"/>
      </g>
     </g>
    </g>
    <g id="text_13">
     <!-- Distance -->
     <defs>
      <path d="M 19.671875 64.796875 
L 19.671875 8.109375 
L 31.59375 8.109375 
Q 46.6875 8.109375 53.6875 14.9375 
Q 60.6875 21.78125 60.6875 36.53125 
Q 60.6875 51.171875 53.6875 57.984375 
Q 46.6875 64.796875 31.59375 64.796875 
z
M 9.8125 72.90625 
L 30.078125 72.90625 
Q 51.265625 72.90625 61.171875 64.09375 
Q 71.09375 55.28125 71.09375 36.53125 
Q 71.09375 17.671875 61.125 8.828125 
Q 51.171875 0 30.078125 0 
L 9.8125 0 
z
" id="DejaVuSans-44"/>
      <path d="M 9.421875 54.6875 
L 18.40625 54.6875 
L 18.40625 0 
L 9.421875 0 
z
M 9.421875 75.984375 
L 18.40625 75.984375 
L 18.40625 64.59375 
L 9.421875 64.59375 
z
" id="DejaVuSans-69"/>
      <path d="M 34.28125 27.484375 
Q 23.390625 27.484375 19.1875 25 
Q 14.984375 22.515625 14.984375 16.5 
Q 14.984375 11.71875 18.140625 8.90625 
Q 21.296875 6.109375 26.703125 6.109375 
Q 34.1875 6.109375 38.703125 11.40625 
Q 43.21875 16.703125 43.21875 25.484375 
L 43.21875 27.484375 
z
M 52.203125 31.203125 
L 52.203125 0 
L 43.21875 0 
L 43.21875 8.296875 
Q 40.140625 3.328125 35.546875 0.953125 
Q 30.953125 -1.421875 24.3125 -1.421875 
Q 15.921875 -1.421875 10.953125 3.296875 
Q 6 8.015625 6 15.921875 
Q 6 25.140625 12.171875 29.828125 
Q 18.359375 34.515625 30.609375 34.515625 
L 43.21875 34.515625 
L 43.21875 35.40625 
Q 43.21875 41.609375 39.140625 45 
Q 35.0625 48.390625 27.6875 48.390625 
Q 23 48.390625 18.546875 47.265625 
Q 14.109375 46.140625 10.015625 43.890625 
L 10.015625 52.203125 
Q 14.9375 54.109375 19.578125 55.046875 
Q 24.21875 56 28.609375 56 
Q 40.484375 56 46.34375 49.84375 
Q 52.203125 43.703125 52.203125 31.203125 
z
" id="DejaVuSans-61"/>
      <path d="M 54.890625 33.015625 
L 54.890625 0 
L 45.90625 0 
L 45.90625 32.71875 
Q 45.90625 40.484375 42.875 44.328125 
Q 39.84375 48.1875 33.796875 48.1875 
Q 26.515625 48.1875 22.3125 43.546875 
Q 18.109375 38.921875 18.109375 30.90625 
L 18.109375 0 
L 9.078125 0 
L 9.078125 54.6875 
L 18.109375 54.6875 
L 18.109375 46.1875 
Q 21.34375 51.125 25.703125 53.5625 
Q 30.078125 56 35.796875 56 
Q 45.21875 56 50.046875 50.171875 
Q 54.890625 44.34375 54.890625 33.015625 
z
" id="DejaVuSans-6e"/>
      <path d="M 48.78125 52.59375 
L 48.78125 44.1875 
Q 44.96875 46.296875 41.140625 47.34375 
Q 37.3125 48.390625 33.40625 48.390625 
Q 24.65625 48.390625 19.8125 42.84375 
Q 14.984375 37.3125 14.984375 27.296875 
Q 14.984375 17.28125 19.8125 11.734375 
Q 24.65625 6.203125 33.40625 6.203125 
Q 37.3125 6.203125 41.140625 7.25 
Q 44.96875 8.296875 48.78125 10.40625 
L 48.78125 2.09375 
Q 45.015625 0.34375 40.984375 -0.53125 
Q 36.96875 -1.421875 32.421875 -1.421875 
Q 20.0625 -1.421875 12.78125 6.34375 
Q 5.515625 14.109375 5.515625 27.296875 
Q 5.515625 40.671875 12.859375 48.328125 
Q 20.21875 56 33.015625 56 
Q 37.15625 56 41.109375 55.140625 
Q 45.0625 54.296875 48.78125 52.59375 
z
" id="DejaVuSans-63"/>
     </defs>
     <g transform="translate(31.795312 196.3905)rotate(-90)scale(0.1 -0.1)">
      <use xlink:href="#DejaVuSans-44"/>
      <use x="77.001953" xlink:href="#DejaVuSans-69"/>
      <use x="104.785156" xlink:href="#DejaVuSans-73"/>
      <use x="156.884766" xlink:href="#DejaVuSans-74"/>
      <use x="196.09375" xlink:href="#DejaVuSans-61"/>
      <use x="257.373047" xlink:href="#DejaVuSans-6e"/>
      <use x="320.751953" xlink:href="#DejaVuSans-63"/>
      <use x="375.732422" xlink:href="#DejaVuSans-65"/>
     </g>
    </g>
   </g>
   <g id="line2d_12">
    <path clip-path="url(#p495fa9e7f2)" d="M 73.832727 295.488 
L 73.962563 287.318942 
L 74.092399 295.488 
L 74.287153 282.571585 
L 74.352071 283.935207 
L 74.481907 295.488 
L 74.741578 277.221431 
L 74.806496 278.158811 
L 74.936332 289.711604 
L 75.00125 287.318942 
L 75.196004 274.660907 
L 75.32584 282.571585 
L 75.455675 289.711604 
L 75.650429 279.149884 
L 75.715347 282.571585 
L 75.910101 295.488 
L 76.104855 282.571585 
L 76.169773 283.935207 
L 76.299608 277.221431 
L 76.429444 287.318942 
L 76.689116 269.655171 
L 76.754034 271.671308 
L 76.948788 283.935207 
L 77.013706 282.571585 
L 77.143541 274.660907 
L 77.468131 295.488 
L 77.727803 279.149884 
L 77.792721 282.571585 
L 78.052392 266.606019 
L 78.11731 266.034043 
L 78.247146 277.221431 
L 78.312064 274.660907 
L 78.506818 262.811768 
L 78.831408 282.571585 
L 79.091079 264.381154 
L 79.155997 266.034043 
L 79.350751 278.158811 
L 79.415669 277.221431 
L 79.545505 269.655171 
L 79.870094 289.711604 
L 80.064848 279.149884 
L 80.32452 266.034043 
L 80.389438 266.606019 
L 80.519274 260.351553 
L 80.649109 271.671308 
L 80.714027 269.655171 
L 80.908781 258.501017 
L 81.233371 279.149884 
L 81.493042 261.806111 
L 81.55796 264.381154 
L 81.817632 278.158811 
L 81.947468 271.671308 
L 82.077304 278.158811 
L 82.142222 277.221431 
L 82.336976 289.711604 
L 82.466811 282.571585 
L 82.726483 266.606019 
L 82.791401 266.034043 
L 82.856319 260.351553 
L 82.921237 260.829622 
L 83.051073 272.382415 
L 83.115991 271.671308 
L 83.245826 264.381154 
L 83.310744 261.806111 
L 83.635334 282.571585 
L 83.895006 266.606019 
L 83.959924 269.655171 
L 84.219595 283.935207 
L 84.479267 266.034043 
L 84.544185 266.606019 
L 84.674021 278.158811 
L 84.738939 277.221431 
L 84.933693 266.606019 
L 84.99861 270.980826 
L 85.258282 283.935207 
L 85.3232 282.571585 
L 85.517954 295.488 
L 85.712708 282.571585 
L 85.777626 283.935207 
L 86.037297 269.655171 
L 86.102215 274.660907 
L 86.426805 258.954862 
L 86.491723 260.351553 
L 86.621559 253.4352 
L 86.751394 264.381154 
L 86.816312 261.806111 
L 87.011066 250.372903 
L 87.335656 270.980826 
L 87.595327 253.833814 
L 87.919917 271.671308 
L 88.179589 253.4352 
L 88.244507 254.64271 
L 88.439261 266.606019 
L 88.504178 266.034043 
L 88.634014 258.954862 
L 88.958604 278.158811 
L 89.023522 277.221431 
L 89.153358 269.655171 
L 89.413029 254.64271 
L 89.477947 255.053226 
L 89.607783 248.917204 
L 89.737619 260.351553 
L 89.802537 258.954862 
L 89.997291 248.917204 
L 90.062209 253.833814 
L 90.32188 269.655171 
L 90.386798 266.606019 
L 90.581552 254.64271 
L 90.906142 274.660907 
L 91.165813 256.738756 
L 91.295649 264.381154 
L 91.490403 272.382415 
L 91.750075 254.64271 
L 91.814993 255.053226 
L 91.944828 266.606019 
L 92.009746 266.034043 
L 92.074664 264.381154 
L 92.2045 256.738756 
L 92.464172 271.671308 
L 92.52909 272.382415 
L 92.594008 271.671308 
L 92.658926 277.221431 
L 92.723844 274.660907 
L 92.788762 270.980826 
L 93.048433 287.318942 
L 93.502859 258.501017 
L 93.567777 262.811768 
L 93.892366 246.134449 
L 93.957284 247.854616 
L 94.08712 240.688293 
L 94.216956 251.496277 
L 94.281874 248.917204 
L 94.476628 237.724037 
L 94.801217 258.501017 
L 95.060889 242.232258 
L 95.125807 245.79756 
L 95.385479 261.806111 
L 95.64515 243.822341 
L 95.774986 251.496277 
L 95.96974 260.351553 
L 96.229412 242.232258 
L 96.294329 243.180507 
L 96.489083 255.053226 
L 96.554001 254.64271 
L 96.683837 247.854616 
L 96.943509 260.829622 
L 97.008427 260.351553 
L 97.073345 258.954862 
L 97.333016 272.382415 
L 97.657606 248.917204 
L 97.787442 246.134449 
L 97.85236 251.496277 
L 97.917278 248.917204 
L 97.982196 245.79756 
L 98.047113 250.372903 
L 98.176949 242.232258 
L 98.241867 245.79756 
L 98.501539 233.274308 
L 98.566457 230.905926 
L 98.696293 240.993587 
L 98.761211 237.724037 
L 98.955964 225.930978 
L 99.280554 246.473652 
L 99.540226 229.626949 
L 99.864815 248.917204 
L 100.124487 230.905926 
L 100.254323 238.597094 
L 100.449077 247.854616 
L 100.708748 229.626949 
L 100.773666 230.905926 
L 100.96842 243.180507 
L 101.033338 243.500434 
L 101.163174 237.435936 
L 101.29301 243.500434 
L 101.357928 243.180507 
L 101.552681 255.053226 
L 101.617599 254.64271 
L 101.942189 231.947641 
L 102.007107 231.685618 
L 102.072025 225.930978 
L 102.136943 226.171245 
L 102.266779 237.724037 
L 102.331697 237.435936 
L 102.396614 236.580085 
L 102.52645 229.626949 
L 102.85104 248.917204 
L 102.980876 246.134449 
L 103.110712 238.597094 
L 103.435301 258.954862 
L 103.630055 248.917204 
L 103.694973 245.79756 
L 104.019563 266.606019 
L 104.279234 250.372903 
L 104.344152 253.833814 
L 104.603824 269.655171 
L 104.863496 251.496277 
L 104.928414 253.4352 
L 105.188085 266.606019 
L 105.447757 248.917204 
L 105.512675 249.27683 
L 105.642511 260.829622 
L 105.707429 260.351553 
L 105.772347 258.954862 
L 105.902182 251.496277 
L 106.161854 266.034043 
L 106.226772 266.606019 
L 106.29169 266.034043 
L 106.356608 271.671308 
L 106.421526 269.655171 
L 106.486444 266.606019 
L 106.551362 270.980826 
L 106.875951 253.4352 
L 107.005787 255.053226 
L 107.135623 266.606019 
L 107.200541 266.034043 
L 107.265459 264.381154 
L 107.590049 243.822341 
L 107.654966 246.134449 
L 107.979556 225.215106 
L 108.044474 225.930978 
L 108.17431 219.511369 
L 108.304146 230.905926 
L 108.369064 229.626949 
L 108.433982 227.877015 
L 108.563817 220.394848 
L 108.888407 240.688293 
L 109.083161 230.905926 
L 109.148079 228.124222 
L 109.472668 248.917204 
L 109.73234 234.084065 
L 109.797258 238.304594 
L 110.05693 254.64271 
L 110.316601 237.724037 
L 110.641191 256.738756 
L 110.900863 238.597094 
L 111.030699 246.134449 
L 111.225452 254.64271 
L 111.485124 236.580085 
L 111.550042 237.435936 
L 111.744796 249.27683 
L 111.809714 248.917204 
L 111.93955 242.232258 
L 112.069385 248.917204 
L 112.134303 249.27683 
L 112.199221 255.053226 
L 112.264139 254.64271 
L 112.329057 253.4352 
L 112.393975 258.954862 
L 112.458893 256.738756 
L 112.523811 253.833814 
L 112.588729 258.501017 
L 112.718565 250.372903 
L 112.978236 266.606019 
L 113.043154 262.811768 
L 113.432662 238.304594 
L 113.49758 242.232258 
L 113.822169 225.691538 
L 113.887087 227.877015 
L 114.146759 212.782592 
L 114.211677 211.382401 
L 114.341513 222.421724 
L 114.406431 220.394848 
L 114.601184 210.200531 
L 114.925774 230.905926 
L 115.185446 216.920516 
L 115.250364 221.514034 
L 115.510035 237.724037 
L 115.574953 234.084065 
L 115.769707 221.966478 
L 116.094297 242.232258 
L 116.353968 224.978098 
L 116.678558 243.822341 
L 116.743476 238.597094 
L 116.93823 225.691538 
L 117.068066 233.274308 
L 117.262819 242.232258 
L 117.522491 224.037924 
L 117.587409 225.215106 
L 117.782163 237.435936 
L 117.847081 237.724037 
L 117.976917 231.685618 
L 118.106752 237.724037 
L 118.17167 237.435936 
L 118.236588 243.180507 
L 118.301506 242.232258 
L 118.366424 240.688293 
L 118.431342 246.134449 
L 118.49626 243.822341 
L 118.561178 240.993587 
L 118.82085 256.738756 
L 119.275275 228.124222 
L 119.340193 233.006721 
L 119.405111 229.626949 
L 119.470029 225.930978 
L 119.534947 230.135536 
L 119.664783 221.514034 
L 119.729701 224.978098 
L 120.05429 207.504553 
L 120.119208 209.615696 
L 120.249044 202.167462 
L 120.37888 212.782592 
L 120.443798 210.200531 
L 120.638552 199.349606 
L 120.963141 220.173007 
L 121.222813 205.257806 
L 121.547403 225.930978 
L 121.807074 209.615696 
L 122.131664 229.626949 
L 122.391336 212.179628 
L 122.715925 230.905926 
L 122.780843 225.691538 
L 122.975597 212.782592 
L 123.105433 220.394848 
L 123.300187 229.626949 
L 123.559858 211.382401 
L 123.624776 212.782592 
L 123.884448 225.930978 
L 123.949366 220.173007 
L 124.014284 220.394848 
L 124.079202 226.171245 
L 124.14412 225.930978 
L 124.209037 225.215106 
L 124.273955 230.905926 
L 124.338873 229.626949 
L 124.403791 227.877015 
L 124.663463 242.232258 
L 125.05297 216.920516 
L 125.117888 215.03211 
L 125.182806 220.394848 
L 125.247724 217.989512 
L 125.312642 215.239738 
L 125.37756 220.173007 
L 125.442478 216.920516 
L 125.507396 213.389984 
L 125.572314 217.774536 
L 125.70215 209.615696 
L 125.767068 213.389984 
L 126.091657 197.289263 
L 126.156575 199.871628 
L 126.286411 192.156682 
L 126.416247 202.346409 
L 126.481165 199.349606 
L 126.675919 188.040818 
L 127.000508 208.842056 
L 127.26018 193.293118 
L 127.58477 213.79742 
L 127.844441 197.119516 
L 128.169031 216.920516 
L 128.428703 199.349606 
L 128.753292 217.989512 
L 128.81821 212.782592 
L 129.012964 199.871628 
L 129.1428 207.504553 
L 129.337554 216.920516 
L 129.597225 198.657954 
L 129.662143 200.221232 
L 129.921815 213.79742 
L 129.986733 208.075263 
L 130.051651 208.649723 
L 130.116569 214.412415 
L 130.181487 213.79742 
L 130.246405 212.782592 
L 130.506076 225.930978 
L 130.830666 202.346409 
L 130.895584 201.455081 
L 130.960502 195.77194 
L 131.02542 196.612023 
L 131.220173 208.649723 
L 131.285091 208.842056 
L 131.414927 202.885323 
L 131.544763 208.842056 
L 131.609681 208.649723 
L 131.804435 220.394848 
L 131.869353 220.173007 
L 131.999189 213.79742 
L 132.129024 220.173007 
L 132.193942 220.394848 
L 132.323778 231.947641 
L 132.388696 231.685618 
L 132.453614 230.905926 
L 132.58345 224.037924 
L 132.908039 243.180507 
L 133.037875 240.688293 
L 133.167711 233.274308 
L 133.492301 253.4352 
L 133.622137 248.917204 
L 133.751973 240.993587 
L 134.076562 261.806111 
L 134.336234 246.473652 
L 134.401152 250.372903 
L 134.660823 266.606019 
L 134.920495 248.917204 
L 135.050331 256.738756 
L 135.245085 266.034043 
L 135.504757 247.854616 
L 135.569674 248.917204 
L 135.764428 260.829622 
L 135.829346 260.351553 
L 136.089018 243.500434 
L 136.153936 243.180507 
L 136.283772 254.64271 
L 136.34869 253.4352 
L 136.413607 251.496277 
L 136.543443 243.822341 
L 136.803115 258.954862 
L 136.932951 260.829622 
L 136.997869 266.606019 
L 137.062787 266.034043 
L 137.127705 264.381154 
L 137.192623 269.655171 
L 137.25754 266.606019 
L 137.322458 262.811768 
L 137.387376 266.606019 
L 137.711966 247.854616 
L 137.776884 248.917204 
L 138.101474 226.171245 
L 138.166391 225.930978 
L 138.231309 225.215106 
L 138.426063 237.435936 
L 138.490981 237.724037 
L 138.620817 231.685618 
L 138.685735 230.905926 
L 139.010324 208.649723 
L 139.075242 208.842056 
L 139.334914 191.352535 
L 139.399832 191.512867 
L 139.529668 203.06566 
L 139.594586 202.885323 
L 139.659504 202.346409 
L 139.78934 195.77194 
L 139.919175 202.346409 
L 139.984093 202.885323 
L 140.113929 214.412415 
L 140.178847 213.79742 
L 140.243765 212.782592 
L 140.373601 205.814215 
L 140.698191 225.215106 
L 140.828026 222.421724 
L 140.957862 215.03211 
L 141.282452 235.180652 
L 141.412288 230.905926 
L 141.542124 223.109962 
L 141.866713 243.822341 
L 142.126385 229.626949 
L 142.191303 234.084065 
L 142.450975 250.372903 
L 142.515892 246.473652 
L 142.710646 234.084065 
L 143.035236 253.833814 
L 143.294908 236.01636 
L 143.424743 243.822341 
L 143.619497 253.4352 
L 143.879169 235.180652 
L 143.944087 236.580085 
L 144.138841 248.917204 
L 144.203759 249.27683 
L 144.46343 231.685618 
L 144.528348 231.947641 
L 144.658184 243.500434 
L 144.723102 243.180507 
L 144.78802 242.232258 
L 144.917856 235.180652 
L 145.177527 248.917204 
L 145.242445 249.27683 
L 145.307363 248.917204 
L 145.372281 254.64271 
L 145.437199 253.4352 
L 145.502117 251.496277 
L 145.567035 256.738756 
L 145.631953 253.833814 
L 145.696871 250.372903 
L 145.761789 254.64271 
L 146.086378 238.597094 
L 146.151296 240.688293 
L 146.281132 229.626949 
L 146.34605 230.905926 
L 146.410968 231.685618 
L 146.540804 243.180507 
L 146.605722 242.232258 
L 146.67064 240.688293 
L 146.995229 220.394848 
L 147.060147 222.421724 
L 147.384737 201.455081 
L 147.449655 202.346409 
L 147.709326 185.584565 
L 147.774244 185.130104 
L 147.90408 196.612023 
L 147.968998 195.77194 
L 148.033916 194.607576 
L 148.163752 187.576012 
L 148.488342 207.126128 
L 148.618177 204.155156 
L 148.748013 196.780897 
L 149.072603 216.920516 
L 149.202439 212.782592 
L 149.332275 205.073097 
L 149.656864 225.691538 
L 149.916536 212.179628 
L 149.981454 216.920516 
L 150.241126 233.006721 
L 150.306044 229.626949 
L 150.500797 217.774536 
L 150.825387 238.304594 
L 151.085059 221.514034 
L 151.409648 240.993587 
L 151.66932 223.109962 
L 151.799156 230.905926 
L 151.99391 240.688293 
L 152.253581 222.421724 
L 152.318499 224.037924 
L 152.578171 237.435936 
L 152.837843 219.511369 
L 152.902761 220.173007 
L 153.097514 231.947641 
L 153.162432 231.685618 
L 153.292268 225.215106 
L 153.422104 231.685618 
L 153.487022 231.947641 
L 153.55194 237.724037 
L 153.616858 237.435936 
L 153.681776 236.580085 
L 153.746694 242.232258 
L 153.811611 240.688293 
L 153.876529 238.597094 
L 153.941447 243.822341 
L 154.006365 240.993587 
L 154.071283 237.724037 
L 154.136201 242.232258 
L 154.266037 234.084065 
L 154.330955 237.724037 
L 154.460791 228.124222 
L 154.525709 230.905926 
L 154.655545 238.597094 
L 154.720462 243.822341 
L 154.78538 240.993587 
L 155.564395 202.167462 
L 155.629313 204.155156 
L 155.953903 183.330672 
L 156.018821 184.376799 
L 156.148657 177.672171 
L 156.278493 188.976515 
L 156.343411 187.576012 
L 156.408329 185.888587 
L 156.538164 178.52489 
L 156.862754 198.657954 
L 156.99259 194.607576 
L 157.122426 186.959367 
L 157.447015 207.504553 
L 157.706687 194.442334 
L 157.771605 199.349606 
L 158.031277 215.239738 
L 158.096195 212.179628 
L 158.290948 200.748057 
L 158.615538 221.514034 
L 158.87521 205.628362 
L 159.199799 225.930978 
L 159.459471 208.842056 
L 159.784061 228.124222 
L 160.043732 210.200531 
L 160.173568 217.989512 
L 160.368322 227.877015 
L 160.627994 209.615696 
L 160.692912 211.382401 
L 160.952583 225.215106 
L 161.212255 207.126128 
L 161.277173 208.075263 
L 161.471927 220.173007 
L 161.536845 220.394848 
L 161.66668 214.412415 
L 161.796516 220.394848 
L 161.861434 220.173007 
L 161.926352 225.930978 
L 161.99127 225.215106 
L 162.056188 224.037924 
L 162.121106 229.626949 
L 162.186024 227.877015 
L 162.250942 225.691538 
L 162.31586 230.905926 
L 162.380778 228.124222 
L 162.445696 224.978098 
L 162.510614 229.626949 
L 162.640449 221.966478 
L 162.900121 238.304594 
L 163.354547 209.615696 
L 163.419464 213.79742 
L 163.5493 205.257806 
L 163.614218 208.842056 
L 163.938808 192.156682 
L 164.003726 194.607576 
L 164.328315 174.873305 
L 164.393233 176.40454 
L 164.523069 169.329601 
L 164.652905 180.39412 
L 164.717823 178.52489 
L 164.912577 168.801739 
L 165.237166 189.290247 
L 165.496838 176.544721 
L 165.561756 181.559657 
L 165.821428 197.289263 
L 165.886346 194.442334 
L 166.081099 183.330672 
L 166.405689 204.155156 
L 166.665361 188.976515 
L 166.98995 209.615696 
L 167.249622 193.293118 
L 167.574212 213.389984 
L 167.833883 196.107121 
L 168.158473 215.239738 
L 168.223391 210.200531 
L 168.418145 197.289263 
L 168.547981 205.073097 
L 168.742734 215.03211 
L 169.002406 196.780897 
L 169.067324 198.657954 
L 169.326996 212.782592 
L 169.586667 194.607576 
L 169.651585 195.77194 
L 169.846339 208.075263 
L 169.911257 208.649723 
L 169.976175 202.885323 
L 170.041093 203.06566 
L 170.106011 208.842056 
L 170.170929 208.649723 
L 170.235847 208.075263 
L 170.300765 213.79742 
L 170.365682 212.782592 
L 170.4306 211.382401 
L 170.495518 216.920516 
L 170.560436 215.03211 
L 170.625354 212.782592 
L 170.690272 217.989512 
L 170.75519 215.239738 
L 170.820108 212.179628 
L 171.07978 228.124222 
L 171.534205 199.349606 
L 171.599123 204.155156 
L 171.664041 200.748057 
L 171.728959 197.119516 
L 171.793877 201.455081 
L 171.923713 193.293118 
L 171.988631 197.119516 
L 172.118466 188.040818 
L 172.183384 191.352535 
L 172.507974 174.046223 
L 172.572892 176.40454 
L 172.832564 162.129536 
L 172.897482 160.26603 
L 173.027317 171.060616 
L 173.092235 168.801739 
L 173.286989 158.549635 
L 173.611579 179.240267 
L 173.87125 165.679638 
L 174.19584 186.499173 
L 174.455512 171.867721 
L 174.780101 192.642188 
L 175.039773 176.966258 
L 175.364363 197.459305 
L 175.624034 180.829808 
L 175.948624 200.748057 
L 176.208296 183.330672 
L 176.532885 202.346409 
L 176.597803 197.289263 
L 176.792557 184.376799 
L 176.922393 192.156682 
L 177.117147 202.167462 
L 177.376818 183.927258 
L 177.441736 185.888587 
L 177.701408 200.221232 
L 177.96108 181.99982 
L 178.025998 183.330672 
L 178.285669 196.612023 
L 178.350587 190.873014 
L 178.415505 191.352535 
L 178.480423 197.119516 
L 178.545341 196.612023 
L 178.610259 195.77194 
L 178.675177 201.455081 
L 178.740095 200.221232 
L 178.805013 198.657954 
L 178.869931 204.155156 
L 178.934849 202.167462 
L 178.999767 199.871628 
L 179.259438 215.03211 
L 179.648946 189.290247 
L 179.713864 186.959367 
L 179.778782 192.156682 
L 179.8437 189.44746 
L 179.908618 186.499173 
L 179.973535 191.352535 
L 180.038453 188.040818 
L 180.103371 184.527051 
L 180.168289 188.976515 
L 180.298125 181.121189 
L 180.363043 185.130104 
L 180.492879 176.40454 
L 180.557797 179.960074 
L 180.882386 163.639303 
L 180.947304 166.323853 
L 181.206976 152.821536 
L 181.271894 150.616718 
L 181.40173 161.13245 
L 181.466648 158.549635 
L 181.661402 147.878751 
L 181.985991 168.670117 
L 182.245663 154.468195 
L 182.570252 175.28898 
L 182.829924 160.142709 
L 183.154514 180.829808 
L 183.414186 164.783073 
L 183.738775 185.130104 
L 183.998447 168.276068 
L 184.323036 188.040818 
L 184.582708 170.525442 
L 184.907298 189.44746 
L 184.972216 184.376799 
L 185.16697 171.463512 
L 185.296805 179.240267 
L 185.491559 189.290247 
L 185.751231 171.060616 
L 185.881067 178.52489 
L 186.07582 187.576012 
L 186.335492 169.329601 
L 186.40041 170.792742 
L 186.660082 184.376799 
L 186.725 178.667615 
L 186.789918 179.383872 
L 186.854836 185.130104 
L 186.919754 184.376799 
L 186.984671 183.330672 
L 187.049589 188.976515 
L 187.114507 187.576012 
L 187.179425 185.888587 
L 187.439097 200.221232 
L 187.828604 174.873305 
L 187.893522 173.088357 
L 187.95844 178.52489 
L 188.023358 176.40454 
L 188.088276 174.046223 
L 188.153194 179.240267 
L 188.218112 176.544721 
L 188.28303 173.634787 
L 188.347948 178.52489 
L 188.412866 175.28898 
L 188.477784 171.867721 
L 188.542702 176.40454 
L 188.672537 168.801739 
L 188.737455 172.952131 
L 188.867291 164.528038 
L 188.932209 168.276068 
L 189.062045 159.160153 
L 189.126963 162.505371 
L 189.451553 145.635321 
L 189.516471 148.218213 
L 189.646306 140.491023 
L 189.776142 150.731924 
L 189.84106 147.878751 
L 190.035814 136.873586 
L 190.360404 157.699456 
L 190.620075 142.986762 
L 190.944665 163.765898 
L 191.204337 148.218213 
L 191.528926 168.801739 
L 191.788598 152.471147 
L 192.113188 172.680131 
L 192.372859 155.656252 
L 192.697449 175.28898 
L 192.957121 157.699456 
L 193.28171 176.544721 
L 193.346628 171.463512 
L 193.541382 158.549635 
L 193.671218 166.323853 
L 193.865972 176.40454 
L 194.125643 158.184628 
L 194.255479 165.679638 
L 194.450233 174.873305 
L 194.709905 156.614015 
L 194.774822 158.184628 
L 195.034494 172.002752 
L 195.099412 166.323853 
L 195.16433 167.231189 
L 195.229248 172.952131 
L 195.294166 172.002752 
L 195.359084 170.792742 
L 195.618756 184.376799 
L 196.073181 153.877905 
L 196.138099 154.942213 
L 196.332853 167.231189 
L 196.397771 167.883236 
L 196.462689 162.129536 
L 196.527606 162.505371 
L 196.592524 168.276068 
L 196.657442 167.883236 
L 196.72236 167.231189 
L 196.917114 179.383872 
L 196.982032 179.815755 
L 197.04695 174.046223 
L 197.111868 174.183678 
L 197.176786 179.960074 
L 197.241704 179.815755 
L 197.306622 179.383872 
L 197.501375 191.352535 
L 197.566293 191.512867 
L 197.696129 185.584565 
L 197.825965 191.512867 
L 197.890883 191.352535 
L 198.085637 203.06566 
L 198.150555 202.885323 
L 198.28039 196.612023 
L 198.410226 202.885323 
L 198.475144 203.06566 
L 198.60498 214.618452 
L 198.669898 214.412415 
L 198.734816 213.79742 
L 198.864652 207.126128 
L 198.994488 213.79742 
L 199.059406 214.412415 
L 199.189241 225.930978 
L 199.254159 225.215106 
L 199.319077 224.037924 
L 199.448913 216.920516 
L 199.773503 236.580085 
L 199.903339 233.274308 
L 200.033174 225.691538 
L 200.357764 246.134449 
L 200.617436 233.006721 
L 200.682354 237.724037 
L 200.942025 253.833814 
L 201.006943 250.372903 
L 201.201697 238.304594 
L 201.526287 258.501017 
L 201.785958 240.993587 
L 202.110548 258.954862 
L 202.175466 253.4352 
L 202.37022 240.688293 
L 202.435138 242.232258 
L 202.629891 254.64271 
L 202.694809 255.053226 
L 202.954481 237.435936 
L 203.019399 237.724037 
L 203.149235 249.27683 
L 203.214153 248.917204 
L 203.279071 247.854616 
L 203.538742 231.685618 
L 203.60366 230.905926 
L 203.733496 242.232258 
L 203.798414 240.688293 
L 203.92825 233.274308 
L 204.123004 224.037924 
L 204.187922 222.421724 
L 204.317758 233.274308 
L 204.382675 230.905926 
L 204.577429 220.173007 
L 204.902019 238.597094 
L 205.161691 248.917204 
L 205.291526 255.053226 
L 205.356444 254.64271 
L 205.421362 260.351553 
L 205.48628 258.954862 
L 205.551198 256.738756 
L 205.616116 261.806111 
L 205.681034 258.501017 
L 205.745952 254.64271 
L 205.81087 258.501017 
L 206.135459 240.688293 
L 206.200377 242.232258 
L 206.524967 220.173007 
L 206.589885 220.394848 
L 206.914475 197.119516 
L 206.979392 196.612023 
L 207.239064 183.330672 
L 207.498736 196.612023 
L 207.563654 190.873014 
L 207.628572 191.352535 
L 207.69349 191.512867 
L 208.018079 168.276068 
L 208.082997 167.883236 
L 208.342669 150.042058 
L 208.407587 150.616718 
L 208.602341 162.505371 
L 208.667259 162.630886 
L 208.797094 156.7342 
L 208.92693 162.630886 
L 208.991848 162.505371 
L 209.186602 174.183678 
L 209.25152 174.046223 
L 209.381356 167.883236 
L 209.511192 174.046223 
L 209.57611 174.183678 
L 209.705945 185.736471 
L 209.770863 185.584565 
L 209.835781 185.130104 
L 209.965617 178.667615 
L 210.095453 185.130104 
L 210.160371 185.584565 
L 210.290207 197.119516 
L 210.355125 196.612023 
L 210.420043 195.77194 
L 210.549878 188.976515 
L 210.874468 208.075263 
L 211.004304 205.814215 
L 211.13414 198.657954 
L 211.458729 218.421261 
L 211.588565 215.03211 
L 211.718401 207.504553 
L 212.042991 227.877015 
L 212.237744 217.989512 
L 212.302662 215.239738 
L 212.627252 236.01636 
L 212.886924 221.514034 
L 212.951842 225.930978 
L 213.211513 242.232258 
L 213.276431 238.304594 
L 213.471185 225.930978 
L 213.795775 245.79756 
L 214.055446 228.124222 
L 214.380036 246.134449 
L 214.444954 240.688293 
L 214.639708 227.877015 
L 214.704626 229.626949 
L 214.964297 243.180507 
L 215.223969 225.215106 
L 215.288887 225.930978 
L 215.483641 237.724037 
L 215.548559 237.435936 
L 215.80823 220.394848 
L 215.873148 220.173007 
L 216.002984 231.685618 
L 216.067902 230.905926 
L 216.13282 229.626949 
L 216.392492 213.79742 
L 216.45741 212.782592 
L 216.587245 224.037924 
L 216.652163 222.421724 
L 216.781999 215.03211 
L 216.846917 212.782592 
L 217.106589 227.877015 
L 217.236425 230.905926 
L 217.366261 237.435936 
L 217.431178 237.724037 
L 217.496096 243.500434 
L 217.561014 243.180507 
L 217.625932 242.232258 
L 217.69085 247.854616 
L 217.755768 246.134449 
L 217.820686 243.822341 
L 217.885604 248.917204 
L 217.950522 245.79756 
L 218.01544 242.232258 
L 218.080358 246.473652 
L 218.404947 230.905926 
L 218.469865 233.274308 
L 218.794455 212.782592 
L 218.859373 213.79742 
L 219.183962 191.352535 
L 219.24888 191.512867 
L 219.313798 191.352535 
L 219.508552 203.06566 
L 219.57347 202.885323 
L 219.703306 196.612023 
L 219.768224 195.77194 
L 220.092813 173.634787 
L 220.157731 174.046223 
L 220.482321 151.078093 
L 220.547239 150.962611 
L 220.612157 145.190653 
L 220.677075 145.301697 
L 220.806911 156.854489 
L 220.871829 156.7342 
L 220.936746 156.373956 
L 221.066582 150.042058 
L 221.196418 156.373956 
L 221.261336 156.7342 
L 221.391172 168.276068 
L 221.45609 167.883236 
L 221.521008 167.231189 
L 221.650844 160.636671 
L 221.78068 167.231189 
L 221.845597 167.883236 
L 221.975433 179.383872 
L 222.040351 178.667615 
L 222.105269 177.672171 
L 222.235105 170.792742 
L 222.559695 190.07866 
L 222.68953 187.576012 
L 222.819366 180.39412 
L 223.143956 200.221232 
L 223.273792 196.780897 
L 223.403628 189.290247 
L 223.728217 209.615696 
L 223.922971 199.871628 
L 223.987889 197.289263 
L 224.312479 217.989512 
L 224.57215 204.155156 
L 224.637068 208.842056 
L 224.89674 224.978098 
L 224.961658 221.514034 
L 225.156412 209.615696 
L 225.481001 230.135536 
L 225.740673 213.389984 
L 226.065263 233.006721 
L 226.324934 215.239738 
L 226.649524 233.274308 
L 226.714442 227.877015 
L 226.909196 215.03211 
L 226.974114 216.920516 
L 227.233785 230.905926 
L 227.493457 212.782592 
L 227.558375 213.79742 
L 227.753129 225.930978 
L 227.818047 226.171245 
L 228.077718 208.649723 
L 228.142636 208.842056 
L 228.272472 220.394848 
L 228.33739 220.173007 
L 228.402308 219.511369 
L 228.66198 202.885323 
L 228.726898 202.346409 
L 228.856733 213.79742 
L 228.921651 212.782592 
L 228.986569 211.382401 
L 229.116405 204.155156 
L 229.376077 218.421261 
L 229.505913 220.173007 
L 229.635748 226.171245 
L 229.700666 225.930978 
L 229.765584 231.685618 
L 229.830502 230.905926 
L 229.89542 229.626949 
L 229.960338 235.180652 
L 230.025256 233.274308 
L 230.090174 230.905926 
L 230.155092 236.01636 
L 230.22001 233.006721 
L 230.284928 229.626949 
L 230.349846 234.084065 
L 230.479682 225.930978 
L 230.544599 229.626949 
L 230.869189 212.782592 
L 230.934107 215.03211 
L 231.258697 194.607576 
L 231.388532 196.612023 
L 231.518368 208.075263 
L 231.583286 207.126128 
L 231.648204 205.814215 
L 231.972794 185.888587 
L 232.037712 187.576012 
L 232.362301 166.323853 
L 232.427219 167.231189 
L 232.751809 144.858014 
L 232.816727 145.190653 
L 232.946563 139.098005 
L 233.076399 150.616718 
L 233.141316 150.042058 
L 233.206234 149.241327 
L 233.33607 142.549795 
L 233.66066 161.505488 
L 233.790496 159.527779 
L 233.920332 152.587848 
L 234.244921 172.002752 
L 234.374757 169.329601 
L 234.504593 162.129536 
L 234.829183 181.99982 
L 234.959018 178.52489 
L 235.088854 171.060616 
L 235.413444 191.352535 
L 235.608198 181.706189 
L 235.673116 179.240267 
L 235.997705 199.871628 
L 236.257377 186.499173 
L 236.322295 191.352535 
L 236.581967 207.315138 
L 236.646884 204.155156 
L 236.841638 192.642188 
L 237.166228 213.389984 
L 237.4259 197.459305 
L 237.750489 217.774536 
L 238.010161 200.748057 
L 238.334751 220.173007 
L 238.594422 202.346409 
L 238.724258 210.200531 
L 238.919012 220.394848 
L 239.178684 202.167462 
L 239.243601 204.155156 
L 239.503273 218.421261 
L 239.762945 200.221232 
L 239.827863 201.455081 
L 240.022617 213.79742 
L 240.087534 214.412415 
L 240.347206 196.612023 
L 240.412124 197.119516 
L 240.606878 208.842056 
L 240.671796 208.649723 
L 240.931468 191.512867 
L 240.996385 191.352535 
L 241.126221 202.885323 
L 241.191139 202.346409 
L 241.256057 201.455081 
L 241.385893 194.607576 
L 241.645565 208.075263 
L 241.775401 208.842056 
L 241.840318 214.618452 
L 241.905236 214.412415 
L 241.970154 213.79742 
L 242.035072 219.511369 
L 242.09999 218.421261 
L 242.164908 216.920516 
L 242.229826 222.421724 
L 242.294744 220.394848 
L 242.359662 217.989512 
L 242.42458 223.109962 
L 242.489498 220.173007 
L 242.554416 216.920516 
L 242.619334 221.514034 
L 242.749169 213.79742 
L 242.814087 217.774536 
L 242.943923 208.842056 
L 243.008841 212.179628 
L 243.333431 194.607576 
L 243.528185 204.155156 
L 243.593102 209.615696 
L 243.65802 207.504553 
L 243.917692 194.442334 
L 244.242282 176.40454 
L 244.3072 178.52489 
L 244.631789 158.184628 
L 244.696707 159.527779 
L 245.021297 137.823065 
L 245.086215 138.565521 
L 245.216051 132.106841 
L 245.345886 143.534738 
L 245.410804 142.549795 
L 245.475722 141.354523 
L 245.605558 134.368993 
L 245.930148 153.877905 
L 246.059984 151.078093 
L 246.189819 143.864475 
L 246.514409 163.765898 
L 246.644245 160.26603 
L 246.774081 152.821536 
L 247.09867 173.088357 
L 247.228506 168.801739 
L 247.358342 161.13245 
L 247.682932 181.706189 
L 247.942603 168.670117 
L 248.267193 189.44746 
L 248.526865 175.28898 
L 248.851454 196.107121 
L 249.111126 180.829808 
L 249.435716 201.455081 
L 249.695387 185.130104 
L 250.019977 205.257806 
L 250.279649 188.040818 
L 250.604238 207.315138 
L 250.669156 202.346409 
L 250.86391 189.44746 
L 250.993746 197.289263 
L 251.1885 207.504553 
L 251.448171 189.290247 
L 251.578007 196.780897 
L 251.772761 205.814215 
L 252.032433 187.576012 
L 252.097351 188.976515 
L 252.357022 202.346409 
L 252.616694 184.376799 
L 252.681612 185.130104 
L 252.876366 197.119516 
L 252.941284 197.289263 
L 253.200955 179.815755 
L 253.265873 179.960074 
L 253.395709 191.512867 
L 253.460627 191.352535 
L 253.525545 190.873014 
L 253.655381 184.376799 
L 253.785217 190.873014 
L 253.850135 191.352535 
L 253.979971 197.289263 
L 254.044888 197.119516 
L 254.109806 202.885323 
L 254.174724 202.346409 
L 254.239642 201.455081 
L 254.30456 207.126128 
L 254.369478 205.814215 
L 254.434396 204.155156 
L 254.499314 209.615696 
L 254.564232 207.504553 
L 254.62915 205.073097 
L 254.694068 210.200531 
L 254.758986 207.315138 
L 254.823904 204.155156 
L 254.888822 208.842056 
L 255.018657 201.455081 
L 255.083575 205.628362 
L 255.213411 197.119516 
L 255.278329 200.748057 
L 255.408165 191.352535 
L 255.473083 194.442334 
L 255.667837 207.315138 
L 255.732755 204.155156 
L 256.317016 173.634787 
L 256.381934 176.544721 
L 256.706523 158.184628 
L 256.771441 160.26603 
L 257.096031 139.95377 
L 257.160949 141.354523 
L 257.420621 125.500915 
L 257.485539 124.424727 
L 257.615374 135.720773 
L 257.680292 134.368993 
L 257.74521 132.823204 
L 257.875046 125.599089 
L 258.199636 145.52403 
L 258.329472 142.005336 
L 258.459307 134.57622 
L 258.783897 154.823559 
L 258.913733 150.616718 
L 259.043569 142.986762 
L 259.368158 163.51283 
L 259.62783 150.731924 
L 259.95242 171.463512 
L 260.212091 157.699456 
L 260.536681 178.52489 
L 260.796353 163.765898 
L 261.120942 184.527051 
L 261.380614 168.801739 
L 261.705204 189.290247 
L 261.964875 172.680131 
L 262.289465 192.642188 
L 262.549137 175.28898 
L 262.873726 194.442334 
L 262.938644 189.44746 
L 263.133398 176.544721 
L 263.263234 184.376799 
L 263.457988 194.607576 
L 263.717659 176.40454 
L 263.847495 183.927258 
L 264.042249 193.129997 
L 264.301921 174.873305 
L 264.366839 176.40454 
L 264.62651 190.07866 
L 264.886182 172.002752 
L 264.9511 172.952131 
L 265.145854 185.130104 
L 265.210772 185.584565 
L 265.470443 167.883236 
L 265.535361 168.276068 
L 265.730115 179.960074 
L 265.795033 179.815755 
L 265.924869 173.634787 
L 266.054705 179.815755 
L 266.119623 179.960074 
L 266.184541 185.736471 
L 266.249458 185.584565 
L 266.314376 185.130104 
L 266.379294 190.873014 
L 266.444212 190.07866 
L 266.50913 188.976515 
L 266.574048 194.607576 
L 266.638966 193.129997 
L 266.703884 191.352535 
L 266.768802 196.780897 
L 266.83372 194.607576 
L 266.898638 192.156682 
L 266.963556 197.289263 
L 267.028474 194.442334 
L 267.093392 191.352535 
L 267.158309 196.107121 
L 267.288145 188.976515 
L 267.353063 193.293118 
L 267.482899 185.130104 
L 267.742571 201.455081 
L 268.196996 172.952131 
L 268.261914 176.966258 
L 268.39175 168.276068 
L 268.456668 171.867721 
L 268.781258 155.775613 
L 268.846175 158.549635 
L 269.170765 139.95377 
L 269.235683 142.005336 
L 269.560273 121.715412 
L 269.625191 123.161534 
L 269.755026 116.14043 
L 269.884862 127.276801 
L 269.94978 125.599089 
L 270.014698 123.743392 
L 270.144534 116.326572 
L 270.469124 136.558353 
L 270.598959 132.413468 
L 270.728795 124.815283 
L 271.053385 145.301697 
L 271.313057 132.720673 
L 271.637646 153.407438 
L 271.897318 139.95377 
L 272.221908 160.760445 
L 272.481579 146.416681 
L 272.806169 167.231189 
L 273.065841 152.005293 
L 273.39043 172.680131 
L 273.650102 156.614015 
L 273.974692 176.966258 
L 274.234363 160.142709 
L 274.558953 179.960074 
L 274.818625 162.505371 
L 275.143214 181.559657 
L 275.208132 176.544721 
L 275.402886 163.639303 
L 275.532722 171.463512 
L 275.727476 181.706189 
L 275.987147 163.51283 
L 276.116983 171.060616 
L 276.311737 180.39412 
L 276.571409 162.129536 
L 276.636327 163.765898 
L 276.895998 177.672171 
L 277.15567 159.527779 
L 277.220588 160.636671 
L 277.415342 172.952131 
L 277.48026 173.634787 
L 277.739931 155.775613 
L 277.804849 156.373956 
L 277.999603 168.276068 
L 278.064521 168.407282 
L 278.194357 162.505371 
L 278.324193 168.407282 
L 278.389111 168.276068 
L 278.454028 174.046223 
L 278.518946 173.634787 
L 278.583864 172.952131 
L 278.648782 178.667615 
L 278.7137 177.672171 
L 278.778618 176.40454 
L 278.843536 181.99982 
L 278.908454 180.39412 
L 278.973372 178.52489 
L 279.03829 183.927258 
L 279.103208 181.706189 
L 279.168126 179.240267 
L 279.233044 184.376799 
L 279.297961 181.559657 
L 279.362879 178.52489 
L 279.427797 183.330672 
L 279.492715 179.960074 
L 279.557633 176.40454 
L 279.817305 192.642188 
L 280.27173 163.765898 
L 280.336648 168.276068 
L 280.466484 160.636671 
L 280.531402 164.783073 
L 280.661238 156.373956 
L 280.726156 160.142709 
L 280.855992 151.078093 
L 280.92091 154.468195 
L 281.245499 137.823065 
L 281.310417 140.491023 
L 281.635007 121.715412 
L 281.699925 123.743392 
L 281.959596 109.025785 
L 282.024514 107.333473 
L 282.15435 118.292866 
L 282.219268 116.326572 
L 282.414022 106.625458 
L 282.738612 127.078556 
L 282.998283 114.658194 
L 283.322873 135.303626 
L 283.582545 122.099865 
L 283.907134 142.877403 
L 284.166806 128.871256 
L 284.491396 149.698349 
L 284.751067 134.887562 
L 285.075657 155.656252 
L 285.335329 140.061072 
L 285.659918 160.636671 
L 285.91959 144.305242 
L 286.24418 164.528038 
L 286.503851 147.540068 
L 286.828441 167.231189 
L 287.088113 149.698349 
L 287.412702 168.670117 
L 287.47762 163.639303 
L 287.672374 150.731924 
L 287.80221 158.549635 
L 287.996964 168.801739 
L 288.256635 150.616718 
L 288.386471 158.184628 
L 288.581225 167.622018 
L 288.840897 149.355449 
L 288.905814 151.078093 
L 289.165486 165.16656 
L 289.425158 146.977312 
L 289.490076 148.218213 
L 289.749748 161.505488 
L 290.009419 143.534738 
L 290.074337 144.305242 
L 290.269091 156.373956 
L 290.334009 156.7342 
L 290.398927 150.962611 
L 290.463845 151.078093 
L 290.528763 156.854489 
L 290.593681 156.7342 
L 290.658598 156.373956 
L 290.723516 162.129536 
L 290.788434 161.505488 
L 290.853352 160.636671 
L 290.91827 166.323853 
L 290.983188 165.16656 
L 291.048106 163.765898 
L 291.113024 169.329601 
L 291.177942 167.622018 
L 291.24286 165.679638 
L 291.307778 171.060616 
L 291.372696 168.801739 
L 291.437614 166.323853 
L 291.502531 171.463512 
L 291.567449 168.670117 
L 291.632367 165.679638 
L 291.892039 181.559657 
L 292.346465 152.821536 
L 292.411382 157.699456 
L 292.4763 154.468195 
L 292.541218 151.078093 
L 292.606136 155.656252 
L 292.735972 148.218213 
L 292.80089 152.471147 
L 292.930726 144.305242 
L 292.995644 148.218213 
L 293.12548 139.418367 
L 293.190398 142.986762 
L 293.514987 127.078556 
L 293.579905 129.976354 
L 293.904495 111.911255 
L 293.969413 114.19748 
L 294.229084 100.027177 
L 294.294002 98.073794 
L 294.423838 108.846924 
L 294.488756 106.625458 
L 294.68351 96.558439 
L 295.008099 117.166615 
L 295.267771 104.168035 
L 295.592361 124.913062 
L 295.852033 111.185652 
L 296.176622 132.00476 
L 296.436294 117.54124 
L 296.760883 138.353033 
L 297.020555 123.161534 
L 297.345145 143.864475 
L 297.604816 127.972508 
L 297.929406 148.444957 
L 298.189078 131.902742 
L 298.513667 152.005293 
L 298.773339 134.887562 
L 299.097929 154.468195 
L 299.3576 136.873586 
L 299.68219 155.775613 
L 299.747108 150.731924 
L 299.941862 137.823065 
L 300.071698 145.635321 
L 300.266451 155.895076 
L 300.526123 137.717285 
L 300.655959 145.301697 
L 300.850713 154.823559 
L 301.110384 136.558353 
L 301.175302 138.353033 
L 301.434974 152.587848 
L 301.694646 134.368993 
L 301.759564 135.720773 
L 302.019235 149.241327 
L 302.278907 131.190392 
L 302.343825 132.106841 
L 302.538579 144.305242 
L 302.603497 144.858014 
L 302.668415 139.098005 
L 302.733333 139.418367 
L 302.798251 145.190653 
L 302.863168 144.858014 
L 302.928086 144.305242 
L 302.993004 150.042058 
L 303.057922 149.241327 
L 303.12284 148.218213 
L 303.187758 153.877905 
L 303.252676 152.587848 
L 303.317594 151.078093 
L 303.382512 156.614015 
L 303.44743 154.823559 
L 303.512348 152.821536 
L 303.577266 158.184628 
L 303.642184 155.895076 
L 303.707101 153.407438 
L 303.966773 168.801739 
L 304.421199 140.491023 
L 304.486117 145.635321 
L 304.551035 142.877403 
L 304.615952 139.95377 
L 304.68087 144.858014 
L 304.745788 141.679585 
L 304.810706 138.353033 
L 304.875624 142.986762 
L 305.00546 135.720773 
L 305.070378 140.061072 
L 305.200214 132.106841 
L 305.265132 136.139013 
L 305.394968 127.574608 
L 305.459885 131.291967 
L 305.589721 122.196112 
L 305.654639 125.599089 
L 305.979229 109.204817 
L 306.044147 112.002157 
L 306.368736 93.727152 
L 306.433654 95.972243 
L 306.56349 88.42212 
L 306.693326 99.005598 
L 306.758244 96.558439 
L 306.952998 86.178306 
L 307.277587 106.890652 
L 307.537259 93.396667 
L 307.861849 114.19748 
L 308.12152 100.027177 
L 308.44611 120.853487 
L 308.705782 106.008114 
L 309.030371 126.781625 
L 309.290043 111.276196 
L 309.614633 131.902742 
L 309.874304 115.768725 
L 310.198894 136.139013 
L 310.458566 119.426322 
L 310.783155 139.418367 
L 311.042827 122.196112 
L 311.367417 141.679585 
L 311.432335 136.873586 
L 311.627088 124.035061 
L 311.951678 142.877403 
L 312.016596 137.823065 
L 312.21135 124.913062 
L 312.341186 132.720673 
L 312.535939 142.986762 
L 312.795611 124.815283 
L 312.925447 132.413468 
L 313.120201 142.005336 
L 313.379872 123.743392 
L 313.44479 125.599089 
L 313.704462 139.95377 
L 313.964134 121.715412 
L 314.029052 123.161534 
L 314.288723 136.873586 
L 314.548395 118.764256 
L 314.613313 119.805766 
L 314.808067 132.106841 
L 314.872985 132.823204 
L 314.937903 127.078556 
L 315.002821 127.574608 
L 315.067738 133.336829 
L 315.132656 132.823204 
L 315.197574 132.106841 
L 315.262492 137.823065 
L 315.32741 136.873586 
L 315.392328 135.720773 
L 315.457246 141.354523 
L 315.522164 139.95377 
L 315.587082 138.353033 
L 315.652 143.864475 
L 315.716918 142.005336 
L 315.781836 139.95377 
L 316.041507 154.823559 
L 316.431015 129.171918 
L 316.495933 127.078556 
L 316.560851 132.413468 
L 316.625769 130.077183 
L 316.690687 127.574608 
L 316.755605 132.720673 
L 316.820522 129.976354 
L 316.88544 127.078556 
L 316.950358 132.00476 
L 317.015276 128.871256 
L 317.080194 125.599089 
L 317.145112 130.279027 
L 317.274948 123.161534 
L 317.339866 127.574608 
L 317.469702 119.805766 
L 317.53462 123.937783 
L 317.664455 115.58316 
L 317.729373 119.426322 
L 317.859209 110.553085 
L 317.924127 114.105478 
L 318.248717 98.327486 
L 318.313635 101.311709 
L 318.638224 83.643047 
L 318.703142 86.098615 
L 318.832978 78.430734 
L 318.962814 88.825364 
L 319.027732 86.178306 
L 319.222486 75.529383 
L 319.547075 96.307001 
L 319.806747 82.386728 
L 320.131337 103.211212 
L 320.391008 88.663972 
L 320.715598 109.473689 
L 320.97527 94.306807 
L 321.299859 115.027611 
L 321.559531 99.260494 
L 321.884121 119.805766 
L 322.143792 103.471691 
L 322.468382 123.743392 
L 322.728054 106.890652 
L 323.052643 126.781625 
L 323.312315 109.473689 
L 323.636905 128.871256 
L 323.701823 124.035061 
L 323.896576 111.185652 
L 324.221166 129.976354 
L 324.286084 124.913062 
L 324.480838 112.002157 
L 324.610674 119.805766 
L 324.805427 130.077183 
L 325.065099 111.911255 
L 325.194935 119.521106 
L 325.389689 129.171918 
L 325.64936 110.914286 
L 325.714278 112.822311 
L 325.97395 127.276801 
L 326.233622 109.025785 
L 326.29854 110.553085 
L 326.558211 124.424727 
L 326.817883 106.272443 
L 326.882801 107.422163 
L 327.142473 120.662525 
L 327.207391 114.935186 
L 327.272308 115.58316 
L 327.337226 121.331808 
L 327.402144 120.662525 
L 327.467062 119.805766 
L 327.53198 125.500915 
L 327.596898 124.424727 
L 327.661816 123.161534 
L 327.726734 128.771156 
L 327.791652 127.276801 
L 327.85657 125.599089 
L 328.116241 139.95377 
L 328.505749 114.565957 
L 328.570667 112.822311 
L 328.635585 118.292866 
L 328.700503 116.326572 
L 328.765421 114.19748 
L 328.830339 119.521106 
L 328.895257 117.166615 
L 328.960175 114.658194 
L 329.025092 119.805766 
L 329.09001 117.073081 
L 329.154928 114.19748 
L 329.219846 119.142275 
L 329.284764 116.047432 
L 329.349682 112.822311 
L 329.4146 117.54124 
L 329.544436 110.553085 
L 329.609354 115.027611 
L 329.73919 107.422163 
L 329.804108 111.638818 
L 329.933943 103.471691 
L 329.998861 107.422163 
L 330.128697 98.751032 
L 330.193615 102.431883 
L 330.323451 93.31413 
L 330.388369 96.726241 
L 330.712958 80.516015 
L 330.777876 83.40692 
L 331.037548 70.727538 
L 331.102466 68.144423 
L 331.232302 78.353886 
L 331.29722 75.529383 
L 331.491974 64.648865 
L 331.816563 85.462171 
L 332.076235 71.173344 
L 332.400825 91.998095 
L 332.660496 77.127996 
L 332.985086 97.904848 
L 333.244758 82.465031 
L 333.569347 103.124464 
L 333.829019 87.136982 
L 334.153609 107.599667 
L 334.41328 91.098235 
L 334.73787 111.276196 
L 334.997542 94.306807 
L 335.322131 114.105478 
L 335.581803 96.726241 
L 335.906393 116.047432 
L 335.97131 111.185652 
L 336.166064 98.327486 
L 336.490654 117.073081 
L 336.555572 112.002157 
L 336.750326 99.090527 
L 336.880161 106.890652 
L 337.074915 117.166615 
L 337.334587 99.005598 
L 337.464423 106.625458 
L 337.659177 116.326572 
L 337.918848 98.073794 
L 337.983766 100.027177 
L 338.243438 114.565957 
L 338.50311 96.307001 
L 338.568027 97.904848 
L 338.827699 111.911255 
L 339.087371 93.727152 
L 339.152289 94.971321 
L 339.411961 108.400521 
L 339.476878 102.691309 
L 339.541796 103.471691 
L 339.606714 109.204817 
L 339.671632 108.400521 
L 339.73655 107.422163 
L 339.801468 113.096515 
L 339.866386 111.911255 
L 339.931304 110.553085 
L 340.190976 124.424727 
L 340.580483 99.345533 
L 340.645401 97.904848 
L 340.710319 103.471691 
L 340.775237 101.827908 
L 340.840155 100.027177 
L 340.905073 105.480559 
L 340.969991 103.471691 
L 341.034909 101.311709 
L 341.099827 106.625458 
L 341.164745 104.255256 
L 341.229662 101.741779 
L 341.29458 106.890652 
L 341.359498 104.168035 
L 341.424416 101.311709 
L 341.489334 106.272443 
L 341.554252 103.211212 
L 341.61917 100.027177 
L 341.684088 104.779422 
L 341.749006 101.397647 
L 341.813924 97.904848 
L 341.878842 102.431883 
L 342.008678 94.971321 
L 342.073595 99.260494 
L 342.203431 91.261551 
L 342.268349 95.304406 
L 342.398185 86.816934 
L 342.463103 90.609069 
L 342.592939 81.683293 
L 342.657857 85.224002 
L 342.982446 69.543021 
L 343.047364 72.590946 
L 343.307036 60.352483 
L 343.371954 57.601442 
L 343.50179 67.631315 
L 343.566708 64.648865 
L 343.761462 53.568 
L 344.086051 74.394593 
L 344.345723 59.785549 
L 344.670312 80.593637 
L 344.929984 65.445239 
L 345.254574 86.178306 
L 345.514246 70.504966 
L 345.838835 91.098235 
L 346.098507 74.923435 
L 346.423096 95.304406 
L 346.682768 78.661442 
L 347.007358 98.751032 
L 347.26703 81.683293 
L 347.591619 101.397647 
L 347.851291 83.958293 
L 348.17588 103.211212 
L 348.240798 98.327486 
L 348.435552 85.462171 
L 348.760142 104.168035 
L 348.82506 99.090527 
L 349.019813 86.178306 
L 349.149649 93.975371 
L 349.344403 104.255256 
L 349.604075 86.098615 
L 349.733911 93.727152 
L 349.928664 103.471691 
L 350.188336 85.224002 
L 350.253254 87.21707 
L 350.512926 101.827908 
L 350.772597 83.564309 
L 350.837515 85.224002 
L 351.097187 99.345533 
L 351.356859 81.137772 
L 351.421777 82.465031 
L 351.681448 96.055879 
L 351.746366 90.364923 
L 351.811284 91.261551 
L 351.876202 96.978211 
L 351.94112 96.055879 
L 352.006038 94.971321 
L 352.26571 108.400521 
L 352.720135 77.970053 
L 352.785053 78.969434 
L 352.979807 91.261551 
L 353.044725 91.998095 
L 353.109643 86.258028 
L 353.174561 86.816934 
L 353.239479 92.57281 
L 353.304397 91.998095 
L 353.369315 91.261551 
L 353.564068 103.471691 
L 353.628986 104.080853 
L 353.693904 98.327486 
L 353.758822 98.751032 
L 353.82374 104.517159 
L 353.888658 104.080853 
L 353.953576 103.471691 
L 354.14833 115.58316 
L 354.213248 116.047432 
L 354.278165 110.282646 
L 354.343083 110.553085 
L 354.408001 116.326572 
L 354.472919 116.047432 
L 354.537837 115.58316 
L 354.732591 127.574608 
L 354.797509 127.872945 
L 354.862427 122.099865 
L 354.927345 122.196112 
L 354.992263 127.972508 
L 355.057181 127.872945 
L 355.122098 127.574608 
L 355.316852 139.418367 
L 355.38177 139.525301 
L 355.511606 133.645787 
L 355.641442 139.525301 
L 355.70636 139.418367 
L 355.901114 151.078093 
L 355.966032 150.962611 
L 356.095867 144.858014 
L 356.225703 150.962611 
L 356.290621 151.078093 
L 356.420457 162.630886 
L 356.485375 162.505371 
L 356.550293 162.129536 
L 356.680129 155.775613 
L 356.809965 162.129536 
L 356.874882 162.505371 
L 357.004718 174.046223 
L 357.069636 173.634787 
L 357.134554 172.952131 
L 357.26439 166.323853 
L 357.394226 172.952131 
L 357.459144 173.634787 
L 357.58898 185.130104 
L 357.653898 184.376799 
L 357.718816 183.330672 
L 357.848651 176.40454 
L 358.173241 195.77194 
L 358.303077 193.129997 
L 358.432913 185.888587 
L 358.757502 205.814215 
L 358.887338 202.167462 
L 359.017174 194.607576 
L 359.341764 215.03211 
L 359.601435 202.346409 
L 359.666353 207.315138 
L 359.926025 223.109962 
L 359.990943 220.173007 
L 360.185697 208.842056 
L 360.510286 229.626949 
L 360.769958 213.79742 
L 361.094548 234.084065 
L 361.354219 216.920516 
L 361.678809 236.01636 
L 361.743727 230.905926 
L 361.938481 217.989512 
L 362.068317 225.691538 
L 362.26307 235.180652 
L 362.522742 216.920516 
L 362.58766 218.421261 
L 362.847332 231.685618 
L 363.107003 213.79742 
L 363.171921 214.412415 
L 363.366675 226.171245 
L 363.431593 225.930978 
L 363.691265 208.842056 
L 363.756183 208.649723 
L 363.886018 220.173007 
L 363.950936 219.511369 
L 364.015854 218.421261 
L 364.275526 202.346409 
L 364.340444 201.455081 
L 364.47028 212.782592 
L 364.535198 211.382401 
L 364.600116 209.615696 
L 364.859787 194.607576 
L 364.924705 193.129997 
L 365.054541 204.155156 
L 365.119459 202.167462 
L 365.249295 194.607576 
L 365.444049 185.888587 
L 365.508967 183.927258 
L 365.638802 194.607576 
L 365.70372 192.156682 
L 365.898474 181.559657 
L 366.223064 199.871628 
L 366.482735 211.382401 
L 366.742407 225.215106 
L 366.872243 226.171245 
L 366.937161 231.947641 
L 367.002079 231.685618 
L 367.066997 230.905926 
L 367.131915 236.580085 
L 367.196833 235.180652 
L 367.261751 233.274308 
L 367.326668 238.597094 
L 367.391586 236.01636 
L 367.456504 233.006721 
L 367.521422 237.724037 
L 367.651258 230.135536 
L 367.716176 234.084065 
L 368.040766 217.989512 
L 368.105684 220.394848 
L 368.430273 200.221232 
L 368.495191 201.455081 
L 368.819781 179.383872 
L 368.884699 179.815755 
L 369.209288 156.854489 
L 369.274206 156.7342 
L 369.598796 133.336829 
L 369.663714 132.823204 
L 369.988303 109.204817 
L 370.118139 107.422163 
L 370.377811 120.662525 
L 370.442729 114.935186 
L 370.507647 115.58316 
L 370.572565 116.047432 
L 370.897154 92.57281 
L 370.962072 91.998095 
L 371.221744 74.092965 
L 371.286662 74.772208 
L 371.481416 86.816934 
L 371.546334 87.21707 
L 371.611252 81.449328 
L 371.676169 81.683293 
L 371.741087 87.457522 
L 371.806005 87.21707 
L 371.870923 86.816934 
L 372.065677 98.751032 
L 372.130595 99.005598 
L 372.195513 93.231627 
L 372.260431 93.31413 
L 372.325349 99.090527 
L 372.390267 99.005598 
L 372.455185 98.751032 
L 372.649938 110.553085 
L 372.714856 110.643319 
L 372.844692 104.779422 
L 372.974528 110.643319 
L 373.039446 110.553085 
L 373.2342 122.196112 
L 373.299118 122.099865 
L 373.428953 116.047432 
L 373.558789 122.099865 
L 373.623707 122.196112 
L 373.753543 133.748904 
L 373.818461 133.645787 
L 373.883379 133.336829 
L 374.013215 127.078556 
L 374.143051 133.336829 
L 374.207969 133.645787 
L 374.337804 145.190653 
L 374.402722 144.858014 
L 374.46764 144.305242 
L 374.597476 137.823065 
L 374.727312 144.305242 
L 374.79223 144.858014 
L 374.922066 156.373956 
L 374.986984 155.775613 
L 375.051902 154.942213 
L 375.181737 148.218213 
L 375.506327 167.231189 
L 375.636163 165.16656 
L 375.765999 158.184628 
L 376.090588 177.672171 
L 376.220424 174.873305 
L 376.35026 167.622018 
L 376.67485 187.576012 
L 376.804686 183.927258 
L 376.934521 176.40454 
L 377.259111 196.780897 
L 377.518783 184.376799 
L 377.583701 189.44746 
L 377.778454 199.871628 
L 377.843372 205.073097 
L 377.90829 202.346409 
L 378.103044 191.352535 
L 378.427634 212.179628 
L 378.687305 197.119516 
L 379.011895 217.774536 
L 379.271567 201.455081 
L 379.596156 221.514034 
L 379.855828 204.155156 
L 380.180418 223.109962 
L 380.245336 217.989512 
L 380.440089 205.073097 
L 380.569925 212.782592 
L 380.764679 222.421724 
L 381.024351 204.155156 
L 381.089269 205.814215 
L 381.34894 219.511369 
L 381.608612 201.455081 
L 381.67353 202.346409 
L 381.868284 214.412415 
L 381.933202 214.618452 
L 382.192873 197.119516 
L 382.257791 197.289263 
L 382.387627 208.842056 
L 382.452545 208.649723 
L 382.517463 208.075263 
L 382.777135 191.352535 
L 382.842053 190.873014 
L 382.971889 202.346409 
L 383.036806 201.455081 
L 383.101724 200.221232 
L 383.361396 184.376799 
L 383.426314 183.330672 
L 383.55615 194.607576 
L 383.621068 193.129997 
L 383.685986 191.352535 
L 383.945657 176.40454 
L 384.010575 174.873305 
L 384.140411 185.888587 
L 384.205329 183.927258 
L 384.400083 174.046223 
L 384.724673 191.352535 
L 384.78959 193.129997 
L 385.049262 207.126128 
L 385.179098 208.649723 
L 385.308934 214.618452 
L 385.373852 214.412415 
L 385.43877 220.173007 
L 385.503688 219.511369 
L 385.568606 218.421261 
L 385.633523 224.037924 
L 385.698441 222.421724 
L 385.763359 220.394848 
L 385.828277 225.691538 
L 385.893195 223.109962 
L 385.958113 220.173007 
L 386.023031 224.978098 
L 386.152867 217.774536 
L 386.217785 221.966478 
L 386.347621 213.389984 
L 386.412539 216.920516 
L 386.737128 199.871628 
L 386.802046 202.167462 
L 387.126636 181.99982 
L 387.191554 183.330672 
L 387.516143 161.505488 
L 387.581061 162.129536 
L 387.905651 139.418367 
L 387.970569 139.525301 
L 388.295158 116.326572 
L 388.424994 115.58316 
L 388.619748 127.574608 
L 388.684666 127.872945 
L 388.749584 122.099865 
L 388.814502 122.196112 
L 388.87942 122.099865 
L 389.204009 99.090527 
L 389.268927 99.005598 
L 389.593517 75.681131 
L 389.658435 75.301957 
L 389.723353 69.543021 
L 389.788271 69.912514 
L 389.983024 81.683293 
L 390.047942 81.761338 
L 390.177778 75.908949 
L 390.307614 81.761338 
L 390.372532 81.683293 
L 390.567286 93.31413 
L 390.632204 93.231627 
L 390.76204 87.21707 
L 390.891875 93.231627 
L 390.956793 93.31413 
L 391.086629 104.866923 
L 391.151547 104.779422 
L 391.216465 104.517159 
L 391.346301 98.327486 
L 391.476137 104.517159 
L 391.541055 104.779422 
L 391.670891 116.326572 
L 391.735808 116.047432 
L 391.800726 115.58316 
L 391.930562 109.204817 
L 392.060398 115.58316 
L 392.125316 116.047432 
L 392.255152 127.574608 
L 392.32007 127.078556 
L 392.384988 126.386527 
L 392.514824 119.805766 
L 392.644659 126.386527 
L 392.709577 127.078556 
L 392.839413 138.565521 
L 392.904331 137.823065 
L 392.969249 136.873586 
L 393.099085 130.077183 
L 393.423675 149.241327 
L 393.55351 146.977312 
L 393.683346 139.95377 
L 394.007936 159.527779 
L 394.137772 156.614015 
L 394.267608 149.355449 
L 394.592197 169.329601 
L 394.722033 165.679638 
L 394.851869 158.184628 
L 395.176459 178.52489 
L 395.371212 168.801739 
L 395.43613 166.323853 
L 395.76072 186.959367 
L 396.020392 173.634787 
L 396.344981 194.442334 
L 396.604653 179.960074 
L 396.929243 200.748057 
L 397.188914 185.130104 
L 397.513504 205.628362 
L 397.773176 188.976515 
L 398.097765 208.842056 
L 398.357437 191.352535 
L 398.487273 199.349606 
L 398.487273 199.349606 
" style="fill:none;stroke:#1f77b4;stroke-linecap:square;stroke-width:1.5;"/>
   </g>
   <g id="patch_3">
    <path d="M 57.6 307.584 
L 57.6 41.472 
" style="fill:none;stroke:#000000;stroke-linecap:square;stroke-linejoin:miter;stroke-width:0.8;"/>
   </g>
   <g id="patch_4">
    <path d="M 414.72 307.584 
L 414.72 41.472 
" style="fill:none;stroke:#000000;stroke-linecap:square;stroke-linejoin:miter;stroke-width:0.8;"/>
   </g>
   <g id="patch_5">
    <path d="M 57.6 307.584 
L 414.72 307.584 
" style="fill:none;stroke:#000000;stroke-linecap:square;stroke-linejoin:miter;stroke-width:0.8;"/>
   </g>
   <g id="patch_6">
    <path d="M 57.6 41.472 
L 414.72 41.472 
" style="fill:none;stroke:#000000;stroke-linecap:square;stroke-linejoin:miter;stroke-width:0.8;"/>
   </g>
   <g id="text_14">
    <!-- Distance to Number of Steps, Golden Ratio Pattern with 5001 Steps -->
    <defs>
     <path d="M 11.71875 12.40625 
L 22.015625 12.40625 
L 22.015625 4 
L 14.015625 -11.625 
L 7.71875 -11.625 
L 11.71875 4 
z
" id="DejaVuSans-2c"/>
     <path d="M 59.515625 10.40625 
L 59.515625 29.984375 
L 43.40625 29.984375 
L 43.40625 38.09375 
L 69.28125 38.09375 
L 69.28125 6.78125 
Q 63.578125 2.734375 56.6875 0.65625 
Q 49.8125 -1.421875 42 -1.421875 
Q 24.90625 -1.421875 15.25 8.5625 
Q 5.609375 18.5625 5.609375 36.375 
Q 5.609375 54.25 15.25 64.234375 
Q 24.90625 74.21875 42 74.21875 
Q 49.125 74.21875 55.546875 72.453125 
Q 61.96875 70.703125 67.390625 67.28125 
L 67.390625 56.78125 
Q 61.921875 61.421875 55.765625 63.765625 
Q 49.609375 66.109375 42.828125 66.109375 
Q 29.4375 66.109375 22.71875 58.640625 
Q 16.015625 51.171875 16.015625 36.375 
Q 16.015625 21.625 22.71875 14.15625 
Q 29.4375 6.6875 42.828125 6.6875 
Q 48.046875 6.6875 52.140625 7.59375 
Q 56.25 8.5 59.515625 10.40625 
z
" id="DejaVuSans-47"/>
     <path d="M 9.421875 75.984375 
L 18.40625 75.984375 
L 18.40625 0 
L 9.421875 0 
z
" id="DejaVuSans-6c"/>
     <path d="M 45.40625 46.390625 
L 45.40625 75.984375 
L 54.390625 75.984375 
L 54.390625 0 
L 45.40625 0 
L 45.40625 8.203125 
Q 42.578125 3.328125 38.25 0.953125 
Q 33.9375 -1.421875 27.875 -1.421875 
Q 17.96875 -1.421875 11.734375 6.484375 
Q 5.515625 14.40625 5.515625 27.296875 
Q 5.515625 40.1875 11.734375 48.09375 
Q 17.96875 56 27.875 56 
Q 33.9375 56 38.25 53.625 
Q 42.578125 51.265625 45.40625 46.390625 
z
M 14.796875 27.296875 
Q 14.796875 17.390625 18.875 11.75 
Q 22.953125 6.109375 30.078125 6.109375 
Q 37.203125 6.109375 41.296875 11.75 
Q 45.40625 17.390625 45.40625 27.296875 
Q 45.40625 37.203125 41.296875 42.84375 
Q 37.203125 48.484375 30.078125 48.484375 
Q 22.953125 48.484375 18.875 42.84375 
Q 14.796875 37.203125 14.796875 27.296875 
z
" id="DejaVuSans-64"/>
     <path d="M 44.390625 34.1875 
Q 47.5625 33.109375 50.5625 29.59375 
Q 53.5625 26.078125 56.59375 19.921875 
L 66.609375 0 
L 56 0 
L 46.6875 18.703125 
Q 43.0625 26.03125 39.671875 28.421875 
Q 36.28125 30.8125 30.421875 30.8125 
L 19.671875 30.8125 
L 19.671875 0 
L 9.8125 0 
L 9.8125 72.90625 
L 32.078125 72.90625 
Q 44.578125 72.90625 50.734375 67.671875 
Q 56.890625 62.453125 56.890625 51.90625 
Q 56.890625 45.015625 53.6875 40.46875 
Q 50.484375 35.9375 44.390625 34.1875 
z
M 19.671875 64.796875 
L 19.671875 38.921875 
L 32.078125 38.921875 
Q 39.203125 38.921875 42.84375 42.21875 
Q 46.484375 45.515625 46.484375 51.90625 
Q 46.484375 58.296875 42.84375 61.546875 
Q 39.203125 64.796875 32.078125 64.796875 
z
" id="DejaVuSans-52"/>
     <path d="M 19.671875 64.796875 
L 19.671875 37.40625 
L 32.078125 37.40625 
Q 38.96875 37.40625 42.71875 40.96875 
Q 46.484375 44.53125 46.484375 51.125 
Q 46.484375 57.671875 42.71875 61.234375 
Q 38.96875 64.796875 32.078125 64.796875 
z
M 9.8125 72.90625 
L 32.078125 72.90625 
Q 44.34375 72.90625 50.609375 67.359375 
Q 56.890625 61.8125 56.890625 51.125 
Q 56.890625 40.328125 50.609375 34.8125 
Q 44.34375 29.296875 32.078125 29.296875 
L 19.671875 29.296875 
L 19.671875 0 
L 9.8125 0 
z
" id="DejaVuSans-50"/>
     <path d="M 4.203125 54.6875 
L 13.1875 54.6875 
L 24.421875 12.015625 
L 35.59375 54.6875 
L 46.1875 54.6875 
L 57.421875 12.015625 
L 68.609375 54.6875 
L 77.59375 54.6875 
L 63.28125 0 
L 52.6875 0 
L 40.921875 44.828125 
L 29.109375 0 
L 18.5 0 
z
" id="DejaVuSans-77"/>
     <path d="M 54.890625 33.015625 
L 54.890625 0 
L 45.90625 0 
L 45.90625 32.71875 
Q 45.90625 40.484375 42.875 44.328125 
Q 39.84375 48.1875 33.796875 48.1875 
Q 26.515625 48.1875 22.3125 43.546875 
Q 18.109375 38.921875 18.109375 30.90625 
L 18.109375 0 
L 9.078125 0 
L 9.078125 75.984375 
L 18.109375 75.984375 
L 18.109375 46.1875 
Q 21.34375 51.125 25.703125 53.5625 
Q 30.078125 56 35.796875 56 
Q 45.21875 56 50.046875 50.171875 
Q 54.890625 44.34375 54.890625 33.015625 
z
" id="DejaVuSans-68"/>
    </defs>
    <g transform="translate(32.685 35.472)scale(0.12 -0.12)">
     <use xlink:href="#DejaVuSans-44"/>
     <use x="77.001953" xlink:href="#DejaVuSans-69"/>
     <use x="104.785156" xlink:href="#DejaVuSans-73"/>
     <use x="156.884766" xlink:href="#DejaVuSans-74"/>
     <use x="196.09375" xlink:href="#DejaVuSans-61"/>
     <use x="257.373047" xlink:href="#DejaVuSans-6e"/>
     <use x="320.751953" xlink:href="#DejaVuSans-63"/>
     <use x="375.732422" xlink:href="#DejaVuSans-65"/>
     <use x="437.255859" xlink:href="#DejaVuSans-20"/>
     <use x="469.042969" xlink:href="#DejaVuSans-74"/>
     <use x="508.251953" xlink:href="#DejaVuSans-6f"/>
     <use x="569.433594" xlink:href="#DejaVuSans-20"/>
     <use x="601.220703" xlink:href="#DejaVuSans-4e"/>
     <use x="676.025391" xlink:href="#DejaVuSans-75"/>
     <use x="739.404297" xlink:href="#DejaVuSans-6d"/>
     <use x="836.816406" xlink:href="#DejaVuSans-62"/>
     <use x="900.292969" xlink:href="#DejaVuSans-65"/>
     <use x="961.816406" xlink:href="#DejaVuSans-72"/>
     <use x="1002.929688" xlink:href="#DejaVuSans-20"/>
     <use x="1034.716797" xlink:href="#DejaVuSans-6f"/>
     <use x="1095.898438" xlink:href="#DejaVuSans-66"/>
     <use x="1131.103516" xlink:href="#DejaVuSans-20"/>
     <use x="1162.890625" xlink:href="#DejaVuSans-53"/>
     <use x="1226.367188" xlink:href="#DejaVuSans-74"/>
     <use x="1265.576172" xlink:href="#DejaVuSans-65"/>
     <use x="1327.099609" xlink:href="#DejaVuSans-70"/>
     <use x="1390.576172" xlink:href="#DejaVuSans-73"/>
     <use x="1442.675781" xlink:href="#DejaVuSans-2c"/>
     <use x="1474.462891" xlink:href="#DejaVuSans-20"/>
     <use x="1506.25" xlink:href="#DejaVuSans-47"/>
     <use x="1583.740234" xlink:href="#DejaVuSans-6f"/>
     <use x="1644.921875" xlink:href="#DejaVuSans-6c"/>
     <use x="1672.705078" xlink:href="#DejaVuSans-64"/>
     <use x="1736.181641" xlink:href="#DejaVuSans-65"/>
     <use x="1797.705078" xlink:href="#DejaVuSans-6e"/>
     <use x="1861.083984" xlink:href="#DejaVuSans-20"/>
     <use x="1892.871094" xlink:href="#DejaVuSans-52"/>
     <use x="1962.322266" xlink:href="#DejaVuSans-61"/>
     <use x="2023.601562" xlink:href="#DejaVuSans-74"/>
     <use x="2062.810547" xlink:href="#DejaVuSans-69"/>
     <use x="2090.59375" xlink:href="#DejaVuSans-6f"/>
     <use x="2151.775391" xlink:href="#DejaVuSans-20"/>
     <use x="2183.5625" xlink:href="#DejaVuSans-50"/>
     <use x="2243.802734" xlink:href="#DejaVuSans-61"/>
     <use x="2305.082031" xlink:href="#DejaVuSans-74"/>
     <use x="2344.291016" xlink:href="#DejaVuSans-74"/>
     <use x="2383.5" xlink:href="#DejaVuSans-65"/>
     <use x="2445.023438" xlink:href="#DejaVuSans-72"/>
     <use x="2486.121094" xlink:href="#DejaVuSans-6e"/>
     <use x="2549.5" xlink:href="#DejaVuSans-20"/>
     <use x="2581.287109" xlink:href="#DejaVuSans-77"/>
     <use x="2663.074219" xlink:href="#DejaVuSans-69"/>
     <use x="2690.857422" xlink:href="#DejaVuSans-74"/>
     <use x="2730.066406" xlink:href="#DejaVuSans-68"/>
     <use x="2793.445312" xlink:href="#DejaVuSans-20"/>
     <use x="2825.232422" xlink:href="#DejaVuSans-35"/>
     <use x="2888.855469" xlink:href="#DejaVuSans-30"/>
     <use x="2952.478516" xlink:href="#DejaVuSans-30"/>
     <use x="3016.101562" xlink:href="#DejaVuSans-31"/>
     <use x="3079.724609" xlink:href="#DejaVuSans-20"/>
     <use x="3111.511719" xlink:href="#DejaVuSans-53"/>
     <use x="3174.988281" xlink:href="#DejaVuSans-74"/>
     <use x="3214.197266" xlink:href="#DejaVuSans-65"/>
     <use x="3275.720703" xlink:href="#DejaVuSans-70"/>
     <use x="3339.197266" xlink:href="#DejaVuSans-73"/>
    </g>
   </g>
  </g>
 </g>
 <defs>
  <clipPath id="p495fa9e7f2">
   <rect height="266.112" width="357.12" x="57.6" y="41.472"/>
  </clipPath>
 </defs>
</svg>
