<?xml version="1.0" encoding="utf-8" standalone="no"?>
<!DOCTYPE svg PUBLIC "-//W3C//DTD SVG 1.1//EN"
  "http://www.w3.org/Graphics/SVG/1.1/DTD/svg11.dtd">
<!-- Created with matplotlib (http://matplotlib.org/) -->
<svg height="345.6pt" version="1.1" viewBox="0 0 460.8 345.6" width="460.8pt" xmlns="http://www.w3.org/2000/svg" xmlns:xlink="http://www.w3.org/1999/xlink">
 <defs>
  <style type="text/css">
*{stroke-linecap:butt;stroke-linejoin:round;}
  </style>
 </defs>
 <g id="figure_1">
  <g id="patch_1">
   <path d="M 0 345.6 
L 460.8 345.6 
L 460.8 0 
L 0 0 
z
" style="fill:#ffffff;"/>
  </g>
  <g id="axes_1">
   <g id="patch_2">
    <path d="M 57.6 307.584 
L 414.72 307.584 
L 414.72 41.472 
L 57.6 41.472 
z
" style="fill:#ffffff;"/>
   </g>
   <g id="matplotlib.axis_1">
    <g id="xtick_1">
     <g id="line2d_1">
      <defs>
       <path d="M 0 0 
L 0 3.5 
" id="m2ec2bdc01c" style="stroke:#000000;stroke-width:0.8;"/>
      </defs>
      <g>
       <use style="stroke:#000000;stroke-width:0.8;" x="73.832727" xlink:href="#m2ec2bdc01c" y="307.584"/>
      </g>
     </g>
     <g id="text_1">
      <!-- 0 -->
      <defs>
       <path d="M 31.78125 66.40625 
Q 24.171875 66.40625 20.328125 58.90625 
Q 16.5 51.421875 16.5 36.375 
Q 16.5 21.390625 20.328125 13.890625 
Q 24.171875 6.390625 31.78125 6.390625 
Q 39.453125 6.390625 43.28125 13.890625 
Q 47.125 21.390625 47.125 36.375 
Q 47.125 51.421875 43.28125 58.90625 
Q 39.453125 66.40625 31.78125 66.40625 
z
M 31.78125 74.21875 
Q 44.046875 74.21875 50.515625 64.515625 
Q 56.984375 54.828125 56.984375 36.375 
Q 56.984375 17.96875 50.515625 8.265625 
Q 44.046875 -1.421875 31.78125 -1.421875 
Q 19.53125 -1.421875 13.0625 8.265625 
Q 6.59375 17.96875 6.59375 36.375 
Q 6.59375 54.828125 13.0625 64.515625 
Q 19.53125 74.21875 31.78125 74.21875 
z
" id="DejaVuSans-30"/>
      </defs>
      <g transform="translate(70.651477 322.182437)scale(0.1 -0.1)">
       <use xlink:href="#DejaVuSans-30"/>
      </g>
     </g>
    </g>
    <g id="xtick_2">
     <g id="line2d_2">
      <g>
       <use style="stroke:#000000;stroke-width:0.8;" x="114.404403" xlink:href="#m2ec2bdc01c" y="307.584"/>
      </g>
     </g>
     <g id="text_2">
      <!-- 500 -->
      <defs>
       <path d="M 10.796875 72.90625 
L 49.515625 72.90625 
L 49.515625 64.59375 
L 19.828125 64.59375 
L 19.828125 46.734375 
Q 21.96875 47.46875 24.109375 47.828125 
Q 26.265625 48.1875 28.421875 48.1875 
Q 40.625 48.1875 47.75 41.5 
Q 54.890625 34.8125 54.890625 23.390625 
Q 54.890625 11.625 47.5625 5.09375 
Q 40.234375 -1.421875 26.90625 -1.421875 
Q 22.3125 -1.421875 17.546875 -0.640625 
Q 12.796875 0.140625 7.71875 1.703125 
L 7.71875 11.625 
Q 12.109375 9.234375 16.796875 8.0625 
Q 21.484375 6.890625 26.703125 6.890625 
Q 35.15625 6.890625 40.078125 11.328125 
Q 45.015625 15.765625 45.015625 23.390625 
Q 45.015625 31 40.078125 35.4375 
Q 35.15625 39.890625 26.703125 39.890625 
Q 22.75 39.890625 18.8125 39.015625 
Q 14.890625 38.140625 10.796875 36.28125 
z
" id="DejaVuSans-35"/>
      </defs>
      <g transform="translate(104.860653 322.182437)scale(0.1 -0.1)">
       <use xlink:href="#DejaVuSans-35"/>
       <use x="63.623047" xlink:href="#DejaVuSans-30"/>
       <use x="127.246094" xlink:href="#DejaVuSans-30"/>
      </g>
     </g>
    </g>
    <g id="xtick_3">
     <g id="line2d_3">
      <g>
       <use style="stroke:#000000;stroke-width:0.8;" x="154.976078" xlink:href="#m2ec2bdc01c" y="307.584"/>
      </g>
     </g>
     <g id="text_3">
      <!-- 1000 -->
      <defs>
       <path d="M 12.40625 8.296875 
L 28.515625 8.296875 
L 28.515625 63.921875 
L 10.984375 60.40625 
L 10.984375 69.390625 
L 28.421875 72.90625 
L 38.28125 72.90625 
L 38.28125 8.296875 
L 54.390625 8.296875 
L 54.390625 0 
L 12.40625 0 
z
" id="DejaVuSans-31"/>
      </defs>
      <g transform="translate(142.251078 322.182437)scale(0.1 -0.1)">
       <use xlink:href="#DejaVuSans-31"/>
       <use x="63.623047" xlink:href="#DejaVuSans-30"/>
       <use x="127.246094" xlink:href="#DejaVuSans-30"/>
       <use x="190.869141" xlink:href="#DejaVuSans-30"/>
      </g>
     </g>
    </g>
    <g id="xtick_4">
     <g id="line2d_4">
      <g>
       <use style="stroke:#000000;stroke-width:0.8;" x="195.547753" xlink:href="#m2ec2bdc01c" y="307.584"/>
      </g>
     </g>
     <g id="text_4">
      <!-- 1500 -->
      <g transform="translate(182.822753 322.182437)scale(0.1 -0.1)">
       <use xlink:href="#DejaVuSans-31"/>
       <use x="63.623047" xlink:href="#DejaVuSans-35"/>
       <use x="127.246094" xlink:href="#DejaVuSans-30"/>
       <use x="190.869141" xlink:href="#DejaVuSans-30"/>
      </g>
     </g>
    </g>
    <g id="xtick_5">
     <g id="line2d_5">
      <g>
       <use style="stroke:#000000;stroke-width:0.8;" x="236.119428" xlink:href="#m2ec2bdc01c" y="307.584"/>
      </g>
     </g>
     <g id="text_5">
      <!-- 2000 -->
      <defs>
       <path d="M 19.1875 8.296875 
L 53.609375 8.296875 
L 53.609375 0 
L 7.328125 0 
L 7.328125 8.296875 
Q 12.9375 14.109375 22.625 23.890625 
Q 32.328125 33.6875 34.8125 36.53125 
Q 39.546875 41.84375 41.421875 45.53125 
Q 43.3125 49.21875 43.3125 52.78125 
Q 43.3125 58.59375 39.234375 62.25 
Q 35.15625 65.921875 28.609375 65.921875 
Q 23.96875 65.921875 18.8125 64.3125 
Q 13.671875 62.703125 7.8125 59.421875 
L 7.8125 69.390625 
Q 13.765625 71.78125 18.9375 73 
Q 24.125 74.21875 28.421875 74.21875 
Q 39.75 74.21875 46.484375 68.546875 
Q 53.21875 62.890625 53.21875 53.421875 
Q 53.21875 48.921875 51.53125 44.890625 
Q 49.859375 40.875 45.40625 35.40625 
Q 44.1875 33.984375 37.640625 27.21875 
Q 31.109375 20.453125 19.1875 8.296875 
z
" id="DejaVuSans-32"/>
      </defs>
      <g transform="translate(223.394428 322.182437)scale(0.1 -0.1)">
       <use xlink:href="#DejaVuSans-32"/>
       <use x="63.623047" xlink:href="#DejaVuSans-30"/>
       <use x="127.246094" xlink:href="#DejaVuSans-30"/>
       <use x="190.869141" xlink:href="#DejaVuSans-30"/>
      </g>
     </g>
    </g>
    <g id="xtick_6">
     <g id="line2d_6">
      <g>
       <use style="stroke:#000000;stroke-width:0.8;" x="276.691104" xlink:href="#m2ec2bdc01c" y="307.584"/>
      </g>
     </g>
     <g id="text_6">
      <!-- 2500 -->
      <g transform="translate(263.966104 322.182437)scale(0.1 -0.1)">
       <use xlink:href="#DejaVuSans-32"/>
       <use x="63.623047" xlink:href="#DejaVuSans-35"/>
       <use x="127.246094" xlink:href="#DejaVuSans-30"/>
       <use x="190.869141" xlink:href="#DejaVuSans-30"/>
      </g>
     </g>
    </g>
    <g id="xtick_7">
     <g id="line2d_7">
      <g>
       <use style="stroke:#000000;stroke-width:0.8;" x="317.262779" xlink:href="#m2ec2bdc01c" y="307.584"/>
      </g>
     </g>
     <g id="text_7">
      <!-- 3000 -->
      <defs>
       <path d="M 40.578125 39.3125 
Q 47.65625 37.796875 51.625 33 
Q 55.609375 28.21875 55.609375 21.1875 
Q 55.609375 10.40625 48.1875 4.484375 
Q 40.765625 -1.421875 27.09375 -1.421875 
Q 22.515625 -1.421875 17.65625 -0.515625 
Q 12.796875 0.390625 7.625 2.203125 
L 7.625 11.71875 
Q 11.71875 9.328125 16.59375 8.109375 
Q 21.484375 6.890625 26.8125 6.890625 
Q 36.078125 6.890625 40.9375 10.546875 
Q 45.796875 14.203125 45.796875 21.1875 
Q 45.796875 27.640625 41.28125 31.265625 
Q 36.765625 34.90625 28.71875 34.90625 
L 20.21875 34.90625 
L 20.21875 43.015625 
L 29.109375 43.015625 
Q 36.375 43.015625 40.234375 45.921875 
Q 44.09375 48.828125 44.09375 54.296875 
Q 44.09375 59.90625 40.109375 62.90625 
Q 36.140625 65.921875 28.71875 65.921875 
Q 24.65625 65.921875 20.015625 65.03125 
Q 15.375 64.15625 9.8125 62.3125 
L 9.8125 71.09375 
Q 15.4375 72.65625 20.34375 73.4375 
Q 25.25 74.21875 29.59375 74.21875 
Q 40.828125 74.21875 47.359375 69.109375 
Q 53.90625 64.015625 53.90625 55.328125 
Q 53.90625 49.265625 50.4375 45.09375 
Q 46.96875 40.921875 40.578125 39.3125 
z
" id="DejaVuSans-33"/>
      </defs>
      <g transform="translate(304.537779 322.182437)scale(0.1 -0.1)">
       <use xlink:href="#DejaVuSans-33"/>
       <use x="63.623047" xlink:href="#DejaVuSans-30"/>
       <use x="127.246094" xlink:href="#DejaVuSans-30"/>
       <use x="190.869141" xlink:href="#DejaVuSans-30"/>
      </g>
     </g>
    </g>
    <g id="xtick_8">
     <g id="line2d_8">
      <g>
       <use style="stroke:#000000;stroke-width:0.8;" x="357.834454" xlink:href="#m2ec2bdc01c" y="307.584"/>
      </g>
     </g>
     <g id="text_8">
      <!-- 3500 -->
      <g transform="translate(345.109454 322.182437)scale(0.1 -0.1)">
       <use xlink:href="#DejaVuSans-33"/>
       <use x="63.623047" xlink:href="#DejaVuSans-35"/>
       <use x="127.246094" xlink:href="#DejaVuSans-30"/>
       <use x="190.869141" xlink:href="#DejaVuSans-30"/>
      </g>
     </g>
    </g>
    <g id="xtick_9">
     <g id="line2d_9">
      <g>
       <use style="stroke:#000000;stroke-width:0.8;" x="398.406129" xlink:href="#m2ec2bdc01c" y="307.584"/>
      </g>
     </g>
     <g id="text_9">
      <!-- 4000 -->
      <defs>
       <path d="M 37.796875 64.3125 
L 12.890625 25.390625 
L 37.796875 25.390625 
z
M 35.203125 72.90625 
L 47.609375 72.90625 
L 47.609375 25.390625 
L 58.015625 25.390625 
L 58.015625 17.1875 
L 47.609375 17.1875 
L 47.609375 0 
L 37.796875 0 
L 37.796875 17.1875 
L 4.890625 17.1875 
L 4.890625 26.703125 
z
" id="DejaVuSans-34"/>
      </defs>
      <g transform="translate(385.681129 322.182437)scale(0.1 -0.1)">
       <use xlink:href="#DejaVuSans-34"/>
       <use x="63.623047" xlink:href="#DejaVuSans-30"/>
       <use x="127.246094" xlink:href="#DejaVuSans-30"/>
       <use x="190.869141" xlink:href="#DejaVuSans-30"/>
      </g>
     </g>
    </g>
    <g id="text_10">
     <!-- Number of Steps -->
     <defs>
      <path d="M 9.8125 72.90625 
L 23.09375 72.90625 
L 55.421875 11.921875 
L 55.421875 72.90625 
L 64.984375 72.90625 
L 64.984375 0 
L 51.703125 0 
L 19.390625 60.984375 
L 19.390625 0 
L 9.8125 0 
z
" id="DejaVuSans-4e"/>
      <path d="M 8.5 21.578125 
L 8.5 54.6875 
L 17.484375 54.6875 
L 17.484375 21.921875 
Q 17.484375 14.15625 20.5 10.265625 
Q 23.53125 6.390625 29.59375 6.390625 
Q 36.859375 6.390625 41.078125 11.03125 
Q 45.3125 15.671875 45.3125 23.6875 
L 45.3125 54.6875 
L 54.296875 54.6875 
L 54.296875 0 
L 45.3125 0 
L 45.3125 8.40625 
Q 42.046875 3.421875 37.71875 1 
Q 33.40625 -1.421875 27.6875 -1.421875 
Q 18.265625 -1.421875 13.375 4.4375 
Q 8.5 10.296875 8.5 21.578125 
z
M 31.109375 56 
z
" id="DejaVuSans-75"/>
      <path d="M 52 44.1875 
Q 55.375 50.25 60.0625 53.125 
Q 64.75 56 71.09375 56 
Q 79.640625 56 84.28125 50.015625 
Q 88.921875 44.046875 88.921875 33.015625 
L 88.921875 0 
L 79.890625 0 
L 79.890625 32.71875 
Q 79.890625 40.578125 77.09375 44.375 
Q 74.3125 48.1875 68.609375 48.1875 
Q 61.625 48.1875 57.5625 43.546875 
Q 53.515625 38.921875 53.515625 30.90625 
L 53.515625 0 
L 44.484375 0 
L 44.484375 32.71875 
Q 44.484375 40.625 41.703125 44.40625 
Q 38.921875 48.1875 33.109375 48.1875 
Q 26.21875 48.1875 22.15625 43.53125 
Q 18.109375 38.875 18.109375 30.90625 
L 18.109375 0 
L 9.078125 0 
L 9.078125 54.6875 
L 18.109375 54.6875 
L 18.109375 46.1875 
Q 21.1875 51.21875 25.484375 53.609375 
Q 29.78125 56 35.6875 56 
Q 41.65625 56 45.828125 52.96875 
Q 50 49.953125 52 44.1875 
z
" id="DejaVuSans-6d"/>
      <path d="M 48.6875 27.296875 
Q 48.6875 37.203125 44.609375 42.84375 
Q 40.53125 48.484375 33.40625 48.484375 
Q 26.265625 48.484375 22.1875 42.84375 
Q 18.109375 37.203125 18.109375 27.296875 
Q 18.109375 17.390625 22.1875 11.75 
Q 26.265625 6.109375 33.40625 6.109375 
Q 40.53125 6.109375 44.609375 11.75 
Q 48.6875 17.390625 48.6875 27.296875 
z
M 18.109375 46.390625 
Q 20.953125 51.265625 25.265625 53.625 
Q 29.59375 56 35.59375 56 
Q 45.5625 56 51.78125 48.09375 
Q 58.015625 40.1875 58.015625 27.296875 
Q 58.015625 14.40625 51.78125 6.484375 
Q 45.5625 -1.421875 35.59375 -1.421875 
Q 29.59375 -1.421875 25.265625 0.953125 
Q 20.953125 3.328125 18.109375 8.203125 
L 18.109375 0 
L 9.078125 0 
L 9.078125 75.984375 
L 18.109375 75.984375 
z
" id="DejaVuSans-62"/>
      <path d="M 56.203125 29.59375 
L 56.203125 25.203125 
L 14.890625 25.203125 
Q 15.484375 15.921875 20.484375 11.0625 
Q 25.484375 6.203125 34.421875 6.203125 
Q 39.59375 6.203125 44.453125 7.46875 
Q 49.3125 8.734375 54.109375 11.28125 
L 54.109375 2.78125 
Q 49.265625 0.734375 44.1875 -0.34375 
Q 39.109375 -1.421875 33.890625 -1.421875 
Q 20.796875 -1.421875 13.15625 6.1875 
Q 5.515625 13.8125 5.515625 26.8125 
Q 5.515625 40.234375 12.765625 48.109375 
Q 20.015625 56 32.328125 56 
Q 43.359375 56 49.78125 48.890625 
Q 56.203125 41.796875 56.203125 29.59375 
z
M 47.21875 32.234375 
Q 47.125 39.59375 43.09375 43.984375 
Q 39.0625 48.390625 32.421875 48.390625 
Q 24.90625 48.390625 20.390625 44.140625 
Q 15.875 39.890625 15.1875 32.171875 
z
" id="DejaVuSans-65"/>
      <path d="M 41.109375 46.296875 
Q 39.59375 47.171875 37.8125 47.578125 
Q 36.03125 48 33.890625 48 
Q 26.265625 48 22.1875 43.046875 
Q 18.109375 38.09375 18.109375 28.8125 
L 18.109375 0 
L 9.078125 0 
L 9.078125 54.6875 
L 18.109375 54.6875 
L 18.109375 46.1875 
Q 20.953125 51.171875 25.484375 53.578125 
Q 30.03125 56 36.53125 56 
Q 37.453125 56 38.578125 55.875 
Q 39.703125 55.765625 41.0625 55.515625 
z
" id="DejaVuSans-72"/>
      <path id="DejaVuSans-20"/>
      <path d="M 30.609375 48.390625 
Q 23.390625 48.390625 19.1875 42.75 
Q 14.984375 37.109375 14.984375 27.296875 
Q 14.984375 17.484375 19.15625 11.84375 
Q 23.34375 6.203125 30.609375 6.203125 
Q 37.796875 6.203125 41.984375 11.859375 
Q 46.1875 17.53125 46.1875 27.296875 
Q 46.1875 37.015625 41.984375 42.703125 
Q 37.796875 48.390625 30.609375 48.390625 
z
M 30.609375 56 
Q 42.328125 56 49.015625 48.375 
Q 55.71875 40.765625 55.71875 27.296875 
Q 55.71875 13.875 49.015625 6.21875 
Q 42.328125 -1.421875 30.609375 -1.421875 
Q 18.84375 -1.421875 12.171875 6.21875 
Q 5.515625 13.875 5.515625 27.296875 
Q 5.515625 40.765625 12.171875 48.375 
Q 18.84375 56 30.609375 56 
z
" id="DejaVuSans-6f"/>
      <path d="M 37.109375 75.984375 
L 37.109375 68.5 
L 28.515625 68.5 
Q 23.6875 68.5 21.796875 66.546875 
Q 19.921875 64.59375 19.921875 59.515625 
L 19.921875 54.6875 
L 34.71875 54.6875 
L 34.71875 47.703125 
L 19.921875 47.703125 
L 19.921875 0 
L 10.890625 0 
L 10.890625 47.703125 
L 2.296875 47.703125 
L 2.296875 54.6875 
L 10.890625 54.6875 
L 10.890625 58.5 
Q 10.890625 67.625 15.140625 71.796875 
Q 19.390625 75.984375 28.609375 75.984375 
z
" id="DejaVuSans-66"/>
      <path d="M 53.515625 70.515625 
L 53.515625 60.890625 
Q 47.90625 63.578125 42.921875 64.890625 
Q 37.9375 66.21875 33.296875 66.21875 
Q 25.25 66.21875 20.875 63.09375 
Q 16.5 59.96875 16.5 54.203125 
Q 16.5 49.359375 19.40625 46.890625 
Q 22.3125 44.4375 30.421875 42.921875 
L 36.375 41.703125 
Q 47.40625 39.59375 52.65625 34.296875 
Q 57.90625 29 57.90625 20.125 
Q 57.90625 9.515625 50.796875 4.046875 
Q 43.703125 -1.421875 29.984375 -1.421875 
Q 24.8125 -1.421875 18.96875 -0.25 
Q 13.140625 0.921875 6.890625 3.21875 
L 6.890625 13.375 
Q 12.890625 10.015625 18.65625 8.296875 
Q 24.421875 6.59375 29.984375 6.59375 
Q 38.421875 6.59375 43.015625 9.90625 
Q 47.609375 13.234375 47.609375 19.390625 
Q 47.609375 24.75 44.3125 27.78125 
Q 41.015625 30.8125 33.5 32.328125 
L 27.484375 33.5 
Q 16.453125 35.6875 11.515625 40.375 
Q 6.59375 45.0625 6.59375 53.421875 
Q 6.59375 63.09375 13.40625 68.65625 
Q 20.21875 74.21875 32.171875 74.21875 
Q 37.3125 74.21875 42.625 73.28125 
Q 47.953125 72.359375 53.515625 70.515625 
z
" id="DejaVuSans-53"/>
      <path d="M 18.3125 70.21875 
L 18.3125 54.6875 
L 36.8125 54.6875 
L 36.8125 47.703125 
L 18.3125 47.703125 
L 18.3125 18.015625 
Q 18.3125 11.328125 20.140625 9.421875 
Q 21.96875 7.515625 27.59375 7.515625 
L 36.8125 7.515625 
L 36.8125 0 
L 27.59375 0 
Q 17.1875 0 13.234375 3.875 
Q 9.28125 7.765625 9.28125 18.015625 
L 9.28125 47.703125 
L 2.6875 47.703125 
L 2.6875 54.6875 
L 9.28125 54.6875 
L 9.28125 70.21875 
z
" id="DejaVuSans-74"/>
      <path d="M 18.109375 8.203125 
L 18.109375 -20.796875 
L 9.078125 -20.796875 
L 9.078125 54.6875 
L 18.109375 54.6875 
L 18.109375 46.390625 
Q 20.953125 51.265625 25.265625 53.625 
Q 29.59375 56 35.59375 56 
Q 45.5625 56 51.78125 48.09375 
Q 58.015625 40.1875 58.015625 27.296875 
Q 58.015625 14.40625 51.78125 6.484375 
Q 45.5625 -1.421875 35.59375 -1.421875 
Q 29.59375 -1.421875 25.265625 0.953125 
Q 20.953125 3.328125 18.109375 8.203125 
z
M 48.6875 27.296875 
Q 48.6875 37.203125 44.609375 42.84375 
Q 40.53125 48.484375 33.40625 48.484375 
Q 26.265625 48.484375 22.1875 42.84375 
Q 18.109375 37.203125 18.109375 27.296875 
Q 18.109375 17.390625 22.1875 11.75 
Q 26.265625 6.109375 33.40625 6.109375 
Q 40.53125 6.109375 44.609375 11.75 
Q 48.6875 17.390625 48.6875 27.296875 
z
" id="DejaVuSans-70"/>
      <path d="M 44.28125 53.078125 
L 44.28125 44.578125 
Q 40.484375 46.53125 36.375 47.5 
Q 32.28125 48.484375 27.875 48.484375 
Q 21.1875 48.484375 17.84375 46.4375 
Q 14.5 44.390625 14.5 40.28125 
Q 14.5 37.15625 16.890625 35.375 
Q 19.28125 33.59375 26.515625 31.984375 
L 29.59375 31.296875 
Q 39.15625 29.25 43.1875 25.515625 
Q 47.21875 21.78125 47.21875 15.09375 
Q 47.21875 7.46875 41.1875 3.015625 
Q 35.15625 -1.421875 24.609375 -1.421875 
Q 20.21875 -1.421875 15.453125 -0.5625 
Q 10.6875 0.296875 5.421875 2 
L 5.421875 11.28125 
Q 10.40625 8.6875 15.234375 7.390625 
Q 20.0625 6.109375 24.8125 6.109375 
Q 31.15625 6.109375 34.5625 8.28125 
Q 37.984375 10.453125 37.984375 14.40625 
Q 37.984375 18.0625 35.515625 20.015625 
Q 33.0625 21.96875 24.703125 23.78125 
L 21.578125 24.515625 
Q 13.234375 26.265625 9.515625 29.90625 
Q 5.8125 33.546875 5.8125 39.890625 
Q 5.8125 47.609375 11.28125 51.796875 
Q 16.75 56 26.8125 56 
Q 31.78125 56 36.171875 55.265625 
Q 40.578125 54.546875 44.28125 53.078125 
z
" id="DejaVuSans-73"/>
     </defs>
     <g transform="translate(194.086562 335.860562)scale(0.1 -0.1)">
      <use xlink:href="#DejaVuSans-4e"/>
      <use x="74.804688" xlink:href="#DejaVuSans-75"/>
      <use x="138.183594" xlink:href="#DejaVuSans-6d"/>
      <use x="235.595703" xlink:href="#DejaVuSans-62"/>
      <use x="299.072266" xlink:href="#DejaVuSans-65"/>
      <use x="360.595703" xlink:href="#DejaVuSans-72"/>
      <use x="401.708984" xlink:href="#DejaVuSans-20"/>
      <use x="433.496094" xlink:href="#DejaVuSans-6f"/>
      <use x="494.677734" xlink:href="#DejaVuSans-66"/>
      <use x="529.882812" xlink:href="#DejaVuSans-20"/>
      <use x="561.669922" xlink:href="#DejaVuSans-53"/>
      <use x="625.146484" xlink:href="#DejaVuSans-74"/>
      <use x="664.355469" xlink:href="#DejaVuSans-65"/>
      <use x="725.878906" xlink:href="#DejaVuSans-70"/>
      <use x="789.355469" xlink:href="#DejaVuSans-73"/>
     </g>
    </g>
   </g>
   <g id="matplotlib.axis_2">
    <g id="ytick_1">
     <g id="line2d_10">
      <defs>
       <path d="M 0 0 
L -3.5 0 
" id="m96a3d07dc5" style="stroke:#000000;stroke-width:0.8;"/>
      </defs>
      <g>
       <use style="stroke:#000000;stroke-width:0.8;" x="57.6" xlink:href="#m96a3d07dc5" y="295.488"/>
      </g>
     </g>
     <g id="text_11">
      <!-- 0 -->
      <g transform="translate(44.2375 299.287219)scale(0.1 -0.1)">
       <use xlink:href="#DejaVuSans-30"/>
      </g>
     </g>
    </g>
    <g id="ytick_2">
     <g id="line2d_11">
      <g>
       <use style="stroke:#000000;stroke-width:0.8;" x="57.6" xlink:href="#m96a3d07dc5" y="265.21961"/>
      </g>
     </g>
     <g id="text_12">
      <!-- 5 -->
      <g transform="translate(44.2375 269.018829)scale(0.1 -0.1)">
       <use xlink:href="#DejaVuSans-35"/>
      </g>
     </g>
    </g>
    <g id="ytick_3">
     <g id="line2d_12">
      <g>
       <use style="stroke:#000000;stroke-width:0.8;" x="57.6" xlink:href="#m96a3d07dc5" y="234.95122"/>
      </g>
     </g>
     <g id="text_13">
      <!-- 10 -->
      <g transform="translate(37.875 238.750439)scale(0.1 -0.1)">
       <use xlink:href="#DejaVuSans-31"/>
       <use x="63.623047" xlink:href="#DejaVuSans-30"/>
      </g>
     </g>
    </g>
    <g id="ytick_4">
     <g id="line2d_13">
      <g>
       <use style="stroke:#000000;stroke-width:0.8;" x="57.6" xlink:href="#m96a3d07dc5" y="204.68283"/>
      </g>
     </g>
     <g id="text_14">
      <!-- 15 -->
      <g transform="translate(37.875 208.482049)scale(0.1 -0.1)">
       <use xlink:href="#DejaVuSans-31"/>
       <use x="63.623047" xlink:href="#DejaVuSans-35"/>
      </g>
     </g>
    </g>
    <g id="ytick_5">
     <g id="line2d_14">
      <g>
       <use style="stroke:#000000;stroke-width:0.8;" x="57.6" xlink:href="#m96a3d07dc5" y="174.41444"/>
      </g>
     </g>
     <g id="text_15">
      <!-- 20 -->
      <g transform="translate(37.875 178.213659)scale(0.1 -0.1)">
       <use xlink:href="#DejaVuSans-32"/>
       <use x="63.623047" xlink:href="#DejaVuSans-30"/>
      </g>
     </g>
    </g>
    <g id="ytick_6">
     <g id="line2d_15">
      <g>
       <use style="stroke:#000000;stroke-width:0.8;" x="57.6" xlink:href="#m96a3d07dc5" y="144.14605"/>
      </g>
     </g>
     <g id="text_16">
      <!-- 25 -->
      <g transform="translate(37.875 147.945269)scale(0.1 -0.1)">
       <use xlink:href="#DejaVuSans-32"/>
       <use x="63.623047" xlink:href="#DejaVuSans-35"/>
      </g>
     </g>
    </g>
    <g id="ytick_7">
     <g id="line2d_16">
      <g>
       <use style="stroke:#000000;stroke-width:0.8;" x="57.6" xlink:href="#m96a3d07dc5" y="113.87766"/>
      </g>
     </g>
     <g id="text_17">
      <!-- 30 -->
      <g transform="translate(37.875 117.676879)scale(0.1 -0.1)">
       <use xlink:href="#DejaVuSans-33"/>
       <use x="63.623047" xlink:href="#DejaVuSans-30"/>
      </g>
     </g>
    </g>
    <g id="ytick_8">
     <g id="line2d_17">
      <g>
       <use style="stroke:#000000;stroke-width:0.8;" x="57.6" xlink:href="#m96a3d07dc5" y="83.60927"/>
      </g>
     </g>
     <g id="text_18">
      <!-- 35 -->
      <g transform="translate(37.875 87.408489)scale(0.1 -0.1)">
       <use xlink:href="#DejaVuSans-33"/>
       <use x="63.623047" xlink:href="#DejaVuSans-35"/>
      </g>
     </g>
    </g>
    <g id="ytick_9">
     <g id="line2d_18">
      <g>
       <use style="stroke:#000000;stroke-width:0.8;" x="57.6" xlink:href="#m96a3d07dc5" y="53.340881"/>
      </g>
     </g>
     <g id="text_19">
      <!-- 40 -->
      <g transform="translate(37.875 57.140099)scale(0.1 -0.1)">
       <use xlink:href="#DejaVuSans-34"/>
       <use x="63.623047" xlink:href="#DejaVuSans-30"/>
      </g>
     </g>
    </g>
    <g id="text_20">
     <!-- Distance -->
     <defs>
      <path d="M 19.671875 64.796875 
L 19.671875 8.109375 
L 31.59375 8.109375 
Q 46.6875 8.109375 53.6875 14.9375 
Q 60.6875 21.78125 60.6875 36.53125 
Q 60.6875 51.171875 53.6875 57.984375 
Q 46.6875 64.796875 31.59375 64.796875 
z
M 9.8125 72.90625 
L 30.078125 72.90625 
Q 51.265625 72.90625 61.171875 64.09375 
Q 71.09375 55.28125 71.09375 36.53125 
Q 71.09375 17.671875 61.125 8.828125 
Q 51.171875 0 30.078125 0 
L 9.8125 0 
z
" id="DejaVuSans-44"/>
      <path d="M 9.421875 54.6875 
L 18.40625 54.6875 
L 18.40625 0 
L 9.421875 0 
z
M 9.421875 75.984375 
L 18.40625 75.984375 
L 18.40625 64.59375 
L 9.421875 64.59375 
z
" id="DejaVuSans-69"/>
      <path d="M 34.28125 27.484375 
Q 23.390625 27.484375 19.1875 25 
Q 14.984375 22.515625 14.984375 16.5 
Q 14.984375 11.71875 18.140625 8.90625 
Q 21.296875 6.109375 26.703125 6.109375 
Q 34.1875 6.109375 38.703125 11.40625 
Q 43.21875 16.703125 43.21875 25.484375 
L 43.21875 27.484375 
z
M 52.203125 31.203125 
L 52.203125 0 
L 43.21875 0 
L 43.21875 8.296875 
Q 40.140625 3.328125 35.546875 0.953125 
Q 30.953125 -1.421875 24.3125 -1.421875 
Q 15.921875 -1.421875 10.953125 3.296875 
Q 6 8.015625 6 15.921875 
Q 6 25.140625 12.171875 29.828125 
Q 18.359375 34.515625 30.609375 34.515625 
L 43.21875 34.515625 
L 43.21875 35.40625 
Q 43.21875 41.609375 39.140625 45 
Q 35.0625 48.390625 27.6875 48.390625 
Q 23 48.390625 18.546875 47.265625 
Q 14.109375 46.140625 10.015625 43.890625 
L 10.015625 52.203125 
Q 14.9375 54.109375 19.578125 55.046875 
Q 24.21875 56 28.609375 56 
Q 40.484375 56 46.34375 49.84375 
Q 52.203125 43.703125 52.203125 31.203125 
z
" id="DejaVuSans-61"/>
      <path d="M 54.890625 33.015625 
L 54.890625 0 
L 45.90625 0 
L 45.90625 32.71875 
Q 45.90625 40.484375 42.875 44.328125 
Q 39.84375 48.1875 33.796875 48.1875 
Q 26.515625 48.1875 22.3125 43.546875 
Q 18.109375 38.921875 18.109375 30.90625 
L 18.109375 0 
L 9.078125 0 
L 9.078125 54.6875 
L 18.109375 54.6875 
L 18.109375 46.1875 
Q 21.34375 51.125 25.703125 53.5625 
Q 30.078125 56 35.796875 56 
Q 45.21875 56 50.046875 50.171875 
Q 54.890625 44.34375 54.890625 33.015625 
z
" id="DejaVuSans-6e"/>
      <path d="M 48.78125 52.59375 
L 48.78125 44.1875 
Q 44.96875 46.296875 41.140625 47.34375 
Q 37.3125 48.390625 33.40625 48.390625 
Q 24.65625 48.390625 19.8125 42.84375 
Q 14.984375 37.3125 14.984375 27.296875 
Q 14.984375 17.28125 19.8125 11.734375 
Q 24.65625 6.203125 33.40625 6.203125 
Q 37.3125 6.203125 41.140625 7.25 
Q 44.96875 8.296875 48.78125 10.40625 
L 48.78125 2.09375 
Q 45.015625 0.34375 40.984375 -0.53125 
Q 36.96875 -1.421875 32.421875 -1.421875 
Q 20.0625 -1.421875 12.78125 6.34375 
Q 5.515625 14.109375 5.515625 27.296875 
Q 5.515625 40.671875 12.859375 48.328125 
Q 20.21875 56 33.015625 56 
Q 37.15625 56 41.109375 55.140625 
Q 45.0625 54.296875 48.78125 52.59375 
z
" id="DejaVuSans-63"/>
     </defs>
     <g transform="translate(31.795312 196.3905)rotate(-90)scale(0.1 -0.1)">
      <use xlink:href="#DejaVuSans-44"/>
      <use x="77.001953" xlink:href="#DejaVuSans-69"/>
      <use x="104.785156" xlink:href="#DejaVuSans-73"/>
      <use x="156.884766" xlink:href="#DejaVuSans-74"/>
      <use x="196.09375" xlink:href="#DejaVuSans-61"/>
      <use x="257.373047" xlink:href="#DejaVuSans-6e"/>
      <use x="320.751953" xlink:href="#DejaVuSans-63"/>
      <use x="375.732422" xlink:href="#DejaVuSans-65"/>
     </g>
    </g>
   </g>
   <g id="line2d_19">
    <path clip-path="url(#p22255a3f3b)" d="M 73.832727 295.488 
L 73.995014 286.926806 
L 74.076157 289.434322 
L 74.157301 295.488 
L 74.400731 281.951565 
L 74.481874 283.380644 
L 74.644161 295.488 
L 74.968734 276.344589 
L 75.049878 277.326966 
L 75.212164 289.434322 
L 75.374451 281.951565 
L 75.536738 273.661154 
L 75.699024 281.951565 
L 75.861311 289.434322 
L 76.023598 281.951565 
L 76.104741 278.365613 
L 76.429314 295.488 
L 76.672745 281.951565 
L 76.753888 283.380644 
L 76.916175 276.344589 
L 77.078461 286.926806 
L 77.403035 268.415129 
L 77.484178 270.528046 
L 77.727608 283.380644 
L 77.808751 281.951565 
L 77.971038 273.661154 
L 78.376755 295.488 
L 78.701328 278.365613 
L 78.782472 281.951565 
L 79.107045 265.21961 
L 79.188188 264.620178 
L 79.350475 276.344589 
L 79.593905 265.21961 
L 79.675049 261.243226 
L 80.080765 281.951565 
L 80.405339 262.887946 
L 80.486482 264.620178 
L 80.729912 277.326966 
L 80.811055 276.344589 
L 80.973342 268.415129 
L 81.379059 289.434322 
L 81.541346 281.951565 
L 81.703632 273.661154 
L 81.784776 276.344589 
L 82.109349 259.165932 
L 82.190492 258.664914 
L 82.352779 270.528046 
L 82.433922 268.415129 
L 82.677352 256.725548 
L 83.083069 278.365613 
L 83.407643 260.189295 
L 83.569929 268.415129 
L 83.813359 277.326966 
L 83.975646 270.528046 
L 84.137933 277.326966 
L 84.219076 276.344589 
L 84.462506 289.434322 
L 84.624793 281.951565 
L 84.949366 265.21961 
L 85.03051 264.620178 
L 85.111653 258.664914 
L 85.192796 259.165932 
L 85.355083 271.273288 
L 85.436226 270.528046 
L 85.51737 268.415129 
L 85.679656 260.189295 
L 86.085373 281.951565 
L 86.409947 265.21961 
L 86.49109 268.415129 
L 86.815663 283.380644 
L 87.140237 264.620178 
L 87.22138 265.21961 
L 87.383667 277.326966 
L 87.46481 276.344589 
L 87.70824 265.21961 
L 88.113957 283.380644 
L 88.1951 281.951565 
L 88.43853 295.488 
L 88.68196 281.951565 
L 88.763104 283.380644 
L 89.006534 270.528046 
L 89.087677 268.415129 
L 89.168821 273.661154 
L 89.331107 265.21961 
L 89.412251 268.415129 
L 89.736824 252.682032 
L 89.817967 251.416559 
L 89.980254 262.887946 
L 90.223684 251.834307 
L 90.304827 248.207263 
L 90.710544 269.804419 
L 91.035118 251.834307 
L 91.197404 260.189295 
L 91.440834 270.528046 
L 91.765408 251.416559 
L 91.846551 252.682032 
L 92.089981 265.21961 
L 92.171124 264.620178 
L 92.333411 257.201179 
L 92.495698 264.620178 
L 92.576841 265.21961 
L 92.739128 277.326966 
L 92.820271 276.344589 
L 92.982558 268.415129 
L 93.307131 252.682032 
L 93.388275 253.112254 
L 93.550561 246.681688 
L 93.712848 258.664914 
L 93.793992 257.201179 
L 93.956278 249.384562 
L 94.037422 246.681688 
L 94.443138 268.415129 
L 94.767712 252.682032 
L 94.848855 256.725548 
L 95.173428 273.661154 
L 95.498002 254.878694 
L 95.579145 257.201179 
L 95.822575 270.528046 
L 95.903719 271.273288 
L 96.228292 252.682032 
L 96.309435 253.112254 
L 96.471722 265.21961 
L 96.552865 264.620178 
L 96.634009 262.887946 
L 96.796295 254.878694 
L 97.120869 270.528046 
L 97.202012 271.273288 
L 97.283156 270.528046 
L 97.364299 276.344589 
L 97.526586 269.804419 
L 97.851159 286.926806 
L 98.419162 256.725548 
L 98.500306 261.243226 
L 98.662593 251.834307 
L 98.743736 254.878694 
L 99.068309 239.675847 
L 99.149453 238.057768 
L 99.311739 249.384562 
L 99.636313 234.95122 
L 100.042029 256.725548 
L 100.366603 239.675847 
L 100.77232 260.189295 
L 101.096893 241.342258 
L 101.25918 249.384562 
L 101.50261 258.664914 
L 101.827183 239.675847 
L 101.908327 240.669614 
L 102.151757 253.112254 
L 102.2329 252.682032 
L 102.395187 245.568092 
L 102.557473 252.682032 
L 102.638617 253.112254 
L 102.71976 259.165932 
L 102.800903 258.664914 
L 102.882047 257.201179 
L 103.125477 270.528046 
L 103.20662 271.273288 
L 103.612337 246.681688 
L 103.774624 243.765353 
L 103.855767 249.384562 
L 104.018054 243.412293 
L 104.099197 248.207263 
L 104.261484 239.675847 
L 104.342627 243.412293 
L 104.504914 233.16157 
L 104.586057 235.866186 
L 104.748344 227.805823 
L 104.910631 238.377716 
L 105.235204 222.592064 
L 105.640921 244.120839 
L 105.965494 226.465451 
L 106.371211 246.681688 
L 106.695784 227.805823 
L 106.858071 235.866186 
L 107.101501 245.568092 
L 107.426074 226.465451 
L 107.507218 227.805823 
L 107.750648 240.669614 
L 107.831791 241.004898 
L 107.994078 234.649289 
L 108.156365 241.004898 
L 108.237508 240.669614 
L 108.480938 253.112254 
L 108.562081 252.682032 
L 108.967798 228.897542 
L 109.048941 228.622941 
L 109.130085 222.592064 
L 109.211228 222.843864 
L 109.373515 234.95122 
L 109.454658 234.649289 
L 109.535802 233.752356 
L 109.698088 226.465451 
L 109.860375 233.752356 
L 109.941518 234.649289 
L 110.103805 246.681688 
L 110.184948 245.568092 
L 110.266092 243.765353 
L 110.428378 235.866186 
L 110.834095 257.201179 
L 110.996382 251.834307 
L 111.158669 243.412293 
L 111.564385 265.21961 
L 111.888959 248.207263 
L 112.294675 268.415129 
L 112.619249 249.384562 
L 112.700392 251.416559 
L 112.943822 264.620178 
L 113.024966 265.21961 
L 113.349539 246.681688 
L 113.430682 247.058576 
L 113.592969 259.165932 
L 113.674112 258.664914 
L 113.755256 257.201179 
L 113.917542 249.384562 
L 114.242116 264.620178 
L 114.323259 265.21961 
L 114.404403 264.620178 
L 114.485546 270.528046 
L 114.566689 268.415129 
L 114.647833 265.21961 
L 114.728976 269.804419 
L 114.891263 260.189295 
L 114.972406 262.887946 
L 115.134693 251.416559 
L 115.215836 252.682032 
L 115.296979 253.112254 
L 115.459266 265.21961 
L 115.540409 264.620178 
L 115.621553 262.887946 
L 116.02727 241.342258 
L 116.108413 243.765353 
L 116.51413 221.841829 
L 116.595273 222.592064 
L 116.75756 215.864298 
L 116.919846 227.805823 
L 117.00099 226.465451 
L 117.082133 224.631516 
L 117.24442 216.790186 
L 117.650137 238.057768 
L 117.812423 233.16157 
L 117.97471 224.89059 
L 118.380427 246.681688 
L 118.705 231.13652 
L 119.110717 252.682032 
L 119.43529 234.95122 
L 119.841007 254.878694 
L 120.16558 235.866186 
L 120.246724 238.057768 
L 120.490154 251.416559 
L 120.571297 252.682032 
L 120.895871 233.752356 
L 120.977014 234.649289 
L 121.220444 247.058576 
L 121.301587 246.681688 
L 121.463874 239.675847 
L 121.626161 246.681688 
L 121.707304 247.058576 
L 121.788447 253.112254 
L 121.869591 252.682032 
L 121.950734 251.416559 
L 122.031877 257.201179 
L 122.194164 251.834307 
L 122.275308 256.725548 
L 122.437594 248.207263 
L 122.762168 265.21961 
L 123.330171 235.559645 
L 123.411314 239.675847 
L 123.573601 230.007461 
L 123.654744 233.16157 
L 123.817031 222.341131 
L 123.898175 224.631516 
L 124.222748 208.812522 
L 124.303891 207.345118 
L 124.466178 218.914357 
L 124.628465 214.269387 
L 124.790751 206.106516 
L 125.196468 227.805823 
L 125.521042 213.149077 
L 125.926758 234.95122 
L 126.251332 218.437258 
L 126.657048 239.675847 
L 126.981622 221.593443 
L 127.387339 241.342258 
L 127.711912 222.341131 
L 127.793055 224.631516 
L 128.117629 239.675847 
L 128.442202 220.608139 
L 128.523346 221.841829 
L 128.766776 234.649289 
L 128.847919 234.95122 
L 129.010206 228.622941 
L 129.172492 234.95122 
L 129.253636 234.649289 
L 129.334779 240.669614 
L 129.415922 239.675847 
L 129.497066 238.057768 
L 129.578209 243.765353 
L 129.740496 238.377716 
L 130.065069 254.878694 
L 130.551929 227.805823 
L 130.633073 224.89059 
L 130.714216 230.007461 
L 130.876503 222.592064 
L 130.957646 226.998452 
L 131.119933 217.963096 
L 131.201076 221.593443 
L 131.363363 211.387618 
L 131.444506 214.269387 
L 131.606793 203.281124 
L 131.687936 205.493607 
L 131.850223 197.687839 
L 132.01251 208.812522 
L 132.337083 194.734718 
L 132.7428 216.557696 
L 133.067373 200.926527 
L 133.47309 222.592064 
L 133.797663 205.493607 
L 134.20338 226.465451 
L 134.527953 208.180614 
L 134.93367 227.805823 
L 135.258244 208.812522 
L 135.339387 211.170023 
L 135.66396 226.465451 
L 135.988534 207.345118 
L 136.069677 208.812522 
L 136.313107 221.841829 
L 136.394251 222.592064 
L 136.475394 216.557696 
L 136.556537 216.790186 
L 136.637681 222.843864 
L 136.718824 222.592064 
L 136.799967 221.841829 
L 136.881111 227.805823 
L 136.962254 226.465451 
L 137.043397 224.631516 
L 137.367971 239.675847 
L 137.773687 214.721862 
L 137.935974 211.170023 
L 138.017118 216.790186 
L 138.179404 211.387618 
L 138.260548 216.557696 
L 138.422834 209.44907 
L 138.503978 214.044092 
L 138.666264 205.493607 
L 138.747408 209.44907 
L 138.909694 199.770947 
L 138.990838 203.082616 
L 139.153124 192.575474 
L 139.234268 195.281799 
L 139.396554 187.196516 
L 139.558841 197.875376 
L 139.883415 182.88308 
L 140.289131 204.68283 
L 140.613705 188.387503 
L 141.019422 209.876065 
L 141.343995 192.397579 
L 141.749712 213.149077 
L 142.074285 194.734718 
L 142.480002 214.269387 
L 142.804575 195.281799 
L 142.966862 203.281124 
L 143.210292 213.149077 
L 143.534865 194.009865 
L 143.616009 195.648185 
L 143.859439 208.812522 
L 143.940582 209.876065 
L 144.021725 203.879229 
L 144.102869 204.481265 
L 144.184012 210.52058 
L 144.265156 209.876065 
L 144.346299 208.812522 
L 144.589729 221.841829 
L 144.670872 222.592064 
L 145.076589 197.875376 
L 145.157732 196.941262 
L 145.238876 190.985315 
L 145.320019 191.865724 
L 145.563449 204.481265 
L 145.644592 204.68283 
L 145.806879 198.440159 
L 145.969166 204.68283 
L 146.050309 204.481265 
L 146.293739 216.790186 
L 146.374883 216.557696 
L 146.537169 209.876065 
L 146.699456 216.557696 
L 146.780599 216.790186 
L 146.942886 228.897542 
L 147.024029 228.622941 
L 147.105173 227.805823 
L 147.267459 220.608139 
L 147.429746 227.805823 
L 147.51089 228.622941 
L 147.673176 240.669614 
L 147.75432 239.675847 
L 147.835463 238.057768 
L 147.99775 230.287893 
L 148.403466 251.416559 
L 148.565753 246.681688 
L 148.72804 238.377716 
L 149.133757 260.189295 
L 149.45833 244.120839 
L 149.864047 265.21961 
L 150.18862 246.681688 
L 150.350907 254.878694 
L 150.594337 264.620178 
L 150.91891 245.568092 
L 151.000054 246.681688 
L 151.243484 259.165932 
L 151.324627 258.664914 
L 151.6492 241.004898 
L 151.730344 240.669614 
L 151.89263 252.682032 
L 151.973774 251.416559 
L 152.054917 249.384562 
L 152.217204 241.342258 
L 152.541777 257.201179 
L 152.704064 259.165932 
L 152.785207 265.21961 
L 152.866351 264.620178 
L 152.947494 262.887946 
L 153.028637 268.415129 
L 153.190924 261.243226 
L 153.272067 265.21961 
L 153.434354 254.878694 
L 153.515497 257.201179 
L 153.921214 234.649289 
L 154.002358 234.95122 
L 154.245788 222.592064 
L 154.326931 221.841829 
L 154.570361 234.649289 
L 154.651504 234.95122 
L 154.813791 228.622941 
L 154.894934 227.805823 
L 155.300651 204.481265 
L 155.381795 204.68283 
L 155.706368 186.353768 
L 155.787511 186.521796 
L 155.949798 198.629152 
L 156.030941 198.440159 
L 156.112085 197.875376 
L 156.274371 190.985315 
L 156.436658 197.875376 
L 156.517801 198.440159 
L 156.680088 210.52058 
L 156.761232 209.876065 
L 156.842375 208.812522 
L 157.004662 201.509645 
L 157.166948 208.812522 
L 157.248092 209.876065 
L 157.410378 221.841829 
L 157.491522 220.608139 
L 157.572665 218.914357 
L 157.734952 211.170023 
L 158.140668 232.285746 
L 158.302955 227.805823 
L 158.465242 219.635632 
L 158.870959 241.342258 
L 159.195532 226.465451 
L 159.601249 248.207263 
L 159.925822 231.13652 
L 160.331539 251.834307 
L 160.656112 233.16157 
L 160.818399 241.342258 
L 161.061829 251.416559 
L 161.386402 232.285746 
L 161.467546 233.752356 
L 161.710976 246.681688 
L 161.792119 247.058576 
L 162.116693 228.622941 
L 162.197836 228.897542 
L 162.360123 241.004898 
L 162.441266 240.669614 
L 162.522409 239.675847 
L 162.684696 232.285746 
L 162.846983 239.675847 
L 162.928126 240.669614 
L 163.090413 247.058576 
L 163.171556 246.681688 
L 163.2527 252.682032 
L 163.333843 251.416559 
L 163.414986 249.384562 
L 163.49613 254.878694 
L 163.658416 248.207263 
L 163.73956 252.682032 
L 163.901846 243.412293 
L 163.98299 246.681688 
L 164.145276 235.866186 
L 164.22642 238.057768 
L 164.388706 226.465451 
L 164.46985 227.805823 
L 164.550993 228.622941 
L 164.71328 240.669614 
L 164.794423 239.675847 
L 164.875567 238.057768 
L 165.281283 216.790186 
L 165.362427 218.914357 
L 165.768143 196.941262 
L 165.849287 197.875376 
L 166.17386 180.308921 
L 166.255004 179.832644 
L 166.41729 191.865724 
L 166.498434 190.985315 
L 166.579577 189.765059 
L 166.741864 182.395962 
L 166.90415 189.765059 
L 166.985294 190.985315 
L 167.14758 202.884533 
L 167.228724 201.509645 
L 167.309867 199.770947 
L 167.472154 192.042705 
L 167.877871 213.149077 
L 168.040157 208.812522 
L 168.202444 200.732952 
L 168.608161 222.341131 
L 168.932734 208.180614 
L 169.338451 230.007461 
L 169.663024 214.044092 
L 170.068741 235.559645 
L 170.393314 217.963096 
L 170.799031 238.377716 
L 171.123605 219.635632 
L 171.285891 227.805823 
L 171.529321 238.057768 
L 171.853895 218.914357 
L 171.935038 220.608139 
L 172.178468 233.752356 
L 172.259611 234.649289 
L 172.584185 215.864298 
L 172.665328 216.557696 
L 172.908758 228.897542 
L 172.989902 228.622941 
L 173.152188 221.841829 
L 173.314475 228.622941 
L 173.395618 228.897542 
L 173.476762 234.95122 
L 173.557905 234.649289 
L 173.639048 233.752356 
L 173.720192 239.675847 
L 173.801335 238.057768 
L 173.882478 235.866186 
L 173.963622 241.342258 
L 174.125909 234.95122 
L 174.207052 239.675847 
L 174.369339 231.13652 
L 174.450482 234.95122 
L 174.612769 224.89059 
L 174.856199 235.866186 
L 174.937342 241.342258 
L 175.343059 222.592064 
L 175.505345 213.149077 
L 175.586489 216.557696 
L 175.748776 206.106516 
L 175.829919 208.812522 
L 176.235636 188.216553 
L 176.316779 189.765059 
L 176.641352 173.059939 
L 176.722496 172.016711 
L 176.884782 183.863693 
L 176.965926 182.395962 
L 177.047069 180.627536 
L 177.209356 172.910363 
L 177.615073 194.009865 
L 177.777359 189.765059 
L 177.939646 181.749717 
L 178.345363 203.281124 
L 178.588793 192.575474 
L 178.669936 189.591885 
L 179.075653 211.387618 
L 179.400226 196.200299 
L 179.805943 217.963096 
L 180.130516 201.314871 
L 180.536233 222.592064 
L 180.860807 204.68283 
L 181.266523 224.89059 
L 181.591097 206.106516 
L 181.753383 214.269387 
L 181.996814 224.631516 
L 182.321387 205.493607 
L 182.40253 207.345118 
L 182.64596 220.608139 
L 182.727104 221.841829 
L 183.051677 202.884533 
L 183.13282 203.879229 
L 183.37625 216.557696 
L 183.457394 216.790186 
L 183.619681 210.52058 
L 183.781967 216.790186 
L 183.863111 216.557696 
L 183.944254 222.592064 
L 184.025397 221.841829 
L 184.106541 220.608139 
L 184.187684 226.465451 
L 184.268827 224.631516 
L 184.349971 222.341131 
L 184.431114 227.805823 
L 184.593401 221.593443 
L 184.674544 226.465451 
L 184.836831 218.437258 
L 185.161404 235.559645 
L 185.729408 205.493607 
L 185.810551 209.876065 
L 185.972838 200.926527 
L 186.053981 204.68283 
L 186.216268 194.734718 
L 186.297411 197.875376 
L 186.459698 187.196516 
L 186.540841 189.765059 
L 186.946558 169.083493 
L 187.027701 170.688231 
L 187.189988 163.273677 
L 187.352275 174.869321 
L 187.433418 172.910363 
L 187.514561 170.688231 
L 187.676848 162.720477 
L 188.082565 184.192484 
L 188.325995 173.660081 
L 188.407138 170.835141 
L 188.812855 192.575474 
L 189.137428 177.946835 
L 189.543145 199.770947 
L 189.867719 183.863693 
L 190.273435 205.493607 
L 190.598009 188.387503 
L 191.003725 209.44907 
L 191.328299 191.336586 
L 191.734016 211.387618 
L 192.058589 192.575474 
L 192.220876 200.732952 
L 192.464306 211.170023 
L 192.788879 192.042705 
L 192.870022 194.009865 
L 193.113453 207.345118 
L 193.194596 208.812522 
L 193.519169 189.765059 
L 193.600313 190.985315 
L 193.843743 203.879229 
L 193.924886 204.481265 
L 194.006029 198.440159 
L 194.087173 198.629152 
L 194.168316 204.68283 
L 194.249459 204.481265 
L 194.330603 203.879229 
L 194.411746 209.876065 
L 194.49289 208.812522 
L 194.574033 207.345118 
L 194.655176 213.149077 
L 194.73632 211.170023 
L 194.817463 208.812522 
L 194.898606 214.269387 
L 195.060893 208.180614 
L 195.385466 224.89059 
L 195.95347 194.734718 
L 196.034613 199.770947 
L 196.1969 192.397579 
L 196.278043 196.941262 
L 196.44033 188.387503 
L 196.521473 192.397579 
L 196.68376 182.88308 
L 196.764903 186.353768 
L 196.92719 176.090807 
L 197.008333 179.043179 
L 197.17062 168.216709 
L 197.251763 170.688231 
L 197.576337 155.727991 
L 197.65748 153.775032 
L 197.819767 165.087785 
L 197.982054 160.123645 
L 198.14434 151.976246 
L 198.550057 173.660081 
L 198.87463 159.448507 
L 199.280347 181.267432 
L 199.604921 165.933634 
L 200.010637 187.705328 
L 200.335211 171.276913 
L 200.740927 192.753678 
L 201.065501 175.325923 
L 201.471218 196.200299 
L 201.795791 177.946835 
L 202.201508 197.875376 
L 202.526081 179.043179 
L 202.688368 187.196516 
L 202.931798 197.687839 
L 203.256371 178.572058 
L 203.337515 180.627536 
L 203.580945 194.009865 
L 203.662088 195.648185 
L 203.986662 176.552099 
L 204.067805 177.946835 
L 204.311235 190.985315 
L 204.392378 191.865724 
L 204.473522 185.851229 
L 204.554665 186.353768 
L 204.635808 192.397579 
L 204.716952 191.865724 
L 204.798095 190.985315 
L 204.879238 196.941262 
L 204.960382 195.648185 
L 205.041525 194.009865 
L 205.122668 199.770947 
L 205.203812 197.687839 
L 205.284955 195.281799 
L 205.609529 211.170023 
L 206.096389 184.192484 
L 206.177532 181.749717 
L 206.258675 187.196516 
L 206.420962 181.267432 
L 206.502105 186.353768 
L 206.664392 179.200643 
L 206.745535 183.863693 
L 206.907822 175.631291 
L 206.988965 179.832644 
L 207.151252 170.688231 
L 207.232396 174.41444 
L 207.394682 164.526922 
L 207.475826 167.785523 
L 207.638112 157.310231 
L 207.719256 160.123645 
L 207.881542 149.194261 
L 207.962686 151.593717 
L 208.124972 143.662529 
L 208.287259 154.683042 
L 208.611832 140.793132 
L 209.017549 162.582536 
L 209.342123 147.698886 
L 209.747839 169.519121 
L 210.072413 153.64579 
L 210.47813 175.325923 
L 210.802703 158.508904 
L 211.20842 179.832644 
L 211.532993 162.169572 
L 211.93871 182.88308 
L 212.263283 164.526922 
L 212.669 184.357245 
L 212.993573 165.510021 
L 213.15586 173.660081 
L 213.39929 184.192484 
L 213.723864 165.087785 
L 213.805007 167.212863 
L 214.12958 182.395962 
L 214.454154 163.273677 
L 214.535297 164.807053 
L 214.778727 177.946835 
L 214.85987 179.043179 
L 214.941014 173.059939 
L 215.022157 173.810578 
L 215.103301 179.832644 
L 215.184444 179.043179 
L 215.265587 177.946835 
L 215.346731 183.863693 
L 215.427874 182.395962 
L 215.509017 180.627536 
L 215.752447 194.009865 
L 215.833591 195.648185 
L 216.239307 170.688231 
L 216.401594 167.212863 
L 216.482737 172.910363 
L 216.645024 168.216709 
L 216.726168 173.660081 
L 216.888454 167.785523 
L 216.969598 172.910363 
L 217.131884 165.933634 
L 217.213028 170.688231 
L 217.375314 162.720477 
L 217.456458 167.070097 
L 217.618744 158.241627 
L 217.699888 162.169572 
L 217.862174 152.616069 
L 217.943318 156.121867 
L 218.105605 145.973183 
L 218.186748 149.069063 
L 218.349035 138.442011 
L 218.430178 141.148889 
L 218.592465 133.050774 
L 218.754751 143.783264 
L 219.079325 129.25969 
L 219.485041 151.085255 
L 219.809615 135.666315 
L 220.215332 157.442903 
L 220.539905 141.148889 
L 220.945622 162.720477 
L 221.270195 145.605975 
L 221.675912 166.785041 
L 222.000485 148.943972 
L 222.406202 169.519121 
L 222.730775 151.085255 
L 223.136492 170.835141 
L 223.461066 151.976246 
L 223.623352 160.123645 
L 223.866782 170.688231 
L 224.191356 151.593717 
L 224.272499 153.775032 
L 224.597073 169.083493 
L 224.921646 149.94771 
L 225.002789 151.593717 
L 225.246219 164.807053 
L 225.327363 166.075146 
L 225.408506 160.123645 
L 225.489649 161.074535 
L 225.570793 167.070097 
L 225.651936 166.075146 
L 225.733079 164.807053 
L 225.97651 177.946835 
L 226.057653 179.043179 
L 226.46337 154.163464 
L 226.544513 153.001343 
L 226.625656 147.08026 
L 226.7068 148.195658 
L 226.95023 161.074535 
L 227.031373 161.757882 
L 227.112516 155.727991 
L 227.19366 156.121867 
L 227.274803 162.169572 
L 227.355946 161.757882 
L 227.43709 161.074535 
L 227.68052 173.810578 
L 227.761663 174.263193 
L 227.842807 168.216709 
L 227.92395 168.360762 
L 228.005093 174.41444 
L 228.086237 174.263193 
L 228.16738 173.810578 
L 228.41081 186.353768 
L 228.491953 186.521796 
L 228.65424 180.308921 
L 228.816527 186.521796 
L 228.89767 186.353768 
L 229.1411 198.629152 
L 229.222244 198.440159 
L 229.38453 191.865724 
L 229.546817 198.440159 
L 229.62796 198.629152 
L 229.790247 210.736508 
L 229.87139 210.52058 
L 229.952534 209.876065 
L 230.11482 202.884533 
L 230.277107 209.876065 
L 230.35825 210.52058 
L 230.520537 222.592064 
L 230.60168 221.841829 
L 230.682824 220.608139 
L 230.845111 213.149077 
L 231.007397 220.608139 
L 231.088541 221.841829 
L 231.250827 233.752356 
L 231.331971 232.285746 
L 231.413114 230.287893 
L 231.575401 222.341131 
L 231.981117 243.765353 
L 232.143404 238.377716 
L 232.305691 230.007461 
L 232.711408 251.834307 
L 233.035981 235.559645 
L 233.441698 256.725548 
L 233.766271 238.377716 
L 233.928558 246.681688 
L 234.171988 257.201179 
L 234.496561 238.057768 
L 234.577705 239.675847 
L 234.821135 252.682032 
L 234.902278 253.112254 
L 235.226851 234.649289 
L 235.307995 234.95122 
L 235.470282 247.058576 
L 235.551425 246.681688 
L 235.632568 245.568092 
L 235.957142 228.622941 
L 236.038285 227.805823 
L 236.200572 239.675847 
L 236.281715 238.057768 
L 236.362858 235.866186 
L 236.687432 220.608139 
L 236.768575 218.914357 
L 236.930862 230.287893 
L 237.174292 219.635632 
L 237.255435 216.557696 
L 237.661152 235.866186 
L 237.742295 238.057768 
L 237.904582 245.568092 
L 237.985725 246.681688 
L 238.148012 253.112254 
L 238.229155 252.682032 
L 238.310299 258.664914 
L 238.391442 257.201179 
L 238.472585 254.878694 
L 238.553729 260.189295 
L 238.716016 252.682032 
L 238.797159 256.725548 
L 238.959446 246.681688 
L 239.040589 249.384562 
L 239.446306 227.805823 
L 239.527449 228.622941 
L 239.933166 204.68283 
L 240.014309 204.481265 
L 240.420026 179.832644 
L 240.582313 177.946835 
L 240.825743 190.985315 
L 240.906886 191.865724 
L 240.988029 185.851229 
L 241.069173 186.353768 
L 241.150316 186.521796 
L 241.556033 162.169572 
L 241.637176 161.757882 
L 241.96175 143.060283 
L 242.042893 143.662529 
L 242.286323 156.121867 
L 242.367466 156.253406 
L 242.529753 150.073665 
L 242.69204 156.253406 
L 242.773183 156.121867 
L 243.016613 168.360762 
L 243.097756 168.216709 
L 243.260043 161.757882 
L 243.42233 168.216709 
L 243.503473 168.360762 
L 243.66576 180.468118 
L 243.746903 180.308921 
L 243.828047 179.832644 
L 243.990333 173.059939 
L 244.15262 179.832644 
L 244.233763 180.308921 
L 244.39605 192.397579 
L 244.477193 191.865724 
L 244.558337 190.985315 
L 244.720623 183.863693 
L 244.88291 190.985315 
L 244.964054 191.865724 
L 245.12634 203.879229 
L 245.207484 202.884533 
L 245.288627 201.509645 
L 245.450914 194.009865 
L 245.6132 201.509645 
L 245.694344 202.884533 
L 245.85663 214.721862 
L 245.937774 213.149077 
L 246.018917 211.170023 
L 246.181204 203.281124 
L 246.586921 224.631516 
L 246.749207 219.635632 
L 246.911494 211.387618 
L 247.317211 233.16157 
L 247.641784 217.963096 
L 248.047501 239.675847 
L 248.372074 222.592064 
L 248.777791 243.412293 
L 249.102364 224.89059 
L 249.264651 233.16157 
L 249.508081 243.765353 
L 249.832655 224.631516 
L 249.913798 226.465451 
L 250.157228 239.675847 
L 250.238371 240.669614 
L 250.562945 221.841829 
L 250.644088 222.592064 
L 250.887518 234.95122 
L 250.968661 234.649289 
L 251.293235 216.790186 
L 251.374378 216.557696 
L 251.536665 228.622941 
L 251.617808 227.805823 
L 251.698952 226.465451 
L 252.023525 209.876065 
L 252.104668 208.812522 
L 252.266955 220.608139 
L 252.348098 218.914357 
L 252.429242 216.790186 
L 252.591528 208.812522 
L 252.916102 224.631516 
L 253.078389 227.805823 
L 253.240675 234.649289 
L 253.321819 234.95122 
L 253.402962 241.004898 
L 253.484105 240.669614 
L 253.565249 239.675847 
L 253.646392 245.568092 
L 253.727535 243.765353 
L 253.808679 241.342258 
L 253.889822 246.681688 
L 254.052109 239.675847 
L 254.133252 244.120839 
L 254.295539 234.95122 
L 254.376682 238.377716 
L 254.538969 227.805823 
L 254.620112 230.287893 
L 255.025829 208.812522 
L 255.106972 209.876065 
L 255.512689 186.353768 
L 255.593832 186.521796 
L 255.674976 186.353768 
L 255.918406 198.629152 
L 255.999549 198.440159 
L 256.161836 191.865724 
L 256.242979 190.985315 
L 256.648696 167.785523 
L 256.729839 168.216709 
L 257.135556 144.14605 
L 257.216699 144.025025 
L 257.297843 137.975999 
L 257.378986 138.092372 
L 257.541273 150.199728 
L 257.622416 150.073665 
L 257.70356 149.696128 
L 257.865846 143.060283 
L 258.028133 149.696128 
L 258.109276 150.073665 
L 258.271563 162.169572 
L 258.352706 161.757882 
L 258.43385 161.074535 
L 258.596136 154.163464 
L 258.758423 161.074535 
L 258.839566 161.757882 
L 259.001853 173.810578 
L 259.082997 173.059939 
L 259.16414 172.016711 
L 259.326427 164.807053 
L 259.488713 172.016711 
L 259.569857 173.059939 
L 259.732143 185.018743 
L 259.813287 183.863693 
L 259.89443 182.395962 
L 260.056717 174.869321 
L 260.219003 182.395962 
L 260.300147 183.863693 
L 260.462433 195.648185 
L 260.543577 194.009865 
L 260.62472 192.042705 
L 260.787007 184.192484 
L 261.192724 205.493607 
L 261.35501 200.732952 
L 261.517297 192.575474 
L 261.923014 214.269387 
L 262.247587 199.770947 
L 262.653304 221.593443 
L 262.977877 205.493607 
L 263.383594 226.998452 
L 263.708168 209.44907 
L 264.113884 230.007461 
L 264.438458 211.387618 
L 264.600744 219.635632 
L 264.844174 230.287893 
L 265.168748 211.170023 
L 265.249891 213.149077 
L 265.493321 226.465451 
L 265.574465 227.805823 
L 265.899038 208.812522 
L 265.980181 209.876065 
L 266.223611 222.592064 
L 266.304755 222.843864 
L 266.629328 204.481265 
L 266.710471 204.68283 
L 266.872758 216.790186 
L 266.953902 216.557696 
L 267.035045 215.864298 
L 267.359618 198.440159 
L 267.440762 197.875376 
L 267.603048 209.876065 
L 267.684192 208.812522 
L 267.765335 207.345118 
L 267.927622 199.770947 
L 268.089908 207.345118 
L 268.171052 208.812522 
L 268.333338 215.864298 
L 268.414482 216.557696 
L 268.576769 222.843864 
L 268.657912 222.592064 
L 268.739055 228.622941 
L 268.820199 227.805823 
L 268.901342 226.465451 
L 268.982485 232.285746 
L 269.063629 230.287893 
L 269.144772 227.805823 
L 269.225915 233.16157 
L 269.388202 226.465451 
L 269.469345 231.13652 
L 269.631632 222.592064 
L 269.712775 226.465451 
L 269.875062 216.557696 
L 269.956205 219.635632 
L 270.118492 208.812522 
L 270.199636 211.170023 
L 270.605352 189.765059 
L 270.767639 191.865724 
L 270.929926 203.879229 
L 271.011069 202.884533 
L 271.092212 201.509645 
L 271.254499 194.009865 
L 271.335642 192.042705 
L 271.741359 170.688231 
L 271.822503 172.016711 
L 272.228219 149.069063 
L 272.309363 149.696128 
L 272.633936 131.926628 
L 272.715079 131.590887 
L 272.877366 143.662529 
L 272.958509 143.060283 
L 273.039653 142.221115 
L 273.20194 135.208372 
L 273.364226 142.221115 
L 273.44537 143.060283 
L 273.607656 155.073986 
L 273.6888 154.163464 
L 273.769943 153.001343 
L 273.93223 145.728277 
L 274.094516 153.001343 
L 274.17566 154.163464 
L 274.337946 166.075146 
L 274.41909 164.807053 
L 274.500233 163.273677 
L 274.66252 155.727991 
L 274.824807 163.273677 
L 274.90595 164.807053 
L 275.068237 176.552099 
L 275.14938 174.869321 
L 275.230523 172.910363 
L 275.39281 165.087785 
L 275.798527 186.353768 
L 275.960813 181.749717 
L 276.1231 173.660081 
L 276.528817 195.281799 
L 276.85339 181.267432 
L 277.259107 203.082616 
L 277.58368 187.705328 
L 277.989397 209.44907 
L 278.313971 192.753678 
L 278.719687 214.044092 
L 279.044261 196.200299 
L 279.449978 216.557696 
L 279.774551 197.875376 
L 279.936838 206.106516 
L 280.180268 216.790186 
L 280.504841 197.687839 
L 280.585984 199.770947 
L 280.829414 213.149077 
L 280.910558 214.721862 
L 281.235131 195.648185 
L 281.316275 196.941262 
L 281.559705 209.876065 
L 281.640848 210.52058 
L 281.965421 191.865724 
L 282.046565 192.397579 
L 282.289995 204.68283 
L 282.371138 204.481265 
L 282.695712 186.521796 
L 282.776855 186.353768 
L 282.939142 198.440159 
L 283.020285 197.875376 
L 283.101428 196.941262 
L 283.263715 189.765059 
L 283.426002 196.941262 
L 283.507145 197.875376 
L 283.669432 204.481265 
L 283.750575 204.68283 
L 283.831718 210.736508 
L 283.912862 210.52058 
L 283.994005 209.876065 
L 284.075148 215.864298 
L 284.156292 214.721862 
L 284.237435 213.149077 
L 284.318579 218.914357 
L 284.399722 216.790186 
L 284.480865 214.269387 
L 284.562009 219.635632 
L 284.724295 213.149077 
L 284.805439 217.963096 
L 284.967725 209.876065 
L 285.048869 214.044092 
L 285.211155 204.68283 
L 285.292299 208.180614 
L 285.454585 197.875376 
L 285.535729 200.732952 
L 285.698015 189.765059 
L 285.860302 194.009865 
L 286.022589 205.493607 
L 286.184876 200.732952 
L 286.590592 179.043179 
L 286.671736 181.749717 
L 286.834022 170.688231 
L 286.915166 172.910363 
L 287.320883 151.593717 
L 287.402026 153.001343 
L 287.807743 130.254747 
L 287.888886 131.032843 
L 288.051173 124.26413 
L 288.213459 136.240595 
L 288.294603 135.208372 
L 288.375746 133.955724 
L 288.538033 126.63487 
L 288.700319 133.955724 
L 288.781463 135.208372 
L 288.94375 147.08026 
L 289.024893 145.728277 
L 289.106036 144.14605 
L 289.268323 136.58616 
L 289.43061 144.14605 
L 289.511753 145.728277 
L 289.67404 157.442903 
L 289.755183 155.727991 
L 289.836326 153.775032 
L 289.998613 145.973183 
L 290.40433 167.212863 
L 290.566617 162.720477 
L 290.728903 154.683042 
L 291.13462 176.244373 
L 291.459193 162.582536 
L 291.86491 184.357245 
L 292.189484 169.519121 
L 292.5952 191.336586 
L 292.919774 175.325923 
L 293.32549 196.941262 
L 293.650064 179.832644 
L 294.055781 200.926527 
L 294.380354 182.88308 
L 294.786071 203.082616 
L 295.110644 184.357245 
L 295.272931 192.575474 
L 295.516361 203.281124 
L 295.840934 184.192484 
L 295.922078 186.353768 
L 296.246651 201.509645 
L 296.571224 182.395962 
L 296.652368 183.863693 
L 296.895798 196.941262 
L 296.976941 197.875376 
L 297.301515 179.043179 
L 297.382658 179.832644 
L 297.626088 192.397579 
L 297.707231 192.575474 
L 298.031805 174.263193 
L 298.112948 174.41444 
L 298.275235 186.521796 
L 298.356378 186.353768 
L 298.437522 185.851229 
L 298.599808 179.043179 
L 298.762095 185.851229 
L 298.843238 186.353768 
L 299.005525 192.575474 
L 299.086668 192.397579 
L 299.167812 198.440159 
L 299.248955 197.875376 
L 299.330098 196.941262 
L 299.411242 202.884533 
L 299.492385 201.509645 
L 299.573528 199.770947 
L 299.654672 205.493607 
L 299.816958 200.732952 
L 299.898102 206.106516 
L 300.060389 199.770947 
L 300.141532 204.68283 
L 300.303819 196.941262 
L 300.384962 201.314871 
L 300.547249 192.397579 
L 300.628392 196.200299 
L 300.790679 186.353768 
L 301.115252 203.082616 
L 301.196395 199.770947 
L 301.926686 167.785523 
L 302.007829 170.835141 
L 302.170116 160.123645 
L 302.251259 162.720477 
L 302.413546 151.593717 
L 302.494689 153.775032 
L 302.900406 132.487732 
L 302.981549 133.955724 
L 303.306123 117.341103 
L 303.387266 116.213255 
L 303.549553 128.05154 
L 303.630696 126.63487 
L 303.711839 125.01488 
L 303.874126 117.443989 
L 304.036413 125.01488 
L 304.117556 126.63487 
L 304.279843 138.325379 
L 304.360986 136.58616 
L 304.442129 134.637777 
L 304.604416 126.852045 
L 305.010133 148.071308 
L 305.17242 143.662529 
L 305.334706 135.666315 
L 305.740423 157.177686 
L 306.064996 143.783264 
L 306.470713 165.510021 
L 306.795287 151.085255 
L 307.201003 172.910363 
L 307.525577 157.442903 
L 307.931294 179.200643 
L 308.255867 162.720477 
L 308.661584 184.192484 
L 308.986157 166.785041 
L 309.391874 187.705328 
L 309.716447 169.519121 
L 310.122164 189.591885 
L 310.446737 170.835141 
L 310.609024 179.043179 
L 310.852454 189.765059 
L 311.177028 170.688231 
L 311.258171 172.910363 
L 311.582744 188.216553 
L 311.907318 169.083493 
L 311.988461 170.688231 
L 312.231891 183.863693 
L 312.313034 185.018743 
L 312.637608 166.075146 
L 312.718751 167.070097 
L 312.962181 179.832644 
L 313.043325 180.308921 
L 313.367898 161.757882 
L 313.449041 162.169572 
L 313.692471 174.41444 
L 313.773615 174.263193 
L 313.935901 167.785523 
L 314.098188 174.263193 
L 314.179332 174.41444 
L 314.260475 180.468118 
L 314.341618 180.308921 
L 314.422762 179.832644 
L 314.503905 185.851229 
L 314.585048 185.018743 
L 314.666192 183.863693 
L 314.747335 189.765059 
L 314.828478 188.216553 
L 314.909622 186.353768 
L 314.990765 192.042705 
L 315.153052 187.196516 
L 315.234195 192.575474 
L 315.396482 186.353768 
L 315.477625 191.336586 
L 315.639912 183.863693 
L 315.721055 188.387503 
L 315.883342 179.832644 
L 316.207915 196.941262 
L 316.775919 167.070097 
L 316.857062 171.276913 
L 317.019349 162.169572 
L 317.100492 165.933634 
L 317.262779 156.121867 
L 317.343922 159.448507 
L 317.506209 149.069063 
L 317.587352 151.976246 
L 317.749639 141.148889 
L 317.830782 143.662529 
L 317.993069 132.487732 
L 318.074212 134.637777 
L 318.479929 113.373886 
L 318.561072 114.889425 
L 318.723359 107.531291 
L 318.885646 119.202236 
L 318.966789 117.443989 
L 319.047933 115.499214 
L 319.210219 107.726368 
L 319.615936 128.929326 
L 319.778223 124.585476 
L 319.940509 116.622559 
L 320.346226 138.092372 
L 320.589656 127.614368 
L 320.6708 124.907428 
L 321.076516 146.58721 
L 321.40109 132.487732 
L 321.806806 154.29318 
L 322.13138 139.260879 
L 322.537097 161.074535 
L 322.86167 145.117758 
L 323.267387 166.785041 
L 323.59196 149.94771 
L 323.997677 171.276913 
L 324.32225 153.64579 
L 324.727967 174.41444 
L 325.052541 156.121867 
L 325.458257 176.090807 
L 325.782831 157.310231 
L 325.945117 165.510021 
L 326.188547 176.244373 
L 326.513121 157.177686 
L 326.594264 159.448507 
L 326.918838 174.869321 
L 327.243411 155.727991 
L 327.324554 157.442903 
L 327.567984 170.688231 
L 327.649128 172.016711 
L 327.973701 153.001343 
L 328.054844 154.163464 
L 328.298275 167.070097 
L 328.379418 167.785523 
L 328.703991 149.069063 
L 328.785135 149.696128 
L 329.028565 162.169572 
L 329.109708 162.307084 
L 329.271995 156.121867 
L 329.434281 162.307084 
L 329.515425 162.169572 
L 329.596568 168.216709 
L 329.677711 167.785523 
L 329.758855 167.070097 
L 329.839998 173.059939 
L 329.921142 172.016711 
L 330.002285 170.688231 
L 330.083428 176.552099 
L 330.164572 174.869321 
L 330.245715 172.910363 
L 330.326858 178.572058 
L 330.489145 173.660081 
L 330.570288 179.043179 
L 330.732575 172.910363 
L 330.813718 177.946835 
L 330.976005 170.688231 
L 331.300578 187.705328 
L 331.868582 157.442903 
L 331.949725 162.169572 
L 332.112012 154.163464 
L 332.193155 158.508904 
L 332.355442 149.696128 
L 332.436585 153.64579 
L 332.598872 144.14605 
L 332.680015 147.698886 
L 332.842302 137.627392 
L 332.923446 140.793132 
L 333.085732 130.254747 
L 333.166876 133.050774 
L 333.329162 122.137044 
L 333.410306 124.585476 
L 333.572592 113.373886 
L 333.653736 115.499214 
L 333.978309 100.075125 
L 334.059452 98.301578 
L 334.221739 109.787049 
L 334.302882 107.726368 
L 334.384026 105.495074 
L 334.546313 97.559575 
L 334.952029 118.994474 
L 335.114316 114.079562 
L 335.276603 105.977903 
L 335.682319 127.614368 
L 336.006893 113.776794 
L 336.41261 135.551707 
L 336.737183 120.873229 
L 337.1429 142.700075 
L 337.467473 127.178332 
L 337.87319 148.943972 
L 338.197763 132.600185 
L 338.60348 154.163464 
L 338.928053 137.048085 
L 339.33377 158.241627 
L 339.658344 140.438191 
L 340.06406 161.074535 
L 340.388634 142.700075 
L 340.794351 162.582536 
L 341.118924 143.783264 
L 341.281211 151.976246 
L 341.524641 162.720477 
L 341.849214 143.662529 
L 341.930357 145.973183 
L 342.254931 161.484125 
L 342.579504 142.340715 
L 342.660648 144.14605 
L 342.904078 157.442903 
L 342.985221 158.910799 
L 343.309794 139.848422 
L 343.390938 141.148889 
L 343.634368 154.163464 
L 343.715511 155.073986 
L 344.040085 136.240595 
L 344.121228 137.048085 
L 344.364658 149.696128 
L 344.445801 150.073665 
L 344.526945 144.025025 
L 344.608088 144.14605 
L 344.689231 150.199728 
L 344.770375 150.073665 
L 344.851518 149.696128 
L 344.932661 155.727991 
L 345.013805 155.073986 
L 345.094948 154.163464 
L 345.176091 160.123645 
L 345.257235 158.910799 
L 345.338378 157.442903 
L 345.419521 163.273677 
L 345.500665 161.484125 
L 345.581808 159.448507 
L 345.662952 165.087785 
L 345.825238 160.123645 
L 345.906382 165.510021 
L 346.068668 159.448507 
L 346.393242 176.090807 
L 346.961245 145.973183 
L 347.042388 151.085255 
L 347.204675 144.14605 
L 347.285819 148.943972 
L 347.448105 141.148889 
L 347.529249 145.605975 
L 347.691535 137.048085 
L 347.772679 141.148889 
L 347.934965 131.926628 
L 348.016109 135.666315 
L 348.178395 125.876949 
L 348.259539 129.25969 
L 348.421825 118.994474 
L 348.502969 122.031374 
L 348.665256 111.372572 
L 348.746399 114.079562 
L 348.908686 103.099104 
L 348.989829 105.495074 
L 349.152116 94.254419 
L 349.233259 96.359718 
L 349.395546 88.59741 
L 349.557832 99.887678 
L 349.720119 95.075598 
L 349.882406 87.009314 
L 350.288123 108.606735 
L 350.612696 94.98419 
L 351.018413 116.725031 
L 351.342986 102.338671 
L 351.748703 124.157148 
L 352.073276 108.999343 
L 352.478993 130.810155 
L 352.803566 114.889425 
L 353.209283 136.58616 
L 353.533857 119.931338 
L 353.939573 141.386517 
L 354.264147 124.050234 
L 354.669863 145.117758 
L 354.994437 127.178332 
L 355.400154 147.698886 
L 355.724727 129.25969 
L 356.130444 149.069063 
L 356.455017 130.254747 
L 356.617304 138.442011 
L 356.860734 149.194261 
L 357.185307 130.14389 
L 357.266451 132.487732 
L 357.591024 148.071308 
L 357.915597 128.929326 
L 357.996741 130.810155 
L 358.240171 144.14605 
L 358.321314 145.728277 
L 358.645888 126.63487 
L 358.727031 128.05154 
L 358.970461 141.148889 
L 359.051604 142.221115 
L 359.376178 123.303689 
L 359.457321 124.26413 
L 359.700751 137.048085 
L 359.781895 137.627392 
L 359.863038 131.590887 
L 359.944181 131.926628 
L 360.025325 137.975999 
L 360.106468 137.627392 
L 360.187611 137.048085 
L 360.268755 143.060283 
L 360.349898 142.221115 
L 360.431041 141.148889 
L 360.512185 147.08026 
L 360.593328 145.728277 
L 360.674471 144.14605 
L 360.755615 149.94771 
L 360.836758 148.071308 
L 360.917901 145.973183 
L 360.999045 151.593717 
L 361.161331 146.58721 
L 361.485905 162.720477 
L 361.972765 135.666315 
L 362.053908 133.050774 
L 362.135052 138.442011 
L 362.297338 132.487732 
L 362.378482 137.627392 
L 362.540768 130.810155 
L 362.621912 135.666315 
L 362.784198 128.05154 
L 362.865342 132.600185 
L 363.027629 124.26413 
L 363.108772 128.489856 
L 363.271059 119.514339 
L 363.352202 123.41014 
L 363.514489 113.87766 
L 363.595632 117.443989 
L 363.757919 107.433828 
L 363.839062 110.677232 
L 364.001349 100.262751 
L 364.082492 103.19437 
L 364.244779 92.441468 
L 364.325922 95.075598 
L 364.488209 84.042118 
L 364.569352 86.394979 
L 364.731639 78.482431 
L 364.893926 89.573943 
L 365.218499 76.130909 
L 365.624216 97.8375 
L 365.948789 83.695769 
L 366.354506 105.495074 
L 366.679079 90.644561 
L 367.084796 112.470586 
L 367.409369 96.912598 
L 367.815086 118.68329 
L 368.13966 102.433561 
L 368.545376 124.050234 
L 368.86995 107.141743 
L 369.275667 128.489856 
L 369.60024 110.974914 
L 370.005957 131.926628 
L 370.33053 113.87766 
L 370.736247 134.29639 
L 371.06082 115.804884 
L 371.466537 135.551707 
L 371.79111 116.725031 
L 371.953397 124.907428 
L 372.196827 135.666315 
L 372.521401 116.622559 
L 372.683687 124.585476 
L 372.927117 134.637777 
L 373.251691 115.499214 
L 373.332834 117.443989 
L 373.576264 130.810155 
L 373.657407 132.487732 
L 373.981981 113.373886 
L 374.063124 114.889425 
L 374.306554 128.05154 
L 374.387698 129.25969 
L 374.712271 110.281067 
L 374.793414 111.372572 
L 375.036844 124.26413 
L 375.117988 125.01488 
L 375.199131 118.994474 
L 375.280274 119.514339 
L 375.361418 125.553161 
L 375.442561 125.01488 
L 375.523705 124.26413 
L 375.604848 130.254747 
L 375.685991 129.25969 
L 375.767135 128.05154 
L 375.848278 133.955724 
L 375.929421 132.487732 
L 376.010565 130.810155 
L 376.091708 136.58616 
L 376.172851 134.637777 
L 376.253995 132.487732 
L 376.578568 148.071308 
L 377.065428 121.188324 
L 377.146572 118.994474 
L 377.227715 124.585476 
L 377.390002 119.514339 
L 377.471145 124.907428 
L 377.633432 118.994474 
L 377.714575 124.157148 
L 377.876862 117.443989 
L 377.958005 122.348576 
L 378.120292 114.889425 
L 378.201435 119.514339 
L 378.363722 111.372572 
L 378.444865 115.702936 
L 378.607152 106.947271 
L 378.688295 110.974914 
L 378.850582 101.675739 
L 378.931725 105.398655 
L 379.094012 95.624925 
L 379.175155 99.046383 
L 379.337442 88.86328 
L 379.418585 91.990753 
L 379.580872 81.458162 
L 379.662015 84.302253 
L 379.824302 73.473951 
L 379.905445 76.047392 
L 380.067732 68.011434 
L 380.230019 78.905032 
L 380.554592 64.97081 
L 380.960309 86.745806 
L 381.284882 72.157325 
L 381.690599 93.981437 
L 382.015173 78.735893 
L 382.420889 100.544529 
L 382.745463 84.649598 
L 383.151179 106.365054 
L 383.475753 89.841075 
L 383.88147 111.372572 
L 384.206043 94.254419 
L 384.61176 115.499214 
L 384.936333 97.8375 
L 385.34205 118.68329 
L 385.666623 100.544529 
L 386.07234 120.873229 
L 386.396913 102.338671 
L 386.80263 122.031374 
L 387.127204 103.19437 
L 387.28949 111.372572 
L 387.53292 122.137044 
L 387.857494 103.099104 
L 388.019781 111.074248 
L 388.263211 121.188324 
L 388.587784 102.054279 
L 388.668927 104.053893 
L 388.993501 119.202236 
L 389.318074 100.075125 
L 389.399217 101.675739 
L 389.642648 114.889425 
L 389.723791 116.213255 
L 390.048364 97.189615 
L 390.129508 98.394524 
L 390.372938 111.372572 
L 390.454081 112.270458 
L 390.535224 106.268192 
L 390.616368 106.947271 
L 390.697511 112.971868 
L 390.778654 112.270458 
L 390.859798 111.372572 
L 390.940941 117.341103 
L 391.022084 116.213255 
L 391.103228 114.889425 
L 391.184371 120.768324 
L 391.265515 119.202236 
L 391.346658 117.443989 
L 391.590088 130.810155 
L 391.671231 132.487732 
L 392.076948 107.531291 
L 392.239235 104.053893 
L 392.320378 109.787049 
L 392.401521 107.726368 
L 392.482665 105.495074 
L 392.563808 111.074248 
L 392.726095 105.977903 
L 392.807238 111.372572 
L 392.969525 105.495074 
L 393.050668 110.677232 
L 393.212955 104.053893 
L 393.294098 108.999343 
L 393.456385 101.675739 
L 393.537528 106.365054 
L 393.699815 98.394524 
L 393.780958 102.81359 
L 393.943245 94.254419 
L 394.024388 98.394524 
L 394.186675 89.307157 
L 394.267818 93.164699 
L 394.430105 83.60927 
L 394.511249 87.185172 
L 394.673535 77.219536 
L 394.754679 80.518494 
L 394.916965 70.196813 
L 394.998109 73.226489 
L 395.160395 62.598358 
L 395.241539 65.368597 
L 395.403825 57.231354 
L 395.566112 67.930897 
L 395.890686 53.568 
L 396.296402 75.380397 
L 396.620976 60.40567 
L 397.026692 82.230062 
L 397.351266 66.64616 
L 397.756983 88.420354 
L 398.081556 72.239387 
L 398.487273 93.890525 
L 398.487273 93.890525 
" style="fill:none;stroke:#1f77b4;stroke-linecap:square;stroke-width:1.5;"/>
   </g>
   <g id="patch_3">
    <path d="M 57.6 307.584 
L 57.6 41.472 
" style="fill:none;stroke:#000000;stroke-linecap:square;stroke-linejoin:miter;stroke-width:0.8;"/>
   </g>
   <g id="patch_4">
    <path d="M 414.72 307.584 
L 414.72 41.472 
" style="fill:none;stroke:#000000;stroke-linecap:square;stroke-linejoin:miter;stroke-width:0.8;"/>
   </g>
   <g id="patch_5">
    <path d="M 57.6 307.584 
L 414.72 307.584 
" style="fill:none;stroke:#000000;stroke-linecap:square;stroke-linejoin:miter;stroke-width:0.8;"/>
   </g>
   <g id="patch_6">
    <path d="M 57.6 41.472 
L 414.72 41.472 
" style="fill:none;stroke:#000000;stroke-linecap:square;stroke-linejoin:miter;stroke-width:0.8;"/>
   </g>
   <g id="text_21">
    <!-- Distance to Number of Steps, Golden Ratio Pattern with 4001 Steps -->
    <defs>
     <path d="M 11.71875 12.40625 
L 22.015625 12.40625 
L 22.015625 4 
L 14.015625 -11.625 
L 7.71875 -11.625 
L 11.71875 4 
z
" id="DejaVuSans-2c"/>
     <path d="M 59.515625 10.40625 
L 59.515625 29.984375 
L 43.40625 29.984375 
L 43.40625 38.09375 
L 69.28125 38.09375 
L 69.28125 6.78125 
Q 63.578125 2.734375 56.6875 0.65625 
Q 49.8125 -1.421875 42 -1.421875 
Q 24.90625 -1.421875 15.25 8.5625 
Q 5.609375 18.5625 5.609375 36.375 
Q 5.609375 54.25 15.25 64.234375 
Q 24.90625 74.21875 42 74.21875 
Q 49.125 74.21875 55.546875 72.453125 
Q 61.96875 70.703125 67.390625 67.28125 
L 67.390625 56.78125 
Q 61.921875 61.421875 55.765625 63.765625 
Q 49.609375 66.109375 42.828125 66.109375 
Q 29.4375 66.109375 22.71875 58.640625 
Q 16.015625 51.171875 16.015625 36.375 
Q 16.015625 21.625 22.71875 14.15625 
Q 29.4375 6.6875 42.828125 6.6875 
Q 48.046875 6.6875 52.140625 7.59375 
Q 56.25 8.5 59.515625 10.40625 
z
" id="DejaVuSans-47"/>
     <path d="M 9.421875 75.984375 
L 18.40625 75.984375 
L 18.40625 0 
L 9.421875 0 
z
" id="DejaVuSans-6c"/>
     <path d="M 45.40625 46.390625 
L 45.40625 75.984375 
L 54.390625 75.984375 
L 54.390625 0 
L 45.40625 0 
L 45.40625 8.203125 
Q 42.578125 3.328125 38.25 0.953125 
Q 33.9375 -1.421875 27.875 -1.421875 
Q 17.96875 -1.421875 11.734375 6.484375 
Q 5.515625 14.40625 5.515625 27.296875 
Q 5.515625 40.1875 11.734375 48.09375 
Q 17.96875 56 27.875 56 
Q 33.9375 56 38.25 53.625 
Q 42.578125 51.265625 45.40625 46.390625 
z
M 14.796875 27.296875 
Q 14.796875 17.390625 18.875 11.75 
Q 22.953125 6.109375 30.078125 6.109375 
Q 37.203125 6.109375 41.296875 11.75 
Q 45.40625 17.390625 45.40625 27.296875 
Q 45.40625 37.203125 41.296875 42.84375 
Q 37.203125 48.484375 30.078125 48.484375 
Q 22.953125 48.484375 18.875 42.84375 
Q 14.796875 37.203125 14.796875 27.296875 
z
" id="DejaVuSans-64"/>
     <path d="M 44.390625 34.1875 
Q 47.5625 33.109375 50.5625 29.59375 
Q 53.5625 26.078125 56.59375 19.921875 
L 66.609375 0 
L 56 0 
L 46.6875 18.703125 
Q 43.0625 26.03125 39.671875 28.421875 
Q 36.28125 30.8125 30.421875 30.8125 
L 19.671875 30.8125 
L 19.671875 0 
L 9.8125 0 
L 9.8125 72.90625 
L 32.078125 72.90625 
Q 44.578125 72.90625 50.734375 67.671875 
Q 56.890625 62.453125 56.890625 51.90625 
Q 56.890625 45.015625 53.6875 40.46875 
Q 50.484375 35.9375 44.390625 34.1875 
z
M 19.671875 64.796875 
L 19.671875 38.921875 
L 32.078125 38.921875 
Q 39.203125 38.921875 42.84375 42.21875 
Q 46.484375 45.515625 46.484375 51.90625 
Q 46.484375 58.296875 42.84375 61.546875 
Q 39.203125 64.796875 32.078125 64.796875 
z
" id="DejaVuSans-52"/>
     <path d="M 19.671875 64.796875 
L 19.671875 37.40625 
L 32.078125 37.40625 
Q 38.96875 37.40625 42.71875 40.96875 
Q 46.484375 44.53125 46.484375 51.125 
Q 46.484375 57.671875 42.71875 61.234375 
Q 38.96875 64.796875 32.078125 64.796875 
z
M 9.8125 72.90625 
L 32.078125 72.90625 
Q 44.34375 72.90625 50.609375 67.359375 
Q 56.890625 61.8125 56.890625 51.125 
Q 56.890625 40.328125 50.609375 34.8125 
Q 44.34375 29.296875 32.078125 29.296875 
L 19.671875 29.296875 
L 19.671875 0 
L 9.8125 0 
z
" id="DejaVuSans-50"/>
     <path d="M 4.203125 54.6875 
L 13.1875 54.6875 
L 24.421875 12.015625 
L 35.59375 54.6875 
L 46.1875 54.6875 
L 57.421875 12.015625 
L 68.609375 54.6875 
L 77.59375 54.6875 
L 63.28125 0 
L 52.6875 0 
L 40.921875 44.828125 
L 29.109375 0 
L 18.5 0 
z
" id="DejaVuSans-77"/>
     <path d="M 54.890625 33.015625 
L 54.890625 0 
L 45.90625 0 
L 45.90625 32.71875 
Q 45.90625 40.484375 42.875 44.328125 
Q 39.84375 48.1875 33.796875 48.1875 
Q 26.515625 48.1875 22.3125 43.546875 
Q 18.109375 38.921875 18.109375 30.90625 
L 18.109375 0 
L 9.078125 0 
L 9.078125 75.984375 
L 18.109375 75.984375 
L 18.109375 46.1875 
Q 21.34375 51.125 25.703125 53.5625 
Q 30.078125 56 35.796875 56 
Q 45.21875 56 50.046875 50.171875 
Q 54.890625 44.34375 54.890625 33.015625 
z
" id="DejaVuSans-68"/>
    </defs>
    <g transform="translate(32.685 35.472)scale(0.12 -0.12)">
     <use xlink:href="#DejaVuSans-44"/>
     <use x="77.001953" xlink:href="#DejaVuSans-69"/>
     <use x="104.785156" xlink:href="#DejaVuSans-73"/>
     <use x="156.884766" xlink:href="#DejaVuSans-74"/>
     <use x="196.09375" xlink:href="#DejaVuSans-61"/>
     <use x="257.373047" xlink:href="#DejaVuSans-6e"/>
     <use x="320.751953" xlink:href="#DejaVuSans-63"/>
     <use x="375.732422" xlink:href="#DejaVuSans-65"/>
     <use x="437.255859" xlink:href="#DejaVuSans-20"/>
     <use x="469.042969" xlink:href="#DejaVuSans-74"/>
     <use x="508.251953" xlink:href="#DejaVuSans-6f"/>
     <use x="569.433594" xlink:href="#DejaVuSans-20"/>
     <use x="601.220703" xlink:href="#DejaVuSans-4e"/>
     <use x="676.025391" xlink:href="#DejaVuSans-75"/>
     <use x="739.404297" xlink:href="#DejaVuSans-6d"/>
     <use x="836.816406" xlink:href="#DejaVuSans-62"/>
     <use x="900.292969" xlink:href="#DejaVuSans-65"/>
     <use x="961.816406" xlink:href="#DejaVuSans-72"/>
     <use x="1002.929688" xlink:href="#DejaVuSans-20"/>
     <use x="1034.716797" xlink:href="#DejaVuSans-6f"/>
     <use x="1095.898438" xlink:href="#DejaVuSans-66"/>
     <use x="1131.103516" xlink:href="#DejaVuSans-20"/>
     <use x="1162.890625" xlink:href="#DejaVuSans-53"/>
     <use x="1226.367188" xlink:href="#DejaVuSans-74"/>
     <use x="1265.576172" xlink:href="#DejaVuSans-65"/>
     <use x="1327.099609" xlink:href="#DejaVuSans-70"/>
     <use x="1390.576172" xlink:href="#DejaVuSans-73"/>
     <use x="1442.675781" xlink:href="#DejaVuSans-2c"/>
     <use x="1474.462891" xlink:href="#DejaVuSans-20"/>
     <use x="1506.25" xlink:href="#DejaVuSans-47"/>
     <use x="1583.740234" xlink:href="#DejaVuSans-6f"/>
     <use x="1644.921875" xlink:href="#DejaVuSans-6c"/>
     <use x="1672.705078" xlink:href="#DejaVuSans-64"/>
     <use x="1736.181641" xlink:href="#DejaVuSans-65"/>
     <use x="1797.705078" xlink:href="#DejaVuSans-6e"/>
     <use x="1861.083984" xlink:href="#DejaVuSans-20"/>
     <use x="1892.871094" xlink:href="#DejaVuSans-52"/>
     <use x="1962.322266" xlink:href="#DejaVuSans-61"/>
     <use x="2023.601562" xlink:href="#DejaVuSans-74"/>
     <use x="2062.810547" xlink:href="#DejaVuSans-69"/>
     <use x="2090.59375" xlink:href="#DejaVuSans-6f"/>
     <use x="2151.775391" xlink:href="#DejaVuSans-20"/>
     <use x="2183.5625" xlink:href="#DejaVuSans-50"/>
     <use x="2243.802734" xlink:href="#DejaVuSans-61"/>
     <use x="2305.082031" xlink:href="#DejaVuSans-74"/>
     <use x="2344.291016" xlink:href="#DejaVuSans-74"/>
     <use x="2383.5" xlink:href="#DejaVuSans-65"/>
     <use x="2445.023438" xlink:href="#DejaVuSans-72"/>
     <use x="2486.121094" xlink:href="#DejaVuSans-6e"/>
     <use x="2549.5" xlink:href="#DejaVuSans-20"/>
     <use x="2581.287109" xlink:href="#DejaVuSans-77"/>
     <use x="2663.074219" xlink:href="#DejaVuSans-69"/>
     <use x="2690.857422" xlink:href="#DejaVuSans-74"/>
     <use x="2730.066406" xlink:href="#DejaVuSans-68"/>
     <use x="2793.445312" xlink:href="#DejaVuSans-20"/>
     <use x="2825.232422" xlink:href="#DejaVuSans-34"/>
     <use x="2888.855469" xlink:href="#DejaVuSans-30"/>
     <use x="2952.478516" xlink:href="#DejaVuSans-30"/>
     <use x="3016.101562" xlink:href="#DejaVuSans-31"/>
     <use x="3079.724609" xlink:href="#DejaVuSans-20"/>
     <use x="3111.511719" xlink:href="#DejaVuSans-53"/>
     <use x="3174.988281" xlink:href="#DejaVuSans-74"/>
     <use x="3214.197266" xlink:href="#DejaVuSans-65"/>
     <use x="3275.720703" xlink:href="#DejaVuSans-70"/>
     <use x="3339.197266" xlink:href="#DejaVuSans-73"/>
    </g>
   </g>
  </g>
 </g>
 <defs>
  <clipPath id="p22255a3f3b">
   <rect height="266.112" width="357.12" x="57.6" y="41.472"/>
  </clipPath>
 </defs>
</svg>
