<?xml version="1.0" encoding="utf-8" standalone="no"?>
<!DOCTYPE svg PUBLIC "-//W3C//DTD SVG 1.1//EN"
  "http://www.w3.org/Graphics/SVG/1.1/DTD/svg11.dtd">
<!-- Created with matplotlib (http://matplotlib.org/) -->
<svg height="345.6pt" version="1.1" viewBox="0 0 460.8 345.6" width="460.8pt" xmlns="http://www.w3.org/2000/svg" xmlns:xlink="http://www.w3.org/1999/xlink">
 <defs>
  <style type="text/css">
*{stroke-linecap:butt;stroke-linejoin:round;}
  </style>
 </defs>
 <g id="figure_1">
  <g id="patch_1">
   <path d="M 0 345.6 
L 460.8 345.6 
L 460.8 0 
L 0 0 
z
" style="fill:#ffffff;"/>
  </g>
  <g id="axes_1">
   <g id="patch_2">
    <path d="M 57.6 307.584 
L 414.72 307.584 
L 414.72 41.472 
L 57.6 41.472 
z
" style="fill:#ffffff;"/>
   </g>
   <g id="matplotlib.axis_1">
    <g id="xtick_1">
     <g id="line2d_1">
      <defs>
       <path d="M 0 0 
L 0 3.5 
" id="md73a7ee55e" style="stroke:#000000;stroke-width:0.8;"/>
      </defs>
      <g>
       <use style="stroke:#000000;stroke-width:0.8;" x="73.832727" xlink:href="#md73a7ee55e" y="307.584"/>
      </g>
     </g>
     <g id="text_1">
      <!-- 0 -->
      <defs>
       <path d="M 31.78125 66.40625 
Q 24.171875 66.40625 20.328125 58.90625 
Q 16.5 51.421875 16.5 36.375 
Q 16.5 21.390625 20.328125 13.890625 
Q 24.171875 6.390625 31.78125 6.390625 
Q 39.453125 6.390625 43.28125 13.890625 
Q 47.125 21.390625 47.125 36.375 
Q 47.125 51.421875 43.28125 58.90625 
Q 39.453125 66.40625 31.78125 66.40625 
z
M 31.78125 74.21875 
Q 44.046875 74.21875 50.515625 64.515625 
Q 56.984375 54.828125 56.984375 36.375 
Q 56.984375 17.96875 50.515625 8.265625 
Q 44.046875 -1.421875 31.78125 -1.421875 
Q 19.53125 -1.421875 13.0625 8.265625 
Q 6.59375 17.96875 6.59375 36.375 
Q 6.59375 54.828125 13.0625 64.515625 
Q 19.53125 74.21875 31.78125 74.21875 
z
" id="DejaVuSans-30"/>
      </defs>
      <g transform="translate(70.651477 322.182437)scale(0.1 -0.1)">
       <use xlink:href="#DejaVuSans-30"/>
      </g>
     </g>
    </g>
    <g id="xtick_2">
     <g id="line2d_2">
      <g>
       <use style="stroke:#000000;stroke-width:0.8;" x="114.394265" xlink:href="#md73a7ee55e" y="307.584"/>
      </g>
     </g>
     <g id="text_2">
      <!-- 250 -->
      <defs>
       <path d="M 19.1875 8.296875 
L 53.609375 8.296875 
L 53.609375 0 
L 7.328125 0 
L 7.328125 8.296875 
Q 12.9375 14.109375 22.625 23.890625 
Q 32.328125 33.6875 34.8125 36.53125 
Q 39.546875 41.84375 41.421875 45.53125 
Q 43.3125 49.21875 43.3125 52.78125 
Q 43.3125 58.59375 39.234375 62.25 
Q 35.15625 65.921875 28.609375 65.921875 
Q 23.96875 65.921875 18.8125 64.3125 
Q 13.671875 62.703125 7.8125 59.421875 
L 7.8125 69.390625 
Q 13.765625 71.78125 18.9375 73 
Q 24.125 74.21875 28.421875 74.21875 
Q 39.75 74.21875 46.484375 68.546875 
Q 53.21875 62.890625 53.21875 53.421875 
Q 53.21875 48.921875 51.53125 44.890625 
Q 49.859375 40.875 45.40625 35.40625 
Q 44.1875 33.984375 37.640625 27.21875 
Q 31.109375 20.453125 19.1875 8.296875 
z
" id="DejaVuSans-32"/>
       <path d="M 10.796875 72.90625 
L 49.515625 72.90625 
L 49.515625 64.59375 
L 19.828125 64.59375 
L 19.828125 46.734375 
Q 21.96875 47.46875 24.109375 47.828125 
Q 26.265625 48.1875 28.421875 48.1875 
Q 40.625 48.1875 47.75 41.5 
Q 54.890625 34.8125 54.890625 23.390625 
Q 54.890625 11.625 47.5625 5.09375 
Q 40.234375 -1.421875 26.90625 -1.421875 
Q 22.3125 -1.421875 17.546875 -0.640625 
Q 12.796875 0.140625 7.71875 1.703125 
L 7.71875 11.625 
Q 12.109375 9.234375 16.796875 8.0625 
Q 21.484375 6.890625 26.703125 6.890625 
Q 35.15625 6.890625 40.078125 11.328125 
Q 45.015625 15.765625 45.015625 23.390625 
Q 45.015625 31 40.078125 35.4375 
Q 35.15625 39.890625 26.703125 39.890625 
Q 22.75 39.890625 18.8125 39.015625 
Q 14.890625 38.140625 10.796875 36.28125 
z
" id="DejaVuSans-35"/>
      </defs>
      <g transform="translate(104.850515 322.182437)scale(0.1 -0.1)">
       <use xlink:href="#DejaVuSans-32"/>
       <use x="63.623047" xlink:href="#DejaVuSans-35"/>
       <use x="127.246094" xlink:href="#DejaVuSans-30"/>
      </g>
     </g>
    </g>
    <g id="xtick_3">
     <g id="line2d_3">
      <g>
       <use style="stroke:#000000;stroke-width:0.8;" x="154.955802" xlink:href="#md73a7ee55e" y="307.584"/>
      </g>
     </g>
     <g id="text_3">
      <!-- 500 -->
      <g transform="translate(145.412052 322.182437)scale(0.1 -0.1)">
       <use xlink:href="#DejaVuSans-35"/>
       <use x="63.623047" xlink:href="#DejaVuSans-30"/>
       <use x="127.246094" xlink:href="#DejaVuSans-30"/>
      </g>
     </g>
    </g>
    <g id="xtick_4">
     <g id="line2d_4">
      <g>
       <use style="stroke:#000000;stroke-width:0.8;" x="195.51734" xlink:href="#md73a7ee55e" y="307.584"/>
      </g>
     </g>
     <g id="text_4">
      <!-- 750 -->
      <defs>
       <path d="M 8.203125 72.90625 
L 55.078125 72.90625 
L 55.078125 68.703125 
L 28.609375 0 
L 18.3125 0 
L 43.21875 64.59375 
L 8.203125 64.59375 
z
" id="DejaVuSans-37"/>
      </defs>
      <g transform="translate(185.97359 322.182437)scale(0.1 -0.1)">
       <use xlink:href="#DejaVuSans-37"/>
       <use x="63.623047" xlink:href="#DejaVuSans-35"/>
       <use x="127.246094" xlink:href="#DejaVuSans-30"/>
      </g>
     </g>
    </g>
    <g id="xtick_5">
     <g id="line2d_5">
      <g>
       <use style="stroke:#000000;stroke-width:0.8;" x="236.078877" xlink:href="#md73a7ee55e" y="307.584"/>
      </g>
     </g>
     <g id="text_5">
      <!-- 1000 -->
      <defs>
       <path d="M 12.40625 8.296875 
L 28.515625 8.296875 
L 28.515625 63.921875 
L 10.984375 60.40625 
L 10.984375 69.390625 
L 28.421875 72.90625 
L 38.28125 72.90625 
L 38.28125 8.296875 
L 54.390625 8.296875 
L 54.390625 0 
L 12.40625 0 
z
" id="DejaVuSans-31"/>
      </defs>
      <g transform="translate(223.353877 322.182437)scale(0.1 -0.1)">
       <use xlink:href="#DejaVuSans-31"/>
       <use x="63.623047" xlink:href="#DejaVuSans-30"/>
       <use x="127.246094" xlink:href="#DejaVuSans-30"/>
       <use x="190.869141" xlink:href="#DejaVuSans-30"/>
      </g>
     </g>
    </g>
    <g id="xtick_6">
     <g id="line2d_6">
      <g>
       <use style="stroke:#000000;stroke-width:0.8;" x="276.640414" xlink:href="#md73a7ee55e" y="307.584"/>
      </g>
     </g>
     <g id="text_6">
      <!-- 1250 -->
      <g transform="translate(263.915414 322.182437)scale(0.1 -0.1)">
       <use xlink:href="#DejaVuSans-31"/>
       <use x="63.623047" xlink:href="#DejaVuSans-32"/>
       <use x="127.246094" xlink:href="#DejaVuSans-35"/>
       <use x="190.869141" xlink:href="#DejaVuSans-30"/>
      </g>
     </g>
    </g>
    <g id="xtick_7">
     <g id="line2d_7">
      <g>
       <use style="stroke:#000000;stroke-width:0.8;" x="317.201952" xlink:href="#md73a7ee55e" y="307.584"/>
      </g>
     </g>
     <g id="text_7">
      <!-- 1500 -->
      <g transform="translate(304.476952 322.182437)scale(0.1 -0.1)">
       <use xlink:href="#DejaVuSans-31"/>
       <use x="63.623047" xlink:href="#DejaVuSans-35"/>
       <use x="127.246094" xlink:href="#DejaVuSans-30"/>
       <use x="190.869141" xlink:href="#DejaVuSans-30"/>
      </g>
     </g>
    </g>
    <g id="xtick_8">
     <g id="line2d_8">
      <g>
       <use style="stroke:#000000;stroke-width:0.8;" x="357.763489" xlink:href="#md73a7ee55e" y="307.584"/>
      </g>
     </g>
     <g id="text_8">
      <!-- 1750 -->
      <g transform="translate(345.038489 322.182437)scale(0.1 -0.1)">
       <use xlink:href="#DejaVuSans-31"/>
       <use x="63.623047" xlink:href="#DejaVuSans-37"/>
       <use x="127.246094" xlink:href="#DejaVuSans-35"/>
       <use x="190.869141" xlink:href="#DejaVuSans-30"/>
      </g>
     </g>
    </g>
    <g id="xtick_9">
     <g id="line2d_9">
      <g>
       <use style="stroke:#000000;stroke-width:0.8;" x="398.325027" xlink:href="#md73a7ee55e" y="307.584"/>
      </g>
     </g>
     <g id="text_9">
      <!-- 2000 -->
      <g transform="translate(385.600027 322.182437)scale(0.1 -0.1)">
       <use xlink:href="#DejaVuSans-32"/>
       <use x="63.623047" xlink:href="#DejaVuSans-30"/>
       <use x="127.246094" xlink:href="#DejaVuSans-30"/>
       <use x="190.869141" xlink:href="#DejaVuSans-30"/>
      </g>
     </g>
    </g>
    <g id="text_10">
     <!-- Number of Steps -->
     <defs>
      <path d="M 9.8125 72.90625 
L 23.09375 72.90625 
L 55.421875 11.921875 
L 55.421875 72.90625 
L 64.984375 72.90625 
L 64.984375 0 
L 51.703125 0 
L 19.390625 60.984375 
L 19.390625 0 
L 9.8125 0 
z
" id="DejaVuSans-4e"/>
      <path d="M 8.5 21.578125 
L 8.5 54.6875 
L 17.484375 54.6875 
L 17.484375 21.921875 
Q 17.484375 14.15625 20.5 10.265625 
Q 23.53125 6.390625 29.59375 6.390625 
Q 36.859375 6.390625 41.078125 11.03125 
Q 45.3125 15.671875 45.3125 23.6875 
L 45.3125 54.6875 
L 54.296875 54.6875 
L 54.296875 0 
L 45.3125 0 
L 45.3125 8.40625 
Q 42.046875 3.421875 37.71875 1 
Q 33.40625 -1.421875 27.6875 -1.421875 
Q 18.265625 -1.421875 13.375 4.4375 
Q 8.5 10.296875 8.5 21.578125 
z
M 31.109375 56 
z
" id="DejaVuSans-75"/>
      <path d="M 52 44.1875 
Q 55.375 50.25 60.0625 53.125 
Q 64.75 56 71.09375 56 
Q 79.640625 56 84.28125 50.015625 
Q 88.921875 44.046875 88.921875 33.015625 
L 88.921875 0 
L 79.890625 0 
L 79.890625 32.71875 
Q 79.890625 40.578125 77.09375 44.375 
Q 74.3125 48.1875 68.609375 48.1875 
Q 61.625 48.1875 57.5625 43.546875 
Q 53.515625 38.921875 53.515625 30.90625 
L 53.515625 0 
L 44.484375 0 
L 44.484375 32.71875 
Q 44.484375 40.625 41.703125 44.40625 
Q 38.921875 48.1875 33.109375 48.1875 
Q 26.21875 48.1875 22.15625 43.53125 
Q 18.109375 38.875 18.109375 30.90625 
L 18.109375 0 
L 9.078125 0 
L 9.078125 54.6875 
L 18.109375 54.6875 
L 18.109375 46.1875 
Q 21.1875 51.21875 25.484375 53.609375 
Q 29.78125 56 35.6875 56 
Q 41.65625 56 45.828125 52.96875 
Q 50 49.953125 52 44.1875 
z
" id="DejaVuSans-6d"/>
      <path d="M 48.6875 27.296875 
Q 48.6875 37.203125 44.609375 42.84375 
Q 40.53125 48.484375 33.40625 48.484375 
Q 26.265625 48.484375 22.1875 42.84375 
Q 18.109375 37.203125 18.109375 27.296875 
Q 18.109375 17.390625 22.1875 11.75 
Q 26.265625 6.109375 33.40625 6.109375 
Q 40.53125 6.109375 44.609375 11.75 
Q 48.6875 17.390625 48.6875 27.296875 
z
M 18.109375 46.390625 
Q 20.953125 51.265625 25.265625 53.625 
Q 29.59375 56 35.59375 56 
Q 45.5625 56 51.78125 48.09375 
Q 58.015625 40.1875 58.015625 27.296875 
Q 58.015625 14.40625 51.78125 6.484375 
Q 45.5625 -1.421875 35.59375 -1.421875 
Q 29.59375 -1.421875 25.265625 0.953125 
Q 20.953125 3.328125 18.109375 8.203125 
L 18.109375 0 
L 9.078125 0 
L 9.078125 75.984375 
L 18.109375 75.984375 
z
" id="DejaVuSans-62"/>
      <path d="M 56.203125 29.59375 
L 56.203125 25.203125 
L 14.890625 25.203125 
Q 15.484375 15.921875 20.484375 11.0625 
Q 25.484375 6.203125 34.421875 6.203125 
Q 39.59375 6.203125 44.453125 7.46875 
Q 49.3125 8.734375 54.109375 11.28125 
L 54.109375 2.78125 
Q 49.265625 0.734375 44.1875 -0.34375 
Q 39.109375 -1.421875 33.890625 -1.421875 
Q 20.796875 -1.421875 13.15625 6.1875 
Q 5.515625 13.8125 5.515625 26.8125 
Q 5.515625 40.234375 12.765625 48.109375 
Q 20.015625 56 32.328125 56 
Q 43.359375 56 49.78125 48.890625 
Q 56.203125 41.796875 56.203125 29.59375 
z
M 47.21875 32.234375 
Q 47.125 39.59375 43.09375 43.984375 
Q 39.0625 48.390625 32.421875 48.390625 
Q 24.90625 48.390625 20.390625 44.140625 
Q 15.875 39.890625 15.1875 32.171875 
z
" id="DejaVuSans-65"/>
      <path d="M 41.109375 46.296875 
Q 39.59375 47.171875 37.8125 47.578125 
Q 36.03125 48 33.890625 48 
Q 26.265625 48 22.1875 43.046875 
Q 18.109375 38.09375 18.109375 28.8125 
L 18.109375 0 
L 9.078125 0 
L 9.078125 54.6875 
L 18.109375 54.6875 
L 18.109375 46.1875 
Q 20.953125 51.171875 25.484375 53.578125 
Q 30.03125 56 36.53125 56 
Q 37.453125 56 38.578125 55.875 
Q 39.703125 55.765625 41.0625 55.515625 
z
" id="DejaVuSans-72"/>
      <path id="DejaVuSans-20"/>
      <path d="M 30.609375 48.390625 
Q 23.390625 48.390625 19.1875 42.75 
Q 14.984375 37.109375 14.984375 27.296875 
Q 14.984375 17.484375 19.15625 11.84375 
Q 23.34375 6.203125 30.609375 6.203125 
Q 37.796875 6.203125 41.984375 11.859375 
Q 46.1875 17.53125 46.1875 27.296875 
Q 46.1875 37.015625 41.984375 42.703125 
Q 37.796875 48.390625 30.609375 48.390625 
z
M 30.609375 56 
Q 42.328125 56 49.015625 48.375 
Q 55.71875 40.765625 55.71875 27.296875 
Q 55.71875 13.875 49.015625 6.21875 
Q 42.328125 -1.421875 30.609375 -1.421875 
Q 18.84375 -1.421875 12.171875 6.21875 
Q 5.515625 13.875 5.515625 27.296875 
Q 5.515625 40.765625 12.171875 48.375 
Q 18.84375 56 30.609375 56 
z
" id="DejaVuSans-6f"/>
      <path d="M 37.109375 75.984375 
L 37.109375 68.5 
L 28.515625 68.5 
Q 23.6875 68.5 21.796875 66.546875 
Q 19.921875 64.59375 19.921875 59.515625 
L 19.921875 54.6875 
L 34.71875 54.6875 
L 34.71875 47.703125 
L 19.921875 47.703125 
L 19.921875 0 
L 10.890625 0 
L 10.890625 47.703125 
L 2.296875 47.703125 
L 2.296875 54.6875 
L 10.890625 54.6875 
L 10.890625 58.5 
Q 10.890625 67.625 15.140625 71.796875 
Q 19.390625 75.984375 28.609375 75.984375 
z
" id="DejaVuSans-66"/>
      <path d="M 53.515625 70.515625 
L 53.515625 60.890625 
Q 47.90625 63.578125 42.921875 64.890625 
Q 37.9375 66.21875 33.296875 66.21875 
Q 25.25 66.21875 20.875 63.09375 
Q 16.5 59.96875 16.5 54.203125 
Q 16.5 49.359375 19.40625 46.890625 
Q 22.3125 44.4375 30.421875 42.921875 
L 36.375 41.703125 
Q 47.40625 39.59375 52.65625 34.296875 
Q 57.90625 29 57.90625 20.125 
Q 57.90625 9.515625 50.796875 4.046875 
Q 43.703125 -1.421875 29.984375 -1.421875 
Q 24.8125 -1.421875 18.96875 -0.25 
Q 13.140625 0.921875 6.890625 3.21875 
L 6.890625 13.375 
Q 12.890625 10.015625 18.65625 8.296875 
Q 24.421875 6.59375 29.984375 6.59375 
Q 38.421875 6.59375 43.015625 9.90625 
Q 47.609375 13.234375 47.609375 19.390625 
Q 47.609375 24.75 44.3125 27.78125 
Q 41.015625 30.8125 33.5 32.328125 
L 27.484375 33.5 
Q 16.453125 35.6875 11.515625 40.375 
Q 6.59375 45.0625 6.59375 53.421875 
Q 6.59375 63.09375 13.40625 68.65625 
Q 20.21875 74.21875 32.171875 74.21875 
Q 37.3125 74.21875 42.625 73.28125 
Q 47.953125 72.359375 53.515625 70.515625 
z
" id="DejaVuSans-53"/>
      <path d="M 18.3125 70.21875 
L 18.3125 54.6875 
L 36.8125 54.6875 
L 36.8125 47.703125 
L 18.3125 47.703125 
L 18.3125 18.015625 
Q 18.3125 11.328125 20.140625 9.421875 
Q 21.96875 7.515625 27.59375 7.515625 
L 36.8125 7.515625 
L 36.8125 0 
L 27.59375 0 
Q 17.1875 0 13.234375 3.875 
Q 9.28125 7.765625 9.28125 18.015625 
L 9.28125 47.703125 
L 2.6875 47.703125 
L 2.6875 54.6875 
L 9.28125 54.6875 
L 9.28125 70.21875 
z
" id="DejaVuSans-74"/>
      <path d="M 18.109375 8.203125 
L 18.109375 -20.796875 
L 9.078125 -20.796875 
L 9.078125 54.6875 
L 18.109375 54.6875 
L 18.109375 46.390625 
Q 20.953125 51.265625 25.265625 53.625 
Q 29.59375 56 35.59375 56 
Q 45.5625 56 51.78125 48.09375 
Q 58.015625 40.1875 58.015625 27.296875 
Q 58.015625 14.40625 51.78125 6.484375 
Q 45.5625 -1.421875 35.59375 -1.421875 
Q 29.59375 -1.421875 25.265625 0.953125 
Q 20.953125 3.328125 18.109375 8.203125 
z
M 48.6875 27.296875 
Q 48.6875 37.203125 44.609375 42.84375 
Q 40.53125 48.484375 33.40625 48.484375 
Q 26.265625 48.484375 22.1875 42.84375 
Q 18.109375 37.203125 18.109375 27.296875 
Q 18.109375 17.390625 22.1875 11.75 
Q 26.265625 6.109375 33.40625 6.109375 
Q 40.53125 6.109375 44.609375 11.75 
Q 48.6875 17.390625 48.6875 27.296875 
z
" id="DejaVuSans-70"/>
      <path d="M 44.28125 53.078125 
L 44.28125 44.578125 
Q 40.484375 46.53125 36.375 47.5 
Q 32.28125 48.484375 27.875 48.484375 
Q 21.1875 48.484375 17.84375 46.4375 
Q 14.5 44.390625 14.5 40.28125 
Q 14.5 37.15625 16.890625 35.375 
Q 19.28125 33.59375 26.515625 31.984375 
L 29.59375 31.296875 
Q 39.15625 29.25 43.1875 25.515625 
Q 47.21875 21.78125 47.21875 15.09375 
Q 47.21875 7.46875 41.1875 3.015625 
Q 35.15625 -1.421875 24.609375 -1.421875 
Q 20.21875 -1.421875 15.453125 -0.5625 
Q 10.6875 0.296875 5.421875 2 
L 5.421875 11.28125 
Q 10.40625 8.6875 15.234375 7.390625 
Q 20.0625 6.109375 24.8125 6.109375 
Q 31.15625 6.109375 34.5625 8.28125 
Q 37.984375 10.453125 37.984375 14.40625 
Q 37.984375 18.0625 35.515625 20.015625 
Q 33.0625 21.96875 24.703125 23.78125 
L 21.578125 24.515625 
Q 13.234375 26.265625 9.515625 29.90625 
Q 5.8125 33.546875 5.8125 39.890625 
Q 5.8125 47.609375 11.28125 51.796875 
Q 16.75 56 26.8125 56 
Q 31.78125 56 36.171875 55.265625 
Q 40.578125 54.546875 44.28125 53.078125 
z
" id="DejaVuSans-73"/>
     </defs>
     <g transform="translate(194.086562 335.860562)scale(0.1 -0.1)">
      <use xlink:href="#DejaVuSans-4e"/>
      <use x="74.804688" xlink:href="#DejaVuSans-75"/>
      <use x="138.183594" xlink:href="#DejaVuSans-6d"/>
      <use x="235.595703" xlink:href="#DejaVuSans-62"/>
      <use x="299.072266" xlink:href="#DejaVuSans-65"/>
      <use x="360.595703" xlink:href="#DejaVuSans-72"/>
      <use x="401.708984" xlink:href="#DejaVuSans-20"/>
      <use x="433.496094" xlink:href="#DejaVuSans-6f"/>
      <use x="494.677734" xlink:href="#DejaVuSans-66"/>
      <use x="529.882812" xlink:href="#DejaVuSans-20"/>
      <use x="561.669922" xlink:href="#DejaVuSans-53"/>
      <use x="625.146484" xlink:href="#DejaVuSans-74"/>
      <use x="664.355469" xlink:href="#DejaVuSans-65"/>
      <use x="725.878906" xlink:href="#DejaVuSans-70"/>
      <use x="789.355469" xlink:href="#DejaVuSans-73"/>
     </g>
    </g>
   </g>
   <g id="matplotlib.axis_2">
    <g id="ytick_1">
     <g id="line2d_10">
      <defs>
       <path d="M 0 0 
L -3.5 0 
" id="m659603c03c" style="stroke:#000000;stroke-width:0.8;"/>
      </defs>
      <g>
       <use style="stroke:#000000;stroke-width:0.8;" x="57.6" xlink:href="#m659603c03c" y="290.348822"/>
      </g>
     </g>
     <g id="text_11">
      <!-- 60 -->
      <defs>
       <path d="M 33.015625 40.375 
Q 26.375 40.375 22.484375 35.828125 
Q 18.609375 31.296875 18.609375 23.390625 
Q 18.609375 15.53125 22.484375 10.953125 
Q 26.375 6.390625 33.015625 6.390625 
Q 39.65625 6.390625 43.53125 10.953125 
Q 47.40625 15.53125 47.40625 23.390625 
Q 47.40625 31.296875 43.53125 35.828125 
Q 39.65625 40.375 33.015625 40.375 
z
M 52.59375 71.296875 
L 52.59375 62.3125 
Q 48.875 64.0625 45.09375 64.984375 
Q 41.3125 65.921875 37.59375 65.921875 
Q 27.828125 65.921875 22.671875 59.328125 
Q 17.53125 52.734375 16.796875 39.40625 
Q 19.671875 43.65625 24.015625 45.921875 
Q 28.375 48.1875 33.59375 48.1875 
Q 44.578125 48.1875 50.953125 41.515625 
Q 57.328125 34.859375 57.328125 23.390625 
Q 57.328125 12.15625 50.6875 5.359375 
Q 44.046875 -1.421875 33.015625 -1.421875 
Q 20.359375 -1.421875 13.671875 8.265625 
Q 6.984375 17.96875 6.984375 36.375 
Q 6.984375 53.65625 15.1875 63.9375 
Q 23.390625 74.21875 37.203125 74.21875 
Q 40.921875 74.21875 44.703125 73.484375 
Q 48.484375 72.75 52.59375 71.296875 
z
" id="DejaVuSans-36"/>
      </defs>
      <g transform="translate(37.875 294.148041)scale(0.1 -0.1)">
       <use xlink:href="#DejaVuSans-36"/>
       <use x="63.623047" xlink:href="#DejaVuSans-30"/>
      </g>
     </g>
    </g>
    <g id="ytick_2">
     <g id="line2d_11">
      <g>
       <use style="stroke:#000000;stroke-width:0.8;" x="57.6" xlink:href="#m659603c03c" y="247.737551"/>
      </g>
     </g>
     <g id="text_12">
      <!-- 65 -->
      <g transform="translate(37.875 251.53677)scale(0.1 -0.1)">
       <use xlink:href="#DejaVuSans-36"/>
       <use x="63.623047" xlink:href="#DejaVuSans-35"/>
      </g>
     </g>
    </g>
    <g id="ytick_3">
     <g id="line2d_12">
      <g>
       <use style="stroke:#000000;stroke-width:0.8;" x="57.6" xlink:href="#m659603c03c" y="205.12628"/>
      </g>
     </g>
     <g id="text_13">
      <!-- 70 -->
      <g transform="translate(37.875 208.925499)scale(0.1 -0.1)">
       <use xlink:href="#DejaVuSans-37"/>
       <use x="63.623047" xlink:href="#DejaVuSans-30"/>
      </g>
     </g>
    </g>
    <g id="ytick_4">
     <g id="line2d_13">
      <g>
       <use style="stroke:#000000;stroke-width:0.8;" x="57.6" xlink:href="#m659603c03c" y="162.515009"/>
      </g>
     </g>
     <g id="text_14">
      <!-- 75 -->
      <g transform="translate(37.875 166.314228)scale(0.1 -0.1)">
       <use xlink:href="#DejaVuSans-37"/>
       <use x="63.623047" xlink:href="#DejaVuSans-35"/>
      </g>
     </g>
    </g>
    <g id="ytick_5">
     <g id="line2d_14">
      <g>
       <use style="stroke:#000000;stroke-width:0.8;" x="57.6" xlink:href="#m659603c03c" y="119.903738"/>
      </g>
     </g>
     <g id="text_15">
      <!-- 80 -->
      <defs>
       <path d="M 31.78125 34.625 
Q 24.75 34.625 20.71875 30.859375 
Q 16.703125 27.09375 16.703125 20.515625 
Q 16.703125 13.921875 20.71875 10.15625 
Q 24.75 6.390625 31.78125 6.390625 
Q 38.8125 6.390625 42.859375 10.171875 
Q 46.921875 13.96875 46.921875 20.515625 
Q 46.921875 27.09375 42.890625 30.859375 
Q 38.875 34.625 31.78125 34.625 
z
M 21.921875 38.8125 
Q 15.578125 40.375 12.03125 44.71875 
Q 8.5 49.078125 8.5 55.328125 
Q 8.5 64.0625 14.71875 69.140625 
Q 20.953125 74.21875 31.78125 74.21875 
Q 42.671875 74.21875 48.875 69.140625 
Q 55.078125 64.0625 55.078125 55.328125 
Q 55.078125 49.078125 51.53125 44.71875 
Q 48 40.375 41.703125 38.8125 
Q 48.828125 37.15625 52.796875 32.3125 
Q 56.78125 27.484375 56.78125 20.515625 
Q 56.78125 9.90625 50.3125 4.234375 
Q 43.84375 -1.421875 31.78125 -1.421875 
Q 19.734375 -1.421875 13.25 4.234375 
Q 6.78125 9.90625 6.78125 20.515625 
Q 6.78125 27.484375 10.78125 32.3125 
Q 14.796875 37.15625 21.921875 38.8125 
z
M 18.3125 54.390625 
Q 18.3125 48.734375 21.84375 45.5625 
Q 25.390625 42.390625 31.78125 42.390625 
Q 38.140625 42.390625 41.71875 45.5625 
Q 45.3125 48.734375 45.3125 54.390625 
Q 45.3125 60.0625 41.71875 63.234375 
Q 38.140625 66.40625 31.78125 66.40625 
Q 25.390625 66.40625 21.84375 63.234375 
Q 18.3125 60.0625 18.3125 54.390625 
z
" id="DejaVuSans-38"/>
      </defs>
      <g transform="translate(37.875 123.702957)scale(0.1 -0.1)">
       <use xlink:href="#DejaVuSans-38"/>
       <use x="63.623047" xlink:href="#DejaVuSans-30"/>
      </g>
     </g>
    </g>
    <g id="ytick_6">
     <g id="line2d_15">
      <g>
       <use style="stroke:#000000;stroke-width:0.8;" x="57.6" xlink:href="#m659603c03c" y="77.292468"/>
      </g>
     </g>
     <g id="text_16">
      <!-- 85 -->
      <g transform="translate(37.875 81.091686)scale(0.1 -0.1)">
       <use xlink:href="#DejaVuSans-38"/>
       <use x="63.623047" xlink:href="#DejaVuSans-35"/>
      </g>
     </g>
    </g>
    <g id="text_17">
     <!-- Distance -->
     <defs>
      <path d="M 19.671875 64.796875 
L 19.671875 8.109375 
L 31.59375 8.109375 
Q 46.6875 8.109375 53.6875 14.9375 
Q 60.6875 21.78125 60.6875 36.53125 
Q 60.6875 51.171875 53.6875 57.984375 
Q 46.6875 64.796875 31.59375 64.796875 
z
M 9.8125 72.90625 
L 30.078125 72.90625 
Q 51.265625 72.90625 61.171875 64.09375 
Q 71.09375 55.28125 71.09375 36.53125 
Q 71.09375 17.671875 61.125 8.828125 
Q 51.171875 0 30.078125 0 
L 9.8125 0 
z
" id="DejaVuSans-44"/>
      <path d="M 9.421875 54.6875 
L 18.40625 54.6875 
L 18.40625 0 
L 9.421875 0 
z
M 9.421875 75.984375 
L 18.40625 75.984375 
L 18.40625 64.59375 
L 9.421875 64.59375 
z
" id="DejaVuSans-69"/>
      <path d="M 34.28125 27.484375 
Q 23.390625 27.484375 19.1875 25 
Q 14.984375 22.515625 14.984375 16.5 
Q 14.984375 11.71875 18.140625 8.90625 
Q 21.296875 6.109375 26.703125 6.109375 
Q 34.1875 6.109375 38.703125 11.40625 
Q 43.21875 16.703125 43.21875 25.484375 
L 43.21875 27.484375 
z
M 52.203125 31.203125 
L 52.203125 0 
L 43.21875 0 
L 43.21875 8.296875 
Q 40.140625 3.328125 35.546875 0.953125 
Q 30.953125 -1.421875 24.3125 -1.421875 
Q 15.921875 -1.421875 10.953125 3.296875 
Q 6 8.015625 6 15.921875 
Q 6 25.140625 12.171875 29.828125 
Q 18.359375 34.515625 30.609375 34.515625 
L 43.21875 34.515625 
L 43.21875 35.40625 
Q 43.21875 41.609375 39.140625 45 
Q 35.0625 48.390625 27.6875 48.390625 
Q 23 48.390625 18.546875 47.265625 
Q 14.109375 46.140625 10.015625 43.890625 
L 10.015625 52.203125 
Q 14.9375 54.109375 19.578125 55.046875 
Q 24.21875 56 28.609375 56 
Q 40.484375 56 46.34375 49.84375 
Q 52.203125 43.703125 52.203125 31.203125 
z
" id="DejaVuSans-61"/>
      <path d="M 54.890625 33.015625 
L 54.890625 0 
L 45.90625 0 
L 45.90625 32.71875 
Q 45.90625 40.484375 42.875 44.328125 
Q 39.84375 48.1875 33.796875 48.1875 
Q 26.515625 48.1875 22.3125 43.546875 
Q 18.109375 38.921875 18.109375 30.90625 
L 18.109375 0 
L 9.078125 0 
L 9.078125 54.6875 
L 18.109375 54.6875 
L 18.109375 46.1875 
Q 21.34375 51.125 25.703125 53.5625 
Q 30.078125 56 35.796875 56 
Q 45.21875 56 50.046875 50.171875 
Q 54.890625 44.34375 54.890625 33.015625 
z
" id="DejaVuSans-6e"/>
      <path d="M 48.78125 52.59375 
L 48.78125 44.1875 
Q 44.96875 46.296875 41.140625 47.34375 
Q 37.3125 48.390625 33.40625 48.390625 
Q 24.65625 48.390625 19.8125 42.84375 
Q 14.984375 37.3125 14.984375 27.296875 
Q 14.984375 17.28125 19.8125 11.734375 
Q 24.65625 6.203125 33.40625 6.203125 
Q 37.3125 6.203125 41.140625 7.25 
Q 44.96875 8.296875 48.78125 10.40625 
L 48.78125 2.09375 
Q 45.015625 0.34375 40.984375 -0.53125 
Q 36.96875 -1.421875 32.421875 -1.421875 
Q 20.0625 -1.421875 12.78125 6.34375 
Q 5.515625 14.109375 5.515625 27.296875 
Q 5.515625 40.671875 12.859375 48.328125 
Q 20.21875 56 33.015625 56 
Q 37.15625 56 41.109375 55.140625 
Q 45.0625 54.296875 48.78125 52.59375 
z
" id="DejaVuSans-63"/>
     </defs>
     <g transform="translate(31.795312 196.3905)rotate(-90)scale(0.1 -0.1)">
      <use xlink:href="#DejaVuSans-44"/>
      <use x="77.001953" xlink:href="#DejaVuSans-69"/>
      <use x="104.785156" xlink:href="#DejaVuSans-73"/>
      <use x="156.884766" xlink:href="#DejaVuSans-74"/>
      <use x="196.09375" xlink:href="#DejaVuSans-61"/>
      <use x="257.373047" xlink:href="#DejaVuSans-6e"/>
      <use x="320.751953" xlink:href="#DejaVuSans-63"/>
      <use x="375.732422" xlink:href="#DejaVuSans-65"/>
     </g>
    </g>
   </g>
   <g id="line2d_16">
    <path clip-path="url(#p67127db7e1)" d="M 73.832727 199.069701 
L 74.15722 187.017413 
L 74.806204 210.999018 
L 75.130696 198.94919 
L 75.779681 223.174275 
L 76.428666 198.94919 
L 76.753158 210.999018 
L 77.726635 174.849249 
L 78.375619 198.587802 
L 78.700112 186.544956 
L 79.024604 198.94919 
L 79.673589 174.849249 
L 79.998081 186.899265 
L 80.647066 162.912838 
L 81.620542 198.94919 
L 81.945035 186.544956 
L 82.269527 198.587802 
L 82.594019 186.899265 
L 83.567496 222.672315 
L 83.891989 210.630263 
L 84.540973 235.098362 
L 85.51445 198.587802 
L 85.838942 210.016181 
L 86.163435 197.985969 
L 86.487927 210.630263 
L 87.785896 162.458197 
L 88.434881 185.954894 
L 88.759373 173.923006 
L 89.083865 186.544956 
L 90.057342 150.748965 
L 91.030819 187.017413 
L 91.679804 162.458197 
L 92.004296 174.501747 
L 92.653281 150.748965 
L 93.626758 186.544956 
L 93.95125 173.923006 
L 94.275742 185.954894 
L 94.600234 174.501747 
L 95.249219 198.94919 
L 96.222696 161.096208 
L 96.547188 173.113662 
L 97.196173 149.856967 
L 98.494142 197.14441 
L 99.143127 172.074607 
L 99.467619 184.070485 
L 99.792111 173.113662 
L 100.765588 210.016181 
L 101.739065 174.501747 
L 103.037034 221.169036 
L 103.686019 196.064124 
L 104.010511 208.055387 
L 104.335003 197.14441 
L 104.983988 222.672315 
L 105.30848 210.630263 
L 105.957465 234.073793 
L 106.930942 198.587802 
L 107.255434 210.630263 
L 107.904419 185.954894 
L 108.553403 210.630263 
L 110.500357 138.370143 
L 111.149342 161.890349 
L 111.473834 149.856967 
L 111.798326 162.458197 
L 112.447311 138.808263 
L 112.771803 150.860551 
L 113.420788 126.648375 
L 114.394265 162.912838 
L 114.718757 150.860551 
L 115.367742 174.849249 
L 116.016726 150.860551 
L 116.665711 174.849249 
L 117.639188 138.370143 
L 118.612665 173.923006 
L 119.261649 148.076624 
L 119.586141 160.076614 
L 120.235126 137.057515 
L 121.208603 172.074607 
L 121.533095 158.83264 
L 121.857588 170.806974 
L 122.18208 160.076614 
L 123.155557 196.064124 
L 123.480049 182.778282 
L 123.804541 194.746385 
L 124.129034 184.070485 
L 125.102511 220.044127 
L 125.427003 232.030185 
L 125.913741 213.401564 
L 126.075987 206.71109 
L 126.40048 218.672186 
L 126.724972 208.055387 
L 127.698449 245.186748 
L 128.671926 210.016181 
L 129.32091 235.098362 
L 129.645403 223.048744 
L 130.294387 246.755085 
L 131.267864 210.999018 
L 131.592357 223.048744 
L 132.241341 198.587802 
L 133.377064 238.634534 
L 133.863803 255.99355 
L 134.350541 237.346089 
L 134.512787 230.629447 
L 134.83728 242.582628 
L 135.161772 232.030185 
L 135.810756 258.127245 
L 136.135249 246.101073 
L 136.784233 269.196609 
L 137.75771 234.073793 
L 138.082203 246.101073 
L 138.731187 221.169036 
L 139.380172 246.101073 
L 140.029156 222.672315 
L 140.678141 247.27885 
L 141.002633 235.226563 
L 141.651618 259.19724 
L 142.625095 223.174275 
L 142.949587 235.226563 
L 143.598572 210.999018 
L 144.572049 246.101073 
L 144.896541 234.073793 
L 145.870018 270.835877 
L 146.843495 235.098362 
L 147.492479 259.19724 
L 147.816972 247.147863 
L 148.465956 271.383425 
L 149.439433 235.098362 
L 149.763925 246.755085 
L 150.088418 234.713932 
L 150.41291 247.147863 
L 151.061895 223.174275 
L 152.684356 282.175958 
L 153.333341 258.127245 
L 153.982325 283.295589 
L 154.306818 271.246485 
L 154.955802 294.914407 
L 155.929279 259.19724 
L 156.253771 271.246485 
L 156.902756 246.755085 
L 157.55174 271.246485 
L 158.200725 247.27885 
L 158.84971 270.835877 
L 159.174202 258.795745 
L 159.823187 283.295589 
L 160.796663 246.755085 
L 161.121156 258.127245 
L 161.445648 246.101073 
L 161.77014 258.795745 
L 162.419125 235.098362 
L 163.392602 269.196609 
L 163.717094 257.192725 
L 164.366079 282.175958 
L 165.664048 233.178811 
L 166.313033 255.99355 
L 166.637525 244.013389 
L 166.962017 257.192725 
L 167.935494 222.045475 
L 168.908971 258.795745 
L 170.20694 209.157535 
L 170.855925 232.030185 
L 171.180417 220.044127 
L 171.504909 233.178811 
L 172.153894 210.016181 
L 172.802879 234.713932 
L 173.127371 222.672315 
L 173.776355 246.101073 
L 174.42534 222.672315 
L 175.723309 271.246485 
L 176.047802 259.19724 
L 177.021278 295.488 
L 177.994755 259.19724 
L 178.968232 294.914407 
L 179.941709 258.127245 
L 180.590694 279.943904 
L 180.915186 267.970463 
L 181.564171 293.197508 
L 182.537648 255.99355 
L 182.86214 266.475654 
L 183.186632 254.531461 
L 183.511124 267.970463 
L 184.322355 238.634534 
L 184.484601 232.030185 
L 184.809094 242.582628 
L 185.133586 230.629447 
L 185.458078 244.013389 
L 186.431555 208.055387 
L 186.756047 196.064124 
L 187.405032 218.672186 
L 187.729524 206.71109 
L 188.054017 220.044127 
L 189.027494 185.129757 
L 190.00097 222.045475 
L 190.325463 210.016181 
L 191.623432 252.808558 
L 191.947924 240.896435 
L 192.272417 254.531461 
L 192.759155 235.803828 
L 193.245893 217.054951 
L 193.732632 234.009819 
L 193.894878 238.957106 
L 194.21937 227.07934 
L 194.543863 240.896435 
L 195.192847 218.672186 
L 195.679586 237.346089 
L 195.841832 244.013389 
L 196.32857 225.375495 
L 196.490816 218.672186 
L 196.815309 230.629447 
L 197.626539 201.424497 
L 198.113278 182.778282 
L 198.762263 205.12628 
L 199.086755 193.192737 
L 199.411247 206.71109 
L 200.384724 172.074607 
L 201.358201 209.157535 
L 202.007185 184.070485 
L 202.65617 158.83264 
L 203.305155 181.254603 
L 203.629647 169.312139 
L 203.954139 182.778282 
L 204.603124 161.096208 
L 204.927616 173.113662 
L 205.576601 148.076624 
L 206.550078 185.129757 
L 206.87457 173.113662 
L 207.523555 196.064124 
L 208.172539 173.113662 
L 208.821524 197.985969 
L 209.146016 185.954894 
L 210.443985 230.629447 
L 210.930724 211.921916 
L 211.09297 205.12628 
L 211.417462 215.194453 
L 211.741954 203.302869 
L 212.066447 217.054951 
L 212.877678 188.022592 
L 213.039924 181.254603 
L 213.364416 191.404981 
L 213.688908 179.501149 
L 214.013401 193.192737 
L 214.824631 164.107815 
L 215.31137 145.415164 
L 215.798108 162.515009 
L 215.960354 167.591708 
L 216.284847 155.676969 
L 216.609339 169.312139 
L 217.582816 134.875544 
L 218.556293 172.074607 
L 219.52977 137.057515 
L 220.503247 173.923006 
L 220.827739 161.890349 
L 221.476723 185.129757 
L 222.287954 153.488344 
L 223.099185 121.503538 
L 223.74817 143.757219 
L 224.072662 131.832726 
L 224.397154 145.415164 
L 225.046139 124.071074 
L 225.370631 136.074743 
L 226.019616 110.908188 
L 226.993093 148.076624 
L 227.317585 136.074743 
L 227.966569 158.83264 
L 228.615554 136.074743 
L 229.264539 161.096208 
L 229.913523 136.074743 
L 230.238016 148.076624 
L 230.887 125.788182 
L 231.211492 137.8229 
L 231.860477 113.014217 
L 232.833954 149.856967 
L 233.158446 137.8229 
L 234.943154 196.36401 
L 235.1054 201.243031 
L 235.429892 189.385167 
L 235.754385 203.302869 
L 236.078877 191.404981 
L 236.727862 165.647512 
L 237.2146 182.367692 
L 237.376846 187.135584 
L 237.701338 175.312884 
L 238.025831 189.385167 
L 238.674815 167.591708 
L 238.999308 179.501149 
L 239.3238 193.192737 
L 239.810538 174.443849 
L 239.972785 167.591708 
L 240.297277 179.501149 
L 240.946261 157.365585 
L 241.270754 143.757219 
L 241.595246 153.768524 
L 241.919738 141.883251 
L 242.244231 155.676969 
L 242.893215 133.461084 
L 243.5422 107.970489 
L 244.028938 124.982745 
L 244.191184 129.992025 
L 244.515677 118.095158 
L 244.840169 131.832726 
L 245.813646 97.578754 
L 246.787123 134.875544 
L 247.7606 100.058733 
L 248.734077 137.057515 
L 249.383061 114.280931 
L 249.707553 126.325674 
L 250.356538 101.716934 
L 251.330015 138.370143 
L 251.654507 126.325674 
L 252.303492 149.856967 
L 253.276969 112.065708 
L 253.925953 86.931602 
L 254.574938 110.908188 
L 255.223923 88.966779 
L 255.548415 100.990989 
L 256.197399 76.040277 
L 257.170876 113.014217 
L 257.495369 100.990989 
L 258.144353 124.071074 
L 258.793338 100.990989 
L 259.442322 125.788182 
L 260.091307 102.54751 
L 260.415799 114.597975 
L 261.064784 90.190679 
L 262.038261 126.648375 
L 262.362753 114.703689 
L 262.687245 126.755976 
L 263.011738 114.597975 
L 263.660722 138.370143 
L 264.634199 100.990989 
L 264.958692 113.014217 
L 265.932168 77.643469 
L 266.905645 114.280931 
L 267.55463 90.599114 
L 267.879122 102.651401 
L 268.528107 78.446397 
L 269.501584 114.703689 
L 269.826076 102.54751 
L 270.150568 114.597975 
L 270.475061 102.651401 
L 271.124045 126.648375 
L 272.097522 90.190679 
L 272.422014 102.235928 
L 273.070999 78.446397 
L 274.368968 126.325674 
L 275.017953 101.716934 
L 275.342445 113.75285 
L 275.666937 102.235928 
L 276.640414 138.698706 
L 277.613891 102.651401 
L 278.587368 138.370143 
L 278.91186 125.788182 
L 279.236353 137.8229 
L 279.560845 126.325674 
L 280.20983 150.748965 
L 280.858814 126.755976 
L 281.183307 138.808263 
L 281.832291 114.597975 
L 282.481276 138.808263 
L 284.42823 64.915606 
L 285.077214 88.966779 
L 285.726199 66.099488 
L 286.050691 78.145195 
L 286.699676 53.568 
L 287.673153 90.190679 
L 287.997645 78.145195 
L 288.646629 101.716934 
L 289.295614 78.145195 
L 289.944599 102.54751 
L 290.918076 66.494539 
L 291.891552 102.54751 
L 292.540537 77.643469 
L 292.865029 89.680465 
L 293.514014 66.099488 
L 294.487491 101.716934 
L 294.811983 88.966779 
L 295.136475 100.990989 
L 295.460968 89.680465 
L 296.434445 125.788182 
L 296.758937 113.014217 
L 297.083429 125.036411 
L 297.407921 113.75285 
L 298.056906 138.370143 
L 299.030383 100.058733 
L 299.354875 112.065708 
L 299.679368 100.990989 
L 300.652844 136.074743 
L 301.301829 110.908188 
L 301.626321 122.893081 
L 301.950814 112.065708 
L 302.599798 137.057515 
L 303.248783 113.75285 
L 303.897767 137.057515 
L 304.22226 125.036411 
L 304.871244 149.856967 
L 305.844721 114.597975 
L 306.493706 138.370143 
L 307.791675 86.931602 
L 308.116167 98.92099 
L 308.765152 76.040277 
L 309.738629 110.908188 
L 310.063121 97.578754 
L 310.387613 109.542705 
L 310.712106 98.92099 
L 311.685583 134.875544 
L 312.010075 146.855445 
L 312.496813 128.210274 
L 312.65906 121.503538 
L 312.983552 133.461084 
L 313.308044 122.893081 
L 313.957029 148.076624 
L 314.606013 125.036411 
L 314.930506 137.057515 
L 316.228475 84.092053 
L 316.552967 96.033193 
L 317.201952 73.642109 
L 318.337675 113.06695 
L 318.499921 119.903738 
L 318.986659 101.146485 
L 319.148906 94.285639 
L 319.473398 106.192939 
L 319.79789 96.033193 
L 320.446875 121.503538 
L 321.095859 98.92099 
L 321.744844 121.503538 
L 322.069336 109.542705 
L 323.042813 145.415164 
L 323.367305 157.365585 
L 323.854044 138.643934 
L 324.01629 131.832726 
L 324.340782 143.757219 
L 324.665275 133.461084 
L 325.314259 158.83264 
L 325.963244 136.074743 
L 326.287736 148.076624 
L 327.261213 109.542705 
L 327.910198 131.832726 
L 328.23469 118.095158 
L 328.559182 129.992025 
L 328.883675 119.903738 
L 329.694905 150.581622 
L 330.181644 167.591708 
L 330.506136 155.676969 
L 330.830628 141.883251 
L 331.155121 153.768524 
L 331.479613 143.757219 
L 332.45309 181.254603 
L 333.426567 146.855445 
L 333.751059 158.83264 
L 335.049028 104.211628 
L 335.373521 116.07945 
L 335.698013 106.192939 
L 336.184751 123.053596 
L 336.67149 139.795094 
L 336.995982 127.940723 
L 337.320474 113.858434 
L 337.644967 125.680735 
L 337.969459 116.07945 
L 338.618444 141.883251 
L 339.105182 124.982745 
L 339.267428 119.903738 
L 339.754167 136.893619 
L 339.916413 141.883251 
L 340.240905 129.992025 
L 341.052136 160.699507 
L 341.538874 177.519855 
L 341.863366 165.647512 
L 342.187859 151.642187 
L 342.512351 163.481596 
L 342.836843 153.768524 
L 343.81032 191.404981 
L 344.134813 179.501149 
L 344.621551 162.515009 
L 344.783797 157.365585 
L 345.270536 174.443849 
L 346.081766 201.243031 
L 346.406259 189.385167 
L 346.730751 175.312884 
L 347.055243 187.135584 
L 347.379736 177.519855 
L 348.02872 205.12628 
L 348.353212 193.192737 
L 349.002197 215.194453 
L 349.326689 203.302869 
L 349.813428 186.367878 
L 349.975674 181.254603 
L 350.300166 193.192737 
L 350.949151 167.591708 
L 351.598135 193.192737 
L 352.084874 176.067024 
L 352.24712 170.806974 
L 352.571612 182.778282 
L 353.869582 129.992025 
L 354.35632 146.799991 
L 354.518566 151.642187 
L 354.843058 137.49477 
L 355.167551 149.300088 
L 355.492043 139.795094 
L 356.303274 170.519231 
L 356.46552 175.312884 
L 356.790012 161.096208 
L 357.114505 172.882613 
L 357.438997 163.481596 
L 358.250228 194.208134 
L 358.736966 210.753156 
L 359.061458 198.94919 
L 359.385951 184.658745 
L 359.710443 196.424005 
L 360.034935 187.135584 
L 361.008412 224.934579 
L 361.332904 213.092998 
L 361.819643 196.36401 
L 361.981889 191.404981 
L 362.955366 228.978446 
L 363.766597 199.974301 
L 363.928843 194.746385 
L 364.253335 206.71109 
L 364.90232 181.254603 
L 365.389058 198.28681 
L 366.524781 234.329762 
L 366.849274 222.546892 
L 367.173766 208.177747 
L 367.498258 219.919271 
L 367.82275 210.753156 
L 368.471735 238.957106 
L 368.796227 227.07934 
L 369.445212 248.590433 
L 369.769704 236.767248 
L 370.256443 220.106565 
L 370.418689 215.194453 
L 370.743181 227.07934 
L 371.392166 201.243031 
L 372.04115 227.07934 
L 372.527889 210.200338 
L 372.690135 205.12628 
L 373.176873 222.108128 
L 373.33912 227.07934 
L 373.663612 215.194453 
L 374.637089 252.808558 
L 374.961581 240.896435 
L 375.448319 223.865184 
L 375.610566 218.672186 
L 375.935058 230.629447 
L 377.882012 146.744542 
L 378.206504 158.493792 
L 378.530996 149.300088 
L 378.855489 161.096208 
L 379.504473 181.957374 
L 379.828966 170.231619 
L 380.153458 155.676969 
L 380.315704 160.020018 
L 380.47795 167.36267 
L 380.802442 158.493792 
L 381.451427 184.658745 
L 381.775919 172.882613 
L 382.100412 163.481596 
L 382.58715 180.026666 
L 382.749396 184.658745 
L 383.073889 172.882613 
L 383.722873 198.94919 
L 384.047365 208.177747 
L 384.371858 193.67036 
L 384.69635 205.369823 
L 385.020842 196.424005 
L 385.669827 222.546892 
L 386.318812 243.362589 
L 386.643304 231.647825 
L 386.967796 217.054951 
L 387.130042 221.356733 
L 387.292288 228.724868 
L 387.616781 219.919271 
L 388.265765 246.101073 
L 388.590258 257.860075 
L 388.91475 246.101073 
L 389.239242 234.329762 
L 389.563734 224.934579 
L 390.537211 262.689392 
L 390.861704 250.82729 
L 391.348442 234.009819 
L 391.510688 228.978446 
L 391.997427 245.90502 
L 392.808657 272.20581 
L 393.13315 260.403512 
L 393.457642 248.590433 
L 394.106627 276.613614 
L 394.431119 264.714427 
L 395.080104 286.387117 
L 395.404596 274.542867 
L 395.891334 257.793303 
L 396.05358 252.808558 
L 396.378073 266.475654 
L 396.702565 254.531461 
L 397.027057 264.714427 
L 397.676042 238.957106 
L 398.487273 273.23559 
L 398.487273 273.23559 
" style="fill:none;stroke:#1f77b4;stroke-linecap:square;stroke-width:1.5;"/>
   </g>
   <g id="patch_3">
    <path d="M 57.6 307.584 
L 57.6 41.472 
" style="fill:none;stroke:#000000;stroke-linecap:square;stroke-linejoin:miter;stroke-width:0.8;"/>
   </g>
   <g id="patch_4">
    <path d="M 414.72 307.584 
L 414.72 41.472 
" style="fill:none;stroke:#000000;stroke-linecap:square;stroke-linejoin:miter;stroke-width:0.8;"/>
   </g>
   <g id="patch_5">
    <path d="M 57.6 307.584 
L 414.72 307.584 
" style="fill:none;stroke:#000000;stroke-linecap:square;stroke-linejoin:miter;stroke-width:0.8;"/>
   </g>
   <g id="patch_6">
    <path d="M 57.6 41.472 
L 414.72 41.472 
" style="fill:none;stroke:#000000;stroke-linecap:square;stroke-linejoin:miter;stroke-width:0.8;"/>
   </g>
   <g id="text_18">
    <!-- Distance to Number of Steps, Spiral Pattern with 2001 Steps -->
    <defs>
     <path d="M 11.71875 12.40625 
L 22.015625 12.40625 
L 22.015625 4 
L 14.015625 -11.625 
L 7.71875 -11.625 
L 11.71875 4 
z
" id="DejaVuSans-2c"/>
     <path d="M 9.421875 75.984375 
L 18.40625 75.984375 
L 18.40625 0 
L 9.421875 0 
z
" id="DejaVuSans-6c"/>
     <path d="M 19.671875 64.796875 
L 19.671875 37.40625 
L 32.078125 37.40625 
Q 38.96875 37.40625 42.71875 40.96875 
Q 46.484375 44.53125 46.484375 51.125 
Q 46.484375 57.671875 42.71875 61.234375 
Q 38.96875 64.796875 32.078125 64.796875 
z
M 9.8125 72.90625 
L 32.078125 72.90625 
Q 44.34375 72.90625 50.609375 67.359375 
Q 56.890625 61.8125 56.890625 51.125 
Q 56.890625 40.328125 50.609375 34.8125 
Q 44.34375 29.296875 32.078125 29.296875 
L 19.671875 29.296875 
L 19.671875 0 
L 9.8125 0 
z
" id="DejaVuSans-50"/>
     <path d="M 4.203125 54.6875 
L 13.1875 54.6875 
L 24.421875 12.015625 
L 35.59375 54.6875 
L 46.1875 54.6875 
L 57.421875 12.015625 
L 68.609375 54.6875 
L 77.59375 54.6875 
L 63.28125 0 
L 52.6875 0 
L 40.921875 44.828125 
L 29.109375 0 
L 18.5 0 
z
" id="DejaVuSans-77"/>
     <path d="M 54.890625 33.015625 
L 54.890625 0 
L 45.90625 0 
L 45.90625 32.71875 
Q 45.90625 40.484375 42.875 44.328125 
Q 39.84375 48.1875 33.796875 48.1875 
Q 26.515625 48.1875 22.3125 43.546875 
Q 18.109375 38.921875 18.109375 30.90625 
L 18.109375 0 
L 9.078125 0 
L 9.078125 75.984375 
L 18.109375 75.984375 
L 18.109375 46.1875 
Q 21.34375 51.125 25.703125 53.5625 
Q 30.078125 56 35.796875 56 
Q 45.21875 56 50.046875 50.171875 
Q 54.890625 44.34375 54.890625 33.015625 
z
" id="DejaVuSans-68"/>
    </defs>
    <g transform="translate(54.321562 35.472)scale(0.12 -0.12)">
     <use xlink:href="#DejaVuSans-44"/>
     <use x="77.001953" xlink:href="#DejaVuSans-69"/>
     <use x="104.785156" xlink:href="#DejaVuSans-73"/>
     <use x="156.884766" xlink:href="#DejaVuSans-74"/>
     <use x="196.09375" xlink:href="#DejaVuSans-61"/>
     <use x="257.373047" xlink:href="#DejaVuSans-6e"/>
     <use x="320.751953" xlink:href="#DejaVuSans-63"/>
     <use x="375.732422" xlink:href="#DejaVuSans-65"/>
     <use x="437.255859" xlink:href="#DejaVuSans-20"/>
     <use x="469.042969" xlink:href="#DejaVuSans-74"/>
     <use x="508.251953" xlink:href="#DejaVuSans-6f"/>
     <use x="569.433594" xlink:href="#DejaVuSans-20"/>
     <use x="601.220703" xlink:href="#DejaVuSans-4e"/>
     <use x="676.025391" xlink:href="#DejaVuSans-75"/>
     <use x="739.404297" xlink:href="#DejaVuSans-6d"/>
     <use x="836.816406" xlink:href="#DejaVuSans-62"/>
     <use x="900.292969" xlink:href="#DejaVuSans-65"/>
     <use x="961.816406" xlink:href="#DejaVuSans-72"/>
     <use x="1002.929688" xlink:href="#DejaVuSans-20"/>
     <use x="1034.716797" xlink:href="#DejaVuSans-6f"/>
     <use x="1095.898438" xlink:href="#DejaVuSans-66"/>
     <use x="1131.103516" xlink:href="#DejaVuSans-20"/>
     <use x="1162.890625" xlink:href="#DejaVuSans-53"/>
     <use x="1226.367188" xlink:href="#DejaVuSans-74"/>
     <use x="1265.576172" xlink:href="#DejaVuSans-65"/>
     <use x="1327.099609" xlink:href="#DejaVuSans-70"/>
     <use x="1390.576172" xlink:href="#DejaVuSans-73"/>
     <use x="1442.675781" xlink:href="#DejaVuSans-2c"/>
     <use x="1474.462891" xlink:href="#DejaVuSans-20"/>
     <use x="1506.25" xlink:href="#DejaVuSans-53"/>
     <use x="1569.726562" xlink:href="#DejaVuSans-70"/>
     <use x="1633.203125" xlink:href="#DejaVuSans-69"/>
     <use x="1660.986328" xlink:href="#DejaVuSans-72"/>
     <use x="1702.099609" xlink:href="#DejaVuSans-61"/>
     <use x="1763.378906" xlink:href="#DejaVuSans-6c"/>
     <use x="1791.162109" xlink:href="#DejaVuSans-20"/>
     <use x="1822.949219" xlink:href="#DejaVuSans-50"/>
     <use x="1883.189453" xlink:href="#DejaVuSans-61"/>
     <use x="1944.46875" xlink:href="#DejaVuSans-74"/>
     <use x="1983.677734" xlink:href="#DejaVuSans-74"/>
     <use x="2022.886719" xlink:href="#DejaVuSans-65"/>
     <use x="2084.410156" xlink:href="#DejaVuSans-72"/>
     <use x="2125.507812" xlink:href="#DejaVuSans-6e"/>
     <use x="2188.886719" xlink:href="#DejaVuSans-20"/>
     <use x="2220.673828" xlink:href="#DejaVuSans-77"/>
     <use x="2302.460938" xlink:href="#DejaVuSans-69"/>
     <use x="2330.244141" xlink:href="#DejaVuSans-74"/>
     <use x="2369.453125" xlink:href="#DejaVuSans-68"/>
     <use x="2432.832031" xlink:href="#DejaVuSans-20"/>
     <use x="2464.619141" xlink:href="#DejaVuSans-32"/>
     <use x="2528.242188" xlink:href="#DejaVuSans-30"/>
     <use x="2591.865234" xlink:href="#DejaVuSans-30"/>
     <use x="2655.488281" xlink:href="#DejaVuSans-31"/>
     <use x="2719.111328" xlink:href="#DejaVuSans-20"/>
     <use x="2750.898438" xlink:href="#DejaVuSans-53"/>
     <use x="2814.375" xlink:href="#DejaVuSans-74"/>
     <use x="2853.583984" xlink:href="#DejaVuSans-65"/>
     <use x="2915.107422" xlink:href="#DejaVuSans-70"/>
     <use x="2978.583984" xlink:href="#DejaVuSans-73"/>
    </g>
   </g>
  </g>
 </g>
 <defs>
  <clipPath id="p67127db7e1">
   <rect height="266.112" width="357.12" x="57.6" y="41.472"/>
  </clipPath>
 </defs>
</svg>
